<svg xmlns="http://www.w3.org/2000/svg" xmlns:xlink="http://www.w3.org/1999/xlink" viewBox="0 0 756.37 536.95"><defs><style>.cls-1{fill:#414042;}.cls-2{fill:url(#radial-gradient);}</style><radialGradient id="radial-gradient" cx="264.06" cy="27.55" r="233.8" gradientUnits="userSpaceOnUse"><stop offset="0" stop-color="#bfd730"/><stop offset="0.12" stop-color="#b0d334"/><stop offset="0.51" stop-color="#86c63e"/><stop offset="0.82" stop-color="#6cbe44"/><stop offset="1" stop-color="#62bb46"/></radialGradient></defs><g id="Layer_2" data-name="Layer 2"><g id="Layer_1-2" data-name="Layer 1"><path class="cls-1" d="M155.05,265.83c-15.37-9-33-13.53-52.27-13.53s-36.94,4.55-52.43,13.52a99.92,99.92,0,0,0-36.83,36.82C4.55,318.12,0,335.88,0,355.42c0,19.27,4.42,36.89,13.13,52.35a98.89,98.89,0,0,0,35.75,36.85c15,9,32.25,13.57,51.15,13.57,17.94,0,34.26-4.2,48.49-12.49a95.18,95.18,0,0,0,15.87-11.59v2.13a19.7,19.7,0,0,0,6,14.64,21.81,21.81,0,0,0,29.16,0,19.69,19.69,0,0,0,6-14.64V355.4h0v0c-.25-19.51-4.91-37.23-13.86-52.68A100.44,100.44,0,0,0,155.05,265.83ZM134.71,411.5c-9.26,5.5-20,8.28-31.93,8.28a60.88,60.88,0,0,1-54.3-31.28,66,66,0,0,1-8.35-33.08c0-12.43,2.81-23.61,8.34-33.23a63,63,0,0,1,22.56-23,61,61,0,0,1,31.75-8.44c11.9,0,22.63,2.83,31.88,8.42a62.23,62.23,0,0,1,22.23,23c5.43,9.64,8.19,20.84,8.19,33.28a67.19,67.19,0,0,1-8.2,33.13A60.67,60.67,0,0,1,134.71,411.5Z"/><path class="cls-1" d="M312.79,415.66H303.5c-8.77,0-15.7-2.9-21.21-8.88-5.67-6.13-8.42-13.93-8.42-23.85V298.27h31.69A19.23,19.23,0,0,0,319.1,293a17.89,17.89,0,0,0,5.67-13.27,18.32,18.32,0,0,0-5.68-13.63,19.25,19.25,0,0,0-13.53-5.23H273.87V214.76a20.11,20.11,0,0,0-20.58-20.58,19.68,19.68,0,0,0-14.64,6,20.67,20.67,0,0,0-5.6,14.58V260.9H217.87a19.23,19.23,0,0,0-13.54,5.24,18.31,18.31,0,0,0-5.67,13.62A17.9,17.9,0,0,0,204.32,293a19.23,19.23,0,0,0,13.55,5.24h15.18v84.66c0,14,3.08,26.69,9.15,37.68a69.1,69.1,0,0,0,25.1,26.23c10.6,6.39,22.78,9.63,36.2,9.63h7.22a22.21,22.21,0,0,0,15-5.38,19.19,19.19,0,0,0,6.57-14.85A20.8,20.8,0,0,0,327,421.78,18.74,18.74,0,0,0,312.79,415.66Z"/><path class="cls-1" d="M477.71,265.64c-15.37-8.85-33.06-13.34-52.59-13.34s-37.26,4.48-52.73,13.32a97.42,97.42,0,0,0-36.72,36.72c-8.84,15.47-13.32,33.33-13.32,53.08,0,19.51,4.48,37.26,13.32,52.73a97.42,97.42,0,0,0,36.72,36.72c15.47,8.84,33.22,13.32,52.73,13.32s37.22-4.49,52.59-13.34a99,99,0,0,0,36.67-36.66c9-15.49,13.52-33.24,13.52-52.86-.25-19.72-4.85-37.55-13.67-53A97.77,97.77,0,0,0,477.71,265.64ZM425.12,419.78c-11.94,0-22.76-2.79-32.13-8.3a60.42,60.42,0,0,1-22.32-22.78c-5.44-9.64-8.19-20.84-8.19-33.28s2.76-23.72,8.2-33.48A60.17,60.17,0,0,1,393,299a62.52,62.52,0,0,1,32.13-8.3c11.95,0,22.76,2.79,32.14,8.3a58.87,58.87,0,0,1,22.1,22.88c5.35,9.77,8.07,21.05,8.07,33.53s-2.71,23.68-8.05,33.33a59.27,59.27,0,0,1-22.12,22.73C447.88,417,437.07,419.78,425.12,419.78Z"/><path class="cls-1" d="M742.85,302.64A100,100,0,0,0,706,265.82c-15.49-9-33.24-13.52-52.77-13.52-19.08,0-36.54,4.49-51.9,13.34a99.42,99.42,0,0,0-36.66,36.47c-9,15.34-13.63,32.79-13.87,51.93V516.37c0,6.08,1.92,11.08,5.71,14.87S565.32,537,571.4,537a20,20,0,0,0,14.52-5.71c3.79-3.79,5.71-8.79,5.71-14.87V434.06a95.27,95.27,0,0,0,19.6,13.51c13.47,7.05,28.65,10.62,45.11,10.62,18.89,0,36.1-4.57,51.14-13.57a98.89,98.89,0,0,0,35.75-36.85c8.72-15.47,13.14-33.08,13.14-52.35C756.37,335.89,751.82,318.13,742.85,302.64Zm-89.6-11.93a61,61,0,0,1,54.45,31.43c5.44,9.64,8.19,20.84,8.19,33.28a67.19,67.19,0,0,1-8.2,33.13,60.14,60.14,0,0,1-22.3,22.93,62.58,62.58,0,0,1-32.14,8.3,61.86,61.86,0,0,1-31.8-8.3,58.87,58.87,0,0,1-22.1-22.88,68.2,68.2,0,0,1-8.06-33.18c0-12.47,2.71-23.68,8-33.33a60.4,60.4,0,0,1,53.92-31.38Z"/><path class="cls-2" d="M181.68,155.71c4.37,5.39,18.2-1,30.11-11.58s21.4-17.43,28-13.47c11.64,7,8.36,21.22-22.41,53.37-30.13,31.49-64.79,47.94-100.68,49.3-36.55,1.39-41.5-7.66-27.07-27,21.81-29.21,96.29-136.19,115.79-164.28,18-25.87,29.3-45,38.65-41.68S254.18,15.15,242.23,39s-46,83.51-51.54,93.28S178.57,151.87,181.68,155.71Z"/><path class="cls-2" d="M325.6,155.71c-4.37,5.39-18.2-1-30.11-11.58s-21.39-17.43-28-13.47c-11.65,7-8.37,21.22,22.4,53.37C320,215.52,354.7,232,390.59,233.33c36.55,1.39,41.5-7.66,27.07-27C395.85,177.12,321.37,70.14,301.87,42.05c-18-25.87-29.3-45-38.65-41.68S253.1,15.15,265.05,39s46,83.51,51.54,93.28S328.71,151.87,325.6,155.71Z"/></g></g></svg>