<svg xmlns="http://www.w3.org/2000/svg" xmlns:xlink="http://www.w3.org/1999/xlink" viewBox="0 0 145.96 149.23"><defs><style>.cls-1{isolation:isolate;}.cls-2{fill:#3960ad;}.cls-3{fill:url(#linear-gradient);}.cls-4{fill:#fff;}.cls-5{fill:url(#linear-gradient-2);}.cls-6{fill:url(#linear-gradient-3);}.cls-7,.cls-8,.cls-9{mix-blend-mode:multiply;}.cls-7{fill:url(#linear-gradient-4);}.cls-8{fill:url(#linear-gradient-5);}.cls-9{fill:url(#linear-gradient-6);}.cls-10{fill:url(#linear-gradient-7);}</style><linearGradient id="linear-gradient" y1="63.55" x2="122.3" y2="63.55" gradientUnits="userSpaceOnUse"><stop offset="0" stop-color="#00b8ea"/><stop offset="0.11" stop-color="#08b9e2"/><stop offset="0.29" stop-color="#1cbccc"/><stop offset="0.5" stop-color="#3ec0a8"/><stop offset="0.75" stop-color="#6dc775"/><stop offset="1" stop-color="#a5ce3a"/></linearGradient><linearGradient id="linear-gradient-2" x1="10.06" y1="13.14" x2="111.06" y2="126.98" gradientUnits="userSpaceOnUse"><stop offset="0" stop-color="#f15722"/><stop offset="0.16" stop-color="#e9542a"/><stop offset="0.4" stop-color="#d44a40"/><stop offset="0.7" stop-color="#b03b64"/><stop offset="1" stop-color="#862990"/></linearGradient><linearGradient id="linear-gradient-3" x1="10.06" y1="13.14" x2="111.06" y2="126.98" gradientUnits="userSpaceOnUse"><stop offset="0.08" stop-color="#00bfed"/><stop offset="0.23" stop-color="#00abe0"/><stop offset="0.47" stop-color="#0081c5"/><stop offset="0.52" stop-color="#0377be"/><stop offset="0.67" stop-color="#0c5fac"/><stop offset="0.81" stop-color="#1151a1"/><stop offset="0.92" stop-color="#134c9d"/></linearGradient><linearGradient id="linear-gradient-4" x1="121.08" y1="44.66" x2="110.38" y2="27.96" gradientUnits="userSpaceOnUse"><stop offset="0" stop-color="#2f3191"/><stop offset="0.1" stop-color="#373995"/><stop offset="0.25" stop-color="#4d4fa1"/><stop offset="0.44" stop-color="#7173b4"/><stop offset="0.66" stop-color="#a4a5cf"/><stop offset="0.9" stop-color="#e3e4f0"/><stop offset="1" stop-color="#fff"/></linearGradient><linearGradient id="linear-gradient-5" x1="27.09" y1="102.02" x2="16.17" y2="82.55" gradientUnits="userSpaceOnUse"><stop offset="0" stop-color="#a11b48"/><stop offset="0.09" stop-color="#a4234e"/><stop offset="0.24" stop-color="#ad3960"/><stop offset="0.42" stop-color="#bc5d7d"/><stop offset="0.62" stop-color="#d190a6"/><stop offset="0.85" stop-color="#ebcfd9"/><stop offset="1" stop-color="#fff"/></linearGradient><linearGradient id="linear-gradient-6" x1="97.53" y1="53.01" x2="93.68" y2="42.95" xlink:href="#linear-gradient-5"/><linearGradient id="linear-gradient-7" x1="64.8" y1="93.09" x2="122.3" y2="93.09" xlink:href="#linear-gradient"/></defs><g class="cls-1"><g id="Layer_2" data-name="Layer 2"><g id="Layer_1-2" data-name="Layer 1"><path class="cls-2" d="M.17,132.53H3.7c3.83,0,5.13.69,5.13,5.59V144c0,3.1-.82,4.94-5.13,4.94H.17Zm3.42,14c1.67,0,1.82-.72,1.82-2.28v-6.74c0-2.19-.08-2.67-1.82-2.67Z"/><path class="cls-2" d="M11.23,148.91V132.53h3.42v16.38Z"/><path class="cls-2" d="M17,148.91V132.53h3.42v13.9h3.71v2.48Z"/><path class="cls-2" d="M26.17,148.91V132.53h3.42v16.38Z"/><path class="cls-2" d="M38.47,148.08a2.85,2.85,0,0,1-1.41.92,4.51,4.51,0,0,1-1.56.23c-2.25,0-3.51-1-3.51-4.78V137c0-3.75,2.06-4.78,4.33-4.78,2.77,0,4.31,1.24,4.35,4.46l0,1.73H37.23v-2.28c0-.67-.19-1.29-.91-1.29s-.91.62-.91,1.29v9.2c0,.67.17,1.29.91,1.29s.91-.62.91-1.29v-2.18h-1.3v-2.49h4.72v8.26h-2Z"/><path class="cls-2" d="M43.07,148.91V132.53h7.1V135H46.49v3.59H50v2.49H46.49v5.34h3.68v2.48Z"/><path class="cls-2" d="M52.17,132.53h4.75l2.18,11.92h0V132.53h2.68v16.38H57.43l-2.54-13.69h0v13.69H52.17Z"/><path class="cls-2" d="M72.82,142.54v2.16c0,3.06-1.46,4.53-4.35,4.53-2.27,0-4.31-1-4.31-4.78V137c0-3.75,2-4.78,4.31-4.78,2.5,0,4.35.83,4.35,4.37v1.79H69.4v-2.25c0-.67-.19-1.29-.93-1.29s-.89.62-.89,1.29v9.2c0,.67.19,1.29.89,1.29s.93-.62.93-1.29l0-2.78Z"/><path class="cls-2" d="M75.24,148.91V132.53h7.1V135H78.67v3.59h3.54v2.49H78.67v5.34h3.67v2.48Z"/><path class="cls-2" d="M97.28,148.08a2.83,2.83,0,0,1-1.4.92,4.6,4.6,0,0,1-1.57.23c-2.25,0-3.51-1-3.51-4.78V137c0-3.75,2.06-4.78,4.33-4.78,2.77,0,4.31,1.24,4.36,4.46l0,1.73H96v-2.28c0-.67-.19-1.29-.91-1.29s-.91.62-.91,1.29v9.2c0,.67.17,1.29.91,1.29s.91-.62.91-1.29v-2.18h-1.3v-2.49h4.72v8.26h-2Z"/><path class="cls-2" d="M101.88,148.91V132.53h3.45c3.26,0,5.2.37,5.2,3.82,0,2.05-.77,3.38-2.62,3.73v0c1.65,0,2.62.74,2.62,3.09v3.42a4.64,4.64,0,0,0,.51,2.28H107.6a4.52,4.52,0,0,1-.5-2.28v-3.47c0-1.15-.62-1.73-1.24-1.73h-.55v7.48Zm3.43-9.82c1.54,0,1.79-.58,1.79-2.12s-.23-2.09-1.79-2.09Z"/><path class="cls-2" d="M121.71,144.45c0,3.75-2.06,4.78-4.33,4.78s-4.34-1-4.34-4.78V137c0-3.75,2.07-4.78,4.34-4.78s4.33,1,4.33,4.78Zm-5.24.87c0,.67.19,1.29.91,1.29s.91-.62.91-1.29v-9.2c0-.67-.19-1.29-.91-1.29s-.91.62-.91,1.29Z"/><path class="cls-2" d="M132.83,144.24c-.08,3.48-1.15,5-4.35,5-4.23,0-4.31-3.29-4.31-5.36V132.53h3.42v11.8c0,1.32,0,2.28.89,2.28s.93-1,.93-2.28v-11.8h3.42Z"/><path class="cls-2" d="M135.29,148.91V132.53h4.19c2.72,0,4.47.69,4.47,3.52v3c0,2.46-2,3.55-4,3.55h-1.26v6.32Zm3.42-8.67h.54c1.2,0,1.28-.74,1.28-2.67s-.08-2.69-1.28-2.69h-.54Z"/><path class="cls-3" d="M122.3,63.55a63.56,63.56,0,0,1-63.56,63.56H0V0H58.74A63.56,63.56,0,0,1,122.3,63.55Z"/><path class="cls-4" d="M60.39,43.55H41.9v40H60.39a20,20,0,0,0,20-20h0A20,20,0,0,0,60.39,43.55Z"/><path class="cls-5" d="M116.82,37.72C81.22,45.6,41.9,83.55,41.9,83.55L0,127.11H58.74c1.39,0,2.78,0,4.14-.14,8.39-10.39,41.3-50.8,59.27-67.6,19.51-18.23,4.79,16.26,4.43,16.79C127.45,75.55,175.58,24.71,116.82,37.72Z"/><path class="cls-6" d="M116.82,37.72C81.22,45.6,41.9,83.55,41.9,83.55L0,127.11H58.74c1.39,0,2.78,0,4.14-.14,8.39-10.39,41.3-50.8,59.27-67.6,19.51-18.23,4.79,16.26,4.43,16.79C127.45,75.55,175.58,24.71,116.82,37.72Z"/><path class="cls-7" d="M116.8,37.72a.87.87,0,0,1-.29.08Z"/><path class="cls-8" d="M0,77.29C12.76,67.77,27.4,60.53,41.9,55V83.55L0,127.11Z"/><path class="cls-9" d="M116.35,37.83C103.51,40.76,90.22,47.56,78.48,55a19.82,19.82,0,0,0-3.94-5.64,20.25,20.25,0,0,0-4.27-3.25A365.84,365.84,0,0,1,116.35,37.83Z"/><path class="cls-10" d="M64.8,126.81a63.55,63.55,0,0,0,57.5-63.26c0-1.41-.06-2.8-.15-4.18C121.91,59.48,82.76,77.65,64.8,126.81Z"/></g></g></g></svg>