<svg xmlns="http://www.w3.org/2000/svg" xmlns:xlink="http://www.w3.org/1999/xlink" viewBox="0 0 99.62 180.83"><defs><style>.cls-1{fill:url(#linear-gradient);}.cls-2{fill:url(#linear-gradient-2);}.cls-3{fill:url(#linear-gradient-3);}.cls-4{fill:#3960ad;}</style><linearGradient id="linear-gradient" x1="49.6" y1="-3.25" x2="49.6" y2="119.11" gradientUnits="userSpaceOnUse"><stop offset="0.08" stop-color="#00bfed"/><stop offset="0.23" stop-color="#00abe0"/><stop offset="0.47" stop-color="#0081c5"/><stop offset="0.52" stop-color="#0377be"/><stop offset="0.67" stop-color="#0c5fac"/><stop offset="0.81" stop-color="#1151a1"/><stop offset="0.92" stop-color="#134c9d"/></linearGradient><linearGradient id="linear-gradient-2" x1="49.6" y1="40.05" x2="49.6" y2="79.24" xlink:href="#linear-gradient"/><linearGradient id="linear-gradient-3" x1="51.38" y1="79.86" x2="51.38" y2="31.23" xlink:href="#linear-gradient"/></defs><g id="Layer_2" data-name="Layer 2"><g id="Layer_1-2" data-name="Layer 1"><path class="cls-1" d="M55,.31V35.65h2.23a25.3,25.3,0,0,1,7.43,1.11V13.94l24.86,8.7V61.81a40,40,0,0,1-24.86,37V91.29A9.1,9.1,0,0,0,55,82.2h0v19.14a41.16,41.16,0,0,1-10.75,0V91.87a9.66,9.66,0,0,0-9.67-9.66h0V98.76A40,40,0,0,1,9.71,61.81V22.33l24.85-8.7v22h9.67V0L0,15.47V61.18c0,27.29,21.79,49.93,49.07,50.19A49.61,49.61,0,0,0,99.17,61.81v-46Z"/><path class="cls-2" d="M34.56,41.09V76.77h9.67v-26A9.67,9.67,0,0,0,34.56,41.09Zm20.42,0V76.77h1.9a16.21,16.21,0,0,0,7.76-2V51.7A10.65,10.65,0,0,0,55,41.09Z"/><path class="cls-3" d="M20.16,29.6l9.67,9.67H57.21a15.65,15.65,0,0,1,7.43,29.47,16.21,16.21,0,0,1-7.76,2H29.83l-9.67,9.67h36.6A25.84,25.84,0,0,0,82.6,54.56a25.42,25.42,0,0,0-18-23.84,25,25,0,0,0-7.43-1.12h-37Z"/><path class="cls-4" d="M4.06,120.64H8c4.27,0,5.72.69,5.72,5.58v5.84c0,3.1-.92,4.94-5.72,4.94H4.06Zm3.82,14c1.86,0,2-.71,2-2.27v-6.73c0-2.18-.09-2.66-2-2.66Z"/><path class="cls-4" d="M16.37,137V120.64h3.82V137Z"/><path class="cls-4" d="M22.8,137V120.64h3.82v13.88h4.13V137Z"/><path class="cls-4" d="M33,137V120.64h3.81V137Z"/><path class="cls-4" d="M46.69,136.17a3.22,3.22,0,0,1-1.57.92,5.87,5.87,0,0,1-1.74.23c-2.5,0-3.9-1-3.9-4.78V125.1c0-3.74,2.29-4.78,4.82-4.78,3.08,0,4.8,1.24,4.84,4.46l0,1.72H45.31v-2.27c0-.67-.21-1.29-1-1.29s-1,.62-1,1.29v9.18c0,.67.18,1.29,1,1.29s1-.62,1-1.29v-2.18H43.86v-2.48h5.26V137H46.89Z"/><path class="cls-4" d="M51.81,137V120.64h7.9v2.48H55.62v3.59h4v2.48h-4v5.33h4.09V137Z"/><path class="cls-4" d="M61.94,120.64h5.28l2.43,11.9h0v-11.9h3V137H67.79L65,123.33h0V137h-3Z"/><path class="cls-4" d="M84.92,130.63v2.16c0,3.06-1.63,4.53-4.84,4.53-2.53,0-4.8-1-4.8-4.78V125.1c0-3.74,2.27-4.78,4.8-4.78,2.78,0,4.84.83,4.84,4.37v1.79H81.11v-2.25c0-.67-.21-1.29-1-1.29s-1,.62-1,1.29v9.18c0,.67.21,1.29,1,1.29s1-.62,1-1.29l0-2.78Z"/><path class="cls-4" d="M87.61,137V120.64h7.9v2.48H91.42v3.59h4v2.48h-4v5.33h4.09V137Z"/><path class="cls-4" d="M9.65,154.09c-.1,3.47-1.29,5-4.85,5-4.71,0-4.8-3.28-4.8-5.35V142.4H3.81v11.78c0,1.31,0,2.28,1,2.28s1-1,1-2.28V142.4H9.65Z"/><path class="cls-4" d="M12.24,142.4h5.28L20,154.3h0V142.4h3v16.35H18.1l-2.83-13.66h0v13.66h-3Z"/><path class="cls-4" d="M25.51,158.75V142.4h3.82v16.35Z"/><path class="cls-4" d="M31.67,142.4h4.09L36.67,155h0l1.65-12.61h3.56L39.2,158.75h-5Z"/><path class="cls-4" d="M44.32,158.75V142.4h7.9v2.48H48.13v3.58h3.95v2.48H48.13v5.33h4.09v2.48Z"/><path class="cls-4" d="M54.54,158.75V142.4h3.84c3.63,0,5.78.37,5.78,3.81,0,2-.85,3.38-2.91,3.72v0c1.83.05,2.91.73,2.91,3.08v3.42a4.23,4.23,0,0,0,.58,2.27H60.9a4.19,4.19,0,0,1-.55-2.27V153c0-1.15-.69-1.72-1.38-1.72h-.62v7.46Zm3.81-9.8c1.73,0,2-.58,2-2.12s-.25-2.09-2-2.09Z"/><path class="cls-4" d="M72.8,148.26V146c0-.8-.25-1.26-1-1.26s-1,.46-1,1.26c0,2.76,5.83,3.56,5.83,8.61,0,3.08-1.65,4.5-4.84,4.5-2.44,0-4.8-.82-4.8-3.65v-3h3.81v2.83c0,1,.3,1.24,1,1.24s1-.28,1-1.24c0-3.7-5.83-3.77-5.83-9.05,0-3,2-4.09,4.89-4.09,2.57,0,4.75.87,4.75,3.61v2.57Z"/><path class="cls-4" d="M87.11,142.4l2.11,16.35H85.43l-.44-4H82.93l-.62,4H79.09l2.78-16.35Zm-2.39,9.85L84.05,145h0l-.67,7.28Z"/><path class="cls-4" d="M91.68,158.75V142.4h3.81v13.87h4.13v2.48Z"/><path class="cls-4" d="M20.75,170v-2.29c0-.81-.25-1.27-1-1.27s-1,.46-1,1.27c0,2.75,5.83,3.56,5.83,8.61,0,3.08-1.65,4.5-4.85,4.5-2.43,0-4.79-.83-4.79-3.65v-3h3.81V177c0,1,.3,1.24,1,1.24s1-.27,1-1.24c0-3.7-5.83-3.76-5.83-9.05,0-3,2-4.08,4.89-4.08,2.57,0,4.75.87,4.75,3.6V170Z"/><path class="cls-4" d="M36.94,174.15v2.16c0,3.05-1.63,4.52-4.85,4.52-2.52,0-4.8-1-4.8-4.78v-7.44c0-3.74,2.28-4.77,4.8-4.77,2.78,0,4.85.82,4.85,4.36V170H33.13v-2.25c0-.67-.21-1.29-1-1.29s-1,.62-1,1.29v9.19c0,.66.2,1.28,1,1.28s1-.62,1-1.28l0-2.78Z"/><path class="cls-4" d="M39.67,180.51V164.16h3.81v6.06h2v-6.06h3.82v16.35H45.5V172.7h-2v7.81Z"/><path class="cls-4" d="M61.69,176.05c0,3.75-2.29,4.78-4.82,4.78s-4.82-1-4.82-4.78v-7.44c0-3.74,2.3-4.77,4.82-4.77s4.82,1,4.82,4.77Zm-5.83.88c0,.66.21,1.28,1,1.28s1-.62,1-1.28v-9.19c0-.67-.2-1.29-1-1.29s-1,.62-1,1.29Z"/><path class="cls-4" d="M74.07,176.05c0,3.75-2.29,4.78-4.82,4.78s-4.82-1-4.82-4.78v-7.44c0-3.74,2.29-4.77,4.82-4.77s4.82,1,4.82,4.77Zm-5.83.88c0,.66.21,1.28,1,1.28s1-.62,1-1.28v-9.19c0-.67-.21-1.29-1-1.29s-1,.62-1,1.29Z"/><path class="cls-4" d="M76.76,180.51V164.16h3.81V178h4.14v2.48Z"/></g></g></svg>