<svg xmlns="http://www.w3.org/2000/svg" xmlns:xlink="http://www.w3.org/1999/xlink" viewBox="0 0 107.85 112.59"><defs><style>.cls-1{isolation:isolate;}.cls-2{filter:url(#filter);}.cls-19,.cls-3{fill:#60bb46;}.cls-4{fill:url(#radial-gradient);}.cls-15,.cls-5,.cls-6,.cls-8{mix-blend-mode:multiply;}.cls-5{fill:url(#radial-gradient-2);}.cls-6{opacity:0.5;fill:url(#radial-gradient-3);}.cls-7{fill:url(#radial-gradient-4);}.cls-8{fill:url(#radial-gradient-5);}.cls-19,.cls-20,.cls-22,.cls-9{mix-blend-mode:overlay;}.cls-9{fill:url(#radial-gradient-6);}.cls-10{fill:#231f20;stroke:#231f20;stroke-width:1.75px;}.cls-10,.cls-13,.cls-14,.cls-23{stroke-miterlimit:10;}.cls-11,.cls-13{fill:#fff;}.cls-12{fill:url(#linear-gradient);}.cls-13,.cls-14{stroke:#fff;}.cls-13{stroke-width:0.62px;}.cls-14,.cls-23{fill:none;}.cls-14{stroke-width:0.62px;}.cls-16{fill:url(#radial-gradient-7);}.cls-17{fill:url(#radial-gradient-8);}.cls-18{fill:url(#radial-gradient-9);}.cls-21{fill:url(#radial-gradient-10);}.cls-22{fill:url(#radial-gradient-11);}.cls-23{stroke-width:6px;stroke:url(#linear-gradient-2);}.cls-24{fill:#3961ad;}</style><filter id="filter"><feOffset dx="0.88" dy="0.88" input="SourceAlpha"/><feGaussianBlur stdDeviation="0.88" result="blur"/><feFlood/><feComposite operator="in" in2="blur"/><feComposite in="SourceGraphic"/></filter><radialGradient id="radial-gradient" cx="18.78" cy="40.71" r="47.11" gradientTransform="matrix(0.98, -0.18, 0.2, 1.1, -5.81, 13.85)" gradientUnits="userSpaceOnUse"><stop offset="0" stop-color="#fff"/><stop offset="0.27" stop-color="#fcfcfc"/><stop offset="0.44" stop-color="#f4f4f4"/><stop offset="0.57" stop-color="#e5e5e5"/><stop offset="0.7" stop-color="#d1d1d1"/><stop offset="0.81" stop-color="#b6b6b6"/><stop offset="0.92" stop-color="#969696"/><stop offset="0.99" stop-color="#787878"/></radialGradient><radialGradient id="radial-gradient-2" cx="19.56" cy="-3.51" r="46.42" gradientTransform="translate(3.23 63.58) rotate(-10.34)" gradientUnits="userSpaceOnUse"><stop offset="0" stop-color="#fff"/><stop offset="0.3" stop-color="#f9f9f9"/><stop offset="0.7" stop-color="#e7e9e9"/><stop offset="1" stop-color="#d6d8d8"/></radialGradient><radialGradient id="radial-gradient-3" cx="39.14" cy="-26.31" r="34.45" xlink:href="#radial-gradient-2"/><radialGradient id="radial-gradient-4" cx="70.24" cy="4.38" r="15.33" gradientTransform="matrix(0.18, 0.98, -2.12, 0.39, 48.4, -11.72)" gradientUnits="userSpaceOnUse"><stop offset="0" stop-color="#fff"/><stop offset="0.2" stop-color="#f9f9f9"/><stop offset="0.48" stop-color="#e7e7e7"/><stop offset="0.8" stop-color="#cbcbcb"/><stop offset="1" stop-color="#b5b5b5"/></radialGradient><radialGradient id="radial-gradient-5" cx="63.52" cy="-10.33" r="40.19" gradientTransform="translate(30.98 -16.55) rotate(79.66) scale(1 2.12)" gradientUnits="userSpaceOnUse"><stop offset="0" stop-color="#79d2f3"/><stop offset="0.26" stop-color="#5cbfe4"/><stop offset="0.75" stop-color="#299cc9"/><stop offset="1" stop-color="#158fbf"/></radialGradient><radialGradient id="radial-gradient-6" cx="33.74" cy="-41.53" r="21.61" gradientTransform="translate(3.23 63.58) rotate(-10.34)" gradientUnits="userSpaceOnUse"><stop offset="0" stop-color="#87d4eb"/><stop offset="0.23" stop-color="#82d3eb"/><stop offset="0.51" stop-color="#73d0e9"/><stop offset="0.81" stop-color="#5bcae7"/><stop offset="1" stop-color="#48c6e5"/></radialGradient><linearGradient id="linear-gradient" x1="12.09" y1="-4.54" x2="87.21" y2="-4.54" gradientTransform="translate(3.23 63.58) rotate(-10.34)" gradientUnits="userSpaceOnUse"><stop offset="0.08" stop-color="#00bfed"/><stop offset="0.23" stop-color="#00abe0"/><stop offset="0.47" stop-color="#0081c5"/><stop offset="0.52" stop-color="#0377be"/><stop offset="0.67" stop-color="#0c5fac"/><stop offset="0.81" stop-color="#1151a1"/><stop offset="0.92" stop-color="#134c9d"/></linearGradient><radialGradient id="radial-gradient-7" cx="36.5" cy="-21.63" r="21.14" gradientTransform="translate(3.23 63.58) rotate(-10.34)" gradientUnits="userSpaceOnUse"><stop offset="0" stop-color="#87d4eb"/><stop offset="0.16" stop-color="#82d1e9"/><stop offset="0.36" stop-color="#73c8e3"/><stop offset="0.58" stop-color="#5ab9da"/><stop offset="0.8" stop-color="#39a4cd"/><stop offset="1" stop-color="#158fbf"/></radialGradient><radialGradient id="radial-gradient-8" cx="12.13" cy="6.04" r="0.18" xlink:href="#radial-gradient-7"/><radialGradient id="radial-gradient-9" cx="45.38" cy="-26.9" r="54.91" xlink:href="#radial-gradient-7"/><radialGradient id="radial-gradient-10" cx="44.37" cy="-39.63" r="41.79" gradientTransform="translate(3.23 63.58) rotate(-10.34)" gradientUnits="userSpaceOnUse"><stop offset="0" stop-color="#098040"/><stop offset="0.44" stop-color="#0f2a17"/><stop offset="0.62" stop-color="#122f18"/><stop offset="0.84" stop-color="#1c3e1b"/><stop offset="0.84" stop-color="#1c3e1b"/><stop offset="0.9" stop-color="#143819"/><stop offset="0.99" stop-color="#002a16"/></radialGradient><radialGradient id="radial-gradient-11" cx="31.18" cy="3.31" r="25.69" gradientTransform="translate(3.23 63.58) rotate(-10.34)" gradientUnits="userSpaceOnUse"><stop offset="0" stop-color="#d32027"/><stop offset="0.14" stop-color="#ce2026"/><stop offset="0.3" stop-color="#bf1e24"/><stop offset="0.48" stop-color="#a61c21"/><stop offset="0.68" stop-color="#84191d"/><stop offset="0.87" stop-color="#591617"/><stop offset="1" stop-color="#391313"/></radialGradient><linearGradient id="linear-gradient-2" x1="1265.26" y1="1473.5" x2="1178.04" y2="1423.14" gradientTransform="matrix(0, -1, 1, 0, -1398.09, 1272.3)" gradientUnits="userSpaceOnUse"><stop offset="0.26" stop-color="#0c8040" stop-opacity="0"/><stop offset="0.27" stop-color="#0c8040" stop-opacity="0.01"/><stop offset="0.35" stop-color="#098844" stop-opacity="0.27"/><stop offset="0.43" stop-color="#068f46" stop-opacity="0.49"/><stop offset="0.52" stop-color="#049549" stop-opacity="0.68"/><stop offset="0.62" stop-color="#02994b" stop-opacity="0.82"/><stop offset="0.72" stop-color="#019d4c" stop-opacity="0.92"/><stop offset="0.84" stop-color="#009e4d" stop-opacity="0.98"/><stop offset="1" stop-color="#009f4d"/></linearGradient></defs><g class="cls-1"><g id="Layer_2" data-name="Layer 2"><g id="Layer_1-2" data-name="Layer 1"><g class="cls-2"><path class="cls-3" d="M65.89,52.08h0a5.58,5.58,0,0,0-.31-.72l0,0a6.52,6.52,0,0,0-.38-.68h0c-4.23.43-8.78,1.07-13.52,1.93C31.22,56.3,15.27,62.69,16,66.84a.79.79,0,0,0,.06.22l0,0c0,.09.09.17.13.26s0,0,0,0c1.27,2.34,8.42,3.26,18.47,2.7,9.78-1.06,20.53-4.16,26-7.45q.5-.3.93-.6c.28-.2.55-.39.81-.6l.22-.19.51-.43.15-.15c.18-.17.35-.33.51-.51a.86.86,0,0,0,.13-.14c.16-.18.32-.35.46-.53l.1-.14c.14-.18.29-.37.41-.56,0,0,0-.07.07-.1.13-.2.25-.4.37-.61l0-.07c.12-.22.23-.43.33-.66h0A6.88,6.88,0,0,0,65.89,52.08Z"/><path class="cls-4" d="M39.76,26.81A25.3,25.3,0,0,0,23.64,66.24h0a4,4,0,0,1,.28.37c2.29,1.93,11.26,2,23.06-.2s21.17-5.64,21.76-8c0-.13,0-.26,0-.39h0a25.31,25.31,0,0,0-29-31.19Z"/><path class="cls-5" d="M54.37,28.5a20.32,20.32,0,0,1,3.19,7.76c2.26,12.36-7.36,24.47-21.48,27.05a28.43,28.43,0,0,1-14.75-1.14,25,25,0,0,0,2.31,4.07h0a4,4,0,0,1,.28.37c2.29,1.93,11.26,2,23.06-.2s21.17-5.64,21.76-8c0-.13,0-.26,0-.39h0A25.34,25.34,0,0,0,54.37,28.5Z"/><path class="cls-6" d="M39.76,26.81A25.22,25.22,0,0,0,21.7,40.39c4.39,2.36,11,4.37,20.76,4.63,22.14.59,25.09,12.26,16.14,18.45l-.48.31c6.11-1.82,10.24-3.84,10.62-5.39,0-.13,0-.26,0-.39h0a25.31,25.31,0,0,0-29-31.19Z"/><path class="cls-7" d="M77.89,56.28l-.06.21a.3.3,0,0,0,.07-.21Z"/><path class="cls-8" d="M85.7,35.17a39.67,39.67,0,0,1,1.62,6.06A40.31,40.31,0,0,1,54.91,88.11a41.17,41.17,0,0,1-5.9.62A38.41,38.41,0,0,0,88.22,43.46,38,38,0,0,0,85.7,35.17Z"/><path class="cls-9" d="M50,12.49c1-.19,2.07-.33,3.1-.45a38.92,38.92,0,0,0-9.59.54A38.31,38.31,0,0,0,17,31.51a9.59,9.59,0,0,0,1.68,2.7A46.18,46.18,0,0,1,50,12.49Z"/><path class="cls-10" d="M44.3,71.66A112.89,112.89,0,0,0,44.3,26H65.68c27.65.06,27.3,45.71-.36,45.66ZM75.47,49C77,35.91,73.54,29,69.1,28c-7.4-1.74-12.66,8-12.66,19.7V62C56.44,77.31,73.13,69.3,75.47,49Z"/><path class="cls-11" d="M44.41,71.59a112.54,112.54,0,0,0,0-45.66H65.79c27.66.05,27.31,45.71-.35,45.66ZM75.59,48.91c1.53-13.08-1.94-20-6.38-21-7.4-1.74-12.65,8-12.65,19.7V62C56.56,77.23,73.25,69.23,75.59,48.91Z"/><path class="cls-12" d="M43.55,12.58A38.31,38.31,0,0,0,17,31.51c1,2.8,7.49,11.46,28.46,12,11,.3,17.32,3.35,19.72,7.11h0a6.52,6.52,0,0,1,.38.68l0,0a5.58,5.58,0,0,1,.31.72h0a6.88,6.88,0,0,1-.2,5.21h0c-.1.23-.21.44-.33.66l0,.07c-.12.21-.24.41-.37.61,0,0,0,.07-.07.1-.12.19-.27.38-.41.56l-.1.14c-.14.18-.3.35-.46.53a.86.86,0,0,1-.13.14c-.16.18-.33.34-.51.51l-.15.15-.51.43-.22.19c-.26.21-.53.4-.81.6s-.6.4-.93.6C55.2,65.87,44.45,69,34.67,70c-10,.56-17.2-.36-18.47-2.7,7.09,15.21,24.11,23.91,41.14,20.8A38.4,38.4,0,1,0,43.55,12.58Z"/><path class="cls-13" d="M43.76,71.9a113.81,113.81,0,0,0,0-46.21H65.51c28.15,0,27.78,46.26-.36,46.21ZM75.48,49C77,35.71,73.51,28.7,69,27.66c-7.53-1.77-12.87,8.1-12.87,19.94V62.14C56.12,77.61,73.09,69.51,75.48,49Z"/><path class="cls-14" d="M43.87,71.83a113.51,113.51,0,0,0,0-46.22H65.63c28.15.05,27.78,46.27-.36,46.22Zm31.73-23c1.56-13.24-2-20.25-6.49-21.29-7.53-1.77-12.88,8.1-12.88,19.94V62.07C56.23,77.54,73.21,69.44,75.6,48.87Z"/><g class="cls-15"><path class="cls-16" d="M43.69,42.31c-10.93-.29-17.92-2.78-22.26-5.5,4.1,3.15,11.47,6.39,24,6.72,7.27.2,12.46,1.59,15.85,3.58C58.08,44.48,52.36,42.55,43.69,42.31Z"/><path class="cls-17" d="M16.37,67.56a2,2,0,0,1-.17-.23,1.86,1.86,0,0,1,.1.2Z"/><path class="cls-18" d="M71.39,18.18A38.4,38.4,0,0,1,27.7,81.31,38.4,38.4,0,1,0,71.39,18.18Z"/></g><path class="cls-19" d="M65.61,56.86h0c-.1.22-.21.44-.32.65a.3.3,0,0,0,0,.08c-.11.2-.24.4-.37.6l-.07.11a6.64,6.64,0,0,1-.41.56,1.13,1.13,0,0,1-.1.13c-.14.18-.3.36-.46.53l-.13.15c-.16.17-.33.34-.51.5s-.09.1-.15.15-.33.29-.51.44l-.22.19c-.26.2-.53.4-.81.59s-.6.4-.93.6c-5.46,3.3-16.2,6.39-26,7.46-10.05.55-17.19-.37-18.46-2.7,0,0,0,0,0,0L16,66.68a.81.81,0,0,0,0,.16.79.79,0,0,0,.06.22l0,0c0,.09.09.17.13.26s0,0,0,0c1.27,2.34,8.42,3.26,18.47,2.7,9.78-1.06,20.53-4.16,26-7.45q.5-.3.93-.6c.28-.2.55-.39.81-.6l.22-.19.51-.43.15-.15c.18-.17.35-.33.51-.51a.86.86,0,0,0,.13-.14c.16-.18.32-.35.46-.53l.1-.14c.14-.18.29-.37.41-.56,0,0,0-.07.07-.1.13-.2.25-.4.37-.61l0-.07c.12-.22.23-.43.33-.66h0a7,7,0,0,0,.47-4.23A7,7,0,0,1,65.61,56.86Z"/><path class="cls-19" d="M16.55,68c1.35,2.48,8.94,3.46,19.63,2.87C46.58,69.69,58,66.4,63.8,62.89c.35-.21.69-.42,1-.64s.58-.41.85-.63l.24-.2.54-.46.16-.16c.19-.18.37-.35.54-.54l.14-.15c.17-.19.34-.37.49-.56l.11-.15c.15-.2.3-.39.43-.59a.75.75,0,0,0,.07-.12c.14-.21.28-.42.4-.64l0-.08a7.46,7.46,0,0,0,.35-.69h0a7.3,7.3,0,0,0,.21-5.54h0c-.1-.26-.21-.51-.33-.76l0,0c-.13-.24-.26-.48-.41-.72h0c-2.55-4-9.22-7.24-21-7.56-21-.55-28.34-8.76-30-12.2L17,31.51c1,2.8,7.49,11.46,28.46,12,11,.3,17.32,3.35,19.72,7.11h0a6.52,6.52,0,0,1,.38.68l0,0a5.58,5.58,0,0,1,.31.72h0a6.88,6.88,0,0,1-.2,5.21h0c-.1.23-.21.44-.33.66l0,.07c-.12.21-.24.41-.37.61,0,0,0,.07-.07.1-.12.19-.27.38-.41.56l-.1.14c-.14.18-.3.35-.46.53a.86.86,0,0,1-.13.14c-.16.18-.33.34-.51.51l-.15.15-.51.43-.22.19c-.26.21-.53.4-.81.6s-.6.4-.93.6C55.2,65.87,44.45,69,34.67,70c-10,.56-17.2-.36-18.47-2.7.34.72.7,1.42,1.08,2.11C17,69,16.78,68.45,16.55,68Z"/><g class="cls-20"><path class="cls-21" d="M44,14.94A38.38,38.38,0,0,1,88.4,44.65c-.05-.4-.11-.79-.18-1.19A38.4,38.4,0,0,0,17,31.51a7.6,7.6,0,0,0,.87,1.63A38.3,38.3,0,0,1,44,14.94Z"/><path class="cls-22" d="M35.1,72.39c9.78-1.06,20.53-4.16,26-7.45q.49-.3.93-.6l.81-.6.22-.19.51-.43.15-.15c.18-.17.35-.33.51-.51a1.66,1.66,0,0,0,.13-.14c.16-.18.32-.35.46-.53l.1-.14a5.34,5.34,0,0,0,.41-.56s0-.07.07-.1c.13-.2.26-.4.37-.61l0-.07q.18-.33.33-.66h0a6.85,6.85,0,0,0,.2-5.2h0a.05.05,0,0,1,0,0,7.3,7.3,0,0,1-.61,2.9h0c-.1.23-.21.44-.33.66l0,.07c-.12.21-.24.41-.37.61,0,0,0,.07-.07.1-.12.19-.27.38-.41.56l-.1.14c-.14.18-.3.35-.46.53a.86.86,0,0,1-.13.14c-.16.18-.33.34-.51.51l-.15.15-.51.43-.22.19c-.26.21-.53.4-.81.6s-.6.4-.93.6C55.2,65.87,44.45,69,34.67,70c-10,.56-17.2-.36-18.47-2.7a36.91,36.91,0,0,0,2,3.62C21,72.34,27.12,72.83,35.1,72.39Z"/></g></g><ellipse class="cls-23" cx="50.29" cy="50.58" rx="47.59" ry="47.27" transform="translate(-8.87 90.43) rotate(-79.13)"/><path class="cls-24" d="M31.55,107.12l.05-.18.21.07a.9.9,0,0,0,.45,0,.55.55,0,0,0,.29-.18,2.47,2.47,0,0,0,.22-.6L34,102a2.52,2.52,0,0,0,.13-.64A.49.49,0,0,0,34,101a.89.89,0,0,0-.39-.22l-.21-.06.05-.18,2.83.83a4.65,4.65,0,0,1,1.73.85,2.89,2.89,0,0,1,.94,1.56,3.94,3.94,0,0,1-.09,1.92,3.84,3.84,0,0,1-.59,1.2,3,3,0,0,1-.83.8,2.81,2.81,0,0,1-1,.38,4.18,4.18,0,0,1-1.19,0,4.5,4.5,0,0,1-.91-.2Zm4.21-5.46-1.49,5.1a2.29,2.29,0,0,0-.11.51.31.31,0,0,0,.09.18.72.72,0,0,0,.34.17,1.42,1.42,0,0,0,1.35-.2,3.93,3.93,0,0,0,1.23-2.14,4.57,4.57,0,0,0,.21-2.12,1.8,1.8,0,0,0-.54-1A3.29,3.29,0,0,0,35.76,101.66Z"/><path class="cls-24" d="M41.74,104.89l-.7,3.65a1.26,1.26,0,0,0,0,.65.65.65,0,0,0,.4.24l0,.17L39,109.14l0-.17a.58.58,0,0,0,.48-.1,1.33,1.33,0,0,0,.21-.58l.51-2.7a1.22,1.22,0,0,0,0-.64.61.61,0,0,0-.4-.24l0-.18Zm-.24-2.37a.73.73,0,0,1,.48.33.79.79,0,0,1,.11.58.77.77,0,0,1-.32.5.74.74,0,0,1-1-.2.74.74,0,0,1-.11-.58.76.76,0,0,1,.31-.5A.77.77,0,0,1,41.5,102.52Z"/><path class="cls-24" d="M44.74,103.2,44,109a1.11,1.11,0,0,0,0,.64.56.56,0,0,0,.41.22l0,.18-2.43-.33,0-.18a.59.59,0,0,0,.47-.12,1.08,1.08,0,0,0,.18-.59l.66-4.82a1.17,1.17,0,0,0,0-.64.6.6,0,0,0-.4-.22l0-.18Z"/><path class="cls-24" d="M47.21,105.56l-.31,3.7a1.13,1.13,0,0,0,.06.65.63.63,0,0,0,.42.19v.18l-2.45-.2,0-.18a.57.57,0,0,0,.46-.15,1.17,1.17,0,0,0,.15-.6l.22-2.73a1.09,1.09,0,0,0-.06-.64.55.55,0,0,0-.41-.2v-.18Zm-.49-2.33a.72.72,0,0,1,.51.27.79.79,0,0,1,.17.57.73.73,0,0,1-.26.53.7.7,0,0,1-.55.18.72.72,0,0,1-.51-.27.8.8,0,0,1,.09-1.09A.7.7,0,0,1,46.72,103.23Z"/><path class="cls-24" d="M51.09,105.73l1.53,0v.55h-.87a1.81,1.81,0,0,1,.33.45,1.56,1.56,0,0,1,.11.57,1.48,1.48,0,0,1-.28.87,1.86,1.86,0,0,1-.74.57,2,2,0,0,1-.82.2l-.59,0a.49.49,0,0,0-.36.15.5.5,0,0,0-.16.35.39.39,0,0,0,.14.3.67.67,0,0,0,.43.12h.84a2.93,2.93,0,0,1,1.4.25,1.07,1.07,0,0,1,.54,1,1.31,1.31,0,0,1-.26.78,1.4,1.4,0,0,1-.67.5,4,4,0,0,1-1.44.24,5.47,5.47,0,0,1-1.12-.13,1.72,1.72,0,0,1-.72-.35.63.63,0,0,1-.21-.46.57.57,0,0,1,.17-.42,1.32,1.32,0,0,1,.62-.3,1,1,0,0,1-.62-.9,1.09,1.09,0,0,1,.26-.67,2.11,2.11,0,0,1,.82-.56,2,2,0,0,1-.93-.66,1.51,1.51,0,0,1-.28-.93,1.55,1.55,0,0,1,.55-1.19,2,2,0,0,1,1.4-.49A2.47,2.47,0,0,1,51.09,105.73Zm-1.17,5.33a1.63,1.63,0,0,0-.66.08.47.47,0,0,0-.28.42.62.62,0,0,0,.29.47,1.91,1.91,0,0,0,1.07.21,2.39,2.39,0,0,0,1.06-.17.58.58,0,0,0,.39-.52.25.25,0,0,0-.07-.21.57.57,0,0,0-.39-.21A8.77,8.77,0,0,0,49.92,111.06Zm.33-5.22a.59.59,0,0,0-.48.29,2.49,2.49,0,0,0-.2,1.22,2,2,0,0,0,.18,1,.57.57,0,0,0,.45.28.58.58,0,0,0,.49-.27,2.09,2.09,0,0,0,.21-1.08,2.45,2.45,0,0,0-.21-1.22A.49.49,0,0,0,50.25,105.84Z"/><path class="cls-24" d="M57.16,107.52l-2.48.2a2.48,2.48,0,0,0,.6,1.43,1,1,0,0,0,.84.35.83.83,0,0,0,.51-.21,2.11,2.11,0,0,0,.46-.64l.17.09a2.8,2.8,0,0,1-.72,1.17,1.87,1.87,0,0,1-2.6-.27,2.92,2.92,0,0,1-.54-1.57,2.72,2.72,0,0,1,.46-1.92,1.9,1.9,0,0,1,1.38-.81,1.57,1.57,0,0,1,1.24.49A2.67,2.67,0,0,1,57.16,107.52ZM56,107.28a5.16,5.16,0,0,0-.18-1.1.91.91,0,0,0-.3-.44.4.4,0,0,0-.28-.06.49.49,0,0,0-.39.28,2.27,2.27,0,0,0-.18,1.25v.17Z"/><path class="cls-24" d="M59.37,105l.1.59a2.61,2.61,0,0,1,.56-.67,1.44,1.44,0,0,1,.65-.3,1.06,1.06,0,0,1,.77.13,1.19,1.19,0,0,1,.49.55,5.26,5.26,0,0,1,.26,1.07l.32,1.8a1.38,1.38,0,0,0,.21.65.55.55,0,0,0,.42.1l0,.18-2.26.39,0-.18a.46.46,0,0,0,.32-.28,1.35,1.35,0,0,0,0-.62l-.36-2.06a3.39,3.39,0,0,0-.17-.71.49.49,0,0,0-.19-.21.38.38,0,0,0-.24,0c-.27,0-.49.3-.66.74l.44,2.48a1.37,1.37,0,0,0,.21.64.46.46,0,0,0,.37.12l0,.17-2.27.4,0-.18a.54.54,0,0,0,.37-.26,1.47,1.47,0,0,0,0-.65l-.46-2.62a1.27,1.27,0,0,0-.21-.63.52.52,0,0,0-.42-.1l0-.19Z"/><path class="cls-24" d="M67.43,106.7l.18.08a2.28,2.28,0,0,1-.54,1.1,1.81,1.81,0,0,1-.9.55,1.74,1.74,0,0,1-1.59-.31,2.75,2.75,0,0,1-1-1.51,3,3,0,0,1,.05-1.76A1.91,1.91,0,0,1,65,103.58a1.62,1.62,0,0,1,1.18.07,1.08,1.08,0,0,1,.61.69.61.61,0,0,1,0,.48.59.59,0,0,1-.38.28.65.65,0,0,1-.51-.07,1.25,1.25,0,0,1-.4-.62.71.71,0,0,0-.25-.39.32.32,0,0,0-.28,0,.44.44,0,0,0-.32.35,2.14,2.14,0,0,0,.06,1.21,4.08,4.08,0,0,0,.51,1.17,2,2,0,0,0,.77.73,1,1,0,0,0,.67,0,1,1,0,0,0,.41-.23A2.14,2.14,0,0,0,67.43,106.7Z"/><path class="cls-24" d="M71.57,103.85l-2.34.85a2.44,2.44,0,0,0,1,1.23,1,1,0,0,0,.9.11.85.85,0,0,0,.44-.33,2.12,2.12,0,0,0,.27-.75l.2.05a2.9,2.9,0,0,1-.4,1.32,1.67,1.67,0,0,1-.86.65,1.69,1.69,0,0,1-1.71-.24,2.87,2.87,0,0,1-.94-1.37,2.67,2.67,0,0,1-.06-2,1.88,1.88,0,0,1,1.12-1.15,1.55,1.55,0,0,1,1.33.15A2.69,2.69,0,0,1,71.57,103.85Zm-1.24.09a4.89,4.89,0,0,0-.45-1,.91.91,0,0,0-.41-.34.41.41,0,0,0-.29,0,.5.5,0,0,0-.3.38,2.2,2.2,0,0,0,.15,1.25l.06.17Z"/><path class="cls-24" d="M72.54,98.84l3-1.63.09.16-.15.08a1,1,0,0,0-.42.33.43.43,0,0,0-.07.29,2.36,2.36,0,0,0,.3.67l1.6,2.93a3.49,3.49,0,0,0,.7,1,1.08,1.08,0,0,0,.62.22,1.37,1.37,0,0,0,.77-.2,1.65,1.65,0,0,0,.68-.65,1.45,1.45,0,0,0,.16-.87,4.42,4.42,0,0,0-.56-1.43L77.9,97.3a1.74,1.74,0,0,0-.39-.53.56.56,0,0,0-.34-.13,1.28,1.28,0,0,0-.59.2l-.09-.17,2-1.09.09.16-.12.07a.91.91,0,0,0-.35.32.63.63,0,0,0-.06.43,1.66,1.66,0,0,0,.22.54l1.24,2.27a6.64,6.64,0,0,1,.7,1.59,2,2,0,0,1-.18,1.22,2.61,2.61,0,0,1-1.2,1.17,3,3,0,0,1-1.28.43,2,2,0,0,1-1.18-.29,3,3,0,0,1-.88-1.06l-1.6-2.93a2.79,2.79,0,0,0-.41-.61.49.49,0,0,0-.3-.09,1.2,1.2,0,0,0-.54.2Z"/><path class="cls-24" d="M81.4,96l.35.49a2.85,2.85,0,0,1,.21-.85,1.38,1.38,0,0,1,.46-.55,1.07,1.07,0,0,1,.75-.22,1.24,1.24,0,0,1,.68.28,5.21,5.21,0,0,1,.7.85l1.07,1.49a1.53,1.53,0,0,0,.47.49.61.61,0,0,0,.42-.09l.11.14-1.87,1.34-.11-.14a.46.46,0,0,0,.17-.4,1.29,1.29,0,0,0-.3-.55l-1.21-1.7a3.74,3.74,0,0,0-.46-.56.49.49,0,0,0-.26-.11.4.4,0,0,0-.24.07,1,1,0,0,0-.27,1l1.47,2a1.44,1.44,0,0,0,.47.49.43.43,0,0,0,.38-.07l.11.15-1.87,1.34-.1-.15a.55.55,0,0,0,.22-.39,1.45,1.45,0,0,0-.32-.58l-1.54-2.15c-.21-.29-.36-.45-.47-.49a.58.58,0,0,0-.42.1l-.11-.15Z"/><path class="cls-24" d="M83.7,91.38a.75.75,0,0,1,.56-.17.82.82,0,0,1,.52.28.73.73,0,0,1,.18.56.69.69,0,0,1-.26.52.72.72,0,0,1-.55.17.79.79,0,0,1-.7-.84A.7.7,0,0,1,83.7,91.38Zm2,1.3,2.4,2.84c.22.26.38.4.5.42a.61.61,0,0,0,.44-.16l.11.13L87.27,97.5l-.12-.14a.6.6,0,0,0,.23-.43,1.17,1.17,0,0,0-.32-.53l-1.77-2.09c-.22-.25-.38-.39-.5-.41a.56.56,0,0,0-.43.15l-.12-.14Z"/><path class="cls-24" d="M91.29,94.09l-3.64-1.53a3.8,3.8,0,0,0-.89-.29.55.55,0,0,0-.36.1l-.13-.13L88,90.55l.13.13A.43.43,0,0,0,88,91a.33.33,0,0,0,.1.27,2.3,2.3,0,0,0,.64.35l1.77.73-.64-1.5a2.87,2.87,0,0,0-.47-.84.31.31,0,0,0-.25-.11.61.61,0,0,0-.35.2l-.13-.14,1.06-1,.13.13a.68.68,0,0,0-.14.37,3.13,3.13,0,0,0,.27.85l1.5,3.7Z"/><path class="cls-24" d="M94.11,87l-1.61,1.9a2.46,2.46,0,0,0,1.43.59,1,1,0,0,0,.84-.34.9.9,0,0,0,.22-.51,2.42,2.42,0,0,0-.13-.79l.19,0a2.88,2.88,0,0,1,.31,1.34,1.84,1.84,0,0,1-2,1.64,3,3,0,0,1-1.49-.72,2.74,2.74,0,0,1-1-1.68,1.86,1.86,0,0,1,.4-1.55,1.52,1.52,0,0,1,1.22-.53A2.73,2.73,0,0,1,94.11,87Zm-1,.7a5,5,0,0,0-.9-.66,1,1,0,0,0-.52-.09.4.4,0,0,0-.25.15.48.48,0,0,0-.07.48,2.16,2.16,0,0,0,.75,1l.13.11Z"/><path class="cls-24" d="M93.87,83.65l.87.62a3.49,3.49,0,0,1-.33-1.21,1.15,1.15,0,0,1,.18-.67.57.57,0,0,1,.4-.25.62.62,0,0,1,.49.15.78.78,0,0,1,.33.43.5.5,0,0,1-.06.42.63.63,0,0,1-.4.26l-.29.07a.32.32,0,0,0-.09.08.42.42,0,0,0-.06.28,1,1,0,0,0,.22.53,3.79,3.79,0,0,0,.79.75l.88.62.23.16a1.63,1.63,0,0,0,.32.19.39.39,0,0,0,.26,0,1.11,1.11,0,0,0,.29-.27l.14.1-1.42,2-.14-.1a.52.52,0,0,0,.09-.43,1.69,1.69,0,0,0-.55-.52l-2.12-1.5a2,2,0,0,0-.44-.27.36.36,0,0,0-.25,0,.62.62,0,0,0-.26.21l-.16-.11Z"/><path class="cls-24" d="M96.66,79l1.41.76-.08.14a2.61,2.61,0,0,0-1.15,0,1,1,0,0,0-.55.41.49.49,0,0,0-.06.37.43.43,0,0,0,.21.28.4.4,0,0,0,.27,0,4.79,4.79,0,0,0,1.05-.39A3.54,3.54,0,0,1,99,80.31a1.48,1.48,0,0,1,.79.2,1.76,1.76,0,0,1,.56.56,1.29,1.29,0,0,1,.22.75,1.48,1.48,0,0,1-.21.76,2.47,2.47,0,0,1-.63.64.7.7,0,0,0-.15.14c0,.09,0,.21.08.36l-.08.14-1.49-.8.09-.14a2.15,2.15,0,0,0,1.16,0,1.09,1.09,0,0,0,.65-.45.53.53,0,0,0,.07-.4.47.47,0,0,0-.24-.31.65.65,0,0,0-.43-.09,3.63,3.63,0,0,0-.79.29,5.35,5.35,0,0,1-1.19.41,1.45,1.45,0,0,1-.94-.19,1.48,1.48,0,0,1-.66-.81,1.29,1.29,0,0,1,.15-1.13,1.55,1.55,0,0,1,.53-.52.41.41,0,0,0,.17-.14.27.27,0,0,0,0-.14,1,1,0,0,0-.1-.26Z"/><path class="cls-24" d="M102,77.72a2.41,2.41,0,0,1,0,1.68.83.83,0,0,1-.51.46.93.93,0,0,1-.71,0,1.32,1.32,0,0,1-.68-.82,8.19,8.19,0,0,1-.18-2.25l-.43-.21a2.66,2.66,0,0,0-.63-.24.64.64,0,0,0-.31.09.58.58,0,0,0-.24.27,1,1,0,0,0-.1.53.3.3,0,0,0,.14.21.48.48,0,0,0,.29,0,.65.65,0,0,1,.46,0,.56.56,0,0,1,.3.34.68.68,0,0,1,0,.5.69.69,0,0,1-.4.37.6.6,0,0,1-.49,0,1,1,0,0,1-.5-.55,1.71,1.71,0,0,1-.12-.92,3,3,0,0,1,.28-1,1.7,1.7,0,0,1,.7-.8,1.36,1.36,0,0,1,.77-.17,3.92,3.92,0,0,1,.9.36l1.65.79a1.94,1.94,0,0,0,.37.15.21.21,0,0,0,.14,0,.24.24,0,0,0,.09-.08.37.37,0,0,0-.06-.32l.17-.08a1.69,1.69,0,0,1,.27.69,1.08,1.08,0,0,1-.1.61.93.93,0,0,1-.43.46A.81.81,0,0,1,102,77.72Zm-.33-.15-1.42-.69a2.81,2.81,0,0,0,.31,1.12,1,1,0,0,0,.41.41.56.56,0,0,0,.44,0,.4.4,0,0,0,.26-.25A.92.92,0,0,0,101.64,77.57Z"/><path class="cls-24" d="M98,71.31l5.44,2.12a1.09,1.09,0,0,0,.63.12.58.58,0,0,0,.31-.35l.16.07-.88,2.28-.17-.06a.57.57,0,0,0,0-.48,1.16,1.16,0,0,0-.53-.32l-4.54-1.75a1.1,1.1,0,0,0-.63-.13.6.6,0,0,0-.3.35l-.17-.07Z"/><path class="cls-24" d="M104.74,63.54l2.28.77L105.73,70l-.19,0,0-.22a.93.93,0,0,0,0-.47.47.47,0,0,0-.19-.24,2,2,0,0,0-.61-.19l-4.37-1a2.54,2.54,0,0,0-.64-.1.54.54,0,0,0-.28.16,1,1,0,0,0-.19.41l0,.21-.18,0,.78-3.42.18,0-.06.28a.75.75,0,0,0,0,.47.42.42,0,0,0,.19.25,2,2,0,0,0,.6.19l4.24,1a2.06,2.06,0,0,0,.66.09.37.37,0,0,0,.26-.17,2.93,2.93,0,0,0,.17-.57l.12-.53a1.83,1.83,0,0,0,0-.9,1.66,1.66,0,0,0-.45-.72,5.21,5.21,0,0,0-1.08-.74Z"/><path class="cls-24" d="M101,60.36l1.71.2.13-1.07.49.06-.13,1.07,2.88.34a1.72,1.72,0,0,0,.52,0,.38.38,0,0,0,.21-.1.29.29,0,0,0,.09-.16q0-.31-.42-.66l.13-.13a1.34,1.34,0,0,1,.8,1.39,1.07,1.07,0,0,1-.33.69,1.09,1.09,0,0,1-.6.31,4.65,4.65,0,0,1-.92-.06l-2.52-.3-.07.59-.18,0a6.31,6.31,0,0,0-.8-1.15,6.08,6.08,0,0,0-1-.87Z"/><path class="cls-24" d="M100.94,54.6l5.4.14a3.64,3.64,0,0,0,.65,0,.41.41,0,0,0,.25-.14.86.86,0,0,0,.11-.38h.16l.34,1.93-.74,0a2.54,2.54,0,0,1,.57.63,1.15,1.15,0,0,1,.14.61,1.59,1.59,0,0,1-.84,1.36,2.93,2.93,0,0,1-1.61.36A3.35,3.35,0,0,1,104,58.8a2,2,0,0,1-.89-.72,1.58,1.58,0,0,1-.28-.95,1.21,1.21,0,0,1,.14-.58,2,2,0,0,1,.47-.52L102,56a2.32,2.32,0,0,0-.64,0,.39.39,0,0,0-.22.17.92.92,0,0,0-.09.43h-.21ZM104.08,56c-.48.23-.72.52-.73.86a.49.49,0,0,0,.09.3,1.05,1.05,0,0,0,.54.31,4.66,4.66,0,0,0,1.2.14,4.75,4.75,0,0,0,1.32-.09,1.14,1.14,0,0,0,.62-.33.45.45,0,0,0,.11-.3c0-.28-.22-.56-.68-.82Z"/><path class="cls-24" d="M106.07,52.46a.78.78,0,0,1,.22-.59.85.85,0,0,1,.57-.27.9.9,0,0,1,.61.2.82.82,0,0,1,.07,1.15.87.87,0,0,1-1.19.07A.8.8,0,0,1,106.07,52.46Z"/></g></g></g></svg>