<svg xmlns="http://www.w3.org/2000/svg" xmlns:xlink="http://www.w3.org/1999/xlink" viewBox="0 0 500 333.63"><defs><style>.cls-1{fill:url(#Degradado_sin_nombre_93);}.cls-2{fill:url(#radial-gradient);}.cls-3{fill:url(#linear-gradient);}</style><linearGradient id="Degradado_sin_nombre_93" x1="250" y1="141.3" x2="500" y2="141.3" gradientUnits="userSpaceOnUse"><stop offset="0.03" stop-color="#bf1f3d"/><stop offset="0.34" stop-color="#9a1835"/><stop offset="0.78" stop-color="#690f29"/><stop offset="1" stop-color="#560b25"/></linearGradient><radialGradient id="radial-gradient" cx="125" cy="141.3" r="133.4" gradientUnits="userSpaceOnUse"><stop offset="0" stop-color="#cd0000"/><stop offset="1" stop-color="#7f001c"/></radialGradient><linearGradient id="linear-gradient" x1="201.48" y1="269.09" x2="299.57" y2="269.09" gradientUnits="userSpaceOnUse"><stop offset="0.14" stop-color="#0060ae"/><stop offset="0.7" stop-color="#00bcf1"/><stop offset="1" stop-color="#0060ae"/></linearGradient></defs><g id="Layer_2" data-name="Layer 2"><g id="Layer_1-2" data-name="Layer 1"><path class="cls-1" d="M495.07,105.19Q485.14,71.25,456.7,42.8,428.91,15,395.66,5.09a118.43,118.43,0,0,0-67-.5,121.6,121.6,0,0,0-18.38,6.76Q286.89,22,266.11,42.8A205.89,205.89,0,0,0,250,61l60.27,60.26,72.37,72.38H310.27v89h45.88a124.45,124.45,0,0,0,34.39-5q34.57-10,64.43-39.78,21-21,32.2-44.22a131.16,131.16,0,0,0,7.74-20A119.21,119.21,0,0,0,495.07,105.19ZM341.51,87.37q15.09-15.09,34.28-13.7c12.79.88,24.33,6.5,34.62,16.77q14.74,14.78,16.27,33.43t-11.81,36.85Z"/><path class="cls-2" d="M250,61A205.89,205.89,0,0,0,233.89,42.8Q213.1,22,189.73,11.35a121.72,121.72,0,0,0-18.39-6.76,118.4,118.4,0,0,0-67,.5Q71.09,15,43.3,42.8,14.86,71.29,4.93,105.19a119.21,119.21,0,0,0,.16,68.39,130.14,130.14,0,0,0,7.74,20Q24.07,216.88,45,237.85q29.84,29.84,64.43,39.78a124.45,124.45,0,0,0,34.39,5h45.88v-89H117.36l72.37-72.38ZM85.13,160.72q-13.35-18.16-11.81-36.85T89.59,90.44c10.27-10.27,21.83-15.89,34.62-16.77s24.22,3.64,34.28,13.7Z"/><path d="M209.58,273v9.57h-8.1v-27h29.9V273Zm-.08-13.46v9.49h13.78v-9.49Z"/><path d="M268,282.59h-9.54L243.89,266h13.66v-6.44h-14.9v23h-8.18v-27h31V270h-8.57Z"/><path d="M275.49,282.59l-6.56-7.44V255.58h30.64v27Zm1.51-23v13.85l4.59,5.21h9.92V259.56Z"/><path class="cls-3" d="M209.58,273v9.57h-8.1v-27h29.9V273Zm-.08-13.46v9.49h13.78v-9.49Z"/><path class="cls-3" d="M268,282.59h-9.54L243.89,266h13.66v-6.44h-14.9v23h-8.18v-27h31V270h-8.57Z"/><path class="cls-3" d="M275.49,282.59l-6.56-7.44V255.58h30.64v27Zm1.51-23v13.85l4.59,5.21h9.92V259.56Z"/><path d="M60,328.12l3.21,5.45H35.23v-37h28L60.08,302H42.71v10.37H61.58v5.45H42.71v10.31Z"/><path d="M84.37,315.32l11,18.31H86.72l-6.67-11.17-6.67,11.17H64.79L75.7,315.32,64.61,296.6h8.63L80.05,308l6.78-11.42h8.66Z"/><path d="M105.05,320.45v13.12H97.56v-37H125.2v23.91ZM105,302v13h12.73V302Z"/><path d="M153.16,328.12l3.21,5.45h-28v-37h28L153.26,302H135.9v10.37h18.86v5.45H135.9v10.31Z"/><path d="M189.89,333.57h-8.81l-13.45-22.74h12.63V302H166.49v31.58h-7.56v-37H187.6v19.74h-7.91Z"/><path d="M219.09,302h-9.23v31.58H202.4V302h-9.34l-3.17-5.45h32.38Z"/><path d="M250.37,328l-3.25,5.6h-22.5l-3.21-5.45h20.08l1.32-2.27v-8.09H222.37V302.41l3.39-5.87h25.46L248.08,302H231.43l-1.6,2.7v7.62h20.54Z"/><path d="M289,328.12l3.21,5.45h-28v-37h28L289.13,302H271.76v10.37h18.87v5.45H271.76v10.31Z"/><path d="M314.63,296.54l7.91,18.57-7.91,18.46H294.44v-37ZM301.9,328.12h7.56l5.7-13L309.46,302H301.9Z"/><path d="M353.82,313.42v20.15H325.4v-37h29.52L351.75,302H333v26.13h13.37v-14.7Z"/><path d="M382.24,328.12l3.21,5.45h-28v-37h28L382.35,302H365v10.37h18.86v5.45H365v10.31Z"/><path d="M405.85,320.45v13.12h-7.49v-37H426v23.91ZM405.77,302v13H418.5V302Z"/><path d="M459.8,333.57H451l-13.44-22.74h12.62V302H436.41v31.58h-7.56v-37h28.67v19.74H449.6Z"/><path d="M466.75,333.57l-6.06-10.21V296.54H489v37Zm1.4-31.58v19l4.24,7.14h9.16V302Z"/></g></g></svg>