<svg xmlns="http://www.w3.org/2000/svg" viewBox="0 0 679.44 433.92"><defs><style>.cls-1{fill:#398640;}.cls-2{fill:#72bf44;}.cls-3{fill:#bfd730;}</style></defs><g id="Layer_2" data-name="Layer 2"><g id="Layer_1-2" data-name="Layer 1"><path class="cls-1" d="M130.51,347.81a12.12,12.12,0,0,1-.91,4.73,11.35,11.35,0,0,1-6.28,6.28,12.12,12.12,0,0,1-4.73.91H33.22a35.61,35.61,0,0,1-7-.77,36.71,36.71,0,0,1-7.47-2.41,34.92,34.92,0,0,1-7-4.24,28.56,28.56,0,0,1-6-6.28,30.89,30.89,0,0,1-4.14-8.55,35.89,35.89,0,0,1-1.55-11V262.44a35.53,35.53,0,0,1,.77-7.05,36.14,36.14,0,0,1,2.42-7.47,33.33,33.33,0,0,1,4.27-7,29.76,29.76,0,0,1,6.33-6,31.19,31.19,0,0,1,8.51-4.14,35.68,35.68,0,0,1,10.92-1.55h96.2v23.66H33.22c-3.1,0-5.46.82-7.1,2.46s-2.46,4.07-2.46,7.28v63.89a9.5,9.5,0,0,0,2.51,7.05,9.5,9.5,0,0,0,7,2.51h73.63V306.4h-63V282.55h74.72a11.63,11.63,0,0,1,4.73,1,11.83,11.83,0,0,1,3.78,2.59,12.27,12.27,0,0,1,2.5,3.78,11.57,11.57,0,0,1,.91,4.59Z"/><path class="cls-1" d="M277.7,347.81a12.3,12.3,0,0,1-.91,4.73,11.43,11.43,0,0,1-6.28,6.28,12.17,12.17,0,0,1-4.74.91H180.4a35.69,35.69,0,0,1-7.05-.77,36.63,36.63,0,0,1-7.46-2.41,34.65,34.65,0,0,1-7-4.24,28.6,28.6,0,0,1-6-6.28,30.89,30.89,0,0,1-4.14-8.55,36.21,36.21,0,0,1-1.54-11V262.44a34.81,34.81,0,0,1,.77-7.05,36.11,36.11,0,0,1,2.41-7.47,33.38,33.38,0,0,1,4.28-7,29.94,29.94,0,0,1,6.32-6,31.33,31.33,0,0,1,8.51-4.14,35.77,35.77,0,0,1,10.92-1.55h96.2v23.66H180.4c-3.09,0-5.46.82-7.09,2.46s-2.46,4.07-2.46,7.28v63.89q0,4.56,2.5,7.05a9.53,9.53,0,0,0,7.05,2.51H254V306.4h-63V282.55h74.72a11.68,11.68,0,0,1,4.74,1,11.89,11.89,0,0,1,3.77,2.59,12.3,12.3,0,0,1,2.51,3.78,11.75,11.75,0,0,1,.91,4.59Z"/><path class="cls-1" d="M414.71,359.73H306.77a12.12,12.12,0,0,1-4.73-.91,11.35,11.35,0,0,1-6.28-6.28,12.12,12.12,0,0,1-.91-4.73V229.22h23.66V336.07h96.2Z"/><path class="cls-2" d="M557.32,331.06a32.81,32.81,0,0,1-1.5,9.38A27.09,27.09,0,0,1,542,356.86a28.51,28.51,0,0,1-13.37,2.87H438.83a12.08,12.08,0,0,1-4.73-.91,11.6,11.6,0,0,1-3.78-2.5,11.44,11.44,0,0,1-2.5-3.78,12.12,12.12,0,0,1-.91-4.73V241.14a12.12,12.12,0,0,1,3.41-8.46,11.26,11.26,0,0,1,3.78-2.55,12.27,12.27,0,0,1,4.73-.91H518a31.89,31.89,0,0,1,9.37,1.55,28.44,28.44,0,0,1,9.33,5,27.17,27.17,0,0,1,7.19,8.87A28.52,28.52,0,0,1,546.77,258v4.46a48.57,48.57,0,0,1-2.1,13.51,44.57,44.57,0,0,1-6.73,13.7,41.86,41.86,0,0,1,7.51,5.92,37.78,37.78,0,0,1,6.14,8,42.31,42.31,0,0,1,4.19,10.28,48.56,48.56,0,0,1,1.54,12.65Zm-23.66-4.55a22.57,22.57,0,0,0-1.45-8.33,18.56,18.56,0,0,0-4.1-6.32,17.72,17.72,0,0,0-6.37-4.05,23.55,23.55,0,0,0-8.37-1.41H460V282.55h42.69a23.55,23.55,0,0,0,8.37-1.41,17.46,17.46,0,0,0,10.42-10.37,23.21,23.21,0,0,0,1.41-8.33V258q0-5.1-4.91-5.1H450.57v83.19h78.09c.42,0,.94,0,1.54-.09a3.76,3.76,0,0,0,1.64-.55,3.71,3.71,0,0,0,1.28-1.55,6.85,6.85,0,0,0,.54-3Z"/><path class="cls-2" d="M679.44,326.51a36.2,36.2,0,0,1-1.55,11,31.69,31.69,0,0,1-4.1,8.55,27.9,27.9,0,0,1-5.91,6.28,35.2,35.2,0,0,1-7,4.24,36.71,36.71,0,0,1-7.47,2.41,36.08,36.08,0,0,1-7.14.77H603.53a35.47,35.47,0,0,1-10.92-1.55A31.33,31.33,0,0,1,584.1,354a28.79,28.79,0,0,1-6.28-6,34.42,34.42,0,0,1-4.23-7.05,36.11,36.11,0,0,1-2.41-7.47,34.81,34.81,0,0,1-.77-7.05v-32q0-9.09,3.32-15.42a31.32,31.32,0,0,1,19.06-16,37.77,37.77,0,0,1,10.74-1.73h42.69V285h-42.5c-3.16,0-5.56.81-7.19,2.41s-2.46,4-2.46,7.05v31.86c0,3.22.8,5.64,2.41,7.28s4,2.46,7,2.46h42.69q4.81,0,7.19-2.46c1.57-1.64,2.36-4,2.36-7.1V229.22h23.67Z"/><path class="cls-2" d="M61.69,399.9v3.48c0,17.58-12.79,30.54-30.37,30.54C13.49,433.92,0,420.52,0,402.86S13.57,371.8,31.5,371.8c10.61,0,19.83,4.61,25.23,12L48.9,390a21.05,21.05,0,0,0-17.14-8.26,20.68,20.68,0,0,0-21.14,21.14c0,12.09,9,21.14,21.05,21.14,9.92,0,17.58-6.09,19.14-14.87H33.15V399.9Z"/><path class="cls-2" d="M72.3,402.86c0-17.66,13.58-31.06,31.5-31.06s31.58,13.4,31.58,31.06-13.57,31.06-31.58,31.06S72.3,420.52,72.3,402.86Zm52.47,0a20.57,20.57,0,0,0-21-21.06c-11.83,0-20.88,9.05-20.88,21.06s9,21.06,20.88,21.06A20.57,20.57,0,0,0,124.77,402.86Z"/><path class="cls-2" d="M232.92,399.9v3.48c0,17.58-12.79,30.54-30.37,30.54-17.83,0-31.32-13.4-31.32-31.06s13.57-31.06,31.5-31.06c10.61,0,19.83,4.61,25.23,12L220.13,390A21.05,21.05,0,0,0,203,381.72a20.69,20.69,0,0,0-21.15,21.14c0,12.09,9,21.14,21.06,21.14,9.92,0,17.58-6.09,19.14-14.87H204.38V399.9Z"/><path class="cls-2" d="M264.85,410.52H257v22.36H246.67v-60h25c11.22,0,19.75,8.18,19.75,19.06,0,9.13-6.09,16.18-14.79,18.1l16.18,22.88H280.34Zm-7.83-9h14.44a9.44,9.44,0,0,0,0-18.88H257Z"/><path class="cls-2" d="M345.85,423.13v9.75H305.48v-60h39.94v9.75H315.84v15.22h26.71v9.75H315.84v15.57Z"/><path class="cls-2" d="M400.84,423.13v9.75H360.47v-60h39.94v9.75H370.82v15.22h26.72v9.75H370.82v15.57Z"/><path class="cls-2" d="M466.36,372.84v60H455.83l-30-42.46v42.46H415.46v-60H426l30,42.46V372.84Z"/><path class="cls-2" d="M546.23,423.13v9.75H508.47v-60h10.35v50.29Z"/><path class="cls-2" d="M559.28,372.84h10.35v60H559.28Z"/><path class="cls-2" d="M597.21,382.59v15.83h24.71v9.75H597.21v24.71H586.86v-60h38.63v9.75Z"/><path class="cls-2" d="M679.44,423.13v9.75H639.07v-60H679v9.75H649.42v15.22h26.71v9.75H649.42v15.57Z"/><path class="cls-1" d="M428,21.79a79.36,79.36,0,0,0-79.27,79.27v17.88c.5-.58,1-1.17,1.52-1.72,10.29-10.87,22.1-16.88,36.69-20A41.3,41.3,0,0,1,428,59.82h55.7v58.11c0,22.31-20,40.61-40.4,42.18-30.46,2.34-47.22-14-53.55-22-6.82,5.94-12.29,12.62-18.3,19.52-6.58,7.57-12.46,15.18-16.63,23.94a28.45,28.45,0,0,0-4-.31c-.72,0-1.43.05-2.14.11v16.92s48.66,6.51,96.35-.24c45.41-6.43,76.65-37.64,76.65-80.14V21.79Z"/><path class="cls-2" d="M428,21.79a79.36,79.36,0,0,0-79.27,79.27V119c.5-.57,1-1.17,1.52-1.73,10.29-10.87,22.1-16.88,36.69-20A41.3,41.3,0,0,1,428,59.82h55.7l38-38Z"/><path class="cls-2" d="M348.76,198.31l83.61-89.81c-37.6-.8-56.79,2.75-71.74,18.53S341.31,168.47,348.76,198.31Z"/><path class="cls-1" d="M251.41,21.79a79.36,79.36,0,0,1,79.27,79.27v17.88c-.5-.58-1-1.17-1.52-1.72-10.29-10.87-22.1-16.88-36.7-20a41.29,41.29,0,0,0-41-37.37H195.7v58.11c0,22.31,20,40.61,40.4,42.18,30.47,2.34,47.23-14,53.56-22,6.82,5.94,12.29,12.62,18.29,19.52,6.59,7.57,12.47,15.18,16.63,23.94a28.47,28.47,0,0,1,4-.31c.71,0,1.43.05,2.14.11v16.92s-48.66,6.51-96.35-.24c-45.41-6.43-76.65-37.64-76.65-80.14V21.79Z"/><path class="cls-2" d="M251.41,21.79a79.36,79.36,0,0,1,79.27,79.27V119c-.51-.57-1-1.17-1.52-1.73-10.29-10.87-22.1-16.88-36.7-20a41.29,41.29,0,0,0-41-37.37H195.7l-38-38Z"/><path class="cls-2" d="M330.68,198.31,247.07,108.5c37.6-.8,56.78,2.75,71.74,18.53S338.13,168.47,330.68,198.31Z"/><circle class="cls-3" cx="339.72" cy="22.14" r="22.14"/></g></g></svg>