<svg xmlns="http://www.w3.org/2000/svg" xmlns:xlink="http://www.w3.org/1999/xlink" viewBox="0 0 788.96 294.45"><defs><style>.cls-1{fill:#002561;}.cls-2{fill:#03bfd7;}.cls-3{fill:url(#linear-gradient);}.cls-4{fill:url(#linear-gradient-2);}.cls-5{fill:url(#linear-gradient-3);}</style><linearGradient id="linear-gradient" x1="402.17" y1="94.72" x2="402.17" y2="153.06" gradientUnits="userSpaceOnUse"><stop offset="0.2" stop-color="#ed1c24"/><stop offset="0.5" stop-color="#f15a22"/><stop offset="0.8" stop-color="#ed1c24"/></linearGradient><linearGradient id="linear-gradient-2" x1="228.09" y1="94.72" x2="228.09" y2="153.06" xlink:href="#linear-gradient"/><linearGradient id="linear-gradient-3" x1="318.35" y1="98.89" x2="318.35" y2="150.49" gradientUnits="userSpaceOnUse"><stop offset="0" stop-color="#002561"/><stop offset="0.51" stop-color="#03bfd7"/><stop offset="1" stop-color="#002561"/></linearGradient></defs><g id="Layer_2" data-name="Layer 2"><g id="Layer_1-2" data-name="Layer 1"><path class="cls-1" d="M296.31,207.56a48.33,48.33,0,0,1-2,14.51,40.79,40.79,0,0,1-5.43,11.27,38.09,38.09,0,0,1-7.89,8.35,47.05,47.05,0,0,1-9.36,5.71,45.25,45.25,0,0,1-9.85,3.24,47.41,47.41,0,0,1-9.36,1L302,294.45H265.28l-49.47-42.81H198.74V227.91h53.67a27.54,27.54,0,0,0,8.17-1.87A20.57,20.57,0,0,0,267,222a17.45,17.45,0,0,0,4.15-6.16,22,22,0,0,0,1.46-8.26v-15a7.41,7.41,0,0,0-.5-3.06A3.65,3.65,0,0,0,270.8,188a3.76,3.76,0,0,0-1.64-.6,15.59,15.59,0,0,0-1.6-.09H189.25V294.45H165.52V175.52a12,12,0,0,1,.91-4.66,12.12,12.12,0,0,1,2.51-3.83,11.33,11.33,0,0,1,3.79-2.56,12.35,12.35,0,0,1,4.74-.91h90.09A28.57,28.57,0,0,1,281,166.44a27.32,27.32,0,0,1,8.9,7.21,28.18,28.18,0,0,1,4.93,9.35,32.94,32.94,0,0,1,1.5,9.4Z"/><path class="cls-1" d="M432.62,294.45H347a38.32,38.32,0,0,1-10.77-1.73,31.48,31.48,0,0,1-19.12-16q-3.33-6.34-3.33-15.57V175.52a12,12,0,0,1,.91-4.66A12.29,12.29,0,0,1,317.2,167a11.43,11.43,0,0,1,3.79-2.56,12.35,12.35,0,0,1,4.74-.91H432.62v23.73H337.51v73.84q0,4.67,2.46,7.12t7.21,2.47h85.44ZM421.94,241H347V217.05h74.94Z"/><path class="cls-2" d="M82.2,89.5h-74a8.47,8.47,0,0,1-3.25-.62A7.86,7.86,0,0,1,.62,84.57,8.46,8.46,0,0,1,0,81.33V0H16.23V73.27h66Z"/><path class="cls-2" d="M181.94,89.5H165.71v-22H108.66v22H92.44V44.75a47.18,47.18,0,0,1,3.37-18,41.87,41.87,0,0,1,9.36-14.16,42.31,42.31,0,0,1,14.17-9.24A47.06,47.06,0,0,1,137.19,0h36.57a8.27,8.27,0,0,1,3.18.62,8.14,8.14,0,0,1,5,7.56ZM108.66,51.3h57.05V16.23H137.19c-.5,0-1.55.07-3.16.22a31.67,31.67,0,0,0-5.55,1.09,35.05,35.05,0,0,0-6.65,2.68,23.36,23.36,0,0,0-6.43,5,25.65,25.65,0,0,0-4.83,8,31.33,31.33,0,0,0-1.91,11.58Z"/><path class="cls-2" d="M286.79,63.16a28.61,28.61,0,0,1-1.21,8.65,26.19,26.19,0,0,1-3.22,6.77,21.24,21.24,0,0,1-4.68,5,28.29,28.29,0,0,1-5.55,3.37A28.06,28.06,0,0,1,260.7,89.5H198.1V73.27h62.6A9.54,9.54,0,0,0,268,70.53a10.34,10.34,0,0,0,2.59-7.37,11.87,11.87,0,0,0-.69-4.12,9.43,9.43,0,0,0-2-3.24,8.56,8.56,0,0,0-3.12-2.12,10.75,10.75,0,0,0-4.09-.75H223.38a28.85,28.85,0,0,1-8.49-1.41A25.33,25.33,0,0,1,206.43,47a24.75,24.75,0,0,1-6.49-8.18,27,27,0,0,1-2.59-12.36,26.75,26.75,0,0,1,2.59-12.32A24.88,24.88,0,0,1,214.89,1.4,29.15,29.15,0,0,1,223.38,0h55.24V16.23H223.38A9.3,9.3,0,0,0,216.17,19a10.5,10.5,0,0,0-2.59,7.42,10.27,10.27,0,0,0,2.59,7.4,9.49,9.49,0,0,0,7.21,2.71h37.45a29.77,29.77,0,0,1,5.55.72,28.36,28.36,0,0,1,5.84,2,28,28,0,0,1,5.52,3.47,23,23,0,0,1,4.65,5,24.75,24.75,0,0,1,3.22,6.74A29,29,0,0,1,286.79,63.16Z"/><path class="cls-2" d="M381.16,89.5H322.62a26.08,26.08,0,0,1-7.37-1.18,21.67,21.67,0,0,1-7.39-3.9,21.91,21.91,0,0,1-5.68-7.06,22.65,22.65,0,0,1-2.28-10.64V8.18a8.26,8.26,0,0,1,2.34-5.81A7.75,7.75,0,0,1,304.83.62,8.47,8.47,0,0,1,308.08,0h73.08V16.23h-65V66.72a6.61,6.61,0,0,0,1.68,4.87,6.71,6.71,0,0,0,4.93,1.68h58.42Zm-7.3-36.57H322.62V36.57h51.24Z"/><path class="cls-2" d="M486.27,30.08A33.24,33.24,0,0,1,484.9,40a28.16,28.16,0,0,1-3.72,7.71,26.25,26.25,0,0,1-5.4,5.71,32.77,32.77,0,0,1-6.39,3.9,30.44,30.44,0,0,1-6.75,2.21,32.1,32.1,0,0,1-6.39.69L490.14,89.5H465.05L431.22,60.23H419.55V44h36.7a18.39,18.39,0,0,0,5.58-1.28,13.66,13.66,0,0,0,4.37-2.78A11.65,11.65,0,0,0,469,35.73a14.83,14.83,0,0,0,1-5.65V19.85a5,5,0,0,0-.34-2.09,2.42,2.42,0,0,0-.88-1.06,2.46,2.46,0,0,0-1.12-.41,10.83,10.83,0,0,0-1.09-.06H413.06V89.5H396.83V8.18a8.26,8.26,0,0,1,2.34-5.81A7.75,7.75,0,0,1,401.76.62,8.47,8.47,0,0,1,405,0h61.6a19.4,19.4,0,0,1,9.17,2,18.59,18.59,0,0,1,6.09,4.93,19.2,19.2,0,0,1,3.37,6.39,22.37,22.37,0,0,1,1,6.43Z"/><path class="cls-2" d="M623.83,235.72c6.88-3.29,11.63-12.22,14-24.82V158.61a5.89,5.89,0,0,1-3.18-.92,5.81,5.81,0,0,1-10.13,2.48,5.8,5.8,0,0,1-5,2.94h-.35c-2.26-.13-5.85-1.19-6.68-3.19,0,0-8.11,11.16-8.1,11.16s0,15.17,0,0v61.8c1.07.64,2.14,1.22,3.21,1.73C613.74,237.55,619.22,237.93,623.83,235.72Z"/><path class="cls-1" d="M783.1,156a72.49,72.49,0,0,0-40.65-40.52,80.5,80.5,0,0,0-30.8-5.8h-56a5.8,5.8,0,0,1-1,4.79,5.81,5.81,0,0,1,1.71,10.29A5.81,5.81,0,0,1,655,135.1a6,6,0,0,1,1,2c.07.23,10.18,6.1,10.18,6.1h45.47a48.42,48.42,0,0,1,17.85,3.16,40.5,40.5,0,0,1,13.85,8.89,39.14,39.14,0,0,1,8.95,13.85A48.9,48.9,0,0,1,755.46,187v30.14a48.78,48.78,0,0,1-3.16,18,39.21,39.21,0,0,1-8.95,13.78,40.35,40.35,0,0,1-13.85,8.89A48.42,48.42,0,0,1,711.65,261H637.83V235.22A22,22,0,0,0,630,246.74a61.93,61.93,0,0,1-6.39-.1c-1-.07-1.92-.16-2.88-.26l-2-.28-1.47-.28c-1.15-.23-2.29-.48-3.43-.75-3.16-.74-6.34-1.53-9.52-2.35v34.85a17.2,17.2,0,0,0,1.29,6.7,16.08,16.08,0,0,0,8.89,8.89,17.2,17.2,0,0,0,6.7,1.29h90.44a80.5,80.5,0,0,0,30.8-5.8A72.65,72.65,0,0,0,783.1,248.2,80.63,80.63,0,0,0,789,217.14V187A80.75,80.75,0,0,0,783.1,156Z"/><path class="cls-1" d="M479.63,129.4a5,5,0,0,1-5-5h0a6.06,6.06,0,0,1,6.38-6.36l7.63-.1c-1.75-4.89-4.86-8.15-8.41-8.15-5.47,0-9.9,7.68-9.9,17.15s4.43,17.16,9.9,17.16c5,0,9.09-6.4,9.78-14.72Z"/><path class="cls-1" d="M144.67,137.61a11.73,11.73,0,0,1,0-21.29,41.25,41.25,0,0,1,2.21-6.63H0v33.5H69.6V294.45h33.5V143.19h43.32A44.26,44.26,0,0,1,144.67,137.61Z"/><path class="cls-2" d="M636.74,129.8l16.37-.21-15.74-4.52,15.59-5-16.37.31L650,111l-15.55,5.12,21.09-24.88-24.4,21.43,5.79-15.32-10,13L628,94l-5.69,15.35-3.84-15.92-.92,16.35L604.33,83.1l8.8,28.48-12.15-11,8.46,14-14.84-6.92,13.19,11.78,6.54,0a9,9,0,1,1-1.16,10H602.52l4.51,3-11.86,11.29,14.61-7.39-8,14.28,11.78-11.36-9.23,26.5L618,141l1.43,16.31,3.33-16L629,156.44l-1.54-16.3,10.37,12.67-6.27-15.12,14.61,9.89-11.42-13.45,28.5,11Z"/><path class="cls-3" d="M466.62,127c0-13.31,6.63-24.11,14.8-24.11H330.06c-3.29,2-7.33,9-7.13,22.41.32,21,7.36,25.82,7.36,25.82H481.42C473.25,151.08,466.62,140.28,466.62,127Z"/><path class="cls-4" d="M311,102.78c-2.81-.45-3.66-1.49-5.8-1.7-3.09-.31-117.33-2.68-131-3.58-12.39-.8-21.64,11.06-23.26,25H149.6a4.47,4.47,0,1,0,0,8.93h1.34c1.62,13.94,10.87,25.8,23.26,25,13.7-.89,127.94-3.26,131-3.57,2.14-.21,3-1.26,5.83-1.71-2.47-4.93-4.65-12.89-4.65-25.65C306.41,113.23,308.71,106.48,311,102.78Z"/><path class="cls-5" d="M319.41,125.2c.2-19.66,7.13-22.35,7.13-22.35H316.19l0,.07.1,0c-.06,0-6.14,2.9-6.14,22.6,0,14.46,2.89,21.9,5.32,25.59h11.05S319.22,144.35,319.41,125.2Z"/><path class="cls-2" d="M615.47,132.21a6,6,0,0,0,3.5,1.12,6.1,6.1,0,1,0,0-12.2,6,6,0,0,0-3.5,1.12h-71q1,4.89,2.21,10Z"/><path class="cls-1" d="M534.32,122.25H480.83a5,5,0,1,0,0,10h56.94C536.67,128.88,535.51,125.56,534.32,122.25Z"/><path class="cls-2" d="M582,163.44a11.87,11.87,0,0,0-11.87-11.87h0a11.87,11.87,0,0,0-11.87,11.87v4.46c6.82,16.81,15,31.71,23.74,43.35Z"/><path class="cls-1" d="M578.13,234.61c-.51-.28-1.58-.82-1.93-1.06l-3.48-2.32-.38-.24a3.35,3.35,0,0,0-.25-.34c-.85-1-1.76-2-2.59-3a8,8,0,0,1-.42-.79c-.93-1.89-1.83-3.69-2.64-5.66a16.16,16.16,0,0,0-3.82-5.56c-.17-.44-.32-.88-.52-1.31-1.27-2.76-2.58-5.34-3.87-7.84v47.44l-86.71-90.45a11.31,11.31,0,0,0-6.11-3.33,12,12,0,0,0-6.94.68,12.77,12.77,0,0,0-5.25,4.43,11.37,11.37,0,0,0-2.05,6.62V292.62H474.9V200.44L561.61,291a10.39,10.39,0,0,0,4,2.65,12.73,12.73,0,0,0,4.43.82,12.12,12.12,0,0,0,4.65-.91,11.67,11.67,0,0,0,3.79-2.51,12.42,12.42,0,0,0,2.56-3.79,11.69,11.69,0,0,0,1-4.75V236.08C580.68,235.62,579.4,235.14,578.13,234.61Z"/><path class="cls-1" d="M642.85,156.23c7.46,42.2,1.62,77.5-16.51,86.18-23.5,11.25-58.74-26.43-78.71-84.16S530.52,44.59,554,33.33c19.24-9.21,46.34,14.38,66.5,54.91h.05c-22.52-45.84-54-72.4-76.81-61.49-27.28,13.07-31.67,74.89-9.81,138.09s61.69,103.85,89,90.79c21.63-10.36,28.84-51.37,20-99.41Z"/></g></g></svg>