<svg xmlns="http://www.w3.org/2000/svg" xmlns:xlink="http://www.w3.org/1999/xlink" viewBox="0 0 148.59 108.61"><defs><style>.cls-1,.cls-2{fill:#10b794;}.cls-1,.cls-4,.cls-5,.cls-6{stroke:#fff;stroke-miterlimit:10;}.cls-1{stroke-width:0.67px;}.cls-3{fill:#fff;}.cls-4,.cls-5{stroke-width:0.54px;}.cls-4{fill:url(#linear-gradient);}.cls-5{fill:url(#linear-gradient-2);}.cls-6{fill:none;stroke-width:0.51px;}</style><linearGradient id="linear-gradient" x1="40.6" y1="37.41" x2="105.02" y2="37.41" gradientUnits="userSpaceOnUse"><stop offset="0" stop-color="#3a59a4"/><stop offset="1" stop-color="#88c5c1"/></linearGradient><linearGradient id="linear-gradient-2" x1="80.85" y1="-8.86" x2="100.71" y2="27.12" xlink:href="#linear-gradient"/></defs><g id="Layer_2" data-name="Layer 2"><g id="Layer_1-2" data-name="Layer 1"><path class="cls-1" d="M.34,80.17H6.4c3.88,0,7,1.39,7,5.67s-3.17,6-6.91,6H4.33v6h-4Zm5.93,8.49c2.2,0,3.24-1,3.24-2.82s-1.19-2.5-3.35-2.5H4.33v5.32Z"/><path class="cls-1" d="M16.8,80.17h6.36c3.74,0,6.81,1.3,6.81,5.49s-3.07,5.81-6.81,5.81H20.79v6.35h-4Zm6,8.13c2.1,0,3.23-.9,3.23-2.64s-1.13-2.32-3.23-2.32h-2v5Zm-.4,2.11,2.76-2.55,5.63,10H26.36Z"/><path class="cls-1" d="M32.89,88.92c0-5.77,3.26-9.08,8-9.08s8,3.33,8,9.08-3.26,9.22-8,9.22S32.89,94.68,32.89,88.92Zm12,0c0-3.54-1.52-5.63-3.93-5.63S37,85.38,37,88.92s1.52,5.78,3.93,5.78S44.84,92.45,44.84,88.92Z"/><path class="cls-1" d="M58.32,80.17h4V87h6.1v-6.8h4V97.82h-4V90.45h-6.1v7.37h-4Z"/><path class="cls-1" d="M76.9,80.17H88v3.34H80.89v3.55h6V90.4h-6v4.07h7.34v3.35H76.9Z"/><path class="cls-1" d="M95.35,80.17h4.78l5.54,17.65h-4.22l-2.31-8.94c-.49-1.77-1-3.85-1.44-5.69h-.1c-.43,1.86-.9,3.92-1.39,5.69l-2.32,8.94H89.81ZM93.46,90.51H102v3.1h-8.5Z"/><path class="cls-1" d="M107.69,80.17h4v14.3h7v3.35h-11Z"/><path class="cls-1" d="M122.25,83.51h-4.86V80.17H131.1v3.34h-4.86V97.82h-4Z"/><path class="cls-1" d="M134.18,80.17h4V87h6.1v-6.8h4V97.82h-4V90.45h-6.1v7.37h-4Z"/><path class="cls-2" d="M.34,80.17H6.4c3.88,0,7,1.39,7,5.67s-3.17,6-6.91,6H4.33v6h-4Zm5.93,8.49c2.2,0,3.24-1,3.24-2.82s-1.19-2.5-3.35-2.5H4.33v5.32Z"/><path class="cls-2" d="M16.8,80.17h6.36c3.74,0,6.81,1.3,6.81,5.49s-3.07,5.81-6.81,5.81H20.79v6.35h-4Zm6,8.13c2.1,0,3.23-.9,3.23-2.64s-1.13-2.32-3.23-2.32h-2v5Zm-.4,2.11,2.76-2.55,5.63,10H26.36Z"/><path class="cls-2" d="M32.89,88.92c0-5.77,3.26-9.08,8-9.08s8,3.33,8,9.08-3.26,9.22-8,9.22S32.89,94.68,32.89,88.92Zm12,0c0-3.54-1.52-5.63-3.93-5.63S37,85.38,37,88.92s1.52,5.78,3.93,5.78S44.84,92.45,44.84,88.92Z"/><path class="cls-2" d="M58.32,80.17h4V87h6.1v-6.8h4V97.82h-4V90.45h-6.1v7.37h-4Z"/><path class="cls-2" d="M76.9,80.17H88v3.34H80.89v3.55h6V90.4h-6v4.07h7.34v3.35H76.9Z"/><path class="cls-2" d="M95.35,80.17h4.78l5.54,17.65h-4.22l-2.31-8.94c-.49-1.77-1-3.85-1.44-5.69h-.1c-.43,1.86-.9,3.92-1.39,5.69l-2.32,8.94H89.81ZM93.46,90.51H102v3.1h-8.5Z"/><path class="cls-2" d="M107.69,80.17h4v14.3h7v3.35h-11Z"/><path class="cls-2" d="M122.25,83.51h-4.86V80.17H131.1v3.34h-4.86V97.82h-4Z"/><path class="cls-2" d="M134.18,80.17h4V87h6.1v-6.8h4V97.82h-4V90.45h-6.1v7.37h-4Z"/><path class="cls-3" d="M.32,107.59l.91-1.09a2.78,2.78,0,0,0,1.72.74c.67,0,1-.26,1-.68s-.4-.58-1-.83L2,105.34A2.06,2.06,0,0,1,.6,103.42a2.27,2.27,0,0,1,2.5-2.09,3.26,3.26,0,0,1,2.26.92l-.8,1a2.35,2.35,0,0,0-1.46-.55c-.55,0-.9.23-.9.63s.46.59,1.08.83l.89.36a1.94,1.94,0,0,1,1.39,1.91c0,1.17-1,2.18-2.64,2.18A3.88,3.88,0,0,1,.32,107.59Z"/><path class="cls-3" d="M6.88,101.46H9.29c1.55,0,2.79.55,2.79,2.26s-1.26,2.38-2.74,2.38H8.47v2.38H6.88Zm2.36,3.38c.88,0,1.29-.39,1.29-1.12s-.47-1-1.33-1H8.47v2.12Z"/><path class="cls-3" d="M13.43,101.46h4.39v1.33H15v1.41H17.4v1.33H15v1.62h2.92v1.33h-4.5Z"/><path class="cls-3" d="M19.12,105a3.37,3.37,0,0,1,3.31-3.68,3,3,0,0,1,2.11.91l-.84,1a1.75,1.75,0,0,0-1.23-.56c-1,0-1.73.85-1.73,2.26s.68,2.28,1.7,2.28a1.84,1.84,0,0,0,1.37-.66l.84,1a2.91,2.91,0,0,1-2.27,1C20.6,108.61,19.12,107.37,19.12,105Z"/><path class="cls-3" d="M25.84,101.46h1.59v7H25.84Z"/><path class="cls-3" d="M30.52,101.46h1.89l2.21,7H32.94L32,104.92c-.2-.7-.38-1.53-.57-2.26h0c-.17.74-.36,1.56-.56,2.26l-.92,3.56H28.31Zm-.76,4.11h3.38v1.24H29.76Z"/><path class="cls-3" d="M35.42,101.46H37v5.69h2.77v1.33H35.42Z"/><path class="cls-3" d="M41.12,101.46h1.59v7H41.12Z"/><path class="cls-3" d="M44,107.59,45,106.5a2.74,2.74,0,0,0,1.72.74c.66,0,1-.26,1-.68s-.39-.58-1-.83l-.91-.39a2.05,2.05,0,0,1-1.41-1.92,2.26,2.26,0,0,1,2.49-2.09,3.24,3.24,0,0,1,2.26.92l-.8,1a2.3,2.3,0,0,0-1.46-.55c-.54,0-.89.23-.89.63s.46.59,1.07.83l.89.36a1.94,1.94,0,0,1,1.4,1.91c0,1.17-1,2.18-2.65,2.18A3.88,3.88,0,0,1,44,107.59Z"/><path class="cls-3" d="M50.6,101.46H55v1.33H52.18v1.41h2.4v1.33h-2.4v1.62H55.1v1.33H50.6Z"/><path class="cls-3" d="M56.62,101.46h2c2.14,0,3.52,1.07,3.52,3.48s-1.38,3.54-3.43,3.54H56.62Zm1.89,5.74c1.19,0,2-.58,2-2.26s-.8-2.2-2-2.2h-.3v4.46Z"/><path class="cls-3" d="M65.41,107.59l.91-1.09a2.78,2.78,0,0,0,1.73.74c.66,0,1-.26,1-.68s-.4-.58-1-.83l-.91-.39a2.06,2.06,0,0,1-1.42-1.92,2.27,2.27,0,0,1,2.5-2.09,3.26,3.26,0,0,1,2.26.92l-.8,1a2.3,2.3,0,0,0-1.46-.55c-.54,0-.89.23-.89.63s.46.59,1.07.83l.89.36a1.94,1.94,0,0,1,1.39,1.91c0,1.17-1,2.18-2.64,2.18A3.88,3.88,0,0,1,65.41,107.59Z"/><path class="cls-3" d="M72,101.46h1.73l1.14,3.12c.14.41.26.86.4,1.29h0c.14-.43.26-.88.4-1.29l1.11-3.12h1.73v7H77.08V105.9c0-.68.13-1.7.2-2.38h0l-.57,1.66-1,2.69h-.88l-1-2.69-.56-1.66h0c.07.68.2,1.7.2,2.38v2.58H72Z"/><path class="cls-3" d="M81.61,101.46h1.9l2.2,7H84l-.92-3.56c-.19-.7-.38-1.53-.56-2.26h0c-.17.74-.35,1.56-.55,2.26L81,108.48H79.41Zm-.75,4.11h3.38v1.24H80.86Z"/><path class="cls-3" d="M86.51,101.46H89c1.49,0,2.71.52,2.71,2.19S90.53,106,89,106H88.1v2.53H86.51Zm2.4,3.23c.83,0,1.28-.35,1.28-1s-.45-.93-1.28-.93H88.1v2Zm-.16.85,1.1-1,2.23,4H90.31Z"/><path class="cls-3" d="M94.42,102.79H92.49v-1.33h5.44v1.33H96v5.69H94.42Z"/><path class="cls-3" d="M101.44,101.46H103v2.71h2.42v-2.71H107v7h-1.59v-2.93H103v2.93h-1.58Z"/><path class="cls-3" d="M108.49,104.94c0-2.29,1.29-3.61,3.18-3.61s3.19,1.33,3.19,3.61-1.3,3.67-3.19,3.67S108.49,107.23,108.49,104.94Zm4.74,0c0-1.41-.6-2.24-1.56-2.24s-1.56.83-1.56,2.24.6,2.3,1.56,2.3S113.23,106.35,113.23,104.94Z"/><path class="cls-3" d="M115.85,107.59l.91-1.09a2.78,2.78,0,0,0,1.73.74c.66,0,1-.26,1-.68s-.4-.58-1-.83l-.91-.39a2.06,2.06,0,0,1-1.42-1.92,2.27,2.27,0,0,1,2.5-2.09,3.26,3.26,0,0,1,2.26.92l-.8,1a2.3,2.3,0,0,0-1.46-.55c-.54,0-.89.23-.89.63s.46.59,1.07.83l.89.36a1.94,1.94,0,0,1,1.39,1.91c0,1.17-1,2.18-2.64,2.18A3.88,3.88,0,0,1,115.85,107.59Z"/><path class="cls-3" d="M122.42,101.46h2.41c1.54,0,2.78.55,2.78,2.26s-1.25,2.38-2.74,2.38H124v2.38h-1.58Zm2.36,3.38c.87,0,1.28-.39,1.28-1.12s-.47-1-1.33-1H124v2.12Z"/><path class="cls-3" d="M129,101.46h1.58v7H129Z"/><path class="cls-3" d="M133.7,102.79h-1.93v-1.33h5.45v1.33h-1.94v5.69H133.7Z"/><path class="cls-3" d="M139.31,101.46h1.9l2.2,7h-1.68l-.91-3.56c-.2-.7-.38-1.53-.57-2.26h-.05c-.16.74-.35,1.56-.55,2.26l-.92,3.56h-1.62Zm-.75,4.11h3.38v1.24h-3.38Z"/><path class="cls-3" d="M144.22,101.46h1.58v5.69h2.77v1.33h-4.35Z"/><path class="cls-4" d="M97.71,47.35h-7.9a7.44,7.44,0,0,0-7.31,7.56V66.2a7.44,7.44,0,0,1-7.32,7.56H70.5a7.44,7.44,0,0,1-7.31-7.56V54.91a7.44,7.44,0,0,0-7.31-7.56h-8a7.44,7.44,0,0,1-7.32-7.56V35a7.44,7.44,0,0,1,7.32-7.56h8a7.44,7.44,0,0,0,7.31-7.56V8.62A7.44,7.44,0,0,1,70.5,1.06h4.68A7.44,7.44,0,0,1,82.5,8.62V19.84a7.44,7.44,0,0,0,7.31,7.56h7.9A7.43,7.43,0,0,1,105,35v4.83A7.43,7.43,0,0,1,97.71,47.35Z"/><path class="cls-5" d="M82.93,2.74a7.05,7.05,0,0,1,1.46,3.72l.12,12.32A6.39,6.39,0,0,0,91.05,25l9,.18a7.26,7.26,0,0,1,6.27,5.15s0-3.27,0-11.51C106.15,8.56,96.78.28,85.14.28H79.77A13.25,13.25,0,0,1,82.93,2.74Z"/><circle class="cls-3" cx="97.06" cy="37.59" r="2.94"/><circle class="cls-3" cx="51.05" cy="37.51" r="2.94"/><path class="cls-6" d="M52.29,36.49a1.28,1.28,0,0,0,0,2,.08.08,0,0,0,.14,0v-2A.08.08,0,0,0,52.29,36.49Z"/><path class="cls-6" d="M52.32,37.51l12.79,0a.25.25,0,0,1,.22.21l1.56,6.61c.06.29.4.27.45,0l5-36.82a.23.23,0,1,1,.46,0l3.16,59.85a.16.16,0,0,0,.31,0l4-34.83c0-.29.36-.34.45-.06l1.86,5.25a.23.23,0,0,0,.21.18l11.92-.2"/></g></g></svg>