<svg xmlns="http://www.w3.org/2000/svg" viewBox="0 0 413.07 178.11"><defs><style>.cls-1{fill:#d2232a;}.cls-2{fill:#414042;}</style></defs><g id="Layer_2" data-name="Layer 2"><g id="Layer_1-2" data-name="Layer 1"><polygon class="cls-1" points="285.63 50.33 258.17 69.53 175 0 92.87 68.36 121 68.36 174.98 23.44 217.54 59.02 212.66 62.93 174.97 31.88 131.57 68.36 156.44 68.36 175.07 52.7 199.9 73.14 192.93 78.72 192.93 99.21 230.06 69.5 257.2 92.18 285.08 72.68 320.2 99.89 320.2 77.12 285.63 50.33"/><polygon class="cls-1" points="257.07 101.93 229.1 80.7 192.93 109.31 192.93 129.71 229.3 100.94 256.54 121.61 284.44 102.74 320.2 129.93 320.2 109.83 284.98 83.05 257.07 101.93"/><path class="cls-2" d="M9.51,178.11V152.37H0V140.91H32.2v11.46H22.75v25.74Z"/><path class="cls-2" d="M60.21,178.11v-12.9H49.06v12.9H36.76v-37.2h12.3v14.85H60.21V140.91H72.45v37.2Z"/><path class="cls-2" d="M80,178.11v-37.2h27.43v9.46H92.24V155h15.14v8.89H92.24v4.73h15.14v9.45Z"/><path class="cls-1" d="M150.35,172.54h-15.5l-1.8,5.57H118l15.55-38.33H151.2l15.55,38.33H152.2ZM138,163.15h9.18L143,150.85Z"/><path class="cls-1" d="M171.1,178.11v-9.74h27.1c1.33,0,1.91-.58,1.91-2.09v-.58c0-1.45-.58-2-1.91-2H180.83c-8.71,0-13.08-5-13.08-10v-4.91c0-6.55,2.43-9,12.64-9h30.74v9.74H183.52c-1.56,0-2.08.7-2.08,2.09v.58c0,1.39.52,2,2.08,2h16.09c9.44,0,13.13,5.31,13.13,11.11V167c0,6.26-4,11.16-13,11.16Z"/><path class="cls-1" d="M257.23,178.11V160.77l-7.89,17.34H238.29l-7.94-17.34v17.34H217V139.78h17.41l10,20.83,9.95-20.83h16.37v38.33Z"/><path class="cls-1" d="M307.29,172.54h-14.5l-1.8,5.57H274.92l15.55-38.33h17.67l15.55,38.33H309.14Zm-11.37-9.39h8.18L300,150.85Z"/><path class="cls-1" d="M340.1,178.11c-11,0-14.73-1.62-14.73-9.16v-20c0-7.48,3.71-9.16,14.73-9.16h23.47v9.74H344.28c-3.08,0-4.18.87-4.18,2.61v13.63q0,2.61,4.18,2.61h19.29v9.74Z"/><path class="cls-1" d="M371.42,178.11v-9.74h27.1c1.34,0,1.92-.58,1.92-2.09v-.58c0-1.45-.58-2-1.92-2H380.15c-7.31,0-12.07-4-12.07-9v-3.91c0-6.55,2.43-11,12.64-11h30.74v9.74H383.85c-1.56,0-2.09.7-2.09,2.09v.58c0,1.39.53,2,2.09,2h18.08c7.83,0,11.14,4.31,11.14,10.11V168c0,6.26-3,10.16-12,10.16Z"/></g></g></svg>