<svg xmlns="http://www.w3.org/2000/svg" xmlns:xlink="http://www.w3.org/1999/xlink" viewBox="0 0 345.89 259.57"><defs><style>.cls-1{fill:#00723a;}.cls-2{font-size:50.38px;font-family:Cinzel-Bold, Cinzel Bold;font-weight:700;letter-spacing:-0.01em;}.cls-2,.cls-8{fill:#80c342;}.cls-3{letter-spacing:0.01em;}.cls-4{letter-spacing:0.01em;}.cls-5{letter-spacing:0.01em;}.cls-6{letter-spacing:-0.08em;}.cls-7{fill:url(#radial-gradient);}.cls-9{fill:#fff;}.cls-10{fill:#414042;}</style><radialGradient id="radial-gradient" cx="189.75" cy="68.44" r="69.93" gradientUnits="userSpaceOnUse"><stop offset="0.01" stop-color="#fedbb6"/><stop offset="1" stop-color="#faa74a"/></radialGradient></defs><g id="Layer_2" data-name="Layer 2"><g id="Layer_1-2" data-name="Layer 1"><path class="cls-1" d="M102.45,218.43a5.76,5.76,0,0,1-3-.93A6.93,6.93,0,0,1,97,214.75L78,173.1h-.57a6.2,6.2,0,0,1-.45,2c-.3.83-.63,1.69-1,2.59s-.7,1.69-1,2.39-.54,1.18-.67,1.44L61.23,211.61s-5.63,12-18.16,13.65c-16.49,2.22-24.54-12.52-43,5.06a.3.3,0,0,0,.34.49c12.86-6.74,17.14,9.58,32.19,11.06,9.64.94,17-3.26,22.57-10.16a.37.37,0,0,0-.49-.53c-5.49,3.78-13.05,4.59-18.35,4-9.69-1.11-13.51-6-13.51-6s3.82,3,12.54,4.09c19.28,2.51,28.46-17.66,29.24-19.78l2.93-6.95h15l3.14,7.86h0c.51,1.27.45,2.26-.19,3a2.92,2.92,0,0,1-2.24,1.06h-.57v.64H103v-.64ZM68.68,203.87l6.53-15.68,6.26,15.68Z"/><path class="cls-1" d="M53.11,194.72a15.5,15.5,0,0,0-6.74-2.09,10.67,10.67,0,0,0,4.39-1.6,9.77,9.77,0,0,0,3.39-3.64,11.72,11.72,0,0,0,1.3-5.77A10.73,10.73,0,0,0,53,174.29a14.3,14.3,0,0,0-6.74-4.09,33.27,33.27,0,0,0-9.71-1.3H15.05v.74h1A4.53,4.53,0,0,1,19.33,171a4.83,4.83,0,0,1,1.45,3.31v41.22a4.61,4.61,0,0,1-.32,1.6c-.2.51-.81,1.49-3.13,2.16,4.52-.47,6.53.91,10.21,1.8,4.35,1.06,9.05,2.82,15.81,2,6.16-.77,11.66-5.92,13.59-8.62a13.3,13.3,0,0,0,2.6-8,13.77,13.77,0,0,0-1.71-7A13,13,0,0,0,53.11,194.72Zm-7.82,17.71a9,9,0,0,1-4,3.94,13.29,13.29,0,0,1-5.92,1.26H31.94V172.1H34a11.3,11.3,0,0,1,5,1,7.33,7.33,0,0,1,3.32,3.35,15.78,15.78,0,0,1,.44,10.82,8.09,8.09,0,0,1-2,3.17,8.3,8.3,0,0,1-2.94,1.74,10.11,10.11,0,0,1-3.35.56v.67a16.46,16.46,0,0,1,4.69.67,10.63,10.63,0,0,1,3.9,2.12A10.31,10.31,0,0,1,45.74,200a13.94,13.94,0,0,1,1,5.58A14.28,14.28,0,0,1,45.29,212.43Z"/><path class="cls-1" d="M153.82,174.39H134.41V175h1.22a3.8,3.8,0,0,1,2.78,1.12,4.05,4.05,0,0,1,1.19,2.79v25.32l-32.35-30.83h-.64a47.47,47.47,0,0,1,.77,8v33.24a3.94,3.94,0,0,1-3.91,3.91h-1.22v.64h19.41v-.64h-1.22a3.77,3.77,0,0,1-2.75-1.16,3.72,3.72,0,0,1-1.15-2.75h0l0-25.38,32.41,30.82h.57q-.39-2-.57-3.93a41.75,41.75,0,0,1-.2-4.26v-33a4,4,0,0,1,1.22-2.79,3.85,3.85,0,0,1,2.75-1.12h1.16Z"/><path class="cls-1" d="M195.55,217.66a7.15,7.15,0,0,1-2.49-2.87l-19-41.68h-.58a6.2,6.2,0,0,1-.45,1.95c-.3.84-.63,1.7-1,2.6s-.7,1.69-1,2.4-.55,1.18-.68,1.44L155.4,215.24a6.32,6.32,0,0,1-2.22,2.42,6,6,0,0,1-3,.93h-.58v.64h13.71v-.64h-.58a2.92,2.92,0,0,1-1.54-.48,2.64,2.64,0,0,1-1.09-1.38,3,3,0,0,1,.16-2l3.33-8h15l3.14,7.88h0c.52,1.28.45,2.28-.19,3a2.93,2.93,0,0,1-2.24,1.06h-.58v.64h20.37v-.64h-.51A5.82,5.82,0,0,1,195.55,217.66ZM164.67,204l6.56-15.73L177.51,204Z"/><path class="cls-1" d="M232.45,206.16a19.15,19.15,0,0,1-2.75,5.48,11.83,11.83,0,0,1-4.16,3.58,12.14,12.14,0,0,1-5.64,1.25h-8.39v-37.4a4.11,4.11,0,0,1,1.25-2.85,3.89,3.89,0,0,1,2.85-1.19h.83v-.64H197V175h.83a3.89,3.89,0,0,1,2.85,1.19,4.11,4.11,0,0,1,1.25,2.85v35.48a4.11,4.11,0,0,1-1.25,2.85,3.89,3.89,0,0,1-2.85,1.19H197v.64h33.18l2.95-13.07Z"/><path class="cls-1" d="M275,217.66a7.08,7.08,0,0,1-2.49-2.87l-19-41.68h-.57a6.2,6.2,0,0,1-.45,1.95c-.3.84-.63,1.7-1,2.6s-.71,1.69-1,2.4-.54,1.18-.67,1.44l-14.91,33.74a6.4,6.4,0,0,1-2.22,2.42,6,6,0,0,1-3,.93H229v.64h13.7v-.64h-.57a2.87,2.87,0,0,1-1.54-.48,2.6,2.6,0,0,1-1.09-1.38,3,3,0,0,1,.15-2l3.34-8h15l3.15,7.88h0c.51,1.28.45,2.28-.19,3a2.93,2.93,0,0,1-2.24,1.06h-.58v.64h20.37v-.64H278A5.77,5.77,0,0,1,275,217.66ZM244.12,204l6.56-15.73L257,204Z"/><path class="cls-1" d="M301.81,177a6.68,6.68,0,0,1,4.77,1.82,6.48,6.48,0,0,1,1.76,4.77v.71l.64.06V173.17a9.12,9.12,0,0,1-1.92.52c-.9.17-1.87.32-2.92.44a24.18,24.18,0,0,1-3,.2H275.8a24.63,24.63,0,0,1-2.95-.2c-1.07-.12-2-.27-2.91-.44a10.7,10.7,0,0,1-2-.52v11.21l.65-.06v-.71a6.44,6.44,0,0,1,1.76-4.77,6.56,6.56,0,0,1,4.7-1.82h8.59v37.53a4.11,4.11,0,0,1-1.25,2.85,3.89,3.89,0,0,1-2.85,1.19h-.83v.64h19.47v-.64h-.83a3.86,3.86,0,0,1-2.85-1.19,4.07,4.07,0,0,1-1.25-2.85V177Z"/><path class="cls-1" d="M345.38,218.59a5.82,5.82,0,0,1-3-.93,7.15,7.15,0,0,1-2.49-2.87l-19-41.68h-.58a6.42,6.42,0,0,1-.44,1.95c-.3.84-.64,1.7-1,2.6s-.7,1.69-1,2.4-.55,1.18-.68,1.44l-14.91,33.74a6.32,6.32,0,0,1-2.22,2.42,6,6,0,0,1-3,.93h-.58v.64h13.71v-.64h-.58a2.86,2.86,0,0,1-1.53-.48,2.55,2.55,0,0,1-1.09-1.38,2.93,2.93,0,0,1,.15-2l3.33-8h15l3.14,7.88h0a2.7,2.7,0,0,1-.2,3,2.92,2.92,0,0,1-2.24,1.06h-.57v.64h20.36v-.64ZM311.49,204l6.56-15.73L324.33,204Z"/><text class="cls-2" transform="translate(56.37 258.49)">A<tspan class="cls-3" x="30.38" y="0">G</tspan><tspan class="cls-4" x="63.22" y="0">R</tspan><tspan class="cls-5" x="90.78" y="0">O </tspan><tspan class="cls-6" x="136.77" y="0">P</tspan><tspan class="cls-5" x="159.64" y="0">ARK</tspan></text><path class="cls-7" d="M190.56,131.93l3.77,1.47q7-3.45,14.89-6.79a145.46,145.46,0,0,1,37.66-9.79,59.75,59.75,0,0,0,.31-6A57.71,57.71,0,1,0,133,122.44C151.61,122.33,171.93,124.64,190.56,131.93Z"/><path class="cls-1" d="M191.47,159.17a65.54,65.54,0,0,1-2.21-131c-.76,0-1.51,0-2.27,0a68.85,68.85,0,1,0,66.4,87.06A65.56,65.56,0,0,1,191.47,159.17Z"/><path class="cls-1" d="M153.26,44.62s23,6.5,42.18-4c17.41-9.55,18.78-32,18.24-33.12-19.19,12.26-33.53,5.65-50,11.45s-15.82,15-15.9,17.4S147.57,40,145,42.24s4.14-1.81,4.14-1.81S170,28,191.7,28.09C186.54,29.16,165.17,34.42,153.26,44.62Z"/><path class="cls-1" d="M141.05,43.12a21.56,21.56,0,0,1-14.72-13.8c-4.22-11.65-1-20.64-10.4-28.92,11.62-2,34.81,2.15,27.47,38.56-4.26-12.92-7.19-19.68-12.33-25.25C132.83,16.49,138.12,27.76,141.05,43.12Z"/><path class="cls-1" d="M231.91,142.22a60.64,60.64,0,0,0-11.42,6.38c-1.41,1-2.71,2-3.92,3A63.23,63.23,0,0,0,231.91,142.22Z"/><path class="cls-1" d="M239.72,134.48a64,64,0,0,0-26.68,11,66.68,66.68,0,0,0-11.71,10.65,63.14,63.14,0,0,0,11.29-2.88,65.73,65.73,0,0,1,7-5.74,62.17,62.17,0,0,1,15.4-8A63.66,63.66,0,0,0,239.72,134.48Z"/><path class="cls-1" d="M205.74,142.19a65.67,65.67,0,0,0-14.9,14.65h.63a63.25,63.25,0,0,0,7.69-.47,67.91,67.91,0,0,1,13-12.09,65.65,65.65,0,0,1,28.94-11.49c.65-.81,1.27-1.64,1.88-2.49A64.76,64.76,0,0,0,205.74,142.19Z"/><path class="cls-1" d="M200.11,130.06c-14.62,7.31-24.36,20.72-26.69,24.16a61.49,61.49,0,0,0,6.94,1.65A64.44,64.44,0,0,1,197.31,138c9.81-7.13,26-14.72,48.59-12.23l.09-.14c-1-.34-2-.68-2.91-1C230.72,123,214.37,122.93,200.11,130.06Z"/><path class="cls-1" d="M165.71,151.36a62.22,62.22,0,0,0,6.26,2.41c1.92-2.88,12-17.27,27.49-25,11.33-5.67,23.91-6.89,34.85-6.35C190.6,113.46,168.94,146,165.71,151.36Z"/><path class="cls-1" d="M198.16,139.21a65.43,65.43,0,0,0-16.26,16.92,63.18,63.18,0,0,0,7.19.67,65.51,65.51,0,0,1,15.76-15.75A66.31,66.31,0,0,1,244,128.85c.37-.55.74-1.1,1.09-1.67C223.25,125,207.66,132.31,198.16,139.21Z"/><path class="cls-8" d="M176.31,136.05q2-1.78,4.25-3.56c-9.93-5.71-24.72-10.68-44.13-7.79.31.54.62,1.08.94,1.62A66.4,66.4,0,0,1,176.31,136.05Z"/><path class="cls-8" d="M182.21,124.21a59.18,59.18,0,0,1,6,3.14,59.57,59.57,0,0,1,5.57-2.84c-11.39-6.18-26.94-10.05-46.7-5.07C158,118.4,170.64,119.06,182.21,124.21Z"/><path class="cls-8" d="M181.81,131.54c.66-.49,1.34-1,2-1.45,1-.66,2-1.29,3-1.9a54.94,54.94,0,0,0-5.19-2.65c-14.57-6.49-30.9-5.69-43.17-3.44-.94.34-1.89.71-2.84,1.1,0,0,0,.09.07.14C156.1,120.16,171.57,125.52,181.81,131.54Z"/><path class="cls-8" d="M166.86,146.55c.95-1.3,2.12-2.8,3.53-4.42l-1-.66a64.12,64.12,0,0,0-28.46-9.9q1.62,2.15,3.4,4.14a62.28,62.28,0,0,1,18.6,8.08C164.33,144.7,165.63,145.62,166.86,146.55Z"/><path class="cls-8" d="M171.35,141c1.16-1.28,2.44-2.61,3.86-4a64.8,64.8,0,0,0-37-9.35c.5.77,1,1.53,1.55,2.28a65.66,65.66,0,0,1,30.43,10.28Z"/><path class="cls-8" d="M164.22,150.46c.37-.61,1-1.55,1.79-2.73-1.22-.93-2.52-1.86-3.92-2.76a60.81,60.81,0,0,0-15.88-7.25,63.59,63.59,0,0,0,17.92,12.9Z"/><path class="cls-9" d="M230.25,107.53c-1.41-9.2-7.42-15.77-16.06-17.56a18.8,18.8,0,0,0-4.3-.44c-.67,0-3.49-.08-3.93.28a5.06,5.06,0,0,0,.93-1.21c1.36-2.09,3.44-3.21,5.22-4.89a20.27,20.27,0,0,0,5.71-10A21.5,21.5,0,0,0,212.51,54a26.82,26.82,0,0,0-19-8.28,29,29,0,0,0-20.77,7.75c-7,6.57-10.42,15.35-10.56,26.84-.1,9-.09,18.1-.08,26.91,0,6.36,0,12.94,0,19.4a5.55,5.55,0,0,0,1.38,4.1,5.4,5.4,0,0,0,4,1.37h.1c7.28-.05,14.69,0,21.85,0q8.21,0,16.42,0a27.56,27.56,0,0,0,13.76-3.6C227.12,124.15,231.48,115.56,230.25,107.53Z"/><path class="cls-1" d="M204.27,85.28c-1.54-4.83-3-9.48-4.51-14.13-.13-.41-.22-.83-.37-1.23-1.37-3.7-3.31-5.38-6.15-5.37s-4.87,1.79-6.08,5.45c-1.72,5.23-3.4,10.47-5,15.74-2.68,8.8-5.29,17.63-7.93,26.45-.78,2.6-.16,4.32,1.89,5.16,2.37,1,3.8-.34,4.84-2.21,3.76-6.76,8.23-12.94,14.49-17.64,5.4-4,11.39-6.15,18.17-4.75,7.56,1.56,12.61,7.26,13.83,15.21,1.05,6.89-2.7,14.28-9.22,18a24.72,24.72,0,0,1-12.36,3.23c-12.76,0-25.52,0-38.28.06-2,0-2.65-.56-2.63-2.62.08-15.44-.08-30.87.1-46.3.11-9.4,2.53-18.07,9.67-24.81,10.06-9.49,26.62-9.29,35.71.41C219.31,65.41,216.26,80.85,204.27,85.28Zm8.13,29.31c-1.58-5-2.11-9.5-3.71-13.82-.64-1.75-2.54-2-4.23-1.42a3.09,3.09,0,0,0-2.21,3.86c1.06,4.14,2.28,8.25,3.62,12.31a2.91,2.91,0,0,0,3.92,2C211.08,117,212.47,116.06,212.4,114.59Z"/><path class="cls-8" d="M193.38,73.42c1,3.37,2.08,6.72,3.05,10.1,1.22,4.27,1.15,4.22-2.45,6.84a57,57,0,0,1-7.19,5l6.3-21.91Z"/><path class="cls-9" d="M167.31,109.16a.66.66,0,0,0,0-.14.86.86,0,0,0,0-.17l0-.14,0-.11-.06-.17-.1-.2-.08-.12-.12-.21a1.08,1.08,0,0,0-.08-.19l-.14-.23h0v0l-.19-.42a.59.59,0,0,0,0-.08l-.1-.34v-.09a.76.76,0,0,0,0-.15v-.12a.87.87,0,0,0-.11-.59l0,0,0,0a.94.94,0,0,0-.12-.22,1.07,1.07,0,0,0-.14-.16s0,0,0,0h0v0a.7.7,0,0,0,.16-.41.85.85,0,0,0-.08-.54,1.43,1.43,0,0,0-.14-.2.82.82,0,0,0,0-.27s0,0,0-.07v-.09a.83.83,0,0,0-.34-.55.79.79,0,0,0-.6-.24.86.86,0,0,0-.77.53l-.08.09h-.13l-.17,0a.81.81,0,0,0-.43.06h-.07a.71.71,0,0,0-.45.07h-.1l-.14,0-.11,0h0l-.1-.12-.07-.08a.84.84,0,0,0-.78-.22l-.09,0a1,1,0,0,0-.59.52.69.69,0,0,0,0,.13l-.1,0-.16,0-.24-.06-.06,0a.9.9,0,0,0-.56,0,.78.78,0,0,0-.48.33.82.82,0,0,0-.22.19h-.28a.86.86,0,0,0-.32,0l-.94-.1-.52-.06a8.33,8.33,0,0,0-1.16-.05l-.31,0h-.21l-1.28.18h-.07l-.78.11-.16,0-.91.32-.33,0h-1.59l-.6,0a.73.73,0,0,0-.39,0l-.62.07h0l-.63,0a.79.79,0,0,0-.42-.15l-2.63-.19-.12,0-.21,0-1.17-.25a.73.73,0,0,0-.22-.09l-.8-.17a.8.8,0,0,0-.42-.16l-.22,0a.63.63,0,0,0-.19,0,.74.74,0,0,0-.3-.08l-.59,0-.32-.12a.69.69,0,0,0-.24,0l-.44,0h-.21a.65.65,0,0,0-.19,0H139a.75.75,0,0,0-.55-.06l-.79.19-.17.06-.23.12a.84.84,0,0,0-.32.27l-.07.06-.14.06a.71.71,0,0,0-.17.11l-.31.25-.08.07-.1.11a.85.85,0,0,0-.25.25l-.46.74a.89.89,0,0,0-.08.17l-.21.66a.77.77,0,0,0,0,.4l-.15.33a1,1,0,0,0,0,.16l-.11.56a.86.86,0,0,0,0,.23,1.43,1.43,0,0,0-.08.22l0,.09c0,.06,0,.11,0,.16v.6c-.08.88-.09,1.78-.1,2.65,0,.35,0,.7,0,1.05s0,.86-.07,1.29l-.13.51-.08.12-.26.23a1,1,0,0,0-.33.55.65.65,0,0,0,0,.31.52.52,0,0,0,0,.11l-.21.31a.87.87,0,0,0-.13.65.83.83,0,0,0,.36.53.85.85,0,0,0,.06.31l0,.69a.92.92,0,0,0,.09.39.83.83,0,0,0,.89.73,1.36,1.36,0,0,0,.29,0l0,.57a.9.9,0,0,0,.09.4v.32a1.83,1.83,0,0,1-.33,1.13.82.82,0,0,0-.16.87.81.81,0,0,0,.63.51l.07,0,.11,0a.54.54,0,0,0,0,.18.8.8,0,0,0,.25.52,1.1,1.1,0,0,0,.25.19.91.91,0,0,0,.4.1h.53a.85.85,0,0,0,.23,0h.77a1,1,0,0,0,.32.09h.07a.83.83,0,0,0,.52-.19,1.08,1.08,0,0,0,.41-.25.87.87,0,0,0,0-1.15l-.27-.52a.93.93,0,0,0-.27-.29.41.41,0,0,0-.09-.1l-.28-.27-.08-.08h0l0,0-.06-.07,0,0a8.41,8.41,0,0,1,.09-1.09.89.89,0,0,0,.08-.31v0h0l.08-.24a.75.75,0,0,0,.07-.12l.14-.3.16.55a.78.78,0,0,0,.23.38.69.69,0,0,0,.16.18l.07.09.19.65a6.35,6.35,0,0,0,.13.76l0,.81a.87.87,0,0,0,.28.59.77.77,0,0,0,.37.19.66.66,0,0,0,.2.06.5.5,0,0,0,0,.13l.07.12a.92.92,0,0,0,.34.34l.13.06a.87.87,0,0,0,.57.08h.08a.55.55,0,0,0,.18,0h0a.75.75,0,0,0,.26,0H142a1,1,0,0,0,.25,0h.68a.86.86,0,0,0,.61-.25.84.84,0,0,0,.16-.93l0-.16s0,0,0-.07v-.13a.82.82,0,0,0-.27-.61,8.66,8.66,0,0,1-.72-.36.78.78,0,0,0-.27-.24,5.11,5.11,0,0,1-.87-3.09l.12-.35a.19.19,0,0,0,.07-.06l.15-.12a1,1,0,0,0,.56,0l.16-.05.2-.08.16-.11.09-.08.11-.11a.21.21,0,0,1,0-.06,1,1,0,0,0,.19-.16l0-.07a.85.85,0,0,0,.14-.21.79.79,0,0,0,.29-.06l.42-.11a.33.33,0,0,0,.14,0l.41.11h0l.16,0a.78.78,0,0,0,.31,0l.17.05.09,0,.21.07.55.09h.19a3.91,3.91,0,0,0,1.16-.05,4.7,4.7,0,0,0,.83-.1l1-.08.48,0a7,7,0,0,0,1.44.16l.22,0c0,.29.08.58.13.86l.06.37a.61.61,0,0,0,0,.14,1.09,1.09,0,0,0,0,.26,5.5,5.5,0,0,1-.23,1.55v0a.9.9,0,0,0-.13.51v0a4.7,4.7,0,0,0-.09,1.51.41.41,0,0,0,0,.11.85.85,0,0,0,.41,1,.75.75,0,0,0,.27.26.78.78,0,0,0,.62.26h0a.75.75,0,0,0,.26,0,.77.77,0,0,0,.37,0l.25-.05h.08l.81,0,.21,0a.83.83,0,0,0,.52-.23.85.85,0,0,0,.3-.44.69.69,0,0,0,0-.35l.11.06a.15.15,0,0,1,0,.07.91.91,0,0,0,.1.4s0,0,0,.06a1,1,0,0,0,.45.44.81.81,0,0,0,.31.06h.12a.9.9,0,0,0,.4.09l1.46,0a1,1,0,0,0,.61-.29v0a.43.43,0,0,0,.11-.12.82.82,0,0,0,0-.89l-.07-.12,0,0-.07-.23a.94.94,0,0,0-.2-.33l-.27-.27a.85.85,0,0,0-.47-.31l0,0a2,2,0,0,1-.2-.58c-.07-.31-.12-.63-.17-.94l-.12-.91c0-.25-.05-.49-.07-.73v-.65a.88.88,0,0,0,0-.15,1,1,0,0,0,0-.29l.06,0,.12-.07,0,0,.33-.23a.86.86,0,0,0,.14-.13l.19-.21a.92.92,0,0,0,.16-.31l.09-.13a.75.75,0,0,0,.07-.12l.17-.37v0l0,0,.07-.09.07-.07.07-.08.06-.08a.53.53,0,0,0,.13-.13l.06-.07,0,0,0,0,.14-.17a.76.76,0,0,0,.15-.28l.13-.41h0a.72.72,0,0,0,.14-.26l.12-.42.16-.33a.7.7,0,0,0,.06-.19l.53-1.28v0l.11-.07a1.12,1.12,0,0,0,.2-.18.81.81,0,0,0,.29-.12l.18-.12.26-.1a.92.92,0,0,0,.33,0l.08,0h.58a.82.82,0,0,0,.27,0l.15,0,.08,0a.88.88,0,0,0,.28,0,.62.62,0,0,0,.19,0l.13,0h.08a.71.71,0,0,0,.29,0h.07a.76.76,0,0,0,.31.16H165l.16,0h0a.73.73,0,0,0,.33,0h.11a.88.88,0,0,0,.42,0l.16,0,.1,0a.72.72,0,0,0,.23-.12l.09-.07.08,0,.06,0,0,0a.52.52,0,0,0,.1-.11l0-.06a.84.84,0,0,0,.2-.29h0a.37.37,0,0,0,.05-.11l0-.1h0l.06-.16,0-.15a.77.77,0,0,0,0-.15v-.38ZM155.1,121.78h0l0,.08a.59.59,0,0,0,0,.13.71.71,0,0,0,0,.29l-.44-.35a.45.45,0,0,0-.17-.13l-.08,0,0-.5a.82.82,0,0,0,.1-.46.77.77,0,0,0,0-.15.91.91,0,0,0,.1-.43v0l.15-.44a.44.44,0,0,0,.12-.15l.09.23.13.74,0,.12,0,.42Z"/><path class="cls-10" d="M134,116.44v0h0l.28-.3-.09.19h0l.1-.24.09-.09-.17.41v0h0l.2-.49,0,0h0l0,.09h0l-.19.72h0l.17-.64h0l-.1.59h0l0,.07h0v-.08h0l0-.24v.18l-.09.52,0,0h0l0-.07,0,1.06h0l0-1.09.07-.18v0l0,.35h0v.37l0,.36,0,.43h0l0-.37,0,.16,0,0,0,0v0h0l0-.08,0,.35h0l0-.4.17-.54,0,.14,0,0h0l0-.06-.07.54h0l.07-.63.24-.89-.12.66v0h0l-.06.34h0l.05-.37.18-.62h0l.18-.69h0l-.07.9h0l.07-1,0-.09v.06l0,0,0,0,0-.18h0l0,.16h0v.27h0v-.25h0l0,0v-.91l0,.52h0l-.07-.64v-.16h0l.05.36h0l-.06-.4h0l.05-.52,0,0,0,0h0v0h0l.08-.48,0,1h0v-.88h0v-.28l0,.46h0l-.07-1.71a2.45,2.45,0,0,0,0-.27h0l0,.39h0l.1-1.4h0v0l0-.15.1-1.09,0,0h0v0c0-.37.07-.74.13-1.1l.17-.54v0h0l-.07.17v0l.27-.77h.05l.29-.56v.07h0l-.11.41a7.67,7.67,0,0,0-.43,4c.09.44.17.87.26,1.31a5.1,5.1,0,0,1,.11.77,5.58,5.58,0,0,1-.07.91c0,.21,0,.39-.05.58l-.2.78h0l-.08.35a2.88,2.88,0,0,0-.27.34l-.08.06,0,0,0,0-.08.12h0l-.05.09v0h0l.06-.08.06,0c0,.09-.1.17-.14.26h0l-.1.18h0l0,.31h0a1.94,1.94,0,0,0,0,.24,1.89,1.89,0,0,0,0,.41v0h0c0,.15.06.31.09.46l0,.1,0,.33,0,1,0,0v0l0-.83,0,.23v0h0v1.32a2.54,2.54,0,0,1-.55,1.64h.13l.07.05.11,0h.11l.06,0,0,0h0l.12.07.08.08a.5.5,0,0,1,0,.13c0,.15.07.3.11.45v0h0v.07l0,.06v0h0v0h0l.2,0,0,0H138l.11.09h0v0l0-.06h0l0,0h.34l0,0,0,0h0l0,0h0l-.33-.64h0v0h0v0h-.07l0,0v0l0,0h0l-.06-.08h0l0,0h0v0l-.31-.3h0l-.1-.09,0,0h0a.58.58,0,0,0-.1-.12l-.06-.07-.08-.2h0l.07.18a.35.35,0,0,1,0-.08l0-.08v-.14a9.28,9.28,0,0,1,.14-1.49l0,0v0l0,0,0,0v-.06l0,.08s0-.08,0-.12l.38-1.09.08-.13-.22.62.16-.34.11-.36.09-.15v.08l0,0v-.06a3.57,3.57,0,0,1,.69-.71v0h0v0l.17.33v0l.23.46.33,1.16h0l-.3-1.1v0l.08.15v0h0l.24.54v.23l-.14-.49h0l.22.74h0l-.06-.21h0v-.2l.06.14v0h0a2.72,2.72,0,0,1,.11.25v.18l0,0v-.15s0,.09.05.13l.3,1.06a7.05,7.05,0,0,0,.15.8l0,.9h0l0-.79a.75.75,0,0,1,0,.16v.4h0v.07l0,.05v.06l0,.05v0l0,0h0l.16,0,.11-.06h0l.11.09,0,0h0l.05,0,.1.07,0,0v.06h0l0,.06,0,.25.07.12.13.06.14,0h0l.25,0h.55l0,0,0,0H143l-.75,0,0,0,.51,0a.5.5,0,0,0,0-.12h0l0,0v0l0-.05h0v.21l0,0V123l0,.06h0l0-.1v0l0,0v0l0,0v-.24h0v.21l-.05-.06-.06-.05-.23-.24.18.2-.09,0-.1,0,0-.14,0,0h0v.12h0l0,0h0v0h0l-.09-.08h0v0l0,0,0,0-.18-.17h0v0h0l-.12-.11-.06-.1.16.08-.17-.1a6,6,0,0,1-1.12-3.86l.06-.22.26-.65h.07l.08,0,.2-.16v-.25l-.05-.17.19-.3h0l.16,0,0,0v0c.13.06.18.23.21.38s.16.36.32.32l.09,0h.06l0,0,0,0,0,0,0,0,0-.1,0-.11h.08l0,0,.08,0,.06-.07,0,0v-.08l0-.12A1.64,1.64,0,0,1,143,116h.08l.31,0h.07v0h.08l.67-.18h0l-.14,0,.08-.08h0l.2,0,0,0h0l.09,0,.59.15h0l.21.06,0,0,0,0-.41-.13.4.11.53.19.14.07.54.09h.08l.35,0a4,4,0,0,0,.69-.07,4.9,4.9,0,0,0,.76-.08l0,0,1.16-.09.61.07a6.41,6.41,0,0,0,1.38.15l.94.11v0h0v.07a10.61,10.61,0,0,0,.22,1.84v.1l0,0v0h0l0,.22a6.89,6.89,0,0,1-.3,2l-.07.08h0l0,0a4.21,4.21,0,0,0-.14,1.69l0,.06v.18l-.06.14v0h0l.11-.07h0l.08,0,.08,0,0-.05,0-.07,0,0,0,0,0,.07h0v0l0,0h0l0,0h0l0,.11v0l0,0,0,.08-.14.07h0l.13,0,0,.09v0h0v0h0v0h0l0,0h0l.1,0,.1,0h.18l0,0,0,0,.23-.06h.18l.89,0h0l-1,0,.06,0h.28l.26,0,.49,0h0l.05,0h0l-.06-.06h.15l-.25-.17-.51-.41h0l0,0h0l-.1,0-.23-.16h0v0h0l-.06-.07,0,0v0h0l0,.05,0,0v0l0-.19,0,0h0l.1-1,.07-.09h0l-.06.06,0-.19v0h0l.07-.35.06-.07v0h0l0,.05,0-.16,0,0v0h0l.18-.56.23-.54v0h0l-.19.45c0-.13.09-.26.14-.39s.12-.29.19-.42v0l-.15.59h0l.18-.69.06-.12v0h0c.06-.12.11-.24.16-.37l.23-.35h0l-.15.22.15-.28.52,1v0l0,.16h0l0-.12a8.29,8.29,0,0,1,.41,1l.14.79h0v0l-.11-.62h0l.12.65.05.59v.14l-.05.67h0l0-.31v0h0c0,.16,0,.31,0,.47h0l0,0v0h.06v0h0v.06l0,0,0,0h0l.06.07.07,0v0h0l.05,0h.14l0,0,0,0h0l0,0h0l0,0h0l.06,0h0l.09.06,0,.15.13.14v0h0l.07.18h0v.1l-.06,0v0h0l.05,0V123l0,0v0h0l0,0v0h0v0h0l0,0v.12h.5l0,0,0,0,1.45,0,0,0,0,0h-.76l0,0h0l0,0h0l.18,0h0v0h0l.09,0h0l0,0,0,0h0l.27,0a.86.86,0,0,1-.07-.1h0l-.06-.09-.11-.34-.32-.32h0l0,0h0l0,0h0l0,0,.22.3-.14-.14-.19-.23h0l.1.13-.16-.16h0v0h0l-.09-.09,0,0h0l-.14-.13a1.29,1.29,0,0,1-.16-.17,2.35,2.35,0,0,1-.33-.87c-.08-.33-.13-.67-.19-1l-.1-.79c0-.31-.07-.61-.09-.92s0-.57,0-.85v0l-.07-.41.05.16.08.14h0l-.13-.3,0-.23.12-.12h0l.16,0,0,.06h0l0-.08.14-.07.14-.08h0l.37-.26.19-.21h0l-.15.18-.18.15.24-.24.3-.45.23-.48.15-.17h0l.11-.12h0l.26-.3,0,0,.07-.07v0l0,0h0l.15-.17.13-.42-.05.16,0,0c.06-.16.1-.33.15-.5h0l-.05.22.13-.39,0-.09-.07.3h0l.14-.49.19-.38h0l.14-.41,0-.17.4-.87v0h0l.07-.12,0-.12h.05l.28-.18h0l.21-.2.29-.15h0l-.07.05v0h0l.19-.12h0l0,0h0l.61-.25h0l.15.06.15,0h.08l.07,0h.24l.19,0h.12l.15,0,.14,0,.08,0h.16l.06,0h0l0,0h.23l.22,0h.11l.19,0,.19,0h0l.11,0h0l.19,0H165v0h.05l0,0h0l0,0h0l-.06,0h0l.06,0h.06l-.06,0v0h.06l0,0h0l0,0h0l.07,0h0l.06,0,.07,0h0l.1,0h.13l.11,0h0l.1-.06h0l0,0h0l-.22.14h0l0,0h.1l0,0h0l0,0h.05l.14,0,.12-.09h0l0,0h.06l.08-.12.06-.06,0-.11h0l.06-.14h0l0-.13h0v-.32l0,0h0s0-.07,0-.1h0v0l0-.13,0,0v0l0-.08h0v0l-.1-.19h0c-.08-.15-.17-.3-.26-.45h0v0l-.14-.23h0v0l.05.09a3.53,3.53,0,0,1-.39-.71c0-.13-.07-.26-.1-.4v0l.06.27v0h0l.12.3h0l.15.34h0v0l-.19-.42h0l-.1-.25-.1-.39v-.18l0-.15v-.16l0-.12h0v.06h0l0-.1,0-.1v0l0,0h0v-.05h0l0,0-.11-.13,0,0h0v0l-.22-.2-.08-.08h0l-.2-.32h0v0h0v0l0,0h0l0,0h0v0l0-.07h0l0,0h0v0l0,0v0l.05.06.07.05h0v0l-.07,0L165,105l0,0,0,0h0v0l0,0v0l0,0h0v0l0,0h0l.08.06h0v0l-.07-.06v0h0v0l.06,0h0v0l0,0,.06,0h0v0l-.07,0v0h.06l.07,0h0l-.09,0v0l.14,0h0v0l-.09,0,0,0,0,0-.09,0h0l-.2-.09L165,104v0h0v-.15l0-.11h0v0h0v-.09l-.07,0h0a.11.11,0,0,0,0-.05s-.12.23-.12.19a2,2,0,0,0-.25.39l0,0-.16,0-.14,0h0l-.14.06-.06,0h0l.05,0h0l-.23,0h0l-.07,0h-.07l-.15,0-.09,0h0l-.24,0h.07l-.18.06h-.28l-.17,0h0l0,0h0l0,0h0l-.06,0a.87.87,0,0,1-.32-.06.61.61,0,0,1-.14-.07l-.09-.17v0h0l0,0,0,0,0,0-.07-.07-.09,0,0,.07,0,.17,0,.1h0v.08h0l0,.06,0,.1c0,.06,0,.12,0,.19a1.65,1.65,0,0,1-.32.07h-.1l-.43-.19h0l.24.11-.1,0h0l.16,0,.08,0h-.05a2.08,2.08,0,0,1-.5-.07l-.12-.08h0l-.13,0h0l.07,0h0l-.07,0h0l-.17-.05h0l.08,0-.07,0h0l.06,0H160l-.09,0,0,0h0l.06,0h0l0,0h0v0h0l-.08,0,.28.07h0l.45.15h0l-.44-.15h0l-.31-.08h0l-.15-.08h0v0l0,0,0,0h-.17l0,0,.05,0-.06,0h0l-.12,0h-.07v0l0,0h0l.09,0h.1l-.36.18v0a5.66,5.66,0,0,1-.92,0l-.07,0h0c-.56,0-1.1-.11-1.68-.17a10.38,10.38,0,0,0-1.12,0l-.36,0-1.32.19-.32.08.32-.05c-.3.07-.59.14-.88.23a5.94,5.94,0,0,1-.6.18l1.15-.36-.67.16-.59.22h-.12l.83-.28.85-.18-.77.11-1,.37-.5,0H150l-.83-.07h0l.66.06-1.28,0,.62-.07h0l-.63.07h0a24.08,24.08,0,0,1-3.8-.35l2.58.18h0l-2.68-.19-.4-.08-2.18-.47v0l-.17-.06,1,.23h0l-1-.24-.25-.08h.19l-.24,0-.16,0h0l0,0h0l-.42,0-.29-.06.42,0,0,0,0,0-.66,0-.16,0-.34-.13-.36,0h-.21l-.13,0a2.17,2.17,0,0,0-.36,0l-.28,0h0v0h-.2l.27-.07h0l-.8.19h0l-.23.12.24-.1h0l.34-.08.44,0h.08l-.38,0a2.32,2.32,0,0,0-1,.48l-.23.11-.31.25-.27.29,0-.07-.46.74-.21.65v0h0l.14-.41.18-.38-.1.54c-.07.17-.15.35-.21.52l-.23.53-.12.55.14-.38a9.83,9.83,0,0,0-.26,1.55l0-.71,0,.09v.67c-.12,1.2-.09,2.44-.12,3.64,0,.47,0,.94-.07,1.4l-.19.7-.18.3-.24.26-.2.14v0l0,0,.29-.21-.34.55v0h0l.1-.11-.08.12h0l.13-.18,0,.08Zm.45.57v0Zm30.63-12.35h0Zm0-.14v0h0v0h0Zm0,.06h0Zm-5-.09h0Zm-25.83,11.77.24-.35-.07.17Zm.35-.37h0l0-.06v.06Zm0,.48,0-.23h0v0h0l-.07.43Zm.12.64v-.14h0l.09-.29Zm.1,0-.16.85,0-.5.09-.27h0V117Zm0-.68,0-.25,0-.1Zm0-.68v0l0-.08,0,0Zm0-.23,0,0,0-.08Zm0,.24v0h0l0,.07Zm0,.29h0l-.09.37,0-.29Zm-.06-.07,0,.08,0-.14Zm0,.58,0-.21h0l0,0v0l-.11.63h0v-.37h0Zm0,.38h0l-.06.14v-.12l.07-.4h0v.37Zm0,.73v-.27l0-.1h0v-.07l0-.25h0v.22l-.07.25v0h0l0,.44Zm.1.21v0h0l0,.29,0-.19h0l.08-.38Zm0,.15v0l0-.22h0Zm0,0v-.21l.1-.41h0l-.06.35v0h0Zm.21-.67-.12.37.14-.56h0Zm0-.7-.06.14.11-.57v0h0v0l0,0,0,0,0-.09h0l0,.25,0,0v0h0v.09l0,0h0v0h0Zm0-.49,0-.13h0l0,.14Zm0,0,0-.19v0ZM140,104h0Zm19.92.81h0Zm3.84-.51h0Zm.94,5.73Zm-2.34.11h0Zm-.13,0h0Zm-4.45,5.85h0v0Zm-.06,7.24v0l0,0h-.13l0-.07h.07Zm-16.4-6.44v0Zm.12,6.5h-.09l0,0h.07Zm-1-.71h0Zm0,.06h0l0,0,0,0Zm-3.5-15.94.1-.21-.13.34,0-.11h0Zm0-.07,0-.05.07-.14Zm-1.1,13.22h0a2.44,2.44,0,0,1,0,.27v-.27Zm5.38,3.41h.08l0,0h-.1Zm.27,0h0Zm-.63-5.86.08-.09,0,0h0v0l-.13.21c0-.06,0-.13,0-.19Zm2.42-1.48h0l.14-.08.14,0h0l-.06,0,.14,0h0l0,0,0,0,0,0h0l-.32.16h-.18Zm.55-.16h0l-.24.18h-.14Zm0,0,0,0,0,0Zm0,0,0,0h0l0,0h0ZM164.75,105h0Zm-8.11,17.86h0Zm-4.43-6.6,0,0,.08,0-.36,0Zm.6,6.56h0v0Zm0,.07h0V123h0Zm.73-.71Zm3.1.63h0v-.13A.69.69,0,0,1,156.64,122.84Zm0,.09v0h0v0Zm0-6,0,0V117Zm.53-.45h0l-.06,0Zm.9-1-.06.15,0-.11Zm6.18-5.52h0Zm.13,0-.08,0,0,0Zm-4.5-5.15h0l.05,0ZM135,116.94h0l.07-.37h0l0,0h0Zm.23-.4-.11.34.13-.68h0Zm.15-.6h0l-.09.34v-.11l.09-.32v.07Zm.35-2.67h0v0Zm0,0h0v0Zm.05.26,0-.21h0l0-.42h0V113h0v0l.06-.76Zm1.38-7.57,0,.06h0l0-.05Zm-.34.65,0,.08h0v-.08Zm0,.18h0l0,.09Zm-.37,8.56c0,.12,0,.25,0,.38l-.08.08Zm-.79,6.92Zm.46.9v0h0Zm.08,0Zm.32,0Zm0,0,0,0h0Zm.76.09h0Zm.5,0h0Zm.14,0h0v0Zm-.24-1h0l-.07-.07Zm-.44-2.9c0-.09,0-.18.07-.28s.08-.17.11-.26Zm2.54.8,0,0s0,0,0,.07Zm.42,2.12h0v.12l0,0v-.08l0-.07Zm0,0v.07l0-.05v0h0v-.25h0l0,0v.18Zm.06,0h0v-.09h0v-.06a1.94,1.94,0,0,1,0,.24h0l0,0Zm.1.24-.08,0h0l.06,0h0Zm.08,0h0l0,0h0v0Zm.09,0,0,0h0v0h0Zm.48.69h0l-.05-.08h0v0h0l0,0,0,0Zm.15,0h-.11l0,0h.11v0h0Zm.35,0h0l-.25,0h0v0h.27Zm.08,0,.06-.07h0l.17,0v0h0v0h.1v0h-.4Zm.48,0h-.05v0h.07Zm.47-.47h0v0l.07.07.07.08h0V123h0l-.24-.18,0,0ZM140.72,118c0-.11.05-.22.07-.34l.1-.16Zm.12-.28.1-.3.05-.09h0Zm.16-.46h0l0,0Zm0,0Zm.05,0h0v0h0Zm.2-.12-.13.11h0l0,0,0,0h0l0,0h0l.05,0,0,0,0-.22,0,0Zm.05-.29,0,0,0,0,0,0Zm0-.13v-.05a1.34,1.34,0,0,1,.07-.18l.07,0,.05,0Zm.16-.34a.18.18,0,0,1,.12,0h0Zm1.26.25,0,0h0l0,0,0,0Zm.69-.58-.31,0h-.06a.65.65,0,0,1,.18-.15h.17l-.1.06h0l.12-.06h.16Zm0,0,.41-.3h0l0,0-.36.24Zm.61-.14h0l-.43.11.33-.22h0l0,0,.06.06h0l0,0h0Zm0-.13,0,0h0Zm.1,0,.05,0-.05,0v0Zm.22.1-.21,0,.07,0,.2.06Zm0,0h0l.33.11Zm5,.23h-.08l-.83.07a3.07,3.07,0,0,1,.85-.13l.18,0Zm.28,0,.09,0h-.15Zm2.53,6.74,0-.06h0v0Zm.1-.1h0a.13.13,0,0,0,.08,0h0l-.08,0Zm.14,0v0h0l.06,0Zm0-.07,0,0,0,0v0Zm.19.08,0,0,0,0v0h.05l0,0Zm0,.53h0Zm.06-.61h0Zm0,.51h0l.05-.08v0Zm0,0h0v0h0Zm.15.06h0Zm.79,0h0Zm.09,0Zm-.34,0h0l-.18,0h-.26l.09-.05h.35Zm.49-.69.24.2-.2-.15h0v0h0l-.05,0h0l-.05,0Zm-.48-.5V122h0Zm.06-.69h0l-.05.6h0a6.94,6.94,0,0,1,.05-.91l0,0,0,.34Zm0-.37,0,0s0-.11,0-.16a.11.11,0,0,1,0,0l0,0Zm0-.24,0,0c0-.09,0-.18,0-.28Zm0-.37h0l0-.12,0,.12Zm.1-.36,0-.1Zm.82-2.1a2.35,2.35,0,0,0,.14-.45l.05.09Zm1.41,4.34H156v-.07h0v0h0Zm.11,0h0l0,0,0,0Zm.31.24,0-.12h0l.05.22Zm.12.09h0l0-.13,0,.06a0,0,0,0,1,0,0v.09Zm.08.53,0,0v0h0Zm.13.17h-.06l-.05,0,0-.07,0,0v.05h0v0h0l0,0h.09l0,0v0l0,0Zm.07,0h0v0l0,0Zm.08,0,0,0,0,0h0v0h0Zm.09,0h0l0-.08h0Zm.48.1h-.11l0,0v0h.1v.06Zm-.2-.08h-.19l0-.09h.1v0h.08l0,0v0h0l0-.06h0v0h.08l0,0h0l0,.08Zm.45.07h-.18l0,0h.13v0h0Zm.15-.09h0l0,0h0Zm.08,0v0h0Zm.28,0h0Zm-.09-.72.18.21.11.25-.13-.16h0l0,0h0Zm-1.4-5.2h0v0Zm-.05-.35v0h0Zm.37-.29-.16.06h0l0,0,.15-.06Zm0,0-.1,0h0l.1-.05Zm0,0v0l.13,0Zm.23-.12-.21.08h0l.27-.12Zm.06,0h0Zm.95-1.33,0,0h0v0l0,0h0l0,0-.33.64-.5.53-.08,0h0l-.1,0-.08,0,.17-.12h0v0h0l0,0h0l.1-.13h0l0,.07h0l.06-.13.14-.18v.1h0l.07-.19.19-.28-.05.2h0l.12-.34h0a3.55,3.55,0,0,1,.23-.31h0l0,0Zm.05,0v0l.12-.12Zm.77-1-.13.25h0v0h0l0,0a.83.83,0,0,0,.07-.13Zm.25-.81v-.06h0Zm.32-.69-.13.3.24-.61Zm-.27.56,0,.05c.14-.45.31-.88.49-1.31V112Zm.49-1.29v-.08a2.55,2.55,0,0,0,.13-.29l0,0h0Zm.24-.48v0l0,0Zm.07-.19.05-.13.06-.09h0Zm.13-.25a1.05,1.05,0,0,1,.07-.11s.1-.07.15-.11h0a2.27,2.27,0,0,1,.25-.18l-.4.37Zm.4-.27-.17.14h0l.34-.3Zm.2-.16,0,0,0,0Zm.31-.17-.16,0,.06,0,.12-.06h0l.13,0h0Zm.21-.07.05,0,.2-.11h0l0,0,.07,0h0v0h0l.1,0Zm.61-.26h0Zm.14.09-.11,0h.11Zm.18-.1h-.06l.07,0h0Zm.13,0h0Zm.07,0h0Zm.25,0-.23,0h0l-.13,0h0l.33,0h0l0,0Zm0,0,0,0h0Zm.26,0h0ZM164,110h0Zm.2,0h0l.06,0h0l-.05,0Zm.07.05h-.06l0,0h0l.05,0h0l0,0h0l-.13.07h0Zm.07,0,.11-.06h0l-.13.06Zm.08,0h-.07l.11-.05,0,0h0Zm.05,0h0l.07-.07,0,0h0l-.07,0Zm.11,0h-.08l.09,0h0Zm.11,0Zm.05,0Zm.15,0h-.09v0h.08Zm.63.15-.05,0h.05Zm-.08,0h0Zm0,0h-.05l0,0h0Zm-.06,0h0Zm0,0h0Zm-.23,0h0l0,0h0Zm0,0h0l0,0h0l.05,0h0l-.08,0h0Zm0,0,0,0,0,0Zm0,0,.09-.06h0l-.06,0h0l0,0Zm.1,0h0l.06,0h.05Zm0,0h0l.07,0h0l-.05,0Zm.11,0h0l.08,0h.05Zm.18-.06h.08Zm.28-.07-.06,0H166Zm-.27.13.08,0h0l-.06,0Zm.12,0h-.06l.08-.06.12,0Zm.08,0h0l.1-.07h0Zm.1-.07h0l0,0h0Zm0,0h0l.06,0h0Zm.2-.16h0l-.09.07h-.05l.1-.06h0s0,0,0,0h0Zm-.77-3.26v0Zm0-.11h0v0h0v0Zm-.29-1h0l.05,0,.14.18h0l.06.19v.2h0v-.18l0,.13v.15l0-.15h0l0,.11,0,.12v.15h0a4.54,4.54,0,0,0-.14-.66h0l-.06-.15,0,0h0l-.16-.24Zm-.33-.77,0,0h0l0,0v0h0Zm.08-.46h-.05Zm0-.12h0l0-.11Zm.1-.35,0,.17a.83.83,0,0,0,0-.15v0Zm0-.14h0l0,0a.76.76,0,0,0,0-.15h0Zm0-.17h0v0h0l0,0Zm-.66.66h0Zm0,0h.06a.58.58,0,0,1-.14,0l0,0h.06l0,0h0l0,0h.07Zm-.06-.06h0v0h0l0,0h.05Zm-.07,0h0Zm-.33,0h0l.22,0h.07l.07,0-.3-.06h0l-.09,0h0Zm-.09,0,.08,0-.08,0h0l0,0h0l-.07,0h-.09Zm-.47.06h0l.1,0-.15,0,.05,0h0Zm-.1,0h0l-.08,0h0Zm-.08,0h0Zm0,0h0Zm-.08,0h0Zm-.42.12.07,0h-.07Zm-2.16.12h0Zm-.08,0h0Zm-.24,0-.08,0h0l.1,0h.09l-.18,0h0l-.05,0h0l.09,0Zm-.18,0,0,0H160l-.12,0Zm0,0Zm0,0h-.15Zm-.05.07-.09,0h.09l.07,0h0l0,0h0Zm.17,0h0v0l.12,0-.07,0h0l0,0h0l0,0-.1,0h0l-.06,0-.06,0-.16,0h0Zm-18.12-.32-.29-.06h.13Zm-.42-.14.2.07-.2,0-.36-.08ZM140,104h0l-.05,0Zm-.18,0,.08,0-.3,0h.22Zm-.45,0h0Zm-3,1.39.33-.38.37-.31a4.57,4.57,0,0,0-.8,1.11c-.07.14-.12.28-.19.41ZM135.21,114l0,.37h0l0,0v.05h0Zm-.17,1.26v.05l0,.12h0l0,.16v0h0Zm-.12-.26h0Zm0,.92h0v0h0v0l0,.05,0-.12Zm0-.79h0l-.08.23,0,0,.06-.18Zm-.34.5.27-.44,0,.1-.13.23Zm.14-.08-.08.12,0-.06Zm0,.1-.05.15h0v0h0v0h0l-.07.18-.08.08.08-.19Z"/><path class="cls-9" d="M226.75,124s0-.07.05-.1l.08-.25a.91.91,0,0,0,.05-.33v-.07l0-.11,0-.16a1.09,1.09,0,0,0,0-.18v-.23s0,0,0-.06a.86.86,0,0,0,0-.39V122a.75.75,0,0,0,.05-.16h0s0,0,0-.05l.05-.08a.43.43,0,0,0,0-.07.81.81,0,0,0,.11-.27,1.25,1.25,0,0,0,0-.19l.11-.06a.89.89,0,0,0,.32-.29.93.93,0,0,0,.15-.39,1.13,1.13,0,0,0,.08-.24,1,1,0,0,0-.58-1,.6.6,0,0,0-.19-.06l-.11,0a.4.4,0,0,0-.12-.1,1.94,1.94,0,0,0-1.16-.67,1,1,0,0,0-.3,0l-.26,0-.13,0h0a1,1,0,0,0-.42.06l-.12,0-.11,0-.11,0h0l-.15.08-.14.08-.1.06,0,0h0a.91.91,0,0,0-.16.11l-.24.2a1.48,1.48,0,0,0-.39.83l0,.07a.9.9,0,0,0-.1.42v.08l-.07.06a1.24,1.24,0,0,0-.2.1l-.19.13a1.06,1.06,0,0,0-.21.11l-.15.12-.06,0a.86.86,0,0,0-.37.26,1.29,1.29,0,0,0-.19.21,1.07,1.07,0,0,0-.16.25h0a.67.67,0,0,0-.15.14,1,1,0,0,0-.27.3.41.41,0,0,0,0,.09.77.77,0,0,0-.12.36.75.75,0,0,0,0,.16.77.77,0,0,0,0,.37.75.75,0,0,0,0,.21,1,1,0,0,0,.06.33.84.84,0,0,0,.13.33.77.77,0,0,0,.07.16.8.8,0,0,0,.15.29l.12.17.09.1h0a1.14,1.14,0,0,0,.15.36l0,.06s0,0,0,0a.07.07,0,0,1,0,0l0,.08a.72.72,0,0,0,.12.27l.06.1a1,1,0,0,0,.08.14.35.35,0,0,0,.05.08v.11a.91.91,0,0,0,0,1.19l.1.09a.9.9,0,0,0,.67.28h.08l.11,0a.88.88,0,0,0,.28,0,.94.94,0,0,0,.29,0h1.85a1,1,0,0,0,.63-.25.93.93,0,0,0,.28-.67.86.86,0,0,0,0-.27.89.89,0,0,0-.49-.67.68.68,0,0,0-.2-.07l-.11,0-.1,0a.45.45,0,0,0-.16,0l.16-.06h0a.87.87,0,0,0,.27-.14l.11-.08a1.33,1.33,0,0,0,.19-.14l0,0,.11-.09.18-.08a.87.87,0,0,0,.35-.43.85.85,0,0,0,.21-.37A1.89,1.89,0,0,0,226.75,124Z"/><path class="cls-9" d="M221.09,120.73l0,0,0-.08a.88.88,0,0,0,0-.73.91.91,0,0,0-.16-.24.93.93,0,0,0-.23-.21l-.05,0-.1-.06-.12,0-.07,0-.07-.09,0,0-.1-.14h0l-.08-.09a1,1,0,0,0-.36-.39,1,1,0,0,0-.51-.18H219a1,1,0,0,0-.44,0,.7.7,0,0,0-.19.06l-.14,0a.75.75,0,0,0-.38.08l-.1,0h0l-.1.06,0,0a.94.94,0,0,0-.55.39.76.76,0,0,0-.11.14l0,.08-.06.08-.14.12-.07.09a1,1,0,0,0-.15.2l0,.06-.06.09a1,1,0,0,0-.33.12h0a.86.86,0,0,0-.32.15l-.14.06-.11.06a1,1,0,0,0-.5.13.68.68,0,0,0-.21.17l-.09.07-.1.06a.73.73,0,0,0-.18.17.65.65,0,0,0-.21.16.74.74,0,0,0-.16.2l0,0-.13.14a1,1,0,0,0-.13.23l-.07.13a.9.9,0,0,0-.08.23v0a1.46,1.46,0,0,0-.22.91,1.26,1.26,0,0,0,.05.33.42.42,0,0,1,0,.1,1.54,1.54,0,0,0,.08.19.92.92,0,0,0,.23.39l.07.06a1,1,0,0,1,0,.1l.06.1a.93.93,0,0,1,.05.1,1,1,0,0,0,.21.37l.06,0a.93.93,0,0,0,.46.37,1,1,0,0,0-.17.44.88.88,0,0,0,.3.78.69.69,0,0,0,.13.11.87.87,0,0,0,.54.15l.4,0,.17,0a.67.67,0,0,0,.2,0h1.67a1,1,0,0,0,.25,0h.14a.62.62,0,0,0,.19,0h.18a.4.4,0,0,0,.11,0,.91.91,0,0,0,1-.64.89.89,0,0,0-.21-.87l-.07-.08-.06-.06-.07-.07a.86.86,0,0,0-.36-.2.91.91,0,0,0,.22-.11l.24-.16.13-.1.2-.2a.83.83,0,0,0,.22-.37.78.78,0,0,0,.11-.18l0-.09.06-.1a.9.9,0,0,0,.1-.6,1,1,0,0,0,0-.34.93.93,0,0,0,0-.29v0h0l0-.23a.86.86,0,0,0,0-.32v-.16a.83.83,0,0,0,.08-.12l0,0,.13-.06.13-.08A1.15,1.15,0,0,0,221.09,120.73Z"/><path class="cls-9" d="M249,113.31a1.11,1.11,0,0,0,0-.19s0,0,0-.05a.66.66,0,0,0-.12-.27l-.16-.22a.27.27,0,0,0-.07-.08.45.45,0,0,0,0-.11,1,1,0,0,0,0-.18.9.9,0,0,0-.05-.4v-.07a.92.92,0,0,0-.1-.32s0-.08,0-.13a.9.9,0,0,0-.06-.22,1.28,1.28,0,0,0-.15-.25.91.91,0,0,0-.24-.2.47.47,0,0,0-.15-.13v0a1.37,1.37,0,0,0-.2-.13.86.86,0,0,0-.31-.26,1,1,0,0,0-.34-.15,1,1,0,0,0-.6.09,1,1,0,0,0-.68,0h-.07a.9.9,0,0,0-.4.29l-.08.09h0a.94.94,0,0,0-.2.35.81.81,0,0,0-.21.41v0a1,1,0,0,0,0,.17.86.86,0,0,0-.13.14l-.08,0a.92.92,0,0,0-.26.26,1.07,1.07,0,0,0-.19.18.93.93,0,0,0-.16.18l-.32.28a.86.86,0,0,0-.2.26l-.3.31a1,1,0,0,0-.2.32.92.92,0,0,0-.07.36l-.14.26a3.85,3.85,0,0,0-.51,1.4l-.06,0a.43.43,0,0,0-.1.09,1,1,0,0,0-.25.16l-.35.25-.07,0-.06,0-.07,0-.09,0-.14,0-.21.08-.15.06-.28.11-.11,0,0,0-.13,0-.15,0a.82.82,0,0,0-.27,0h-.07a1.76,1.76,0,0,1-.41-.1,2.06,2.06,0,0,1-.26-.12l-.19-.15-.1-.07a.69.69,0,0,0-.13-.11l-.09-.06-.18-.13-.12-.07-.1-.06-.09,0a1.45,1.45,0,0,0-.25-.12h-.09l-.53-.16a1.17,1.17,0,0,0-.32,0,0,0,0,0,0,0,0H236a1.75,1.75,0,0,0-.32,0h0a3.56,3.56,0,0,0-.83.23,1.64,1.64,0,0,0-.28.16,1,1,0,0,0-.2.13l-.24.16a1,1,0,0,0-.33.44l-.15.25a.85.85,0,0,0-.14.52v0a1.11,1.11,0,0,0,0,.19,1,1,0,0,0,0,.24v0a.42.42,0,0,0,0,.15,3.92,3.92,0,0,0-.16,1.72.54.54,0,0,0,0,.18v.11a.22.22,0,0,0,0,.08h0a.83.83,0,0,0,.1.34l.1.3c0,.06.05.11.07.17l.12.22a1,1,0,0,0,.12.17l.26.3a.68.68,0,0,0,.21.17,2.31,2.31,0,0,0,.47.38,1.19,1.19,0,0,0,.15.09.92.92,0,0,0,.65.22h.11a.58.58,0,0,0,.19,0h0l.16-.06a.89.89,0,0,0,.29.15,1.19,1.19,0,0,0,.16.23,0,0,0,0,1,0,0,.9.9,0,0,0,.61.48h0l.05,0a.6.6,0,0,0,.24.12,1.39,1.39,0,0,0,.11.21h0v.13a.91.91,0,0,0,.24.64.87.87,0,0,0,.34.22s.05.06.08.07a.94.94,0,0,0,.32.11.85.85,0,0,0,.38.09.76.76,0,0,0,.26-.06h0l-.12.16h0a1,1,0,0,0-.15.14,4.15,4.15,0,0,0-.78.24.92.92,0,0,0-.37.14,1.12,1.12,0,0,0-.28.16l-.06,0a.89.89,0,0,0-.36,1,.19.19,0,0,0,0,.07,1.09,1.09,0,0,0,.05.17,1,1,0,0,0,.28.35.9.9,0,0,0,.64.19l.14,0a.87.87,0,0,0,.24.5,1.18,1.18,0,0,0,.22.28,1,1,0,0,0,.28.16l.19.07h.12a.88.88,0,0,0,.62,0h.56l.18,0h0l.13.06a1,1,0,0,0,.4.14l.3,0a3.23,3.23,0,0,0,.76-.1h.1l.43,0,.12,0a.7.7,0,0,0,.25,0l.29.07a2.63,2.63,0,0,0,.5,0l.55-.08h.35a1,1,0,0,0,.28,0h.25a.92.92,0,0,0,.67-.29.91.91,0,0,0-.65-1.52h-.23l-.1,0a2.52,2.52,0,0,0-.94-.22h0l-.19-.07-.2,0s0,0-.05,0v0a1.88,1.88,0,0,0,0-.31v0l0-.19a.44.44,0,0,0,0-.16v0l0-.26.06-.12,0,0,.14-.08.12,0a.89.89,0,0,0,.65-.27l0,0a.84.84,0,0,0,.16-.24l.09-.06a.21.21,0,0,0,.1-.06l0,0,0,0,0,0h0a.61.61,0,0,0,.16-.12l.13-.1h0a.62.62,0,0,0,.19-.14l.07-.06.15-.14,0,0a.61.61,0,0,0,.12-.15s.05-.09.08-.14l.1-.13.07-.08.09-.1a1,1,0,0,0,.33-.36l0,0s0,0,0-.06.09-.05.12-.09a1,1,0,0,0,.19-.36l0-.14a.87.87,0,0,0,0-.28l.06-.15a.52.52,0,0,0,.11-.1.89.89,0,0,0,.21-.54l0-.52a.81.81,0,0,0,0-.22h0a.77.77,0,0,0,0-.3l0-.2a1,1,0,0,0,.09-.42l0-.57v0s0-.07,0-.1l0-.11a.91.91,0,0,0,0-.63l-.08-.28a1.07,1.07,0,0,0,0-.25l-.08-.32a1.18,1.18,0,0,0-.08-.31l-.12-.25,0-.09,0-.17v-.24h0l0,0a.84.84,0,0,0,.18-.28v0a.77.77,0,0,0,.1-.25l.07-.24a.77.77,0,0,0,0-.15l.16-.35,0,0a.91.91,0,0,0,.55-.21s0-.05,0-.07l0,0A.87.87,0,0,0,249,113.31Zm-7.88,12.77a.86.86,0,0,0,.13-.14l.05-.07s0,0,0,.07v0a2.17,2.17,0,0,1-.08.3h0a.64.64,0,0,0-.19-.08Z"/><path class="cls-9" d="M233.65,125.54a.69.69,0,0,0,0-.25l0-.08a.86.86,0,0,0,0-.45.35.35,0,0,0,0-.14s0,0,0-.05a.24.24,0,0,1,0-.08.13.13,0,0,1,0-.06,2,2,0,0,0,0-.26.85.85,0,0,0-.08-.42h0v-.06s0,0,0-.07v0a.86.86,0,0,0,0-.59.5.5,0,0,0-.05-.13l0-.07a.94.94,0,0,0-.1-.23l0-.06-.07-.12a.91.91,0,0,0-.25-.3,1,1,0,0,0-.64-.28h0l-.36-.12a1,1,0,0,0-.41-.16,1,1,0,0,0-.39,0l-.13,0h-.12a1.07,1.07,0,0,0-.49.12.92.92,0,0,0-.28.24l-.12,0a.87.87,0,0,0-.35.28,1,1,0,0,0-.26.27l-.08.07a1.66,1.66,0,0,0-.32.72.85.85,0,0,0-.28.1l-.14.09a.9.9,0,0,0-.23.08l-.19.07h0l-.16,0a1,1,0,0,0-.62.23.92.92,0,0,0-.29.78h0l-.09.11a.64.64,0,0,0-.1.13.87.87,0,0,0-.13.65.89.89,0,0,0-.09.39.78.78,0,0,0,0,.22,1.06,1.06,0,0,0,0,.25.85.85,0,0,0,0,.32l0,.12s0,0,0,.08l.06.14.05.12a.93.93,0,0,0,.26.5,1,1,0,0,0,.13.16,1.24,1.24,0,0,0,.23.17.85.85,0,0,0,.3.15.47.47,0,0,0,.09.12.57.57,0,0,0,.16.15,1,1,0,0,0,.31.35l0,.07a1.24,1.24,0,0,0,0,.27.53.53,0,0,0,0,.17,1.19,1.19,0,0,0,.08.16.86.86,0,0,0,.2.26l0,0a.82.82,0,0,0,.67.24l1.17,0h.7l.22,0a1,1,0,0,0,.33-.06.92.92,0,0,0,.52-.28l.06-.09a.9.9,0,0,0,.17-.3.92.92,0,0,0-.26-.93l0,0a.9.9,0,0,0,.32-.23,1.06,1.06,0,0,0,.26-.17l.18-.12a.86.86,0,0,0,.34-.39,1.11,1.11,0,0,0,.17-.3,1.4,1.4,0,0,0,.09-.29.89.89,0,0,0,0-.33l0-.13a.78.78,0,0,0,0-.21.82.82,0,0,0,0-.44A.39.39,0,0,0,233.65,125.54Z"/><path class="cls-10" d="M222,122.46l-.15.12h0l0,0-.08,0h0l-.09,0h0l0,0a.6.6,0,0,0-.08.08,1.87,1.87,0,0,0,.07.22h0l0-.17h0l0,.11v0h0s0,0,0,.05l0,0h0l.09.21h0l0,.08-.08-.1h0v.23h0v-.11a.59.59,0,0,0,0,.19l0-.06h0l.06.07.06.17-.06-.07h0l.09.11s0,.09.07.14h0l-.05,0h0l.07.07s0,0,0,0a.07.07,0,0,0,0,0,.05.05,0,0,0,0,0l0,.05-.07-.07h0l.13.16h0l-.07-.09.1.09h0l0,0,0,0h0l0,0h0l0,.06v0h0v0h0l0,.06h0l0,0h0v0h0l0,0h0l0-.06v0l0,0h0l0,0h0l0,0a.59.59,0,0,1,0,.17h0l-.06,0h0l.06,0,0,.09a.37.37,0,0,0,0,.11h0a2.17,2.17,0,0,0,.07.24v0h0v0h0v0l0,0h0v0l.1.16,0,.08v0l.05.07h0v0l0-.08,0,0h0l.11.16v0h0l0,0h0l.05,0v.25h0v.3h0v.14h0v0h0s0,0,0,.07v0h0v0h0a.23.23,0,0,1-.07.1h0l0,0,0,0h0v0h0v0h0l0,0h0v0h0l0,0h0l0,0h0l.07-.06h0v0h0v0h0v0h0v0h0l0,0h0l0,0h.25l0,0h0l0,0h2v0h0l0,0,0,0,0,0h0l0,0-.05,0h0l-.11,0h-.15l-.13,0h0l.05,0h0l-.09,0h0a.2.2,0,0,1-.11,0h-.06l-.09,0H224a.45.45,0,0,1-.16,0l0,0h0l.33.07h0l-.33-.08a.54.54,0,0,1-.09-.12l0-.08-.05-.22v-.3h0l0,.11v0h0v-.05h0V126h0l0,.08h0a.52.52,0,0,1-.06-.16.41.41,0,0,1,0-.22h0l.05,0h0l-.05,0,.08-.06h0l-.09.07v0l.1-.07h0l0,0,.1-.12h0l-.06,0,.06-.06h0l.23-.29.1-.07h0l.13-.1h0l.07-.06h0l.24-.07h0l.33-.11h0l.19-.13h0l-.15.12h0l.19-.15h0l.07,0,0,0h0l.1-.1,0,0,.05,0h0l.08-.05h0l-.06,0h0l0,0h0l.17-.15.14-.16v0l-.16.16h0l.14-.14,0,.12h0l0-.15.14-.14h0l-.12.12v0a1,1,0,0,0,.31-.57l0,.11h0l.08-.25h0l0,.09a2.2,2.2,0,0,0,.06-.37h0l0-.1h0l0-.16h0v0h0l0,.15s0,0,0-.08a2.26,2.26,0,0,0,0-.26l0,.09h0l0-.14v0a2,2,0,0,0,0-.35l0,.13h0l0-.15h0v0a.56.56,0,0,1,0-.13h0a1.24,1.24,0,0,1,0-.33v.05h0l0-.12v0h0v-.06l0-.08h0s0-.07,0-.1,0,0,0,0v0h0v0h0v0s0,0,0,0l0,0h0l0,0s0,0,0,0a.13.13,0,0,0,0-.06v0h0v0h0v0l0,.1h0l0-.13h0V121l0,.17h0l0-.17h0a1.17,1.17,0,0,1,0-.2h0l.1-.2,0,.07v.06h0v-.14h0l.34-.16h.05l0,0h0v0h0v0h-.12l-.09,0h0l.15,0,.11,0h0v-.06h0l-.35-.07h0l-.11,0-.06-.06,0-.1h0l0,.07h0a1.22,1.22,0,0,0-.83-.57,1.48,1.48,0,0,0-.21,0h.18l-.26,0h0l-.15,0h0l-.16,0,.05,0h0l-.06,0h0l-.1,0h0l-.07,0-.11,0h0l-.09.05h0l-.12.07-.09.07h0l-.05.05h0l-.24.2h0l.21-.17h0l-.18.17h0l0,.08-.06.08h0l0,0h0l0,0h0a.57.57,0,0,0,0,.14v0h0a.53.53,0,0,0,0,.12h0v-.08h0v.09h0l0,.06h0v0l-.06.06h0l0,0h0l0,0s0,.06,0,.07h0l0,0h0v0a0,0,0,0,1,.06,0,.06.06,0,0,1,0,0h0v0a1.21,1.21,0,0,1-.11.37s0,0,0,0l0,0h0l0,.09-.05.07h0l0,0h0l-.06,0h0l-.06,0h0l.07,0-.09,0h.11l-.09.07-.28,0h0l.05,0-.18,0v0h.08l-.08,0h0l-.14.07-.14,0h0l-.06,0h0a1.2,1.2,0,0,1-.3.15l-.1,0h.1s0,0-.06.06l0,0h-.07l.12-.07h0l-.15.08h.08l-.1.05h0l-.07,0h0l.06,0a.24.24,0,0,1-.09.15Zm.64,4.3v0h0Zm.64-.19a.1.1,0,0,1-.09,0h0l-.06,0h0s0-.05,0-.08v0h0v-.27l0-.1,0,.1h0v0a.43.43,0,0,1,0,.07l0,.09h0a.21.21,0,0,1,0,.13h0v0A.08.08,0,0,1,223.24,126.57Zm-.17-.46v0Zm0,.08v.1l0,.09h0v0A1.5,1.5,0,0,1,223,126.19Zm-1.48-3.14,0,0a1.54,1.54,0,0,0,0,.17Zm0,.21.09.14h0l-.1-.12Zm.55,1.19h0v0Zm.38,1h0Zm.08,0,.05,0,0,0v0Zm0,1.31v0h0l0,0Zm.14,0h0Zm2.43-.07,0,0v0h0a.34.34,0,0,0-.08-.09h0Zm0,0h0s0,0,0,0h0Zm-.08,0h0Zm0,0h-.07l-.07,0h0Zm-1.32-1.08-.09.11h0l0-.08h0Zm0-.08,0-.06h0Zm1.09-.72-.12.07h0l-.12,0,.3-.14,0,0Zm0,0h0v0Zm.16-.06h0l-.13.07v0h0l.26-.11v0Zm.15-.1h0Zm1.31-3.89h0l0,0s0,0,0-.07l0,0,0,.07Zm.59-.54H227l.06,0Zm0-.06h0l-.21-.07Zm-3-.17h0l.11-.1a.93.93,0,0,0-.13.15Zm-.17.49,0-.06s0,.05,0,.06h0Zm-.4,1h0s0,0,0,0h0Zm-.07.14h0a.28.28,0,0,0-.15,0h0Zm-.65.29Zm-.36.21,0,0h0Zm-.2.22h0Z"/><path class="cls-10" d="M215.2,124.23l.18.14h0l.06,0,.06,0h0l0,0h0s0,.06,0,.1h0l0,0,0,0,0,0h0l0,0h0v0h0v0h0v0l.1.24h0v.08a.38.38,0,0,1-.14.31l-.1.06-.08,0,0,0h0v0h0v0h0l.5,0h.1l.07,0h0l.14,0h1l0,0h.9v0h0l0,0h.12v0h.46l0,0h0l0,0h0l0,0h0v0l.06.06h0l-.07-.08h0l0,0h-.16l.11,0h-.14l-.12,0h0v0h-.34l-.13,0-.1-.07h0a.58.58,0,0,1-.13-.14l-.16-.23v0h0l0,0,0-.06v0h0v0l0,0v0h0l-.17-.24v0h.11l.2-.19h0l.05-.06.06,0,0,0h0l.13,0h0l.19-.08h0l0,0,.06,0,0,0,.06,0h0l-.08.06h0l.13-.08.14-.06-.07,0h0l.12-.09.15-.07a1.06,1.06,0,0,0,.21-.16h0c.12-.1.23-.22.34-.33l0,.08,0,0h0v0h0l-.17.17-.24.15h0l.24-.16.2-.2h0l0,0,.13-.22.06-.09v0l.12-.21h0l-.1.17,0-.12v-.13l.09-.29h0l-.07.24v-.11l0-.18h0l.05-.23h0l0,.16c0-.1,0-.2,0-.3s0-.1,0-.15h0l0-.22h0l0,.16a3.11,3.11,0,0,0,0-.43.47.47,0,0,0,0-.16l0,0h0s0,0,0-.07h0v-.06l0-.08h0l0,0v0h0l0,0,.09-.1h0l0,0h0l.05-.15s0,0,.06,0h0l0,.1h0l0,.08h0l.11-.21h0l0,0,0,0h0a.54.54,0,0,1,.12-.09l.08,0,.15-.07,0,0,0,0,0,0h0l0,0s0,0-.05,0h0l0,0h0l0,0s-.05,0-.07,0l-.12,0-.12,0a.1.1,0,0,0,0-.05v0h0l-.14-.16v0h0l0-.05v0h0l0,0v0h0v0h0v0l0-.05h0s-.05,0-.06-.08l-.1-.12h0l0-.08h0v0l0,0h0v0h0v0h0l0,0a.17.17,0,0,0-.1,0h-.27v0h-.08l0,0v0h0l-.05,0a2.13,2.13,0,0,0-.44.07h0v0h0l0,0h0v0a.91.91,0,0,0-.22.11h0l-.08,0h0l0,0h0l-.11.13v0h0v0h0v0h0l-.07.06h0v0h0a.4.4,0,0,1-.07.13s-.06,0-.09.06h0v0h0l0,0v0h0v.07l0,0,0,0h0v0h0s0,0-.05,0h0s0,.07-.05.1v0h0v0l0,.08h0v0h0l0,.1h0v0h0v0H217v0h0l0,0h-.07l-.07,0-.26.06h0l.06,0h-.07l-.12,0h-.1l-.05,0h0L216,121h0l.11-.05-.08,0c0,.06-.09.07-.15.08a1.29,1.29,0,0,1-.26.08l-.14,0h0l.07,0h-.05a.07.07,0,0,1,0,.06l-.18,0h.08l.11,0h0a1.57,1.57,0,0,0-.42.18h0l0,0h0l-.12.05H215a.28.28,0,0,0-.14.06h-.06s0,0,0,0l0,0h0l0,0h0l-.16.06h0l-.17.2h0a0,0,0,0,0,0,0h0l-.07.14h0l.05-.09a1,1,0,0,0,0,.1.61.61,0,0,1,0,.14s0,0,0,0l0,0,0-.08h0l0,.09,0,.06,0,.06h0v0h0a.51.51,0,0,0-.12.39h.05l-.05.11h0l.05-.1v.26l.08,0v.22h0v-.16l0,.11h0v.08h0v-.08l0,0a.45.45,0,0,1,0,.16v.05h0v-.08l0,0v.16h0l0-.07s0,0,0,0a1,1,0,0,0,.05.16l0,.1h0l0-.07v.05h0v.07h0v0a.43.43,0,0,1,0,0h0v.08h0v.05h0l0-.09h0l0,.06V124h0v0h0v0l.05,0v.06h0l.08.17h0v0h0v-.09l.07.08,0,.08h0l0-.06.1.11h0l.06.06h0l-.07-.08,0-.07Zm4.55-3.52,0,0,0,0Zm-5.09,1.15.1-.06h0l.08,0-.13.07a.43.43,0,0,0-.1.09l0-.06Zm4.16,3.75,0,0h0l-.06,0h0Zm-1.38-.11h0s0,0,0,0,0,0,0,0h0l-.06,0h-.07l0,0h0c-.13,0-.25,0-.38,0h-.1l-.28,0,0,0h-.07l-.07-.09s0,0,0,0h0v0h0l0-.1v0h0l0-.15,0-.21v-.14l.07,0h.14l.11,0h0l.05,0h0l-.1.11h0l.1-.1h0v0h0l0,0h0l.05-.06h0l0,0h0l0,0h0l.12-.09h0l0,0h0v0l0,.07.07,0,.07.07h0l-.07-.08h0l.08.09v0h0l.16.2h0l.1.12c.07.09.14.17.2.26h0l0,0a.12.12,0,0,1,0,.11S217.47,125.5,217.44,125.5Zm-.65-1h0v0Zm-.54.07h0Zm1-.19h0Zm-1.07.76v0Zm-.06-.56Zm0,0,.27,0s0,0,0,0l-.12,0Zm.53-.06,0,0,0,0Zm.13.07Zm0,0Zm.13.16,0,0,0-.05h0Zm.31-.26Zm0,0h0v0l0,0h0l0,0,0,0h0l-.07.12h0v0l0,0Zm.06-.07v0h0Zm.08-.12h0l-.05,0Zm.46,1.37h0Zm0,0h0Zm.13,0h0Zm.29,0Zm-.84-.89,0,0h0l0,0Zm-.16-.33h0Zm.23-.21-.06.07v-.05Zm.5-.16-.09,0h0Zm-2.56,1.55h0Zm1,0h0Zm1.15,0Zm.5,0Zm0,0h0Zm.15,0h0Zm-.91-.92h0a.47.47,0,0,1-.06-.09h0l0-.06h0l0,0h0Zm-.08-.32,0,0,.14-.17,0,.07-.06,0v0h0Zm0,0,.06-.06h0l.09-.12h0l-.09.13h0l0,0Zm.22-.18h0l-.08.08.07-.09.06,0Zm.11,0,0,0,.1,0,0,0Zm.14-.06.06,0h0l-.07,0Zm1.74-3.26-.06.07.06-.09,0,0h0l.06-.13Zm.61-.52h0Zm-1-1.06v0h0Zm-.48,0h0Zm0,0h0Zm-1,.44Zm-.08.09h0Zm-.59.88a0,0,0,0,0,0,0h0Zm-2,.92Zm-.33.29,0-.06.13,0Zm-.07,1.55v0Zm.23.51h0v0Zm0,0v0l0,0v0Zm.14.25-.06-.14h0l0,0Zm0-.06h0Zm.15.15-.1-.1v0l0,0,0,0Z"/><polygon class="cls-10" points="247.61 112.08 247.61 112.08 247.63 112.11 247.63 112.11 247.63 112.11 247.62 112.08 247.61 112.08"/><polygon class="cls-10" points="247.66 112.25 247.69 112.13 247.68 112.12 247.68 112.12 247.65 112.24 247.65 112.25 247.66 112.25"/><rect class="cls-10" x="248.1" y="113.36" width="0.01" height="0.01" transform="translate(-9.24 203.82) rotate(-43.92)"/><polygon class="cls-10" points="247.35 113.4 247.32 113.54 247.32 113.54 247.33 113.54 247.36 113.4 247.36 113.39 247.35 113.4"/><polygon class="cls-10" points="246.82 115.07 246.83 115.06 246.81 115.08 246.82 115.07"/><path class="cls-10" d="M247.74,113h-.09l-.05-.07h0l0,0h0s0,0,0,0h0v0h0v0h0l0-.07h0a.38.38,0,0,0,.05-.21v-.15h0l0,0h0s0,0,0,0h0s0-.07,0-.11h0l0-.09h0l0,0,0,0h0l0,0v0h0v0h0v0l0,0v0h0l0-.06v-.06l0,0h0l0,0h0l0,0v0h0v0h0s0,0,0-.07v0h0v0h0s0,0,0,0l0,0v.07h0v-.09h0l0,0h-.06l0,0h0l0,0h0l0,0v0h0l0,0h-.08l0,0h0l.05,0h0l-.06.06h0a.05.05,0,0,0,0,0h0l0,0h0l0,0,0,0h0a.1.1,0,0,1,0-.07h0l0-.09h0v0h0v0h0v-.06h-.09l0,0h0l0,0h0s-.08,0-.11.06a.87.87,0,0,1-.12.14c-.1-.12,0-.32-.07-.47s0,0,0,0h0v0s0,0,0,0,0,0-.06,0h0v0l0,0,.05-.06h0l-.09.1v0h0l0,0a.65.65,0,0,0-.17.34.4.4,0,0,1-.24.25.17.17,0,0,1-.11-.11v-.09h0v0h0s0,0,0-.08l0-.23h0v.15a.43.43,0,0,0,0-.12v0l0,0h0l0,0v0h0v-.08l-.06,0h0l.08,0V111h0V111h0a1,1,0,0,0,0-.14s0,0-.09,0l.06-.05h0l-.08.09-.05,0,.07-.07h0l0,0h0l-.07.07,0,0,0,0h0l-.08.09v0h0l0,0h0l0,0h0l0,0h0l-.06.15,0,0h0a.41.41,0,0,0-.05.09l0,0v0h0l0,.06v0l0-.13h0l-.05.14v-.07l0-.06,0,0,0,.13h0l0,.06h0v.07h0v0l0,0h0l0,.07v.08l0,0h0l0,0v0h0l0,.13,0,0h-.23l0,0h-.06l0,0-.12,0h0l-.09,0h0l.11,0-.05,0h-.16l.12,0h0l0,0-.09,0h0l-.12.07.1-.07h0l-.25.17h0l.09-.06h0l.05,0-.13.11-.13.08h0l.1-.06-.11.08h0l-.18.2-.28.23h0l.06,0-.51.54h0s0,0,0,0l0,0h0l-.05,0h0l0,0s0,0,0,.08a5.83,5.83,0,0,0-.74,1.91.32.32,0,0,1,0,.14l-.12.15h0l-.26.19h0l0,0v0h0l-.06.06h0l-.14.1h0l.09,0-.08.07h-.05l-.07,0h0l.09-.08h0l-.1.1-.37.24-.05,0-.1.07h0l0,0-.09.08-.12,0-.22.07-.07,0h0L241,117l-.2.08-.28.1h0l-.25.09-.16,0a1,1,0,0,1-.24,0l-.27-.06-.17,0a2.92,2.92,0,0,1-.71-.16,3.11,3.11,0,0,1-.45-.22l-.23-.18-.2-.11.35.23c-.16-.09-.31-.19-.46-.29l.11.06-.1-.07h0a4.18,4.18,0,0,0-.65-.37,2.58,2.58,0,0,0-.73-.16H236l-.07,0H236l-.12,0,0,0h0l0,0a2.31,2.31,0,0,0-.64.16l-.18.11-.07,0-.05,0,0,0-.23.17h0l.05,0-.29.45h0l.19-.3a.81.81,0,0,0-.14.33l-.05,0h0l.05,0a.82.82,0,0,0,0,.27l0,.07h0l0-.07,0,0-.07.13h0l.08-.14h0l-.06.12h0l.06-.12,0,0,0,.09h0l.05-.1h0a3.38,3.38,0,0,0-.22.52l0,.06,0,0a3.26,3.26,0,0,0-.17,1.51,2.68,2.68,0,0,0,.29.88l-.17-.31,0-.08-.09-.31v.19l.05.11.06.16.06.2.13.23.25.3h0l0,0,.08.06a2,2,0,0,0,.44.38.61.61,0,0,0,.14.07l.11.09h0l-.1-.09h.08l.11.09h0l-.11-.09h0l.15.08h0l0,0-.1-.08.15.07h0l-.15-.07h0l-.06,0,0-.07h0v0l0-.1h0l.1.16h0l-.08-.13h0v0l0-.06h0l0-.16.19.31h0l-.21-.32-.1-.27-.09-.32h0l.07.24,0-.07h0l.09.25v0h0l0,.09-.07-.12h0l.09.14.05.12-.09-.16h0l0,.08,0,0a3.59,3.59,0,0,1-.17-.34l0-.06-.07-.39,0-.51h0V119a.64.64,0,0,0,.14.21l0-.06,0,.09h0l0-.38c0-.06,0-.13,0-.19l0,.1v0h0l0,.1v0h0l0,0V119h0l0,.08h0v0h0l0,0h0v0l0-.06,0,.07h0l0-.07,0-.07h0l.14-.2h0l-.11.59h0l0-.23h0l0,.25h0v-.22s0,0,0,0,0,0,0,.05v.11h0v0l0,.15,0,0v.07h0v-.06l.1.19a.43.43,0,0,0,0,.05v0h0s0,0,0,.07l.06.1h0a1.12,1.12,0,0,1,.13.24v.09l0,.1a.77.77,0,0,0,0,.15l0,.07.06.22.06,0v0h0v0l0,0h0a1,1,0,0,0,.28.21h0l.19.14h0l0,0,.09,0h0l.1,0,.1.06v0h0a1.31,1.31,0,0,1,.11.12l.1.22h0v0a.21.21,0,0,0,0,.06h0l.07.14h0l0,0s0,0,0,.07h0l-.05,0h0l0,0v0h0l.15-.14.11,0,.05.07h0a2.17,2.17,0,0,1,0,.26h.1v0h0v0a.62.62,0,0,1,.4.08h0a.53.53,0,0,1,.15.11h0a.56.56,0,0,1,.11.2c0,.08.06.19.14.18l0,0,0,.2h0l0-.2.07-.07h0l0,.47h0l0-.47s.05,0,.08,0l0,.57h0l0-.57s0,0,.06,0l0,.25.14.42h0l-.13-.41,0-.25.06,0,0,.14V123l.08.16.05.22h0l0-.17.06.12h0l-.08-.15-.08-.33v-.12l0,0,.19.69h0l-.19-.66h0a.79.79,0,0,1,.16.3h0v0l0,0h0l0,0,.17.39h0l-.18-.41,0,0v.1l.26.43h0l-.26-.42V123h.08v.19h0l0-.16h0v.25h0V123l.08.19h0l.08.18-.09-.16h0l.14.24,0,.1h0l.13.24h0l-.18-.3,0-.09,0-.34h0l0,0,0,.09h0v0l.18.37v0h0l0,.09,0,.07h0v0h0l0,0v0l.25.41h0l-.28-.45v0l0-.12.1.26h0l.08.21h0l-.08-.2h0l.05-.1h0v0h0l0-.08v.07l0,.07h0v0h0v0h0l0,.06h0l0,0v0h0v0h0l.09-.14h0l-.08.24h0l.09-.17h0v0a1.29,1.29,0,0,1,0,.34c-.08.19-.12.46-.2.61l0,0h0a4.42,4.42,0,0,1-.39.57h0l-.07.06h0l0,0-.09.15s0,0-.06,0h0l-.14,0,0,0a3.87,3.87,0,0,0-.88.26h-.05l-.16.07-.07,0h0l.06,0h0l-.1,0v0h0v0l-.14.06H238l0,0h0v0h0l.08,0-.07,0v0l0,0h.06l0,0h0l.47,0H239a.35.35,0,0,1,.06.09v0h0v0h0l0,.12v.07h0v0l0,.08h0v-.05l0,.09V127h0l0-.22,0,.06v0h0l0,.07.08.16h0l0,0,0,0h0v.07h0v-.07l.06.1h0l-.06-.1.1.12h0l-.13-.13,0,0h0l0,0,.09.11.07.06h0l.07,0v.06h0v0h0l0,0h0l-.06-.05v0l.06,0h0v0h0l-.06,0v0l0,0,0,0h0l.08,0h.11a2.35,2.35,0,0,0,.26,0l0,0-.41,0h0l.39,0h0l0,0h.12l0,0h.37l.08,0-.13,0h0l.16,0,.08,0h0l.11,0h0l-.12,0h-.07l-.11-.05h.22s-.05,0-.06,0H241l-.18,0h0v0h-.08l-.06,0,.08,0h0l-.09,0h0l.11,0h0l-.11,0-.22-.07-.05,0h0l-.25-.07-.06,0,.13,0h0l-.14,0h0l-.07-.05.09,0h0l-.1,0,0,0a0,0,0,0,0,0,0l.08,0h0l-.08,0a.35.35,0,0,1,0-.13h0v-.07a1.36,1.36,0,0,0,0-.2l0,0h0l0,0a.2.2,0,0,0,0-.07c0-.07.06-.13.1-.19s0-.11.08-.16l.14-.19.07-.07a2.55,2.55,0,0,0,.32-.4l.06-.11.23-.26-.39.53h0l.45-.62.08-.09h0l.11-.15h0l-.13.18v0h0l-.09,0,.06-.08,0,0h0l.14-.19.06,0h0l0,0,.06-.08.2-.23.06-.05h0v0h0v0h0v-.06h0l.05.16v0h0v0l.09-.07,0,.11h0l0-.12h0l.05.2h0v-.07l0,0h0l.06.18h0l-.06-.18,0,0,0,.09h0l0,.15h0l0-.23,0,0,.08.21-.05.06h0l.05,0,.07.2h0v0l0,.09v.13h0v0a.72.72,0,0,0,0,.13.06.06,0,0,0,0,0v.22h0v0h0v.29h0v-.08l0,.08h0v0s0,0,0,0h0v0h0v-.07h0v.06h0v.07a.24.24,0,0,1,0,.08h0a3,3,0,0,1-.31,1l0,.06h0l-.18.09h0l.16-.08,0,0c-.06.07-.12.12-.18.18h0l-.08.07v0h0l-.36,0h0l.37,0h-.06a.35.35,0,0,0-.16.07.05.05,0,0,0,.05,0,1.94,1.94,0,0,0,.79-.08l.28-.06h.28l.14,0-.5,0h0l.54,0,.23,0h0l-.19,0h.21l.24,0a1.82,1.82,0,0,0,.25.07,1.34,1.34,0,0,0,.28,0l.65-.1h.37l-.12,0h.1l0,0h0l-.05,0a1.87,1.87,0,0,0-.82-.19h0l-.1,0h0l-.19-.07h0l.18.06-.05,0h0l-.09,0h-.09l.06,0h-.32l-.19-.16h0l.19.15h0a.8.8,0,0,1-.16-.08l0,0,0-.07v-.09h0v.08l-.21-.35v0l0-.35v-.11a.19.19,0,0,0,0-.08,1,1,0,0,0,0-.24l0-.07h0l.05-.21h0l0,.09,0-.51,0-.09,0-.13h0v0h0l-.09.51h0l.09-.52,0-.06,0-.05h0l.07-.1-.13.27h0l.14-.28h0l.16-.19h0l.27-.25h0l-.06.1h0l.23-.21,0,0h0l-.22.2h0l.24-.22h0l.08,0h0l-.06.1h0l.08-.12.13,0,0,.09,0,0,0-.06h0l.08-.05v0h0v0h0l.13-.07h0l.22-.14v0l0,0h0l0,0h0l0,0h0l.06,0h0l.21-.16h0l.1-.08h0l.12-.12h0l0,0v0h0l.08-.16h0l0,.1h0l0-.12.24-.3h0v0l.05-.07h0l.1-.13-.06.09h0l.14-.21.2-.25-.13.26h0l.16-.32v0h0v-.06l0,0,0,.11h0l0-.15h0v.09h0l0-.14v0h0v0l0-.05h0v0l0-.15.3-.74h0l0-.17h0l.05.22h0l0-.6v0h0v-.27h0l0,.11h0v-.33l0,.2h0l0-.3v0h0v-.13l.05-.46h0v0l0-.28,0,.58h0l0-.64,0-.11v0h0v-.07h0v-.06h0v0h0v-.08h0V118h0l0-.15.07.07h0l-.06-.19-.09-.42h0l.08.36-.05-.14h0v0l-.06-.24,0,0h0l-.06-.23h0l-.06-.25h0l0,.12-.11-.33.1.21h0l-.12-.27,0-.08h0v0l-.05-.18h0l0,.11-.05-.12v-.1l0-.37h0l0-.1h0v-.17c0-.11.07-.23.11-.34l.05,0,0,0,0-.06,0,0,0,0h0l0,0h0l.08-.14.07-.24,0-.26h0l.24-.44,0-.44h0v0h0v0h0v0l0,0a.06.06,0,0,0,0,0l0-.06h0l0,0,.06,0h0l0,0h0l0,0h.47s.07,0,.1,0h0v0h0l0-.05v-.06h0l-.16-.23Zm-.05-.6h0s0,0,0,0l0,0h0v0h0l0,0Zm0,0v0s0,0,0-.06Zm-13.12,8-.06-.11.13.21Zm.16-3.83h0l.11-.07a1.53,1.53,0,0,0-.18.18Zm0,4-.08-.14.08.09a1.71,1.71,0,0,1,.11.14Zm.84.54Zm0,0h0Zm-.23-.4.08.18h0a2,2,0,0,1-.1-.21Zm-.33-.84h0l.06.33a2.49,2.49,0,0,1-.2-.73l.08.29h0l-.08-.32a2.16,2.16,0,0,1,0-.35l0,.15h0l0-.19c0-.06,0-.11,0-.17l0,.06v.63h0Zm.17-.68,0-.11,0-.1v0h0Zm.47-.14a.24.24,0,0,0,0,.08l0-.18A.31.31,0,0,0,235.65,119Zm-.09-.26v0Zm0,0v0h0l.05-.15a1.19,1.19,0,0,0,.08-.16v.13l0,.09,0,0h0l0,.12-.1.15,0,0Zm-.1.27v0Zm0,0V119h0v0l0,0v0h0v0Zm0-.06,0,0,.08-.12Zm.06-.12.05-.11.07-.1v0Zm.12-.36h0v0Zm0,.12h0v0l0,0Zm0,0,0,0v0h0l0-.15,0,0h0v0s0-.07.05-.1h0A2.13,2.13,0,0,0,235.7,118.64Zm.09-.31Zm.31,2.46h0Zm0,0-.06-.21,0,0v0h0s0,.07,0,.1,0,0,0,0v0h0v0l.05,0v0Zm.11.08,0,0v0l0,.05Zm0,0Zm.34.25h0v0Zm.09.06h0Zm0,0h0Zm.08,0h0Zm0,0h0Zm.08,0h0l.05,0Zm.53.51h0l0,0Zm0,.07,0,0h0l0,0Zm.12.07h0l0,0Zm1.58.8,0-.09h0Zm.06.33-.06-.12v-.13Zm0-.38h0Zm.19.3h0s0,0,0,0Zm.14,0V123h0Zm0-.09h0Zm.53.31h0v0Zm-.52-.29v0h0l0,0,0,.17v0Zm.06,0h0v0Zm0,.11V123l0,0Zm.09.29-.09-.2v0h0l0-.11,0,0Zm-.16-6.09h.15l.22.05h0Zm.35,6.07-.07-.22,0,0Zm-.14-.22v0l.06,0,.09.3h0v0Zm.18.38Zm0-.07,0-.27.1,0Zm.05,0h0Zm0,0h0l0-.12h0Zm0,0,0-.1v.12h0v.15Zm.09.25,0-.09h0v-.18l0-.09s0,0,0,0,0,0,0,0Zm.07-.12-.05.11v-.31l.07.09Zm.06-.06h0v0s0,0,0,0Zm0,.19h0v0h0Zm.05,0v0h0Zm0,.12.06-.17h0s0,0,0,0ZM238,126.16h0Zm.16-.14-.07,0h0l.06,0Zm.87.33h0Zm.21.56h0Zm0,0Zm0,0Zm0,0h0Zm0,0h0Zm0,0h0Zm0,0h0Zm0,0h0Zm0,0h0v0Zm-.06-.13v0a.43.43,0,0,0,0,.07v0h0v0l-.05-.08,0,0h0l0,0,0-.07h0Zm0,0h0v0Zm-.05-.16v.06h0v-.1Zm-.08,0h0Zm0-.09v-.11h0s0,0,0,0h0l0,0h0v0l0,.07h0Zm0,.11Zm0,0h0v0h0v0Zm0-.06,0-.08v0l0,.06Zm0,0v0h0Zm0,.08v0h0Zm0,.08v0Zm0,.09v-.12h0v0l0,0v0l0,0h0v.07h0v-.1h0a.06.06,0,0,1,0,0h0v0l0,0h0v0h0l0,0h0l0,.06Zm.1.24-.07-.13,0,0,.09.1,0,0h0l0,0v0Zm0-.08v0Zm0,0,0,0s0,0,0,0h0Zm.16.16h0l0,0,0,0h0l-.06-.05,0,0h0a.41.41,0,0,0,.14.12s0,0,0,0v0l0,0Zm.06,0v0h0v0Zm0,0h0Zm0,0h0Zm0,0Zm0,0v0h.05Zm.06-1.64h0l0,0v0l0-.07h0Zm.64,1.72h-.17l0,0h.12Zm-.06-.26h-.08Zm-.09-1.09a.56.56,0,0,1,.05-.08.08.08,0,0,1,0,0Zm.89-1.12-.28.33.19-.29Zm.47-.84h0l0,0h0Zm0,0h0l0,0h0Zm0,0h0v0l0,0v0l0,0h0Zm0,0h0l0,0v0l0,0Zm0-.07h0Zm0,0h0v0h0v0h0l0,0v-.09Zm0,.18,0,0v0l0,0Zm0,0Zm0,0,0,0h0l0,0Zm0,0,0,0,0-.07Zm0,0a.16.16,0,0,1,0-.07l0,.12,0,0v0h0Zm0,.1v0Zm0,0,0,0h0l0-.06v0l-.13.18C241.25,124.17,241.28,124.1,241.32,124Zm-.28.53s0,0,0,0l0,0h0Zm.22-.29.06-.08,0,0Zm.18-.18,0,0,0-.05Zm0,0-.08.09,0,0,0,0h0l0,0-.08,0h0l0,0-.12.17-.09.1h0l0,0h0c0-.06.06-.12.1-.18h0l.11-.16h0v0l-.07.07h0l.07-.07h0l0,0v0h0v0l.05,0Zm0,0v0Zm3.3,3.21h0v0Zm0,0h0Zm0,0h0Zm0,0h0Zm.05.06.08,0h-.08Zm-.85-.29h-.06Zm-.08,0h0Zm-.08,0h0Zm-2.1-2.93h0l-.05,0h0v-.08l0,0Zm0-.06h0v0Zm-.06.08h0Zm0-.11h0l0,0Zm-.13.06v0h0v0Zm.07.16h0l0-.16,0,0h0l0,0v0h0v-.09l.05,0h0v.22h0Zm0,0v-.07h0v.07Zm0-.2,0,.08h0V124Zm0,.16-.08.06v0l0,0v0h0l0,0v0h0Zm0,0h0v0Zm0,0h0v0Zm0-.07Zm.06.25,0-.19h0v0h0l0,.08h0v0Zm0-.14v-.08l0,0v0h0Zm0,0h0Zm0,.11v-.08h0v0l0,0,0,.08Zm0-.12,0,0h0Zm0,.08v0l0,0v.08Zm0-7.51h0l-.09.06-.08,0h0l0,0h0l.32-.24.06,0-.11.1h0l-.05.05Zm.14,7.64.05.06v0h0l0,0h0Zm0,.15Zm0,0v0Zm.12.24h0v0h0v0l-.07-.19h0l.06.13h0l-.07-.14h0a1.6,1.6,0,0,1,.1.23v0Zm0,.17v-.17s0,0,0,0v.13Zm0,0v0Zm0-8.33-.05,0-.1.06h0l.16-.15.13-.06Zm.08,9v0h0Zm0,0h0v0h0v0Zm0,.09v0l0,.09Zm0-.12h0v0h0Zm0,.21h0v-.14l0,.07Zm-.08-9.18.11-.11.16-.08Zm.9,10.24h0a.44.44,0,0,1-.13-.14,1,1,0,0,1-.06-.16Zm-.18.6h0l-.13,0Zm-.33-11.11-.21.1.1-.1.28-.19h0l0,0,0,0A2.06,2.06,0,0,1,242.54,116.25Zm.3,9.16h0c0-.12,0-.25,0-.37V125s0-.06,0-.09Zm0-9.43h0l.09-.12Zm.19,8.49v0Zm.08-.09h0Zm.08-.1h0l0,0,0,0h0Zm.08-.08h0l0,0h0Zm0,0h0v0s0-.06.07-.08l0,0Zm.2-.15,0,0v0l0,0Zm.14,0,0-.08.12-.06Zm1.77-11.89Zm-.09,0h0l0,0,0,0-.05,0h0l0,0,0,0-.08,0Zm0,10.74,0,0v0Zm-.11-10.72Zm0,0v0h0l.07,0h-.06Zm0,0h0Zm.06,0h0Zm-.06,0Zm0,0h0Zm-.09,0h0Zm-.29.26h0l-.2.17Zm-.68.59.1-.08s0,0-.06.06ZM244,123.72h0l0,0Zm.15-.06-.13,0h0l.13-.06h0Zm.12,0-.06,0,0,0,0,0,.09,0Zm0,0h0v0h0Zm0,0,0,0,.07,0,0,0Zm.18-.1-.07,0h0l0,0,.08,0Zm-.05-10.68h0l.07-.06Zm.12,10.63h0l0,0,0,0Zm.12-.07-.1.06h0l.11-.08Zm.16-.13-.11.09,0,0,.1-.07Zm0,0h0l0,0Zm0-10.74,0,0h0l0,0,.09,0Zm.11,10.67a1.8,1.8,0,0,0,.19-.2v0h0Zm.27-.25,0,.07,0,0,0-.08s0,0,.05,0Zm.09,0-.07,0h0l.15-.23Zm.37-11.76h0v0h0l0,0Zm0,.08h0l0,0Zm-.11.23,0,0s0,0,0,0a.35.35,0,0,0-.05.18v0Zm-.05.15v0l0-.06,0,0Zm0,.39h0v0l0-.06h0v0Zm0-.19,0-.06h0a.31.31,0,0,1,0,.08Zm.22,10.58-.08.1,0,0h0l-.12.17,0,0,.06-.08h0l.08-.11h0l0,0Zm0-11.26Zm.29,0h0Zm-.15,11.11-.14.18v0l.14-.14Zm0,0-.08.08.1-.14ZM246,122h0l0,.06h0L246,122Zm0,0-.06.08v0h0l.06-.09v0Zm0-.06s0,0,0,0v.05Zm.26-.28,0,.07h0v0h0l-.15.18.21-.32Zm0,0h0v0h0L246,122v0l.06-.11h0l0,.06,0-.09a5.12,5.12,0,0,0,.27-.52Zm0-.07v0l0-.1,0-.06Zm0-.18v0h0v-.06a.41.41,0,0,0,.05-.09l0,.09Zm.05-.15,0-.07,0,0Zm.51-3.35h0v-.08h0v0Zm0-.08v0Zm0,0v0h0l0,.11-.06-.06,0-.15s0-.08,0-.12Zm-.47-1.6h0v0a2.7,2.7,0,0,1,0-.28h0l0,.19h0v.18l0,.09v0h0a1.28,1.28,0,0,1,0-.19Zm.11,4.64,0-.08s0,0,0,0v0Zm.07-.21,0,.1v0h0a.36.36,0,0,0,0-.1h0a2.21,2.21,0,0,0,0-.25l0,.28Zm.1.06-.05-.19,0-.1v.06h0l0-.16v.39Zm0-.34,0,.14h0l0,.07.09-.5Zm0-.34h0v0Zm0-.46,0,.41h0l-.06.31c0-.25,0-.5,0-.75v0h0l0-.2h0l0,.13h0v.12Zm0-.87h0l-.06.55h0l0-.22C246.81,118.82,246.82,118.71,246.83,118.6Zm-.05-1.59h0l.08.27,0-.05-.06-.23h0v0Zm-.14-.46.06.18v0h0l-.05-.19Zm-.11-.25.07.15.09.32-.11-.23h0l0-.1h0l0-.11Zm.08.4h0l.11.26,0,.1-.2-.4v-.05h0a.54.54,0,0,1-.05-.11,1.1,1.1,0,0,1,0-.18v.05h0Zm-.11-.38h0v0Zm0-.06Zm0-.2h0v0l0-.19v.1h0v-.3h0Zm0-.25,0,.14,0-.34v.2Zm.31-1,0-.06v0l0,.06Zm0,.2v0h0l0-.1,0,.13Zm-.13.19h0Zm.06-.08h0l0,0,0-.08h0l0,.06h0v0h0Zm0-.09.06-.15h0Zm0,0Zm.16-.3-.14.34h0l0,0v0h0l.07-.25v0h0v0h0v0h0l0-.1.08-.21Zm.17-3.49h0Zm.06.21h0v0l0,0h0l0,0Zm0-.12v0l0,0s0,0,0,0Zm0,0v0h0l0,0h0a0,0,0,0,1,0,0h0l0,0Zm-.08-.06h0l0,0S247.16,111.21,247.15,111.2Zm.06,0v0h0l0,0v0h0Zm.08,2.14Zm0,0,0,0h0l0,0Zm.09-2a0,0,0,0,1,0,0l0,0h0Zm0,0,.06,0h0l0,0A0,0,0,0,0,247.39,111.45Zm0,0,0,0v0h0l0,0v0l0,0A.06.06,0,0,0,247.4,111.49Zm0,.05h0Zm0,.06h0l0,0h0l0,0S247.47,111.61,247.47,111.6Zm.12,1.26Zm0-.09,0,.08h0Zm0,.08Zm0-1,0,0h0v.05h0l0,0v0l0,0h0l0,0Zm0,1h0l0,.06S247.55,112.88,247.56,112.86Zm.05.13Zm.45.29h0v.08h0v0h0a.17.17,0,0,0,0-.1.39.39,0,0,0-.06-.11Zm-.16-.18-.05,0,.05,0,.06.07Z"/><polygon class="cls-10" points="242.22 125.72 242.22 125.74 242.22 125.72 242.22 125.72"/><polygon class="cls-10" points="237.9 116.63 237.9 116.63 237.79 116.55 237.9 116.63 237.9 116.63"/><polygon class="cls-10" points="236.59 116.04 236.55 116.04 236.59 116.04 236.59 116.04"/><polygon class="cls-10" points="237.59 116.4 237.44 116.33 237.79 116.55 237.59 116.4"/><polygon class="cls-10" points="237.25 116.22 237.2 116.21 237.25 116.23 237.25 116.22"/><polygon class="cls-10" points="236.67 116.04 236.59 116.04 237.2 116.21 236.67 116.04"/><polygon class="cls-10" points="237.33 116.25 237.25 116.23 237.44 116.33 237.33 116.25"/><polygon class="cls-10" points="238.55 122.8 238.54 122.79 238.54 122.8 238.52 123.44 238.52 123.44 238.53 123.44 238.55 122.8"/><polygon class="cls-10" points="238.99 123.64 238.91 123.17 238.9 123.17 238.9 123.17 238.98 123.64 238.98 123.64 238.99 123.64"/><polygon class="cls-10" points="239.22 123.19 239.21 123.19 239.21 123.19 239.28 123.52 239.29 123.52 239.29 123.51 239.22 123.19"/><polygon class="cls-10" points="238.62 122.99 238.62 123 238.67 123.16 238.73 123.56 238.74 123.57 238.74 123.56 238.68 123.22 238.71 123.32 238.72 123.32 238.72 123.31 238.67 123.15 238.66 123.09 238.66 123.09 238.66 123.1 238.66 123.1 238.62 122.99 238.62 122.99"/><polygon class="cls-10" points="238.47 122.54 238.47 122.54 238.29 122.69 238.29 122.7 238.3 122.7 238.47 122.55 238.47 122.54"/><polygon class="cls-10" points="238.11 126.17 238.11 126.17 238.11 126.17 238.11 126.17"/><polygon class="cls-10" points="244.23 123.86 244.26 123.81 244.24 123.82 244.21 123.89 244.23 123.86"/><polygon class="cls-10" points="246.37 121.56 246.33 121.73 246.35 121.7 246.39 121.56 246.38 121.56 246.37 121.56"/><path class="cls-10" d="M227.9,124.53h0v0l.18,0-.07,0a.19.19,0,0,1,.15.09l-.15.14-.08,0,.06,0,.06,0h0l0,0h0l-.17.13,0,0h0l.1,0h0l-.16.13h0l.14-.1h0l-.09.07h0L228,125a.76.76,0,0,1,0,.15h0l-.28.15h0l.15,0h0l-.21.08h0l.12,0a.49.49,0,0,0,0,.17h-.05l0-.16h0l0,.17h.08a.06.06,0,0,1,0,0l-.19.26h0l.1,0V126l0,.06h0v0a.5.5,0,0,1,0,.13s0,.08,0,.12l0,.06h0l0,0h0a.76.76,0,0,0,0,.15l0,.06v0h0a.61.61,0,0,0,0,.11h0a.8.8,0,0,0,.11.25l0,.14h0v-.11s0,0,0,0l.07,0v.06h0l0,0h0v.17h0V127l.08,0,0,.06h0l.05-.06h0l0,.09h0v0s0,0,0,0l0,.12h0l0-.13.06.07v0h0a0,0,0,0,1,0,0s0-.08,0-.12l0,.17h0l0-.14h0v0l0,0,0,.13v0h0l0,0,0,0,0,.06h0l0,0h0l0,0h0s0,.05.06.07l0,.08h0v0l.06.06,0,.15h0v-.14l.09.09v.06h0v0l.06,0v0h0v0l0,0,0,.1v.1h0V128h0l0,0,.06.09.05,0a2.41,2.41,0,0,1,.36.67.09.09,0,0,1,0,.07l-.05.08,0,.05s0,0,0,0a0,0,0,0,1,0,0l0,.07h0s0,0,0,0l.5,0h1a4.21,4.21,0,0,0,.5,0h.13l0,0h0l.1-.05h.08v0l0,0h0s0,0,0-.05h0l0,0-.09-.07h0l-.07,0h-.1a.33.33,0,0,0-.17,0l-.06,0h0l.05,0s0,0-.05,0h0a.16.16,0,0,1-.08-.06l0,0h0l0,0,0,0h0l0,0-.13-.06,0,0h0l0,0-.11,0h-.05l0,0v-.09h0v.09l0,0,0,0h0l-.06-.06v0l.06-.09,0,0h0l0,0h0l.11-.15h0l.05-.07.15-.12.25-.12h0l-.14.07.27-.16h0l-.25.15,0,0,.19-.11.11,0-.07,0h0l.1-.06.15,0-.12.08h0l.14-.1.21-.09-.18.18h0l.19-.2h0l0,0a.69.69,0,0,0,.13-.11l-.06.08h0l.08-.11h0a1,1,0,0,1,.19-.22h0l.12,0-.09.15h0l.09-.16.06,0s.07-.08.11-.12l-.07.16h0l.07-.18s.08-.06.1-.11l-.07.21h0l.1-.29h0a1.55,1.55,0,0,0,0-.23v.07l0,.24h0l0-.21,0,.09h0l0-.13v-.09h0v0s0,0,0,0,0-.11,0-.17l0,.31h0l0-.35c0-.07,0-.13,0-.2l0,.08h0l0-.09a2.26,2.26,0,0,0,0-.26l.06.16h0l-.07-.18s0-.06,0-.08l.05.1h0l-.06-.13c0-.06,0-.12,0-.18l.05.15h0l-.06-.18h0a1.37,1.37,0,0,0-.07-.29l0,.06h0l0-.06,0,.06h0l-.08-.11s0,0,0-.07h0l0-.1.12.17h0l-.13-.18.05,0h0l-.07-.06h0a.05.05,0,0,1,0,0l.14.09h0l-.14-.09h0v0h0s0,0,0,0l.09,0h0l-.09,0a1.38,1.38,0,0,1,0-.2h0a.7.7,0,0,0,0-.14.39.39,0,0,0,0-.15h0v-.07h0v-.05h0l0,0a.43.43,0,0,1,0-.11h0v0a1.53,1.53,0,0,1,0-.37l0,0h0l0,0h0l0,0h0l0,0h0v0l.07-.12h0l-.06.12v0l0-.09h0l0,.07v0l0-.06v0l0-.09h0s0,0,0,0V123h0v0a.42.42,0,0,0,0-.1l0-.08,0-.05,0,0v0h0l-.09-.1h0l0,.08h0l0,0h0l0,0h0l-.28-.13a2.83,2.83,0,0,0-1-.2h.23v0h0l-.22,0h-.18a.1.1,0,0,1,0,0l-.05,0-.09,0h0l-.36.16h0l.3-.13a1.83,1.83,0,0,0-.3.18h0l-.08.08-.12.08h0l.1-.06-.1.1h0l0,.07-.17.15v0h0l.08,0,.09,0,0,0h0l-.19.17h0l.19-.16-.17.19v0h0l0,0,0,0-.06,0h0l0,0,0,.06h0l.07-.08,0,.12v.07h0l-.09,0h0l.09,0h0l0,0h0l.05-.17.1-.15v0h0l0,0,.16-.18a3.21,3.21,0,0,0-.22.54l-.09.14v0h0l-.07.06h0v0l0,0h-.13l0,0h0l0,0h0l-.08,0h0l.07,0-.06,0-.11,0h0l.08,0h0l-.14,0h0l0,0h-.1v0h-.07l-.1,0h0l.07,0-.09,0v0H229l-.21.06h0l-.08,0h0v0h0l-.16.08v0h0l0,0-.24,0h0l0,0h0Zm4.79,2h0Zm-4.71-2h.21l-.09,0Zm.67-.18h.14l-.16.06h-.08Zm1.16-.39,0,0v0h0A.14.14,0,0,0,229.81,124Zm.06,4.75h0Zm.16,0h0Zm0,0-.12,0,0,0,0-.06h0v0l0-.05-.06,0-.05-.11,0-.07,0,0,0,0-.07-.2,0-.21h0l.13,0,.07,0,.12,0,.08,0h0v0h0l.07,0h.12l.05.07,0,0h0l0,0h0v0h0v.07l0,0h0v0a.62.62,0,0,1-.28.32h0l-.07,0h0l0,0h0l0,.07,0,.06h0v0l.06,0H230a.54.54,0,0,1,.13.07h0s0,0,0,0Zm-.2-.2s0,0,0,0h0v0Zm.35-.64,0-.05h0l.05,0a.11.11,0,0,1,0,.06Zm-.7.26s0,0,0-.06h0l0,.1S229.49,128.15,229.49,128.13Zm-.29.8h0Zm-.41-.92h0v0Zm1-4.11h0v0h0l0,0A.43.43,0,0,1,229.83,123.9Zm-.13.13h0Zm-.77.28Zm-.34.12h0Zm-.89.85.18-.1a.25.25,0,0,1,0,.07h0Zm-.11.1.12,0h0a.11.11,0,0,0,0,.05Zm0,.39,0-.06A.1.1,0,0,1,227.62,125.77Zm-.1.14.06-.08s0,0,0,.07Zm.62,1.25Zm.1.12v0l0,0v0h0Zm.53.54h0l0,0Zm0,.23h0Zm1.23,1h0Zm1.38,0h0Zm0-.22,0,0,0,0a.18.18,0,0,0-.07,0Zm1.14-3.91Zm0-.08,0,0v0h0l0-.08Zm0-1.7v.08s0,0,0-.08Zm-.13-.28,0,0s0,0,0,0v0Zm-.09-.08h0l0,0v0l-.11-.09Zm-1.44-.36h0Zm-.8.67-.11.06,0,0,.11-.05Zm-.18.63v0h0Zm-.09.16h0l.08-.08v0l0,0h0l0,0Zm-.13.14h0Zm-.26.08h0Zm-.5.21h0l-.09,0h0Zm-.08,0h-.07l0,0Zm-.56.15.21,0,.07,0h0v0l-.17.06h-.08Z"/><path class="cls-9" d="M164.87,118.31l0-.1h0a.89.89,0,0,0,0-.14.31.31,0,0,0,0-.08l0-.13a.45.45,0,0,0-.06-.12.76.76,0,0,0-.09-.18l0,0a1.3,1.3,0,0,0-.1-.15l-.15-.18a3,3,0,0,0-.41-.35.85.85,0,0,0-.34-.29l-.05,0a.72.72,0,0,0-.27-.15l-.16-.19a.8.8,0,0,0-.13-.13l-.06-.06-.11-.12-.05,0-.06-.07a.84.84,0,0,0-.4-.45.92.92,0,0,0-.27-.08,2.36,2.36,0,0,0-.65-.24l-.23-.07-.08,0h0l-.37-.12h0l-.18-.06h-.06l-.08,0-.36-.08a1,1,0,0,0-.34-.09l-1,0-.18,0-.36.07-.16,0-.43.09-.09,0h0l-.14,0a.87.87,0,0,0-.31.1l-.29.14a.59.59,0,0,0-.17.1l0,0a.79.79,0,0,0-.34.56,1.18,1.18,0,0,0,.14.62,1,1,0,0,0,.58.4,1,1,0,0,0,.35,0l.12,0h0l.22,0a.85.85,0,0,0,.77.26l.16,0a.68.68,0,0,0,.13.27v0h0v0a.6.6,0,0,0-.08.16l0,0,0,0h0l-.13.1-.21.1-.1.07a2.67,2.67,0,0,1-.26.09,7.12,7.12,0,0,1-2,.33h-.18l-.84-.13h-.12l-.08,0a.74.74,0,0,0-.21,0h0a.57.57,0,0,0-.18,0l-1-.14h-.09l-.18,0h-.09l-.09,0-.59-.08a1,1,0,0,0-.17,0h-.3a.77.77,0,0,0,.42-.41.78.78,0,0,0,.14-.61l0-.13a.82.82,0,0,0-.28-.49h0a.73.73,0,0,0-.44-.37h0a1.28,1.28,0,0,0-.24-.11l-.08,0a1.4,1.4,0,0,0-.28-.06.33.33,0,0,0-.14,0l-.3,0h-.31l-.15,0-.28.09-.07,0h0a.84.84,0,0,0-.48.19.86.86,0,0,0-.13.14.42.42,0,0,0-.14.09l-.1.1-.14.12,0,0a.74.74,0,0,0-.38.3.71.71,0,0,0-.13.34.79.79,0,0,0-.1.33l-.12.23a.89.89,0,0,0-.07.36l0,0,0,0a.83.83,0,0,0-.06.49v0a1.48,1.48,0,0,0,0,.21.66.66,0,0,0,0,.14.83.83,0,0,0,.18.94.9.9,0,0,0,.35.44h0a.78.78,0,0,0,.38.44l.05,1a.85.85,0,0,0,0,.22v.09a.83.83,0,0,0,.17.46l0,.32a.78.78,0,0,0,.17.59.18.18,0,0,0,.05.07v.21a.8.8,0,0,0,.22.58v.07a.79.79,0,0,0,.11.45.78.78,0,0,0,0,.14l.05.1a.66.66,0,0,0,.17.29.55.55,0,0,0,.17.14l0,0,0,.06a1,1,0,0,0,0,.24h0a.88.88,0,0,0,.13.49l0,.09,0,.35,0,.55v0a8.37,8.37,0,0,0,.12,1,.83.83,0,0,0,.2.88.8.8,0,0,0,.27.18.72.72,0,0,0,.25.07l.31,0h.66l.2,0a.87.87,0,0,0,.51-.17.08.08,0,0,1,0,0,.86.86,0,0,0,.19-.19.8.8,0,0,0,.15-.21.83.83,0,0,0,.06-.21l.07,0,.23.05h.27a.84.84,0,0,0,.63-.21.81.81,0,0,0,.22-.37s0,0,0,0l.1-.33a1,1,0,0,0,0-.17h0a.85.85,0,0,0,0-.23l0,0a.81.81,0,0,0-.15-.67l-.1-.14a.72.72,0,0,0-.12-.21l0-.06a.85.85,0,0,0-.15-.3l0-.06-.12-.16h0l0,0a.49.49,0,0,0-.12-.13c-.07-.11-.14-.2-.2-.28l.55.08.39.08a.7.7,0,0,0,.25,0h.13a3.5,3.5,0,0,0,1.22-.05,1,1,0,0,0,0,.54l0,.1c0,.18,0,.35,0,.52l0,.11a.76.76,0,0,0,0,.3.89.89,0,0,0-.12.4l-.1.19a.84.84,0,0,0-.07.52.73.73,0,0,0,0,.33.85.85,0,0,0,.13.56.58.58,0,0,0,.2.21.79.79,0,0,0,.58.21l.35,0h0a.7.7,0,0,0,.29,0h.49a.69.69,0,0,0,.25,0,.87.87,0,0,0,.55,0,.94.94,0,0,0,.41,0l.09,0h.34a.81.81,0,0,0,.86-.75.59.59,0,0,0,0-.23.89.89,0,0,0,0-.14l-.11-.5a.58.58,0,0,0-.08-.22,1.11,1.11,0,0,0-.07-.16v-.28l.06-.16c0-.14.09-.28.12-.42s0-.13.05-.22v0a.86.86,0,0,0,.14-.47v-.15a.62.62,0,0,0,0-.27v-.11a.8.8,0,0,0,.53-.37.77.77,0,0,0,.12-.47h0l.25-.52a.59.59,0,0,1,0-.08l.1-.22.06-.12v0a.8.8,0,0,0,.18-.37v0a1.25,1.25,0,0,0,0-.19l.1-.54a.92.92,0,0,0,0-.16c0-.11,0-.21,0-.3a1.18,1.18,0,0,0,0-.2l0-.33v-.07l.1-.53a1.21,1.21,0,0,0,0-.19l.1-.23.07,0h0l.09,0,.05,0,0,0,.13,0h.41a.72.72,0,0,0,.33,0l.3,0,.1,0a.4.4,0,0,0,.15,0l.27-.09a.72.72,0,0,0,.27-.15l.05,0a.71.71,0,0,0,.31-.35l0-.07a.79.79,0,0,0,.17-.41v-.12A.88.88,0,0,0,164.87,118.31Zm-13.73-.74a4.3,4.3,0,0,0-.69.16h0l.15-.17.06-.07.16-.08a.92.92,0,0,0,.28.14Z"/><path class="cls-10" d="M164.06,118.4h0v-.07l0-.07,0-.13,0-.06h0l-.09-.13h0l0,0a1.71,1.71,0,0,0-.11-.14,2.17,2.17,0,0,0-.37-.31l-.15-.12h0l-.09,0-.16-.14h0l.11.1-.35-.23-.27-.32h0l-.08-.07-.05,0h0l-.12-.12h0l-.05,0h0l-.18-.19-.06-.16h0l0,.07h0l-.25-.14h0a3.34,3.34,0,0,0-.8-.29l-.08,0h0l-.41-.12h0l-.09,0h-.05a4,4,0,0,0-.48-.08h0l-.15,0h0l-.09,0h-.12l-.28,0H159l-.18,0h0l.08,0h0l.69,0,.52.1-.5-.11h-.05v0h0l-1,0-.4.07-.12,0-.43.08-.14,0h0l-.12,0h0l.1-.06h0l-.07,0h0l-.16.09-.08,0-.15.06h0a.25.25,0,0,0-.09,0s0,0,0,0v0l0,0h.11l.11,0a1.39,1.39,0,0,0,.35-.09,1.84,1.84,0,0,1,.42-.1h0l.1,0h.39l0,.06h0l0,0h0l0,0h0l0,0,0,0h0l0,0h0l0,0-.06,0h0l0,0,0,0v0h0l0-.07,0-.06.08-.07-.05.06h0l0,0h0l0,0h0l-.05.1h0l0,0h0l.22-.09h0l0,0,.11,0h0l0,0,.17,0h.2l.14,0h0l-.14,0h0l.11,0h0l.15,0h0l-.09,0h0l.13,0h0l0,0h0l.07,0h0l-.1,0h0l.12,0h0l-.05,0h0l.05,0h0l0,0h0l.08,0h0l.11,0-.05,0h.1l.13.06h0l.12.07h0l.13.08h.07v0h.09l.05,0h-.13l-.07,0h0l-.11,0h0l-.14-.08h0l0,0h0v0h0l-.09-.07h0l.06,0-.18-.08h0l-.05,0h0l-.11,0h0v0l-.1,0a.29.29,0,0,0-.1.38v.08l.1.12h0l-.1-.11v-.06a.25.25,0,0,0,0,.07s0,0,.06,0l0,0v0h0v0h0v0h0l.13.07h0l.08,0-.06,0h0l.1,0h0a0,0,0,0,1,0,0h0l-.06.07a.61.61,0,0,0-.2.22l0,0v0h0v0l0,0h0l-.15.33,0,0v0h0l-.14.21a.77.77,0,0,1-.17.19l-.08.05h0a.71.71,0,0,1-.14.1l-.26.13h0l.2-.1a3.44,3.44,0,0,1-.69.3,8.18,8.18,0,0,1-2.35.37h0l-.08,0-.35,0-.61-.09h0l-.23,0h0v0h-.15l-.1,0h0l-.15,0h0l-.17,0-.75-.11.43.09-.66-.1H153l-.18,0h-.11l-.31-.06.24,0-.59-.08h-.43a3,3,0,0,0-1,.2h-.08l0,0h0l-.28.13h0l-.09,0-.1-.18h0l0,0v0l-.14-.17h0v.09h0l0,0h0l-.1-.12h0v0l-.06-.06-.05-.06v-.15h0v.1l0-.09h0v0h0v0l0,0v0h0l.14-.39h0l-.14.37v-.06l0-.06.07-.24h0L150,117h0l-.5.57v0h0l.16-.28,0,0,.2-.18h0L150,117l0,0h0l.07-.07.16-.12.39-.2v0l0,0h0l.07,0h0l-.06,0h0l.07,0h0a.47.47,0,0,1,.5.11l.1.15h0s0,0,0,0l0,0v0h0l.05-.1v-.1l0,0v0h0l0-.14h0v0l0,0,0-.06,0,0h0a.59.59,0,0,0-.33-.2l.23.07h0l-.24-.08h-.06l-.09,0-.09,0h0l.22.06h0l-.21,0h-.1l-.39-.05h-.12l-.27.09h0a.85.85,0,0,0-.17.06h-.13v0h0l-.06,0h0v0h.06a0,0,0,0,1,0,.05h0s-.06,0-.08.08h-.12l0,0h0l-.05.07-.13.09c-.1.1-.19.22-.33.23a1,1,0,0,0,.09.13l-.18.14v0h0l.13-.09-.09.11h0l-.06.13,0,0-.15.31v0h0l.09,0a0,0,0,0,1,0,0l-.16.21v0h0V118h0a.9.9,0,0,0,0,.16l-.05-.09.06-.06v0h0l-.08.07h0l.07.12,0,0h0v0l.05.09v.09h-.08v0l.09,0v0h0a.34.34,0,0,1,0,.1.1.1,0,0,1,0,0h0v0h0a0,0,0,0,1,0,0l-.14.12v0h.1l-.21.07h0l0,0,.33,0h0v0l-.06,0h-.14l0,0,0,0,.25,0h0l-.19.18v0h0l.19,0h0l0,.07h0l0,0h0l.07.15h0l0,0v0h0l.06.09,0,.11v0h0l.1,0a.17.17,0,0,0,.12,0l0,.15h0l0,0v-.08h0l.13.41h0l0,0v0l.06,1.21,0,0,0,0v.31l0,0v-.08l0,.08h0l0,0v0l0,.16a.19.19,0,0,1,0,.08h0l0,.14-.06.54h0l0-.14,0-.13,0,.32,0,0,0,0,0-.25,0,.14v.09h0v-.06l0,.09v.11h0v0l0,.6h0l0-.57h0v0l0,.39,0,0h0l0,0,0,.3h0v-.17h0v-.15l0,.12v0h0v.23h0l0-.2v.43h0l0,.2h0l0-.2h0v0l0,.09h0v0h0a1.64,1.64,0,0,0,0,.23l0,.15.07.17h0l.06,0,.07,0v0h0v0h.05l0,0h0l.08,0v0l-.07,0h0l.08,0h0l.19.09h0l-.19-.09h0l0,0h0l.09,0h0l.09,0a.5.5,0,0,1,.14.15l-.09.17a1,1,0,0,0-.08.14l0,.05,0,0,0,0v0h0l0,.12v.12h0l0,0,0,0h0l.08.09v0h0l0,0h0a1,1,0,0,1,0,.17l0,.41h0l0-.37a2.46,2.46,0,0,1,0,.28c0,.15,0,.3,0,.45v-.3l0-.46h0l0,.47,0,.48v.1a5.71,5.71,0,0,0,.14,1.08v0l0,.09,0,.09v0h0l0,0h0l.31,0h.7l.08,0v0h0v0h.07v-.08l0-.08.07.09h0v0L152,128l-.23-.27h0a3,3,0,0,1-.18-.3l0-.18v.15s0,0,0,0a1,1,0,0,1-.06-.29l0,.17,0-.23.05-.25h0l.23-1h0l.07-.16a.57.57,0,0,1,.15,0h0c.09.07.23.14.3.19l0,0h0l.13.15.1.18.06.35,0,.13h0v0a1.23,1.23,0,0,0,0,.19l0,.09h0v0l0,.15v-.08h0v.13h0l.38.4.3.12h.22l0,0v0h0v0l0,0v0h0l.11-.4h0v0l0-.06h0V127h0v.3l0,.13v-.31l0-.11v-.1l0-.06v0l.14.18h0l-.15-.2-.06-.14h0l0,.1h0a.36.36,0,0,1,0-.09c0-.06-.08-.12-.11-.18h0l0-.19-.11-.14v0h0l0,0h0l0,0v0h0v0c-.11-.18-.24-.36-.36-.52l-.09-.14h0l-.05-.07v0h0v0l0-.07v0h0v0l0,0h0l-.15-.18h0l0,0h0s0,0,0,0h0l.12-.24.34-.34h0l0,0,.08-.08h0l0,0,.06,0h.12c.36.08.72.14,1.09.19l.39.08.2,0c.26,0,.51,0,.77,0s.74-.33,1.12-.47h0l-.1,0h0l.14,0-.07,0v0h0l-.1.08v0h0l.28-.11-.1.25h0l.08-.2v0l-.12.39v0h0l.08-.15v.09l0,.12h0l0-.1v.13l-.07.39h0l0-.08c0,.11,0,.23,0,.35l-.1.21v0h0l.06-.12v0l0,.05v0h0c0,.32,0,.65-.07,1l0,.18h0l0-.05c0,.14,0,.29,0,.43l-.1.13h0l.08-.1v0l-.07.12,0,.18-.16.31v0h0l.09-.18h0l0-.08h0l-.07.24h0l0,.1h0l0-.09,0,.21h0l0,.09h0l0,0v0h0l0,.19,0,0h0l0-.16h0v0h0l0,0v0h0v.07h0l0,0v0h0v0h0l0,0h-.07v0l.34,0h-.26v0h0v0h0v0l.39,0h0v0h0l.08,0,.26,0h.4a1.25,1.25,0,0,0-.17-.7,1.72,1.72,0,0,1-.11-.29v0h0a.14.14,0,0,1,0-.06l.25-.63c.14-.28.28-.57.43-.84l0-.06,0,.11v0h0l.06-.13s0,0,0,0l0,.1v0h0V126l0,.16v0h0l0,0h0a.13.13,0,0,1,0,.06l0,.17,0,0h0v.21h0l-.06.18v0h0l0,0,0,.13h0l-.06.6c0,.1,0,.2-.05.3s0,.09,0,.14l0,.08v.27h0v.09h0v0h0l0-.09h0l0,.08h0v0h.06v.08h0v-.07h.47l0,0v0h0l0-.05h.54v0h.05v0l0,0v0h0l0,0-.12-.55h0l0,.11h0v0h0l0-.06v0h0l0,0v-.23h0v.19l-.11-.29,0-.7c.07-.22.15-.44.21-.66a1.52,1.52,0,0,0,0-.21l.11-.29h0l-.09.24c0-.07,0-.13,0-.2l.08-.25v.21h0v-.28h0V125l.12-.4h0l0-.06h0l.07-.21,0,0a.18.18,0,0,1,.05-.07c.05-.08.11-.15.17-.23h0l.11-.12,0,.12h0l0-.14,0,0,0,.25,0,.24h0l0-.25,0-.25,0-.05,0,.07h0l0,0h0v0h0l.08-.11,0,.16h0l.29-.59h0l.12-.25h0l0-.07h0l.14-.33v.09h0l0-.12v0h0L161,122h0l-.12.66-.14.29,0,0a5.06,5.06,0,0,0,.3-1.46h0l0-.33h0v0l.11-.63h0l-.09.52h0v-.1l0-.12h0l0,.1v-.06a1.09,1.09,0,0,1,0-.18v0l0-.18a.09.09,0,0,0,0,0l.28-.6h0l-.1.18.05-.12h0v0l.05-.12h0l.07-.08.06,0h0l.13-.07.14,0h0l.13,0h0l.14-.07.06,0h.07l0,0h0l0,0,.13,0,.56,0h-.08l.27,0,.26-.05h0l.12,0h.06l.28-.08h0l0,0h0l.13-.08.06-.13h0v0h0v0h0v-.12l0-.11Zm-4.72,9.89v0h0Zm-.92,0h0l0,0h0v0Zm-1.85-.23h0Zm0,0v0h0Zm0,.09.05-.06v0h0v0l0,.06Zm-3.6-.74.31.25-.17-.11-.08-.07h0l-.06-.06Zm-.22-.17h0v0h0v0l0,0Zm0,.07,0,0h0Zm0-.06h0Zm.11.09h0l0,0h0Zm.5.28Zm-1.41.71h0v0h0Zm-.1.08h0v0h0Zm-.06,0h0Zm-.07,0h0Zm-1.05-2.67v0Zm-1.28-5.48v0l0,.1v0h0Zm0,.1v0Zm0-.18v0h0Zm10.41-4.2h0Zm-.2-.08h0ZM159,127.37h0a2.08,2.08,0,0,1,0-.25l0,.33A.24.24,0,0,1,159,127.37Zm.54-11.53h0Zm.06,0h0Zm.35.15h0Zm-11,1s0,0-.07,0l.06-.06Zm.51,3.44h0v.1l0-.09Zm7.2,7.12v0h0l0,0,0-.07Zm0,0v0l0,0,0-.06Zm0,.21v.06l0,.06v0l0,0Zm0,0,0,0h0l0-.06v0h0Zm0,.14h0Zm2.49-.47v-.09h0v.1Zm0-.11h0v0Zm0-.08h0l0-.28Zm0-.37v.1s0,0,0-.06Zm4.06-9.7.06,0-.16-.1Zm-.49-.32Zm-.2-.28,0,.06-.08-.1Zm.07.16-.1-.1-.08-.12Zm-.54-.61h0l.26.26,0,0h0l0,0,.06.07h0l.1.15.13.12h0a4.54,4.54,0,0,1-.58-.58v-.08Zm-.06-.11h0v0l0,0Zm0,0h0l.06.06v0h0v.07h0l-.13-.17,0,0h0Zm0,0h0l-.07-.07v0l.11.07Zm-3.31-.81.49,0,.47,0-.48,0Zm.34,0h0l-.15,0h-.24l.06,0Zm-.53,0h0Zm-1,.2Zm.48-.11-.26.07Zm-.85.38h0v0h0v0h0a.05.05,0,0,1,0,0Zm1.38-.11Zm0,0Zm0,0h0Zm-.1.13,0,0h0Zm0,0,0,0,0,0h0l0,0Zm0,0,0,0,0,0Zm0,.11Zm.2-.1h0Zm.06,0h0Zm.2-.06h0l0,0-.1,0,0,0h0l.08,0Zm0,0,0,0h0l.08,0-.05,0Zm.13,0h0l-.05,0Zm.16,0h-.17l.06,0h0l.1,0h0l.05,0s0,0,.06,0h0Zm.22,0h0l-.11,0,.09,0h0Zm.16,0h0Zm.12,0h0l-.08,0Zm0,.05h0Zm.13,0h0l-.07,0h.07Zm0,0h.11l0,0h0Zm.09.07h0Zm0,0,.05,0,0,0h-.08Zm.09,0h0l0,0h0Zm.11,0h0l-.07,0H160Zm.17.11h0Zm-.08-.05h0l-.07,0h.08Zm.28.23Zm-.4-.1h0Zm-.75,1.4s0,0,0,.05l0,0Zm-9.41.86,0,0h0Zm-.13,0h0v0Zm-.14-.09,0,0v0l-.08-.07,0-.06Zm-.12-.15,0,0,0,.06h0s-.05,0-.06-.07l0-.1Zm-.08-.35V118l0,.12v0l0,.07a.72.72,0,0,1,0-.52h0l0,0Zm.05-.27a.11.11,0,0,0,0,0,1.19,1.19,0,0,1,.16-.23Zm.85-.83,0,0,.1,0Zm.2-.15,0,0h0Zm-.27-.52h0l-.11,0Zm-.06,0h0l.18,0,.24,0a2,2,0,0,0-.43,0h0Zm-.09,0h0Zm-.52.39h0Zm-.15,0h0Zm-.42.51h0Zm-.34.63.06-.12a.33.33,0,0,0,0,.1Zm.05.12v0l0,0Zm-.07.14h0l.05,0a.3.3,0,0,0,0,.1Zm-.06.56h0Zm0,.39.08-.07s0,0,0,.07Zm.15.15-.25,0,.14,0,.11.08Zm0,.08,0,0,0,0-.05,0Zm0,0,0,0v0Zm-.05.2.13-.11a.19.19,0,0,1,0,.08Zm.33.38s0,0,0,0l0,0Zm.21.08h0Zm.13.22,0,.07v0Zm.09.55v.32l0-.49,0,.06v.08h0v0Zm0-.12v0Zm0,.3v0h0v-.12Zm0,.45v0h0v-.15h0v.21Zm.06.52,0-.11v-.15s0,.09,0,.14Zm.18.7,0,.13,0,.12,0-.44,0,.07Zm.2.67v.1h0l0,.11v0h0v.09h0Zm0,.5v0Zm0-.13h0v-.12h0Zm.09.41v-.1h0v0h0v-.06l0,.1h0Zm0,.13,0-.08,0-.11V124Zm0,.39,0-.12a.74.74,0,0,0,0,.14v.13Zm.07.16v-.13l0,.06h0Zm.07.07-.06-.06,0-.07s0,0,0,0a.23.23,0,0,0,.07.07v0Zm.09,0h0v0h0Zm0,0v0l0,0Zm.3.72v0l0,.11v0Zm0,.31,0-.08v-.08l.06.2Zm0,0,0-.08,0,.06Zm-.05-.17h0v-.07l0,.17h0v0h0Zm.06.22h0v0l0,.08h0v0h0Zm.06.07Zm.16,2.46v0Zm0,.07h0l0-.12v0l0,.11Zm0,.06h0l0-.05v.06Zm0-.08v0h0Zm.54.14h0Zm.11,0h0Zm.2,0h0Zm0,0h0v0h0Zm0,0Zm.08,0h-.08l.09,0H152Zm0-.06h0v0Zm.05.06h0Zm.05-.06h0v0h0v0h0Zm0-.26.05.11-.05-.08L152,128Zm-.15-.21h0Zm-.29-1.12.06-.3,0,0h0v0h0l0,.18v0l-.09.44v-.09l0,.14a5.08,5.08,0,0,1,.28-1.1Zm.22-.91h0Zm0,0,0-.15h0Zm.82.53,0,.1v.1Zm0,.13,0-.09,0-.09h0l0,.06a.06.06,0,0,0,0,0v0h0Zm0,0h0v.1h0Zm0,.5h0l0,0Zm0,.15v0l0-.1h0v0h0v0h0l0,0h0v0h-.06Zm.12.15h0l-.07-.07.11.07,0,0Zm.07,0,0,0,.07.06.05,0-.13-.08Zm.26.27-.18-.13,0,0,.29.19Zm.3.09h-.1l-.09,0h0v0h0l.06,0h.08l0,0Zm0,0-.28-.22.1.07h0v0l0,0,0,0v0h0v0h0l0,0,0,0h0l0,.08Zm0,0h0Zm.05,0,0,0v0h0Zm0,0v0Zm0-.1h0Zm0,0,0,0,0-.16h0Zm0-.16v-.06h0Zm0,.18v0Zm0-.12h0v-.14a.13.13,0,0,0,0-.06v.08Zm.06-.32v0a.86.86,0,0,0,0-.16h0Zm0-.16Zm-.07-.3h0Zm-.18-.33h0v0Zm-.15-.29.12.14,0,.14-.07-.09-.09-.15Zm0,0v0l0-.05Zm-.58-.79,0,0h0Zm0,0h0a.1.1,0,0,1,0-.05v0Zm-.08-.13,0,0v0l0,0v0Zm0,0v0a.1.1,0,0,0,0,0v0Zm0,0v0l-.09-.11v0Zm-.17-.26h0l.09-.09-.11.21a.19.19,0,0,1,0-.08.23.23,0,0,1,.07-.1l.08-.08v0l-.11.11Zm.15-.15v0l.29-.28Zm1.94-.27h-.06l.14,0Zm2.47-.44h0v0Zm0,0h0l0,0h0Zm0,0Zm0,0h0l-.05,0h0Zm0,.08h0l0,0,0,0,.08-.07,0,0,0,0,0,0Zm0,0,.08-.06,0,0Zm.08,0h0l0,0h0v0Zm0,0Zm0,.26v0l0,0Zm0,.58h0Zm-.21,2.36,0-.08v0l-.07.14Zm0,.34,0,0v.06h0l0,.06Zm0,.16h0l0,0,0,.09,0,.06Zm-.07.23,0-.07,0,0,0,0Zm0,.18v0h0Zm0-.07h0l0-.06v0Zm0,0,0,0,0,0h0Zm0,.2v0l0,0h0Zm.09,0h0Zm.83-1a0,0,0,0,1,0,0v0Zm0-.08h0a1.59,1.59,0,0,1,.07-.2l.12-.24Zm.74-1.46v0h0Zm-.05,2.38,0-.15v0Zm.07.17v0h0Zm0-.09v0h0v0Zm0,.06h0l0,0h0l0,0h0Zm.07,0h0Zm0,0h0Zm.07,0Zm0,0Zm.1,0h0Zm.07,0Zm.06,0h0Zm.15,0h0Zm.11.11.13,0H159Zm.3-.06h-.08v0h.08Zm0-.1h0v0h0v0Zm-.06-.35h0Zm0-.06v0l0-.06a.75.75,0,0,1-.08-.18v-.1Zm-.11-.87h0v0Zm.37-1.5v0h0l0-.13v0h0v-.13l0-.07v.34Zm.09-.77,0,.11,0-.15h0v0h0Zm.68-1v0h0v0l0,0,0,.06Zm0,0v0h0Zm0,.16,0-.11h0l.07-.14Zm.05-.23v-.06l.11-.13.06-.11-.07.14Zm.37-.66h0v0h0l0,0Zm.67-3.28-.17.41v0h0l0-.15,0-.07h0l.05,0h0l0,.05h0v0a.43.43,0,0,1,.09-.1Zm-.09.13h0Zm1.33-.68.36,0h0l-.12,0h-.27Zm.53,0-.29,0,.25,0h.23Zm.83-.25-.12.07.1-.09.07-.1Zm.05-.15h0v0h0l-.13.14-.17.1-.09,0a.75.75,0,0,0,.29-.21l.06-.11H164v0Zm0-.19,0,.12H164a.77.77,0,0,0,0-.54l0,.07.05.14v.07h0Zm0,.1h0l0-.11v-.1l0,.09Z"/></g></g></svg>