<svg xmlns="http://www.w3.org/2000/svg" xmlns:xlink="http://www.w3.org/1999/xlink" viewBox="0 0 514.94 347.29"><defs><style>.cls-1{fill:url(#linear-gradient);}.cls-2{fill:url(#linear-gradient-2);}.cls-3{fill:url(#linear-gradient-3);}.cls-4{fill:url(#linear-gradient-4);}</style><linearGradient id="linear-gradient" x1="111.55" y1="-13.98" x2="471.03" y2="297.81" gradientUnits="userSpaceOnUse"><stop offset="0" stop-color="#5a5a5c"/><stop offset="0.15" stop-color="#808081"/><stop offset="0.32" stop-color="#fff"/><stop offset="0.54" stop-color="#8f9193"/><stop offset="0.67" stop-color="#808081"/><stop offset="1" stop-color="#ced1d2"/></linearGradient><linearGradient id="linear-gradient-2" x1="272.72" y1="127.43" x2="475.83" y2="303.6" gradientUnits="userSpaceOnUse"><stop offset="0" stop-color="#37499c"/><stop offset="0.15" stop-color="#4468b1"/><stop offset="0.32" stop-color="#21a7e0"/><stop offset="0.54" stop-color="#4059a7"/><stop offset="0.67" stop-color="#2b3175"/><stop offset="1" stop-color="#4166af"/></linearGradient><linearGradient id="linear-gradient-3" x1="194.05" y1="369.28" x2="194.05" y2="42.8" xlink:href="#linear-gradient-2"/><linearGradient id="linear-gradient-4" x1="44.28" y1="69.74" x2="397.22" y2="375.86" xlink:href="#linear-gradient-2"/></defs><g id="Layer_2" data-name="Layer 2"><g id="Layer_1-2" data-name="Layer 1"><path class="cls-1" d="M514.86,280.59C480.4,249.06,437.6,255.74,401.62,263Q405,257.3,408,251.4A173.71,173.71,0,1,0,85.1,127.69c4.27.15,8.48.47,12.59.95C117.21,61.5,179.29,12.31,252.63,12.31c89,0,161.34,72.37,161.34,161.34a160.31,160.31,0,0,1-21.78,80.89q-3.56,6.11-7.62,11.86c-21,4-38.25,5.82-48.09-4-14.42-14.22-7.31-55.78,1.49-84,2.44-8.24,26.21-74.69,26.39-75.44,3.56-9-25.83-9.36-26-8.8-4.3,19.84-20.59,73-23.58,83.48q-2.24,7.59-3.93,14.6l-23.4-.74c17.6-62.71,27.89-86.48,28.83-89.1,2.43-7.86-25.84-10.3-26-9.55-3.93,17.6-9.73,39.5-25.83,97.9-4.31,0-7.11-.19-7.49-.19-2.62.16-4.74,2.28-6.06,5-1.6,3.28-2,7.42-.67,10h.18l3.74.2c2.05.09,4.08.17,6.18.17l-2.24,7.86c-8.43,30.51,2.8,35,15.9,32.76,0,0-.55-2.25,6.37-28.64l3.55-13.11c10.3-.93,18.91-3,25.28-5.61-9.55,41.37-7.87,66.64,9.73,77.87,14.25,9,35.54,2.77,60-3,5.9-1.4,12-2.76,18.2-3.88,30.89-5.54,65-4.89,95.53,29.35C501.38,309,516.17,281.72,514.86,280.59Z"/><path class="cls-2" d="M497.3,297.34a2.38,2.38,0,0,1-1.84-1c-19.8-22.19-43.24-33-71.63-33a137.15,137.15,0,0,0-18,1.27c13.65-2.7,29.18-5.36,44.56-5.36,24.79,0,44.9,7.06,61.41,21.58-1.89,4.49-9.6,16.48-14.48,16.48ZM337.51,277.4c-6.75,0-12.11-1.32-16.4-4-15.35-9.8-17.91-32.74-8.3-74.38l1-4.31h.05l.62-2.58c1.12-4.63,2.43-9.49,3.89-14.45.65-2.29,1.93-6.56,3.57-12.06,5.54-18.62,15.64-52.52,19.53-69.25,10.2,0,19.73,2.37,20.42,4.28l-.07.2-.13.44c-.13.38-2.18,6.15-4.78,13.47-7.41,20.89-19.81,55.85-21.58,61.83-3.49,11.19-20,68.24-.66,87.29,5.51,5.47,13.41,8.13,24.17,8.13A120.88,120.88,0,0,0,378.15,270l-5.67,1.36C359.65,274.49,347.53,277.4,337.51,277.4Z"/><path class="cls-3" d="M367.07,287.26A160.82,160.82,0,0,1,252.63,335c-89,0-161.34-72.37-161.34-161.33q0-6,.45-12,.38-5.2,1.09-10.31c11.47-1.18,22.17-.55,30.82,1.93-3.56,10.29-4.12,20.22-2.06,27.89,3.18,10.67,13.48,14.41,19.65,12.73,6.18-1.87,12.17-10.48,11.43-19.09-.57-9.17-6.19-16.85-14.79-22.84,12-27.14,45.11-52,79.92-52,24.9,0,34.82,10.48,26,39.3-7.3,24.15-25.08,45.87-45.49,49,1.88-6.17,4.12-13.1,6.93-21.52,8.8-26.77,18.34-49.79,19.28-52.6,2.43-7.86-25.83-10.29-26-9.55-4.49,19.66-24.52,84.61-30,106.51-5.43,21.15,5.43,33.13,13.29,35.94,19.28,6.92,53-4.87,60.84-29.2.35-1.09.62-2.15.84-3.16,1.69-7.71,0-13.35-3.88-17.4-5.31-5.61-14.68-8.19-24.67-9,23.21-8.05,44.74-26.39,52-49,10.3-31.82-13.1-46.6-45.48-46.6-51.1,0-82.36,27-94.9,53.53a111.57,111.57,0,0,0-31.5-7.66c-4.07-.43-8.24-.69-12.47-.77-29.54-.61-61.81,7.31-82.57,25.65-1.31.94,9.36,32.19,18.35,22.84,15.87-17.18,39.33-28.24,61.7-32.91-.41,3.5-.71,7-.91,10.57-.18,3.22-.26,6.47-.26,9.73A173.64,173.64,0,0,0,375.42,296.43a175.47,175.47,0,0,0,12.68-14.12c-4.36,1-8.68,2-13,3C372.41,286,369.73,286.64,367.07,287.26ZM219.49,217.89c-5.81,19.28-20.78,26.21-31.07,25.26-6.37-.36-.76-12,1.68-24.7A199.83,199.83,0,0,1,195.9,196C211.81,194.31,226.22,195.05,219.49,217.89Zm-84.24-59.15a21.05,21.05,0,0,1,9.18,15.72c.74,9-1.88,13.67-3.93,14-3.37.57-6-3.93-6.93-9.73A46.21,46.21,0,0,1,135.25,158.74Z"/><path class="cls-4" d="M252.63,344A170.37,170.37,0,0,1,82.25,173.65c0-3.22.09-6.43.26-9.55.2-3.56.5-7,.89-10.36l.53-4.5-4.44.92C54.2,155.44,31.08,167.79,16.06,184a2,2,0,0,1-1.16.7c-3.93,0-10.42-14.68-11.49-19.87,17.71-15,46-23.88,76.11-23.88,1,0,2.07,0,3.09,0,4.12.07,8.22.33,12.19.75a109.18,109.18,0,0,1,30.57,7.42l2.89,1.22,1.33-2.83c11.79-25,42.13-51.66,91.95-51.66,19.11,0,33.38,5.15,40.18,14.5,5.15,7.08,5.9,16.44,2.21,27.84-6.25,19.39-24.49,37.1-47,45.84,14.39-9.83,25-27.35,30-43.89,4.68-15.33,4.36-26.29-1-33.51-5-6.73-14.19-10-28.15-10-38.37,0-71.36,27.81-82.91,54l-1.08,2.46,2.2,1.54c8.42,5.86,12.93,12.71,13.4,20.36a16.8,16.8,0,0,1-2.68,10.25,29.69,29.69,0,0,0,1-11.1,24.17,24.17,0,0,0-10.51-18.09l-3.7-2.68-1.33,4.37a49.41,49.41,0,0,0-1.8,21.46c.95,5.84,3.26,10,6.33,11.7a14.67,14.67,0,0,1-11.95-10.68c-2-7.24-1.24-16.47,2-25.9l1.12-3.25-3.3-1a76.39,76.39,0,0,0-20.85-2.63,110.55,110.55,0,0,0-11.2.59l-2.54.26-.36,2.53c-.48,3.41-.86,7-1.12,10.54-.3,4-.45,8.06-.45,12.19,0,90.75,73.84,164.59,164.6,164.59a163.37,163.37,0,0,0,116.09-48q3.55-.83,7.18-1.71l3.31-.8q-3,3.29-6.1,6.42A169.27,169.27,0,0,1,252.63,344Zm-56-98.31c10.36-2.49,21.2-11.08,26-26.89,2.74-9.28,2.42-16-1-20.51-4.12-5.52-11.56-6.15-16.79-6.15a87.29,87.29,0,0,0-9.29.58l-2.13.22-.64,2.05a203.28,203.28,0,0,0-5.9,22.81c-.66,3.45-1.58,6.91-2.4,10-2,7.44-3.42,12.81-1,16.19a3.15,3.15,0,0,0,.24.3L183,244c-6.9-2.46-16.05-13.34-11.24-32.06,2.53-10.21,8.15-29.47,14.1-49.87,6.14-21.08,12.48-42.82,15.29-54.27,7.18.37,19.33,3.1,20.33,5.54-.21.44-.89,2.16-1.91,4.77-3.45,8.79-10.62,27.09-17.38,47.64-3,9.11-5.18,15.78-6.95,21.6l-1.5,5,5.13-.79A43.33,43.33,0,0,0,214,186l.7,5.57c10.64.88,18.44,3.65,22.57,8,3.41,3.6,4.41,8.33,3.06,14.46a26,26,0,0,1-.76,2.87C234,234.16,213.88,244.79,196.65,245.72Z"/></g></g></svg>