<svg xmlns="http://www.w3.org/2000/svg" xmlns:xlink="http://www.w3.org/1999/xlink" viewBox="0 0 1028.39 521.09"><defs><style>.cls-1{fill:url(#linear-gradient);}.cls-2{fill:url(#linear-gradient-2);}.cls-3{fill:url(#linear-gradient-3);}.cls-4{fill:url(#linear-gradient-4);}.cls-5{fill:url(#linear-gradient-5);}.cls-6{fill:url(#linear-gradient-6);}.cls-7{fill:url(#linear-gradient-7);}.cls-8{fill:url(#linear-gradient-8);}.cls-9{fill:url(#linear-gradient-9);}.cls-10{fill:url(#linear-gradient-10);}.cls-11{fill:url(#linear-gradient-11);}.cls-12{fill:url(#linear-gradient-12);}.cls-13{fill:url(#linear-gradient-13);}.cls-14{fill:url(#linear-gradient-14);}.cls-15{fill:url(#linear-gradient-15);}.cls-16{fill:url(#linear-gradient-16);}.cls-17{fill:url(#linear-gradient-17);}.cls-18{fill:url(#linear-gradient-18);}.cls-19{fill:url(#linear-gradient-19);}.cls-20{fill:url(#linear-gradient-20);}.cls-21{fill:url(#linear-gradient-21);}.cls-22{fill:url(#linear-gradient-22);}.cls-23{fill:url(#linear-gradient-23);}.cls-24{fill:url(#linear-gradient-24);}.cls-25{fill:url(#linear-gradient-25);}.cls-26{fill:url(#linear-gradient-26);}.cls-27{fill:url(#linear-gradient-27);}.cls-28{fill:url(#linear-gradient-28);}.cls-29{fill:url(#linear-gradient-29);}.cls-30{fill:url(#linear-gradient-30);}.cls-31{fill:url(#linear-gradient-31);}.cls-32{fill:url(#linear-gradient-32);}.cls-33{fill:url(#linear-gradient-33);}.cls-34{fill:url(#linear-gradient-34);}.cls-35{fill:url(#linear-gradient-35);}.cls-36{fill:url(#linear-gradient-36);}.cls-37{fill:url(#linear-gradient-37);}.cls-38{fill:url(#linear-gradient-38);}.cls-39{fill:url(#linear-gradient-39);}.cls-40{fill:url(#linear-gradient-40);}.cls-41{fill:url(#linear-gradient-41);}.cls-42{fill:url(#linear-gradient-42);}.cls-43{fill:url(#linear-gradient-43);}.cls-44{fill:url(#linear-gradient-44);}.cls-45{fill:url(#linear-gradient-45);}.cls-46{fill:url(#linear-gradient-46);}.cls-47{fill:url(#linear-gradient-47);}.cls-48{fill:url(#linear-gradient-48);}.cls-49{fill:url(#linear-gradient-49);}.cls-50{fill:url(#linear-gradient-50);}.cls-51{fill:url(#linear-gradient-51);}.cls-52{fill:url(#linear-gradient-52);}.cls-53{fill:url(#linear-gradient-53);}.cls-54{fill:url(#linear-gradient-54);}.cls-55{fill:url(#linear-gradient-55);}.cls-56{fill:url(#linear-gradient-56);}.cls-57{fill:url(#linear-gradient-57);}.cls-58{fill:url(#linear-gradient-58);}.cls-59{fill:url(#linear-gradient-59);}.cls-60{fill:url(#linear-gradient-60);}.cls-61{fill:url(#linear-gradient-61);}.cls-62{fill:url(#linear-gradient-62);}.cls-63{fill:url(#linear-gradient-63);}.cls-64{fill:url(#linear-gradient-64);}.cls-65{fill:url(#linear-gradient-65);}.cls-66{fill:url(#linear-gradient-66);}.cls-67{fill:url(#linear-gradient-67);}.cls-68{fill:url(#linear-gradient-68);}.cls-69{fill:url(#linear-gradient-69);}.cls-70{fill:url(#linear-gradient-70);}.cls-71{fill:url(#linear-gradient-71);}.cls-72{fill:url(#linear-gradient-72);}</style><linearGradient id="linear-gradient" x1="-37.34" y1="635.98" x2="-35.26" y2="635.45" gradientTransform="matrix(1.02, 0.31, -0.32, 1.05, 257.99, -294.92)" gradientUnits="userSpaceOnUse"><stop offset="0" stop-color="#3cf"/><stop offset="0.23" stop-color="#24aee1"/><stop offset="0.57" stop-color="#1087ba"/><stop offset="0.83" stop-color="#046fa2"/><stop offset="1" stop-color="#069"/></linearGradient><linearGradient id="linear-gradient-2" x1="-11.41" y1="647.3" x2="25.16" y2="637.85" xlink:href="#linear-gradient"/><linearGradient id="linear-gradient-3" x1="-45.09" y1="628.44" x2="-39.65" y2="627.04" xlink:href="#linear-gradient"/><linearGradient id="linear-gradient-4" x1="-47.35" y1="631.62" x2="-16.67" y2="623.69" xlink:href="#linear-gradient"/><linearGradient id="linear-gradient-5" x1="51.71" y1="703.38" x2="55.14" y2="702.49" xlink:href="#linear-gradient"/><linearGradient id="linear-gradient-6" x1="48.25" y1="701.57" x2="51.06" y2="700.84" xlink:href="#linear-gradient"/><linearGradient id="linear-gradient-7" x1="16.71" y1="694.2" x2="44.49" y2="687.02" xlink:href="#linear-gradient"/><linearGradient id="linear-gradient-8" x1="-84.45" y1="399.11" x2="-48.35" y2="389.77" xlink:href="#linear-gradient"/><linearGradient id="linear-gradient-9" x1="-11.85" y1="326.37" x2="44.67" y2="311.76" xlink:href="#linear-gradient"/><linearGradient id="linear-gradient-10" x1="-77.29" y1="530.19" x2="-47.52" y2="522.49" xlink:href="#linear-gradient"/><linearGradient id="linear-gradient-11" x1="-22.87" y1="312.25" x2="26.75" y2="299.42" xlink:href="#linear-gradient"/><linearGradient id="linear-gradient-12" x1="16.03" y1="337.54" x2="73.5" y2="322.69" xlink:href="#linear-gradient"/><linearGradient id="linear-gradient-13" x1="-69.21" y1="419.78" x2="-20.16" y2="407.1" xlink:href="#linear-gradient"/><linearGradient id="linear-gradient-14" x1="76.55" y1="260.86" x2="131.15" y2="246.75" xlink:href="#linear-gradient"/><linearGradient id="linear-gradient-15" x1="40.6" y1="708.37" x2="83.04" y2="697.4" xlink:href="#linear-gradient"/><linearGradient id="linear-gradient-16" x1="-93.35" y1="507.56" x2="-79.78" y2="504.06" xlink:href="#linear-gradient"/><linearGradient id="linear-gradient-17" x1="309.14" y1="632.95" x2="362.81" y2="619.08" xlink:href="#linear-gradient"/><linearGradient id="linear-gradient-18" x1="271.42" y1="648.44" x2="330.46" y2="633.18" xlink:href="#linear-gradient"/><linearGradient id="linear-gradient-19" x1="265.55" y1="690.03" x2="287.28" y2="684.41" xlink:href="#linear-gradient"/><linearGradient id="linear-gradient-20" x1="116.52" y1="716.18" x2="145" y2="708.82" xlink:href="#linear-gradient"/><linearGradient id="linear-gradient-21" x1="130.25" y1="269.98" x2="152.79" y2="264.16" xlink:href="#linear-gradient"/><linearGradient id="linear-gradient-22" x1="74.99" y1="714.03" x2="111.44" y2="704.61" xlink:href="#linear-gradient"/><linearGradient id="linear-gradient-23" x1="152.73" y1="267.7" x2="167.72" y2="263.82" xlink:href="#linear-gradient"/><linearGradient id="linear-gradient-24" x1="254.47" y1="697.89" x2="266.76" y2="694.71" xlink:href="#linear-gradient"/><linearGradient id="linear-gradient-25" x1="155.47" y1="716.29" x2="191.51" y2="706.97" xlink:href="#linear-gradient"/><linearGradient id="linear-gradient-26" x1="215.3" y1="708.84" x2="269.76" y2="694.76" xlink:href="#linear-gradient"/><linearGradient id="linear-gradient-27" x1="187.28" y1="714.5" x2="235.61" y2="702.01" xlink:href="#linear-gradient"/><linearGradient id="linear-gradient-28" x1="-62.74" y1="606.49" x2="-51.51" y2="603.59" xlink:href="#linear-gradient"/><linearGradient id="linear-gradient-29" x1="206.12" y1="340.35" x2="243.3" y2="330.74" xlink:href="#linear-gradient"/><linearGradient id="linear-gradient-30" x1="241.96" y1="332.63" x2="283" y2="322.02" xlink:href="#linear-gradient"/><linearGradient id="linear-gradient-31" x1="157.43" y1="345.71" x2="192.31" y2="336.7" xlink:href="#linear-gradient"/><linearGradient id="linear-gradient-32" x1="81.23" y1="266.61" x2="134.91" y2="252.73" xlink:href="#linear-gradient"/><linearGradient id="linear-gradient-33" x1="160.77" y1="569.84" x2="222.88" y2="553.79" xlink:href="#linear-gradient"/><linearGradient id="linear-gradient-34" x1="159.3" y1="664.69" x2="214.05" y2="650.54" xlink:href="#linear-gradient"/><linearGradient id="linear-gradient-35" x1="172.93" y1="261.28" x2="222.65" y2="248.43" xlink:href="#linear-gradient"/><linearGradient id="linear-gradient-36" x1="218.78" y1="659.63" x2="279.72" y2="643.88" xlink:href="#linear-gradient"/><linearGradient id="linear-gradient-37" x1="282.03" y1="309.44" x2="318.41" y2="300.04" xlink:href="#linear-gradient"/><linearGradient id="linear-gradient-38" x1="234.93" y1="562.6" x2="295.62" y2="546.91" xlink:href="#linear-gradient"/><linearGradient id="linear-gradient-39" x1="267.67" y1="322.13" x2="308.53" y2="311.57" xlink:href="#linear-gradient"/><linearGradient id="linear-gradient-40" x1="89" y1="453.75" x2="147.6" y2="438.6" xlink:href="#linear-gradient"/><linearGradient id="linear-gradient-41" x1="40.21" y1="657.85" x2="77.79" y2="648.14" xlink:href="#linear-gradient"/><linearGradient id="linear-gradient-42" x1="56.22" y1="344.64" x2="109.64" y2="330.83" xlink:href="#linear-gradient"/><linearGradient id="linear-gradient-43" x1="86.92" y1="569.63" x2="145.89" y2="554.39" xlink:href="#linear-gradient"/><linearGradient id="linear-gradient-44" x1="92.84" y1="269.62" x2="140.03" y2="257.42" xlink:href="#linear-gradient"/><linearGradient id="linear-gradient-45" x1="104.66" y1="347.44" x2="150.05" y2="335.71" xlink:href="#linear-gradient"/><linearGradient id="linear-gradient-46" x1="171.07" y1="264.34" x2="218.05" y2="252.2" xlink:href="#linear-gradient"/><linearGradient id="linear-gradient-47" x1="99.99" y1="663.47" x2="144.64" y2="651.93" xlink:href="#linear-gradient"/><linearGradient id="linear-gradient-48" x1="109.73" y1="270.64" x2="146.14" y2="261.23" xlink:href="#linear-gradient"/><linearGradient id="linear-gradient-49" x1="161.87" y1="267.34" x2="189.68" y2="260.15" xlink:href="#linear-gradient"/><linearGradient id="linear-gradient-50" x1="167.29" y1="266.26" x2="206.8" y2="256.05" xlink:href="#linear-gradient"/><linearGradient id="linear-gradient-51" x1="18.93" y1="562.59" x2="71.43" y2="549.02" xlink:href="#linear-gradient"/><linearGradient id="linear-gradient-52" x1="23.38" y1="448.24" x2="83.11" y2="432.8" xlink:href="#linear-gradient"/><linearGradient id="linear-gradient-53" x1="-31.18" y1="436.76" x2="25.56" y2="422.1" xlink:href="#linear-gradient"/><linearGradient id="linear-gradient-54" x1="-37.7" y1="549.24" x2="5.08" y2="538.18" xlink:href="#linear-gradient"/><linearGradient id="linear-gradient-55" x1="301.93" y1="195.72" x2="393.38" y2="281.01" gradientUnits="userSpaceOnUse"><stop offset="0" stop-color="#2c4d8d"/><stop offset="0.13" stop-color="#2f5292"/><stop offset="0.28" stop-color="#37609f"/><stop offset="0.44" stop-color="#4478b5"/><stop offset="0.6" stop-color="#5799d4"/><stop offset="0.76" stop-color="#6dc0f9"/><stop offset="0.77" stop-color="#6ec2f9"/><stop offset="0.86" stop-color="#7cdcfb"/><stop offset="0.94" stop-color="#84ecfd"/><stop offset="1" stop-color="#87f1fd"/></linearGradient><linearGradient id="linear-gradient-56" x1="404.9" y1="205.82" x2="474.68" y2="270.89" xlink:href="#linear-gradient-55"/><linearGradient id="linear-gradient-57" x1="492.6" y1="215.96" x2="565.55" y2="283.98" xlink:href="#linear-gradient-55"/><linearGradient id="linear-gradient-58" x1="576.66" y1="221.15" x2="655.59" y2="294.75" xlink:href="#linear-gradient-55"/><linearGradient id="linear-gradient-59" x1="681.73" y1="208.21" x2="733.72" y2="256.69" xlink:href="#linear-gradient-55"/><linearGradient id="linear-gradient-60" x1="757.34" y1="220.41" x2="825.87" y2="284.32" xlink:href="#linear-gradient-55"/><linearGradient id="linear-gradient-61" x1="856.78" y1="230.22" x2="898.82" y2="269.42" xlink:href="#linear-gradient-55"/><linearGradient id="linear-gradient-62" x1="946.47" y1="206.2" x2="1019.42" y2="274.22" xlink:href="#linear-gradient-55"/><linearGradient id="linear-gradient-63" x1="410" y1="360.5" x2="448.37" y2="373.71" xlink:href="#linear-gradient-55"/><linearGradient id="linear-gradient-64" x1="486.37" y1="363.37" x2="524.69" y2="376.57" xlink:href="#linear-gradient-55"/><linearGradient id="linear-gradient-65" x1="564.11" y1="357.68" x2="584.08" y2="364.55" xlink:href="#linear-gradient-55"/><linearGradient id="linear-gradient-66" x1="618.22" y1="359.45" x2="652.79" y2="371.35" xlink:href="#linear-gradient-55"/><linearGradient id="linear-gradient-67" x1="696.05" y1="362.31" x2="731.63" y2="374.56" xlink:href="#linear-gradient-55"/><linearGradient id="linear-gradient-68" x1="770.41" y1="363.66" x2="793.98" y2="371.78" xlink:href="#linear-gradient-55"/><linearGradient id="linear-gradient-69" x1="835.04" y1="362.83" x2="868.87" y2="374.48" xlink:href="#linear-gradient-55"/><linearGradient id="linear-gradient-70" x1="909.28" y1="363.33" x2="946.03" y2="375.99" xlink:href="#linear-gradient-55"/><linearGradient id="linear-gradient-71" x1="983.48" y1="356.56" x2="1003.51" y2="363.46" xlink:href="#linear-gradient-55"/><linearGradient id="linear-gradient-72" x1="727.3" y1="509.74" x2="673.61" y2="334.13" xlink:href="#linear-gradient-55"/></defs><g id="Layer_2" data-name="Layer 2"><g id="Layer_1-2" data-name="Layer 1"><path class="cls-1" d="M18.82,361.6c.26.62.54,1.24.84,1.87-.71-1.72-1.38-3.45-2.05-5.18Z"/><path class="cls-2" d="M73.36,368.77a334.6,334.6,0,0,1-31.46-20,206.62,206.62,0,0,0,9.94,47.94A292,292,0,0,0,79.19,414.1,209.71,209.71,0,0,1,73.36,368.77Z"/><path class="cls-3" d="M17.61,358.29c-1.71-4.76-3.53-10-5.28-15.32Q14.72,350.74,17.61,358.29Z"/><path class="cls-4" d="M16.85,327.19a88.66,88.66,0,0,1-6.57-7.88A223.9,223.9,0,0,0,24.35,371.1,79.65,79.65,0,0,0,30.06,378a124,124,0,0,0,10.82,10.23A210.37,210.37,0,0,1,29.3,339,141.42,141.42,0,0,1,16.85,327.19Z"/><path class="cls-5" d="M87.07,457.56c1.12,1,2.3,2.07,3.63,3.28C89.46,459.78,88.28,458.65,87.07,457.56Z"/><path class="cls-6" d="M84.1,454.87c1,.92,2,1.79,3,2.69Z"/><path class="cls-7" d="M58.11,427.23q-1.76-1.89-3.21-3.72C59,428.6,64.7,435.08,69,440A183.46,183.46,0,0,0,84.1,454.87a166.66,166.66,0,0,1-17.61-19.71A96.64,96.64,0,0,1,58.11,427.23Z"/><path class="cls-8" d="M85.34,83.3c-2.66-5.49-3.59-10.51-2.91-15A256,256,0,0,0,44.17,111.9c-.76,5,.28,10.54,3.22,16.61A278.8,278.8,0,0,1,85.34,83.3Z"/><path class="cls-9" d="M141.72,50.41a71.64,71.64,0,0,0,5.15,6.18,112.61,112.61,0,0,0,9.76,9.23,302.56,302.56,0,0,1,48.27-30,84.87,84.87,0,0,1-7.37-7,52.45,52.45,0,0,1-3.89-4.66A289.16,289.16,0,0,0,141.72,50.41Z"/><path class="cls-10" d="M30.11,277.85A291.5,291.5,0,0,1,40.28,231.6q1.8-5.9,3.82-11.68a158.8,158.8,0,0,1-13.77-13,99.93,99.93,0,0,1-7.26-8.72q-2,5.77-3.85,11.66a264.47,264.47,0,0,0-9.79,46.63,98.58,98.58,0,0,0,7.15,8.57A156.24,156.24,0,0,0,30.11,277.85Z"/><path class="cls-11" d="M190.45,19a15.83,15.83,0,0,1-1.81-9.33,264.84,264.84,0,0,0-53.55,21.48c-.56,3.71.21,7.84,2.4,12.35A282.55,282.55,0,0,1,190.45,19Z"/><path class="cls-12" d="M191.19,89.19A340.46,340.46,0,0,1,231,53.51a199,199,0,0,1-18.63-11.84,310.29,310.29,0,0,0-45.85,31.85A263,263,0,0,0,191.19,89.19Z"/><path class="cls-13" d="M60,146.09a149.84,149.84,0,0,0,13.13,12.42,335.61,335.61,0,0,1,35.47-48.11A138.18,138.18,0,0,1,96.74,99.18a85.84,85.84,0,0,1-6.26-7.52,294,294,0,0,0-37.41,46.12A94.85,94.85,0,0,0,60,146.09Z"/><path class="cls-14" d="M313.31,7A2.35,2.35,0,0,1,313,5.55,262.77,262.77,0,0,0,253.32.07a9.14,9.14,0,0,0,1,5.35A257.72,257.72,0,0,1,313.31,7Z"/><path class="cls-15" d="M75,441.77a143,143,0,0,0,30.48,30.72A155.94,155.94,0,0,0,120,481.71a99.85,99.85,0,0,1-23.82-26.48A228.68,228.68,0,0,1,75,441.77Z"/><path class="cls-16" d="M17.11,188.49C14,182.12,13,176.3,13.73,171.08q-2.06,5.73-3.85,11.62a252.79,252.79,0,0,0-8.21,36.11L.12,230.74c-.52,4.9.6,10.31,3.44,16.19h0a257.07,257.07,0,0,1,9.69-46.8Q15.06,194.25,17.11,188.49Z"/><path class="cls-17" d="M409.35,451.86a213,213,0,0,1-38,34.48,84.35,84.35,0,0,0,20.2-5.39,227.35,227.35,0,0,0,41.07-35.29A97.25,97.25,0,0,1,409.35,451.86Z"/><path class="cls-18" d="M359.53,453.6A207,207,0,0,1,328,487.85a252.09,252.09,0,0,0,30.76-.12,207.89,207.89,0,0,0,36.16-34.28A289.19,289.19,0,0,1,359.53,453.6Z"/><path class="cls-19" d="M309.48,515c5.47-1.22,11-2.53,15.66-3.72l8.67-2.65a74.45,74.45,0,0,1-11.38,2.59Q316,513.33,309.48,515Z"/><path class="cls-20" d="M149.72,480.09c1.43,8.12,3.75,14.41,7,18.67,6.85,2.64,14,5.14,21.22,7.44A129.61,129.61,0,0,1,180.68,491C170.09,487.59,159.72,484,149.72,480.09Z"/><path class="cls-21" d="M304.68,37.77c5,1.95,10.28,3.79,15.62,5.48,4-10.62,7.43-19.52,10.3-26.38-1.4-.44-2.78-.92-4.1-1.43C319.64,20.9,312.31,28.45,304.68,37.77Z"/><path class="cls-22" d="M135.36,474.29c-9.59-4.05-18.72-8.28-27.21-12.63a81,81,0,0,0,20,24.47c5.82,3,12.08,5.87,18.65,8.65C142,489.87,138.17,483,135.36,474.29Z"/><path class="cls-23" d="M337,18.57c-1.43-.3-2.86-.67-4.29-1.07-.85,7.46-2.37,17-4.46,28.13,5.42,1.54,10.9,2.92,16.37,4.11C342.82,37.59,340.29,27.09,337,18.57Z"/><path class="cls-24" d="M309.48,515c-4.81,1.07-9.58,2.08-13.72,2.89Q302.68,516.68,309.48,515Z"/><path class="cls-25" d="M196.32,495.65c-3.08,6.62-5.67,11.26-7.67,13.77,7.36,2.1,14.81,4,22.23,5.58,5.64-1.59,11.64-5.38,17.87-11.21C217.93,501.45,207.07,498.71,196.32,495.65Z"/><path class="cls-26" d="M288.88,512.35a110.53,110.53,0,0,1-36.79,8.52c3.44.18,6.7.24,9.76.21,3.7-.12,8.62-.43,12.31-.63a155.43,155.43,0,0,0,38.55-8.19A195.48,195.48,0,0,1,288.88,512.35Z"/><path class="cls-27" d="M254,508.55q-4.69-.75-9.44-1.61c-7.77,5.52-15.44,9-22.85,10.23q3.24.58,6.47,1.09c5.15.82,10.05,1.45,14.67,1.91a90.61,90.61,0,0,0,32.56-8.84Q265.3,510.33,254,508.55Z"/><path class="cls-28" d="M1.91,301.51C3.08,308.6,5.23,317.94,6.72,325c1.57,5.44,3.54,11.73,5.61,18a234.43,234.43,0,0,1-7.44-32.43A32.89,32.89,0,0,1,1.91,301.51Z"/><path class="cls-29" d="M361.52,99a464,464,0,0,1,2.5,50.43q5.52,1,11,1.87,13.11,2.07,24.93,3.24a352.48,352.48,0,0,0-11.29-51.68c-5.94-.59-12.23-1.4-18.83-2.45C367.07,100,364.3,99.5,361.52,99Z"/><path class="cls-30" d="M443.38,155.61a307.88,307.88,0,0,0-21.93-52,170.63,170.63,0,0,1-21,.09,330.46,330.46,0,0,1,15.13,52A227.3,227.3,0,0,0,443.38,155.61Z"/><path class="cls-31" d="M319.09,89.07c-3.29,14.53-7.07,30.38-11.25,47.2,12.5,3.57,25.16,6.75,37.76,9.48,1.39-17.53,2.07-34.15,2-49.53C338.1,94.16,328.54,91.75,319.09,89.07Z"/><path class="cls-32" d="M258.43,11.08a45.74,45.74,0,0,0,4.23,4,219.86,219.86,0,0,1,52.83-5.59,11.32,11.32,0,0,1-1.11-1.05,8.46,8.46,0,0,1-.59-.7,248.73,248.73,0,0,0-57.6.67A31.43,31.43,0,0,0,258.43,11.08Z"/><path class="cls-33" d="M307,344.42c1.2-3.92,2.37-7.87,3.52-11.81-17.76-3.85-35.6-8.34-53.24-13.36q-1.78,5.91-3.58,11.79-7.17,23.5-13.9,44.51c17.34,4.94,34.9,9.36,52.36,13.14C297.24,374.87,302.21,360.08,307,344.42Z"/><path class="cls-34" d="M270.25,440.89c-16.07-3.48-32.21-7.54-48.15-12.09-4.91,14.15-9.46,26.71-13.59,37.5,13.87,3.95,27.89,7.48,41.86,10.5A334.36,334.36,0,0,0,270.25,440.89Z"/><path class="cls-35" d="M405.81,45.9A261.91,261.91,0,0,0,353,17.57a2.12,2.12,0,0,1-.85,1,260.35,260.35,0,0,1,50.38,31.26A8.25,8.25,0,0,0,405.81,45.9Z"/><path class="cls-36" d="M283,482.94q14.55,2.3,27.64,3.59a213.45,213.45,0,0,0,28.92-34.46q-15-1.49-31.78-4.13-7-1.1-14-2.38a264.17,264.17,0,0,1-22.94,35.31Q276.91,482,283,482.94Z"/><path class="cls-37" d="M479.3,146a19.06,19.06,0,0,0,7.55-9.13,261.15,261.15,0,0,0-32.57-47.37,14.37,14.37,0,0,1-5.7,6.9A279.88,279.88,0,0,1,479.3,146Z"/><path class="cls-38" d="M383.69,356.81q1.8-5.9,3.44-11.83-16.63-1.65-35.15-4.57-7.71-1.21-15.51-2.63c-1.12,4-2.29,7.89-3.48,11.81-4.78,15.67-9.91,30.43-15.29,44.19q7.65,1.38,15.25,2.59,18.18,2.88,34.56,4.49A408,408,0,0,0,383.69,356.81Z"/><path class="cls-39" d="M454.69,154.36a76,76,0,0,0,18.23-4.87A287.29,287.29,0,0,0,443.76,99,56.93,56.93,0,0,1,430,102.72,299.14,299.14,0,0,1,454.69,154.36Z"/><path class="cls-40" d="M252.05,245.93c6.12-19.3,12.21-38.26,18.18-56.57-15-4.74-29.67-9.9-43.82-15.36-7.9,17.63-15.57,36-22.86,54.92C219.21,235,235.47,240.67,252.05,245.93Z"/><path class="cls-41" d="M129.79,438.72a285.34,285.34,0,0,1,1.77-41.64c-14.24-6-27.79-12.3-40.41-18.75a220.63,220.63,0,0,0,3.51,44.08C105.63,428,117.41,433.49,129.79,438.72Z"/><path class="cls-42" d="M265.47,70.28C257,66.71,249,63,241.54,59.17a369.77,369.77,0,0,0-36.39,37.52c9.89,5.06,20.52,10,31.68,14.71C246.27,96.41,255.87,82.6,265.47,70.28Z"/><path class="cls-43" d="M214.52,368c4.18-14.06,8.67-29,13.45-44.64q1.8-5.9,3.61-11.78C214.2,306,197.17,300,180.75,293.7c-1.24,3.92-2.47,7.84-3.66,11.77-4.79,15.66-9,30.68-12.57,44.95C180.67,356.65,197.42,362.53,214.52,368Z"/><path class="cls-44" d="M277.64,25.22a166,166,0,0,1,41.77-13.07,32.54,32.54,0,0,1-2.8-1.78,201.17,201.17,0,0,0-49.67,8.06A117.82,117.82,0,0,0,277.64,25.22Z"/><path class="cls-45" d="M305.33,84.93c-9.31-3-18.43-6.16-27.23-9.55-8.11,12.93-16.34,27.29-24.54,42.77,11.65,4.49,23.73,8.74,36.05,12.64C295.14,114.37,300.42,99,305.33,84.93Z"/><path class="cls-46" d="M399.77,51.36A252.79,252.79,0,0,0,351.43,19a8.81,8.81,0,0,1-2.07.55,228,228,0,0,1,42.51,33.92A32.81,32.81,0,0,0,399.77,51.36Z"/><path class="cls-47" d="M188.3,460.22c2.95-11.15,6.49-24,10.56-38.41-15.72-5-31.13-10.39-46-16.11a372.33,372.33,0,0,0-4.55,40.51C161.25,451.19,174.64,455.89,188.3,460.22Z"/><path class="cls-48" d="M283.69,28.47c4.29,2.19,8.89,4.33,13.74,6.38,9.34-8.64,18.46-15.47,27.17-20.18-1.27-.54-2.48-1.1-3.6-1.67A150.87,150.87,0,0,0,283.69,28.47Z"/><path class="cls-49" d="M352.56,51.33c1.6.28,3.18.56,4.77.81q5.69.9,10.81,1.4a158.82,158.82,0,0,0-25-34c-.89-.09-1.84-.21-2.83-.36L339.06,19C344.42,27.91,348.92,38.81,352.56,51.33Z"/><path class="cls-50" d="M387,54a211.46,211.46,0,0,0-38.88-34.32,23.62,23.62,0,0,1-3.16,0,175.39,175.39,0,0,1,30,34.36A99.55,99.55,0,0,0,387,54Z"/><path class="cls-51" d="M141.33,341.06q5-21.58,12.14-45.13,1.8-5.88,3.7-11.75c-15.75-6.66-30.73-13.61-44.68-20.73q-1.93,5.83-3.74,11.72a442.45,442.45,0,0,0-11.37,45.49C111.1,327.67,125.84,334.51,141.33,341.06Z"/><path class="cls-52" d="M206.08,165.79c-13.57-5.73-26.49-11.72-38.51-17.87a524.07,524.07,0,0,0-29.16,52.13c13.31,6.8,27.61,13.44,42.63,19.78C188.87,201.17,197.28,183.05,206.08,165.79Z"/><path class="cls-53" d="M150.6,138.8a320,320,0,0,1-30-19,365.27,365.27,0,0,0-34.18,49.12A354,354,0,0,0,119.64,190,455.38,455.38,0,0,1,150.6,138.8Z"/><path class="cls-54" d="M58,230.78q-2,5.81-3.81,11.7a311.43,311.43,0,0,0-10.41,46A365.11,365.11,0,0,0,78,310.26a384.74,384.74,0,0,1,11-45.67q1.8-5.89,3.77-11.72A370.74,370.74,0,0,1,58,230.78Z"/><path class="cls-55" d="M332.65,206.54a3.48,3.48,0,0,0-2.18.69A4.25,4.25,0,0,0,329.2,209q-.82,3.14-1.32,5.22c-.34,1.39-.65,2.68-1,3.87s-.51,2-.63,2.47a3.45,3.45,0,0,0,.72,2.87,3.24,3.24,0,0,0,2.64,1.22H374.1q12.27,0,19.63,9.22t4.55,21a.61.61,0,0,1-.09.26c0,.12-.26,1.18-.77,3.18s-1.13,4.36-1.82,7.08-1.35,5.25-2,7.57-1,3.82-1.09,4.52A26.53,26.53,0,0,1,366.46,297H277.84q1.82-7.49,3.09-12.48t2.32-9.22q1-4.22,1.32-5.52h77.89a3.58,3.58,0,0,0,3.55-2.52c.55-2.09,1-3.83,1.32-5.22s.65-2.68.95-3.87.52-2,.64-2.48a2.74,2.74,0,0,0-.36-2.86,3.18,3.18,0,0,0-2.64-1.31H321.2q-12.36,0-19.73-9t-4.54-21.13v-.26l.18-.78q.54-2,1.77-6.69t2.37-9.18q1.13-4.47,1.49-5.87,7.72-19,25.91-19h88.72c-1.22,4.92-2.24,9-3.09,12.3s-1.62,6.3-2.32,9.09-1.14,4.61-1.32,5.48h-78Z"/><path class="cls-56" d="M406.91,266.88l22.46-87.3h29.45q-7.45,27.91-7.73,28.87h21.73l-6.55,25.65H444.64q-2.37,9.3-3.91,15.43t-2.82,11.14q-1.28,5-1.54,6.21a5,5,0,0,0,1.09,3.91,4.54,4.54,0,0,0,3.81,1.74h15.27L450.36,297H430.55q-12.18,0-19.18-9T406.91,266.88Z"/><path class="cls-57" d="M502.45,296.62q-13.18-.78-19.95-5.65a29.91,29.91,0,0,1-10.23-13.22q-7.54-18,3.27-40.95,14.55-26.18,47.45-28.09h52.72L553.44,297Zm35.27-54.43h-.09l2.27-9.31H525.81q-11.37.18-18.27,5.83a23.59,23.59,0,0,0-8.82,12.52q-6.18,20.27,12.55,20.52h19.08Z"/><path class="cls-58" d="M653.52,297H623.71l15.36-58.44a5.15,5.15,0,0,0-1-3.91,4.67,4.67,0,0,0-3.91-1.74H612L595.62,297H565.81l22.54-88.35H624.8v-.08h20.45q12.18,0,19.27,9t4.37,20.95Z"/><path class="cls-59" d="M691,204.1q6.54-21.48,29.54-24.52h40.73l-6.37,25.3H726.69a8.18,8.18,0,0,0-5.09,1.83,8.06,8.06,0,0,0-2.9,4.61l-4.91,17.13h20.08l-6.18,25.3H707.33L696.15,297H666.7Z"/><path class="cls-60" d="M752.87,289.84a30.33,30.33,0,0,1-10.27-13.48q-7.73-18.53,3.27-41.48,14.73-25.56,47.64-26.69a128.39,128.39,0,0,1,16.27.17q13.44,1.14,20.36,6.31a32.13,32.13,0,0,1,10.45,13.69q7.73,18.62-3.27,41.48-14.64,25.65-48.54,27a110,110,0,0,1-15.64-.26Q759.7,294.79,752.87,289.84Zm60.72-35.31q2.82-9.9.19-15.13t-13-6.08q-13.46-1-22.18,4.43a23.53,23.53,0,0,0-9,12.44q-6.27,19.74,12.82,21.21,15.63.36,22.17-4.43A23.12,23.12,0,0,0,813.59,254.53Z"/><path class="cls-61" d="M888.86,208.54h29.36l-6.73,25.21h-16a7.82,7.82,0,0,0-5,1.83,8.73,8.73,0,0,0-2.9,4.61L873.13,297H843.68l16.09-64Q866,211.58,888.86,208.54Z"/><path class="cls-62" d="M947.21,296.62q-13.17-.78-20-5.65A30.06,30.06,0,0,1,917,277.75q-7.53-18,3.28-40.95,14.54-26.18,47.45-28.09h23.45l8.09-29.13h29.09l-21.73,84H976.85l8-30.7H969.94q-10.91.36-17.64,5.83a23.63,23.63,0,0,0-8.81,12.52Q937.3,271.5,956,271.75h48.54L998.21,297Z"/><path class="cls-63" d="M432.34,384.55a13.61,13.61,0,0,1-11.07,5.25q-6-.07-9.08-4.19t-2.37-11l4.44-26.43h12.47l-4.51,26.61a8.43,8.43,0,0,0,0,2c.17,2.06,1.4,3.14,3.67,3.21a8.06,8.06,0,0,0,6.71-3.1l5.08-28.73h12.55L443.1,389H431.5Z"/><path class="cls-64" d="M503.24,348.11l-.87,4.91q4.92-5.81,11.86-5.66,5.68.12,8.47,4.21t2,11.72L520.41,389H507.9l4.36-25.81a13.48,13.48,0,0,0,.08-2.42c-.18-2.4-1.59-3.59-4.25-3.59a7.78,7.78,0,0,0-6,2.91L497,389H484.48l7.12-40.85Z"/><path class="cls-65" d="M575.66,389H563.15l7.13-40.85h12.5Zm-4.29-51.15a5.76,5.76,0,0,1,2-4.61,7,7,0,0,1,4.91-1.85,7.25,7.25,0,0,1,4.87,1.66,5.7,5.7,0,0,1,2,4.34A5.77,5.77,0,0,1,583.2,342a7,7,0,0,1-4.93,1.83,7.38,7.38,0,0,1-4.83-1.64A5.62,5.62,0,0,1,571.37,337.85Z"/><path class="cls-66" d="M637.05,373.71l10.27-25.56h13.45L641.37,389h-12.7l-6.56-40.85h12.81Z"/><path class="cls-67" d="M712.61,389.76a19.18,19.18,0,0,1-9.8-2.59,16.25,16.25,0,0,1-6.5-7.1,19.07,19.07,0,0,1-1.74-10l.11-1.06q1-10.08,7-15.95a19.49,19.49,0,0,1,14.72-5.64,16,16,0,0,1,9,2.66,15,15,0,0,1,5.5,7.15,21.91,21.91,0,0,1,1.14,10.23l-.73,5.18H707a8,8,0,0,0,1.82,5.21,6.71,6.71,0,0,0,5.08,2.11,12.92,12.92,0,0,0,9.74-4.15l5.24,6.89a15.41,15.41,0,0,1-6.47,5.14,22.78,22.78,0,0,1-9.08,1.94Zm3-32.55a6.4,6.4,0,0,0-4.6,1.66,13.86,13.86,0,0,0-3.39,5.78h12.47l.23-1.09a8.33,8.33,0,0,0,.07-2.48Q719.78,357.33,715.64,357.21Z"/><path class="cls-68" d="M798.15,359.67a36.14,36.14,0,0,0-3.87-.38q-5.61-.15-8.57,3.85L781.09,389H768.62l7.13-40.85,11.63,0-1,5.37q4-6.19,9.48-6.2a18.17,18.17,0,0,1,3.87.53Z"/><path class="cls-69" d="M855.52,377.3c.32-1.66-1-2.91-3.87-3.74l-2.69-.68q-6.6-1.72-9.67-4.87a9.67,9.67,0,0,1-2.88-7.44,11.87,11.87,0,0,1,5.25-9.57A20.08,20.08,0,0,1,854,347.4q7.25.08,11.73,3.66a11.91,11.91,0,0,1,4.57,9.67l-12.43,0c.1-3.22-1.33-4.84-4.29-4.84a6.15,6.15,0,0,0-3.52,1.12,4.3,4.3,0,0,0-1.93,3c-.43,2,1.37,3.44,5.42,4.19A31.91,31.91,0,0,1,861.7,367a12.18,12.18,0,0,1,4.39,4.06,10.11,10.11,0,0,1,1.41,5.81,10.94,10.94,0,0,1-2.43,6.61,15.7,15.7,0,0,1-6.69,4.65,24.11,24.11,0,0,1-9.5,1.62,19.38,19.38,0,0,1-8.24-1.85,14.69,14.69,0,0,1-5.95-4.93,12.74,12.74,0,0,1-2.22-7.15l11.6.07q.07,5.44,5.46,5.36a7.21,7.21,0,0,0,3.94-1A4.51,4.51,0,0,0,855.52,377.3Z"/><path class="cls-70" d="M929.42,389a10.83,10.83,0,0,1-.54-3.7,12.64,12.64,0,0,1-10,4.46,12.37,12.37,0,0,1-8.87-3.55,10.64,10.64,0,0,1-3.3-8.42,12,12,0,0,1,5.57-10.21Q917.63,364,927,364l4.17.08.46-2.31.15-2c-.1-2.29-1.26-3.47-3.45-3.55q-4.1-.08-5,4.5l-12.51,0a11.73,11.73,0,0,1,2.69-7.15,15.86,15.86,0,0,1,6.8-4.68,23.7,23.7,0,0,1,9.16-1.53,18.26,18.26,0,0,1,8.16,1.94,12.1,12.1,0,0,1,5.25,5.1,12.9,12.9,0,0,1,1.33,7.53l-3.07,19.22-.19,2.34a10.33,10.33,0,0,0,.72,4.76l0,.71Zm-7.13-8.23a8,8,0,0,0,6.71-3.36l1.25-6.57-3.22,0a8.51,8.51,0,0,0-5.16,1.75,6.68,6.68,0,0,0-2.54,4.59,3.36,3.36,0,0,0,.59,2.55A3,3,0,0,0,922.29,380.77Z"/><path class="cls-71" d="M994.71,389H982.2l10.08-58h12.51Z"/><path class="cls-72" d="M396.07,419s355.91,98,604.56-7.85C1000.63,411.13,801.92,563.43,396.07,419Z"/></g></g></svg>