<svg xmlns="http://www.w3.org/2000/svg" viewBox="0 0 412.26 138.01"><defs><style>.cls-1{fill:#da2128;}.cls-2{fill:#414042;}</style></defs><g id="Layer_2" data-name="Layer 2"><g id="Layer_1-2" data-name="Layer 1"><rect class="cls-1" x="146.37" y="26.52" width="26.21" height="60.61"/><polygon class="cls-2" points="172.57 0 80.84 0 80.84 19.48 113.43 19.48 113.43 87.13 139.64 87.13 139.64 19.48 172.57 19.48 172.57 0"/><path class="cls-2" d="M312.84,43.38a21.16,21.16,0,0,0,16.48-20.62v-1.6A21.16,21.16,0,0,0,308.16,0H260.29L228.56,29.7V87.13h81.7A21.17,21.17,0,0,0,331.42,66V64.37A21.16,21.16,0,0,0,312.84,43.38Zm-58.07-23.9h40.29a7.53,7.53,0,0,1,0,15.05H254.77Zm42.38,48.17H254.77V52.59h42.38a7.53,7.53,0,1,1,0,15.06Z"/><polygon class="cls-1" points="223.43 57.54 207.11 42.38 252.38 0 218.98 0 173.7 42.38 221.87 87.13 223.43 87.13 223.43 57.54"/><path class="cls-2" d="M34.72,109.05H20.58v29H14.16v-29H0v-6.42H34.72Z"/><path class="cls-2" d="M45.9,138H39.48V102.63H45.9Zm26.62,0h-9.1L49,123.55H44.46v-6.46H49l14.44-14.46h9.1L54.33,120.32Z"/><path class="cls-2" d="M110.85,130.24a8.86,8.86,0,0,1-.4,2.54,7.32,7.32,0,0,1-1.34,2.52,7.4,7.4,0,0,1-2.4,1.94,7.73,7.73,0,0,1-3.63.77H78.73a3.44,3.44,0,0,1-1.29-.24,3.25,3.25,0,0,1-1-.68,3.09,3.09,0,0,1-.68-1,3.45,3.45,0,0,1-.25-1.29V105.86a3.37,3.37,0,0,1,.25-1.26,3.13,3.13,0,0,1,.68-1,3,3,0,0,1,1-.69,3.26,3.26,0,0,1,1.29-.25h21.46a8.7,8.7,0,0,1,2.55.42,7.87,7.87,0,0,1,2.52,1.34,7.19,7.19,0,0,1,1.95,2.41,7.73,7.73,0,0,1,.78,3.63v1.21a13.19,13.19,0,0,1-.57,3.66A11.75,11.75,0,0,1,105.6,119a11.4,11.4,0,0,1,2,1.61,10.09,10.09,0,0,1,1.67,2.17,10.94,10.94,0,0,1,1.13,2.79,13.1,13.1,0,0,1,.42,3.43ZM104.44,129a6,6,0,0,0-.4-2.26,4.78,4.78,0,0,0-1.11-1.71,4.66,4.66,0,0,0-1.72-1.1,6.32,6.32,0,0,0-2.27-.39H84.48v-6.46H96.05a6.51,6.51,0,0,0,2.27-.38,4.92,4.92,0,0,0,1.73-1.1,4.86,4.86,0,0,0,1.09-1.72,6.14,6.14,0,0,0,.39-2.25v-1.21a1.2,1.2,0,0,0-1.34-1.38H81.91V131.6h21.17l.42,0a1,1,0,0,0,.45-.14,1.14,1.14,0,0,0,.34-.42,1.85,1.85,0,0,0,.15-.82Z"/><path class="cls-2" d="M167.58,138h-6.41v-8.68H138.62V138H132.2V120.32a18.62,18.62,0,0,1,1.33-7.13,16.63,16.63,0,0,1,3.7-5.6,16.91,16.91,0,0,1,5.6-3.65,18.71,18.71,0,0,1,7.06-1.31h14.46a3.12,3.12,0,0,1,1.26.25,3.05,3.05,0,0,1,1,.69,3.33,3.33,0,0,1,.69,1,3.36,3.36,0,0,1,.24,1.26Zm-29-15.1h22.55V109.05H149.89c-.2,0-.61,0-1.24.08a12.8,12.8,0,0,0-2.2.43,14.19,14.19,0,0,0-2.63,1.06,9.26,9.26,0,0,0-2.54,2,10.21,10.21,0,0,0-1.91,3.14,12.44,12.44,0,0,0-.75,4.58Z"/><path class="cls-2" d="M206,138H182.87a10.31,10.31,0,0,1-2.91-.46,8.61,8.61,0,0,1-5.17-4.33,9,9,0,0,1-.9-4.21V105.86a3.18,3.18,0,0,1,.25-1.26,3.27,3.27,0,0,1,.67-1,2.92,2.92,0,0,1,1-.69,3.18,3.18,0,0,1,1.28-.25H206v6.42H180.3v20a2.34,2.34,0,0,0,2.62,2.59H206Zm-2.89-14.46H182.87v-6.46h20.26Z"/><path class="cls-2" d="M245.91,134.78a3.45,3.45,0,0,1-.25,1.29,3.13,3.13,0,0,1-1.7,1.7,3.44,3.44,0,0,1-1.29.24H219.53a8.94,8.94,0,0,1-1.92-.21,9.13,9.13,0,0,1-2-.65,9.41,9.41,0,0,1-1.91-1.15,7.51,7.51,0,0,1-1.62-1.7,8.47,8.47,0,0,1-1.12-2.32,9.77,9.77,0,0,1-.42-3V111.64a9.62,9.62,0,0,1,.21-1.92,10.32,10.32,0,0,1,.65-2,9.47,9.47,0,0,1,1.16-1.91,8.06,8.06,0,0,1,1.72-1.62,8.27,8.27,0,0,1,2.31-1.12,9.62,9.62,0,0,1,3-.42h26.08v6.42H219.53a2.64,2.64,0,0,0-1.93.66,2.7,2.7,0,0,0-.66,2V129a2.59,2.59,0,0,0,.67,1.91,2.62,2.62,0,0,0,1.92.68h20v-8H222.41v-6.46h20.26a3.27,3.27,0,0,1,1.29.26,3.31,3.31,0,0,1,1,.7,3.42,3.42,0,0,1,.68,1,3.19,3.19,0,0,1,.25,1.24Z"/><path class="cls-2" d="M258.06,138h-6.42V102.63h6.42Z"/><path class="cls-2" d="M298.56,127.6a11.3,11.3,0,0,1-.48,3.42,10.22,10.22,0,0,1-1.27,2.68,8.49,8.49,0,0,1-1.85,2,11.21,11.21,0,0,1-2.2,1.33,10.91,10.91,0,0,1-2.3.77,11,11,0,0,1-2.21.24H263.5V131.6h24.75a3.73,3.73,0,0,0,2.87-1.09,4,4,0,0,0,1-2.91,4.76,4.76,0,0,0-.27-1.63,3.86,3.86,0,0,0-.78-1.28,3.49,3.49,0,0,0-1.24-.84,4.16,4.16,0,0,0-1.61-.3H273.49a11.42,11.42,0,0,1-3.35-.55,10.17,10.17,0,0,1-3.35-1.79,9.68,9.68,0,0,1-2.56-3.23,12.08,12.08,0,0,1,0-9.76,9.78,9.78,0,0,1,2.56-3.23,10,10,0,0,1,3.35-1.81,11.42,11.42,0,0,1,3.35-.55h21.84v6.42H273.49a3.68,3.68,0,0,0-2.85,1.11,4.17,4.17,0,0,0-1,2.93,4.08,4.08,0,0,0,1,2.93,3.76,3.76,0,0,0,2.85,1.07H288.3a11.73,11.73,0,0,1,2.19.28,11.37,11.37,0,0,1,4.5,2.18,9.13,9.13,0,0,1,1.83,2,9.43,9.43,0,0,1,1.27,2.67A11.18,11.18,0,0,1,298.56,127.6Z"/><path class="cls-2" d="M346.58,138H323.31a3.35,3.35,0,0,1-1.28-.24,3.14,3.14,0,0,1-1-.68,3.09,3.09,0,0,1-.68-1,3.26,3.26,0,0,1-.25-1.29V102.63h6.42v29h20.08Z"/><path class="cls-2" d="M372.24,109.05H358.1v29h-6.42v-29H337.52v-6.42h34.72Z"/><path class="cls-2" d="M412.26,123.21a15.42,15.42,0,0,1-1.12,6,14,14,0,0,1-7.78,7.74,15.49,15.49,0,0,1-5.9,1.11H380.13a3.39,3.39,0,0,1-1.28-.24,3.25,3.25,0,0,1-1-.68,3.09,3.09,0,0,1-.68-1,3.26,3.26,0,0,1-.25-1.29V105.86a3.18,3.18,0,0,1,.25-1.26,3.13,3.13,0,0,1,.68-1,3,3,0,0,1,1-.69,3.21,3.21,0,0,1,1.28-.25h17.33a15.49,15.49,0,0,1,5.9,1.11,13.91,13.91,0,0,1,7.78,7.76,15.42,15.42,0,0,1,1.12,5.93Zm-6.41-5.78a9.17,9.17,0,0,0-.61-3.42,7.43,7.43,0,0,0-1.71-2.66,7.78,7.78,0,0,0-2.65-1.7,9.37,9.37,0,0,0-3.42-.6H383.32V131.6h14.14a9.17,9.17,0,0,0,3.42-.61,7.78,7.78,0,0,0,2.65-1.7,7.44,7.44,0,0,0,1.71-2.64,9.2,9.2,0,0,0,.61-3.44Z"/></g></g></svg>