<svg xmlns="http://www.w3.org/2000/svg" xmlns:xlink="http://www.w3.org/1999/xlink" viewBox="0 0 420.44 409.83"><defs><style>.cls-1,.cls-2,.cls-5,.cls-6{fill-rule:evenodd;}.cls-1{fill:url(#linear-gradient);}.cls-2{fill:url(#linear-gradient-2);}.cls-3{fill:#231f20;}.cls-4{fill:url(#linear-gradient-3);}.cls-5{fill:#669833;}.cls-6{fill:url(#linear-gradient-9);}</style><linearGradient id="linear-gradient" x1="94.51" y1="252.52" x2="117.91" y2="252.52" gradientUnits="userSpaceOnUse"><stop offset="0" stop-color="#50a00a"/><stop offset="0.16" stop-color="#34861a"/><stop offset="0.33" stop-color="#1d7027"/><stop offset="0.52" stop-color="#0d6031"/><stop offset="0.73" stop-color="#035736"/><stop offset="1" stop-color="#005438"/></linearGradient><linearGradient id="linear-gradient-2" x1="57.9" y1="230.74" x2="420.44" y2="230.74" xlink:href="#linear-gradient"/><linearGradient id="linear-gradient-3" x1="155.13" y1="225.4" x2="390.6" y2="225.4" xlink:href="#linear-gradient"/><linearGradient id="linear-gradient-9" x1="0" y1="207.32" x2="406.19" y2="207.32" xlink:href="#linear-gradient"/></defs><g id="Layer_2" data-name="Layer 2"><g id="Layer_1-2" data-name="Layer 1"><path class="cls-1" d="M117.91,252.55a11.71,11.71,0,1,1-11.67-12.28C112.62,240.27,117.91,245.69,117.91,252.55Z"/><path class="cls-2" d="M61.48,306c-4.62,2.28-3.5-13.18-3.34-14.47,3.18-28.84,35.28-119,58.42-133.72,10.54-6.73,19.18,1.24,21.69,13,1.5,7.13,2.29,20.39,3.52,28.69,3.51,23.34,9.85,59.14,35.91,63.81,20.92,3.68,65.9-13.18,87.61-19,47.81-13,100.69-17.5,145.4,9.39,5.25,3.14,5.57,3.18,9.75,7.76-5.8-.65-6.27-1.14-11.7-2.93-46.24-15.26-81.38-13.43-127.34.79-27.44,8.45-66.48,26.4-93.27,28.44-56.36,4.43-65-58.17-67.27-104.16-.12-2-.28-3.77-.44-5.44-5.36,6.34-12.81,18.4-14.76,21.75-9.43,16-47.59,90.93-44.18,106.1Zm63.07-131.61a2.35,2.35,0,0,0,.56-.17,2,2,0,0,0-.56.17Z"/><path class="cls-3" d="M174.66,201.05a5,5,0,0,1-.59-5.33c2-4.27,6-7.29,11.89-7.22,11.89.26,9.47,11.76-5,12,.4-2.3-.26-3.68-1.24-4.34-3.2-2.36-6.6,1.45-2.22,4.74,26.73-.07,25.22,30.88-1.44,30.82a34.07,34.07,0,0,1-6.66-.79,18.81,18.81,0,0,0-7.25,1.05c-4.38,1.64-5.82,5.72,1.57,3.88,9.6-2.5,15.28-2.56,20.77-1.58,9.61,1.78,13.4,7.49,12.87,13.34-.71,7.23-8,14.66-18.81,14.66-13.07,0-18-8.28-12.48-13.67,4.11-4,15-1.78,16.4,2.89-4.18.92-6.34,8.67-.72,8.67,4.05,0,6.79-2.69,7.06-5.91.19-2.5-1.12-5.32-4.51-7.29a20.1,20.1,0,0,0-14.83-2.83c-1.64.26-9.81,2.3-13.4-3-2.55-3.81-.26-10.32,8.82-12C151.46,222.34,155.12,202.76,174.66,201.05Zm-.85,28.52c7.18.79,11.43-25.3,5.55-26.68C171.85,201.11,166.49,228.78,173.81,229.57Z"/><path class="cls-3" d="M200.33,202.49h17.25c-2.42,9.8-3.33,16.76-2.81,24.39.59-11.7,4.38-24.45,15.16-25.7,5.16-.59,8.1,1.51,8.95,4.2,1.18,3.75-1.83,8.75-8.95,9.6-4.57.53-7.32-2-6.47-5,.59-1.84.13-3.21-1.24-2-4.25,4.08-7.51,20.05-5.23,32.93.2.79.4,1.58.59,2.37H200.4C204.25,227.2,204.25,218.59,200.33,202.49Z"/><path class="cls-3" d="M256.91,244.62c-12.41,0-19.14-9.46-19.14-21.69s6.73-21.62,19.14-21.62,19.28,9.4,19.28,21.62S269.33,244.62,256.91,244.62ZM254,242.19c9.54-1.12,14.57-39.37,6.21-38.38C250.05,205,244.24,243.37,254,242.19Z"/><path class="cls-3" d="M318.85,202.49c-8.56,10.26-18.16,28.59-10.45,40.82H290c0-9.14-10.65-32.47-16.66-40.82h17.25c.13,7.1,9,31.42,13.66,35.69-2.49-15.18,3.72-19.65-.72-35.69Z"/><path class="cls-3" d="M336.3,244.62c-12.68,0-20.26-9.6-20.26-20.37,0-14,10.52-24.71,24.76-22.87,6.15.78,11.11,4.2,11.37,10,.53,10.84-15.68,16.75-23.85,16.82.4,7.16,4,14.66,10.59,14.26,4.7-.26,2.09-8.67-1.57-11.37,10.19-8.21,17.32-1.71,13,5.59a16.1,16.1,0,0,1-11.1,7.69A14.56,14.56,0,0,1,336.3,244.62Zm4.5-31.81c3.21-15.11-7.71-11.3-11.36,2.5a47,47,0,0,0-1.18,10.91C334.53,225.89,339.5,219,340.8,212.81Z"/><path class="cls-3" d="M376.28,230.29c10.59-8.48,18.88-1.25,11.5,7.82-6,7.36-23,6.51-32.8,5.2-4.05-10.91,20.13-31,20.84-35.36,0-2.24-3.33-4.87-7.05-4.87-4.77.07-3.07,3.09-1.24,4.6,4.24,3.62,1.24,8.29-4.71,7.63-5.62-.66-8.3-4.27-7.77-7.56.65-4.27,4.7-6.64,10.52-6.64,3.26.07,6.73,1.38,15.55,1.38h8.56c-7.52,8.81-19.28,24.25-22.55,36.35,1.05,2.89,9.09,3.87,10.72,2.82C381.38,239.49,380,233.05,376.28,230.29Z"/><path class="cls-4" d="M174.66,201.05a5,5,0,0,1-.59-5.33c2-4.27,6-7.29,11.89-7.22,11.89.26,9.47,11.76-5,12,.4-2.3-.26-3.68-1.24-4.34-3.2-2.36-6.6,1.45-2.22,4.74,26.73-.07,25.22,30.88-1.44,30.82a34.07,34.07,0,0,1-6.66-.79,18.81,18.81,0,0,0-7.25,1.05c-4.38,1.64-5.82,5.72,1.57,3.88,9.6-2.5,15.28-2.56,20.77-1.58,9.61,1.78,13.4,7.49,12.87,13.34-.71,7.23-8,14.66-18.81,14.66-13.07,0-18-8.28-12.48-13.67,4.11-4,15-1.78,16.4,2.89-4.18.92-6.34,8.67-.72,8.67,4.05,0,6.79-2.69,7.06-5.91.19-2.5-1.12-5.32-4.51-7.29a20.1,20.1,0,0,0-14.83-2.83c-1.64.26-9.81,2.3-13.4-3-2.55-3.81-.26-10.32,8.82-12C151.46,222.34,155.12,202.76,174.66,201.05Zm-.85,28.52c7.18.79,11.43-25.3,5.55-26.68C171.85,201.11,166.49,228.78,173.81,229.57Z"/><path class="cls-4" d="M200.33,202.49h17.25c-2.42,9.8-3.33,16.76-2.81,24.39.59-11.7,4.38-24.45,15.16-25.7,5.16-.59,8.1,1.51,8.95,4.2,1.18,3.75-1.83,8.75-8.95,9.6-4.57.53-7.32-2-6.47-5,.59-1.84.13-3.21-1.24-2-4.25,4.08-7.51,20.05-5.23,32.93.2.79.4,1.58.59,2.37H200.4C204.25,227.2,204.25,218.59,200.33,202.49Z"/><path class="cls-4" d="M256.91,244.62c-12.41,0-19.14-9.46-19.14-21.69s6.73-21.62,19.14-21.62,19.28,9.4,19.28,21.62S269.33,244.62,256.91,244.62ZM254,242.19c9.54-1.12,14.57-39.37,6.21-38.38C250.05,205,244.24,243.37,254,242.19Z"/><path class="cls-4" d="M318.85,202.49c-8.56,10.26-18.16,28.59-10.45,40.82H290c0-9.14-10.65-32.47-16.66-40.82h17.25c.13,7.1,9,31.42,13.66,35.69-2.49-15.18,3.72-19.65-.72-35.69Z"/><path class="cls-4" d="M336.3,244.62c-12.68,0-20.26-9.6-20.26-20.37,0-14,10.52-24.71,24.76-22.87,6.15.78,11.11,4.2,11.37,10,.53,10.84-15.68,16.75-23.85,16.82.4,7.16,4,14.66,10.59,14.26,4.7-.26,2.09-8.67-1.57-11.37,10.19-8.21,17.32-1.71,13,5.59a16.1,16.1,0,0,1-11.1,7.69A14.56,14.56,0,0,1,336.3,244.62Zm4.5-31.81c3.21-15.11-7.71-11.3-11.36,2.5a47,47,0,0,0-1.18,10.91C334.53,225.89,339.5,219,340.8,212.81Z"/><path class="cls-4" d="M376.28,230.29c10.59-8.48,18.88-1.25,11.5,7.82-6,7.36-23,6.51-32.8,5.2-4.05-10.91,20.13-31,20.84-35.36,0-2.24-3.33-4.87-7.05-4.87-4.77.07-3.07,3.09-1.24,4.6,4.24,3.62,1.24,8.29-4.71,7.63-5.62-.66-8.3-4.27-7.77-7.56.65-4.27,4.7-6.64,10.52-6.64,3.26.07,6.73,1.38,15.55,1.38h8.56c-7.52,8.81-19.28,24.25-22.55,36.35,1.05,2.89,9.09,3.87,10.72,2.82C381.38,239.49,380,233.05,376.28,230.29Z"/><path class="cls-5" d="M319,112.35l.07.13,0-.11Z"/><path class="cls-6" d="M293.08,111.34c-7.12-2.2-12.54-6.41-18.56-8.14a33.08,33.08,0,0,0-12.69-.94c-5,.38-8.8.63-13.75-.43-11.24-2.39-22.62-4.77-34-6.49A173,173,0,0,0,189.8,93.2a211.44,211.44,0,0,0-23.34,1.27C155.73,95.56,145,97,134.3,98.28l-4.5.55,3.55-2.5c8.27-5.83,19.27-12.29,30-13.42h.07a194.58,194.58,0,0,0,21.31-2.09,37.59,37.59,0,0,0,14-5.5c3.61-2.22,7.1-4.95,10.95-6.81,3.27-1.58,6.8-2.5,10.47-1.47,3,.83,5.51,2.78,7.78,4.61a64.56,64.56,0,0,0,8.42,6.13c10.08,5.78,22,5.11,33.2,2.68,21.52-4.65,37.55,10.54,47.3,25.59l0,0,1.24,2,.11.18,1.84,3c-2.29-8.07-5.6-16.12-10.49-22.89l-1-1.4c3.68,1.12,6.78,1.52,10.42,2.73h0l.06,0,1.14.38.06,0h0c15.9,5.24,33.12,7.89,50.22,9-17.22-2.56-34.59-6.23-50.28-11.83-8.24-3-15.7-7.4-24.1-10q-2.89-.88-5.82-1.72c-8.22-2.33-12.12-3.69-20.91-3-12.14,1-25.89-.33-32.92-10.1q3.3-9.61,21.24-10.29h0a68.21,68.21,0,0,1,11.58,2.73q5.43.9,10.92,1.5A155,155,0,0,0,309.59,69.3c2,.69,4,1.29,6,1.82h0c1.28.33,2.57.63,3.87.89h0c1.57.33,3.16.61,4.75.86h.1a117.77,117.77,0,0,0,29.66.88A95.28,95.28,0,0,1,338.23,73a149.43,149.43,0,0,1-42.38-13.45l-4.61-2.22,5.25.15A200.59,200.59,0,0,0,321,56.72c-10.3-.57-20.64-1.43-30.76-2.85-9.07-1.26-19.47-3.14-27.82-6.59l-.39-.16q14.37-3.42,20.28-4.21,1.73-.12,3.45-.21h0a191.55,191.55,0,0,1,31.15.93c-22.42-4.32-45.65-4.7-67.57,2.44q-20.79,7.18-30.41,7.86h0c-9,0-15.67,2.4-24.27,6.58-7.86,3.82-14.19,6.86-23.33,7.81-19.09,2-35.62,9.94-49.89,21.07l-4,3.09,2-4.33c2.42-5.3,3.58-10.78,2.7-16.22-1.48,8.41-6.92,16.64-12.28,23.2l-.22.27-.36.12C89,102.11,75.39,121.25,66.68,137.76l-2.45,4.65.08-5.13c.17-11.2,3.53-23.35,7.56-34.41a53.68,53.68,0,0,0-6.19,11.31c-2,5-3.19,10.12-4.94,15.16a39.27,39.27,0,0,1-8.29,14.27,80.68,80.68,0,0,0-7.54,9.78l0,0a136.42,136.42,0,0,0-8.4,14.66c-.65,1.48-1.26,3-1.83,4.51a116.92,116.92,0,0,0-6,17.95L28,193.26A172.89,172.89,0,0,1,47.58,108.2c6.29-9,14.17-17,22.32-24.69,9.62-9.05,19.61-17.78,29.18-26.88,10.13-9.66,23.54-10.77,37.45-7.55l.08,0,.08,0c16,5.8,31.81,5.82,47.39-.9a105.89,105.89,0,0,1,30.95-10l.23,0,.22,0c13.52,2.14,28.36-.13,42.12-4a160.92,160.92,0,0,1-33.35.5l-2.63-.22,1.86-1.66c10.13-9,25.45-13.37,40.16-15.52C249,17.48,235.56,21.2,223.49,29q-3.28,2-6.53,4.07a79.72,79.72,0,0,0-25.41,4.65c-16.09,7.73-35.93,12.85-50.55,0-.46-3.16,5.09-8.2,7.43-10.5l.14-.14.18-.09c11.93-5.83,27.41-7.52,41.7-7.6A100.29,100.29,0,0,0,154.32,22l2.26-1.59C168,12.43,182,7.63,196.29,4.8c-13,.89-26,3.31-37.32,8.72a87.11,87.11,0,0,0-14.28,8.82c-3.94,2.92-7.76,6-12,8.64a45.58,45.58,0,0,1-10.54,4.88,78.33,78.33,0,0,1-10.78,2.19,32.51,32.51,0,0,0-9.69,3.42A187.43,187.43,0,0,0,43.29,87.91C22.81,111.13,9,138.41,3.17,167.38-5.71,211.31,4.24,257,30.94,294.93a125.76,125.76,0,0,0,21.88,25.78c8-7.08,3.65-17.52,8.29-30.78,4,17.93,1.47,34.89-16.06,45.61C72,331.42,72.3,300.89,71.26,285.81c.65,2.67,1.22,5.21,1.71,7.6l.07,0,.09.47a83.81,83.81,0,0,1,1.73,12.42,37.44,37.44,0,0,1-.28,9.23A47.64,47.64,0,0,1,72.75,324a69.46,69.46,0,0,1-5,11.91,5.26,5.26,0,0,1-.42,1.25,50.69,50.69,0,0,0-2.64,19.95c.83-8.54,2.73-17.12,7.88-24.39.66-.93,1.36-1.83,2.09-2.72l1.88-2.27.37,2.79a110.2,110.2,0,0,0,1.9,11.24c-.18-3.67-.47-14.79,2-17.5.76-.84,1.53-1.68,2.31-2.51l.86-.93,1,.83c6.7,5.74,9.19,14.36,6.43,22.23-.75,8-4.77,15.32-10,21.75,3.92-2.86,6.84-7.07,11-10.42a20.66,20.66,0,0,0-3,11.12,24,24,0,0,0,2.74,10.13c-.88-7.39,1-14.31,4.71-21.31,1.59-3,3.44-5.88,5.09-8.87.74-1.33,2.13-3.86,1.79-5.38A55.9,55.9,0,0,0,89.46,314.7l-5.88-6.22,7.55,4.6c10.08,6.15,17.09,15.51,19.55,26.11.16.68.46,2.17,1.2,2.6a7,7,0,0,1,3.34,3.36,10.08,10.08,0,0,1,1.3,7.69c-.86,3.3-3.64,6.38-5.76,9.15a31.74,31.74,0,0,0-6.2,12,19.39,19.39,0,0,0,2.13,10.51h0q-1.36-7.75,2.35-11.44l.39-.36h0l.11-.1.89.56c2.66,1.71,4.62,5.54,6,9.52-.09-.62-.18-1.23-.29-1.85a109.69,109.69,0,0,0-3-11.74,3.32,3.32,0,0,1,1.29-3.45,22.59,22.59,0,0,1,2.48-1.82c8.82-6,5.71-21.22,2.72-29.15-2.62-6.93-7.85-16.09-14.9-20.28l-3.18-1.9,3.83-.12c19.34,2.69,33.79,6.51,40.05,16.35l1.37,1.95-2.58-.27c-4.67-.5-10.4-.32-13.57,3.25-5.71,6.45-.66,21,2,28.07,4.08,9.7,2.29,22.67-.3,33.19a38.61,38.61,0,0,0,7.25-20.06l.11-1.46,1.56.5c13.23,4.26,11.7,18.46,9.12,28.4A24.53,24.53,0,0,0,154.64,390c-.48-5.89-1.77-11-6.3-15.62s-7.17-10-6.4-16.08a7.07,7.07,0,0,0,0-1.72c-.18-.87-3.59-5.27-4.28-6.24-.4-.54-1.12-1.48-1.84-2.56q-2.83-4.62-.86-6,2.17-1.71,11.74,4c2.64,2.16,4.17,5,4.3,9.27a37.64,37.64,0,0,0,1.95,11c0-9.7,2.88-18.71-7.5-24.22h0l-.09,0c-.42-.22-.87-.44-1.33-.65a49.53,49.53,0,0,0-6.7-2.56l3.43-.82c7.61-1.83,18.13,1.19,25.19,3.63l.09,0,.08.05c12.54,6.51,10.37,16.67,3.33,26.2-1.93,2.62-4.15,4-6.7,6a11.72,11.72,0,0,0-4,5q-.22.57-.39,1.14l-.07.22a12.24,12.24,0,0,0-.51,3.55c0,4.06,2,8.41,4.33,12.46l6.15,11.3a.54.54,0,0,0,.22.09h0a.55.55,0,0,0,.18,0h0a.45.45,0,0,0,.3-.25.3.3,0,0,0-.07-.15l-.52-1.12a104.75,104.75,0,0,1-4-10.1c-1.54-4.72-4.11-13.9.38-17.9,2.8-2.51,7.21-2.09,10.71-1.23,6.33,1.55,10.47,7,13.22,12.17,2.79-5.8-3.49-11.07-8.54-14.53-3.62-2.48-4.12-6.19-1.69-9.58,3.39-4.71,3-11.68,2-16.95l-.51-2.87,2.54,1.86c17.67,13,30.28,29.19,10.94,46.2l-.35.31-.18.17h0l-.15.15-.18.17-.23.23c-.44.44-.85.9-1.23,1.36a28,28,0,0,0-6,14,.36.36,0,0,0,.29.19.37.37,0,0,0,.33-.15c3-9.8,10.77-16.14,21.78-19.82l.65-.21.56.37c7.51,5.13,13.7,12.4,18.71,19.75a1.11,1.11,0,0,0,.93.35,1.1,1.1,0,0,0,.84-.49,76.62,76.62,0,0,0-9.81-15,142.52,142.52,0,0,1-11.9-13.62c-1-1.39-3.58-4.8-1.87-6.4,1.5-1.39,5-.08,6.59.51,3.12,1.12,6.17,2.5,9.22,3.75a65.9,65.9,0,0,0,8.59,3.06c13.32,2.4,20.34,13.66,24.28,24.39a.42.42,0,0,0,.41.15.36.36,0,0,0,.3-.28c.3-7.84-2.76-15-8.21-21.56L245.79,383l1.72-.44c13.92-3.41,28.93,5.75,35,16.49-2.79-9.88-16.15-19.43-27.57-19.87-3.84-.15-7.9-.66-11.71-1.15-3.26-.43-6.54-.89-9.77-1.45-1.09-.19-2.19-.38-3.26-.63-.9-.21-2.26-.51-2.1-1.62s1.67-1.1,2.63-1.08c1.48,0,3,.14,4.47.25,7.06.53,13.65-.79,20.9.34,6,.94,9.86,3,14.84,5.88,1.32.75,2.59,1.46,3.89,2.09h0A29.37,29.37,0,0,0,281,384.1h0a41.72,41.72,0,0,0,22,0,56.19,56.19,0,0,1-19.37-.8,33.77,33.77,0,0,1-12.75-6,13.8,13.8,0,0,0-5.61-3.19c-4.14-1.34-8.68-3.14-12.93-4.07a52.2,52.2,0,0,0-13.1-.68c-14.58.57-27.2-3.49-36.18-13.86l-2.72-3.14,4.17,1.44c7,2.43,14.81,2.12,22,.77,5-.93,15.08,3.17,22.75,6.9-7.8-6.74-16.79-12.46-28.26-12-1.34.08-2.68.2-4,.35-3.27.38-9.85-3.65-10.32-6.59-1.24-7.6,40.67-27.52,44.66,4,.67,5.33,3.67,12.13,8.75,15.34,4.85,3.06,11.12,3.25,16.85,3a96.75,96.75,0,0,1,48.68,10.85c1.86,1,3.68,2.05,5.44,3.18a69.93,69.93,0,0,0-16.52-12.23h0l-.36-.19c-.48-.26-1-.51-1.47-.76l-.31-.16-.06,0-.37-.19h0l-.35-.17-.35-.17h0l-.16-.08-.21-.1-.1,0-.28-.13-.33-.16-.05,0-.38-.17c-7.31-3.26-16-5.79-23.28-5.66l-5.45.1-4.89.12c-.81,0-1.91,0-2.7.14h-.12c-8.65.51-13.77-3.23-14.89-10.81l0-.17,0-.16a22.09,22.09,0,0,0,.07-4.38c-.09-2.18-.23-4.36-.29-6.54-.1-3.24.33-7.39,4.29-9.07,2.93-1.25,5.64-2.57,7.58-.9,5,4.29,9.7,10.49,13.51,15.63a70.76,70.76,0,0,0,8.41,7.74,56.87,56.87,0,0,0,8.08,3.7c.86.22,1.72.45,2.58.73a49.44,49.44,0,0,1,7.89,3.44h0c.78.41,1.54.86,2.24,1.31a38.25,38.25,0,0,0,23.32,5.5,22.93,22.93,0,0,0,5.2-1c-14.4,2.33-17.32-4.84-32.14-10.61-4.15-1.33-20.66-6.59-19-12.36s17.25-4.37,21.77-3.75c14,.06,26.93,5.26,35.7,14.39a40.72,40.72,0,0,1,8.54,9.48l.25-.18c-4.15-11.37-14.49-23.42-30.66-26.34l2.57-2.49c15.64-11.25,31.14-4.05,43.05,5.26a35.81,35.81,0,0,1,4.67,4.71,41.7,41.7,0,0,0-8-9.49c-.79-.7-1.6-1.38-2.47-2l-.08-.06c-10.9-8-26.34-9.19-38.65-3-2.95,2.34-13.67,9.39-20.82,3.64,1.55.36,12-5.08,14.5-7.51,3.7-2.24,7.83-4.87,12.33-5.58a15.4,15.4,0,0,1,5.33.07h0a16.71,16.71,0,0,1,2.31.61c1.16.29,2.32.56,3.49.81h0c1.1.3,2.19.57,3.3.82h0a75,75,0,0,0,27.79.89A83.21,83.21,0,0,0,389,319l.36-.1-.22.05a89,89,0,0,0,12.48-5,98.69,98.69,0,0,1-26.5,7.06c-.79.08-1.59.14-2.38.2h0c-1.77.14-3.54.23-5.32.31a74.14,74.14,0,0,1-14.86-1.26h0a71.1,71.1,0,0,1-8.29-2.17l2-1.13a82.14,82.14,0,0,1,23.74-9.1,55.63,55.63,0,0,0-8.21,1.59h0q-2.71.74-5.35,1.69-7.61,2.53-14.88,5.77c-7.72-1.7-16.28-.86-22.45,3.86l-.06.05c-.67.44-1.34.88-2,1.31a54.71,54.71,0,0,1-15.13,6.81Q290,331.17,282,328.82h0l-.68-.2a23.55,23.55,0,0,1-2.36-.9c-8.88-4.33,13.7-9.38,19.7-12.14,6.74-3.09,13.3-3.85,21.33-4.53,2.84-.24,5.68-.48,8.49-.92.89-.14,1.78-.3,2.66-.49a43.66,43.66,0,0,0,5.2-1.41h-22l-1.36.14h-.11a121.79,121.79,0,0,0-16.4,3c-13.66,3.19-27,8.55-41.37,11.26-4.9.92-16.63.9-22.57,1.13a30.08,30.08,0,0,1-8.09-.77c-13.5-.72-31.5-3.23-44.71-2a29.52,29.52,0,0,1-5.46.59c-3,.15-5.91.3-8.87.32a28.33,28.33,0,0,1-4.79-.25c-1.93-.31-4.06-2-5.93-3-7.47-3.95-14.79-7.57-25.35-10.4h0c-6.42-4.07-13.73-7.23-19-10.85A80.79,80.79,0,0,1,97,285.24h0a174.68,174.68,0,0,1-21.34-25.94l-1.31-1.92-.09-.14c-.63-1-1.24-1.9-1.84-2.86l-.06-.1v0A75.21,75.21,0,0,1,61.87,203a51.81,51.81,0,0,1,3.9-9c5.29-9.67,9.3-12.85,17.36-20.51,3.28-3.12,17.83-13.21,19.61-14.42.62-.43,1.25-.85,1.88-1.27l.52-.61a59.15,59.15,0,0,1,6.65-4.25,9.24,9.24,0,0,0,1.49-.79,123.6,123.6,0,0,1,10.4-7.26c.77-.47,1.56-.92,2.36-1.35a62.38,62.38,0,0,1,7.06-3.46,66.24,66.24,0,0,1,19.76-4.61,76.07,76.07,0,0,1,19.35,1.2c9.3,1.76,18.24,3.22,27.19,5.92a80,80,0,0,0-16.08-5.85,94.47,94.47,0,0,1-17.42-4.61l-2.51-1,2.47-1c8.91-3.76,19.09-4.43,28.81-3.73,8.61.25,17.8-.27,26.27-2.48a134.49,134.49,0,0,1-27.89-1,62.79,62.79,0,0,0-38.46,6.85l-.32.16h-.36a57.78,57.78,0,0,0-12.39,1.11h-.08c-2.65.37-5.46,1-8.1,1.43a59.81,59.81,0,0,0-24.1,9.52,61.41,61.41,0,0,1-12.59,8.5c-3.36,1.77-6.8,3.23-10.22,4.87-3.94,1.89-6,4-8.77,7a34.86,34.86,0,0,1-3.41,3.2.26.26,0,0,0-.28.22h0Q72,167,70.24,168.14h0l-.61.37,0,0-.07.05h0q-5.25,3.19-9,5.06a81.25,81.25,0,0,1-16.06,5.57l-1.09.24a129.52,129.52,0,0,0,14.88-9.29l.36-.2,1.87-1.45a121.48,121.48,0,0,0,13.68-12.06l0,0h0A117.77,117.77,0,0,0,84.9,143.78l0,0c.41-.58.81-1.17,1.2-1.76h0a63.78,63.78,0,0,0,3.25-5.49c.3-.66.62-1.3,1-1.94,2.11-6.84,6.1-12.85,13.08-16.59,12.48-6.69,34.36-7.68,49.69-10.56,18-3.38,38.51-4.25,55.22-2.22,15.42,1.8,29.74,6.13,44.56,10.26l.08,0,.08,0c7.4,3.06,14.64,6.08,22,9.21q7.17,3,14.32,6.13c12.9,4.88,25.08,13.35,35.35,21.68l.05,0,.05.05c11.42,11.67,25.2,18.37,41.53,19.72h0a39.73,39.73,0,0,0,10.83.14l.41,0c10.42-.71,18.66-3,28.56-5.52-8.2,1.77-19.05,4-27.52,4a66.78,66.78,0,0,1-9.61-.64,53.15,53.15,0,0,1-22.68-8.74c-6.09-4-11.36-9-16.7-13.79l-1.61-1.45c3.13-.13,5.78-.3,8-.53a32.1,32.1,0,0,0,4-.56l.09,0h0a30.34,30.34,0,0,0,7.29-2.52c3.15-1.55,6.74-4.22,10.19-5a10.11,10.11,0,0,1,2-.24h0q2.67,0,5.31.24h0A89.57,89.57,0,0,1,376,139.38h0c1.94.43,3.85.92,5.75,1.49a69.78,69.78,0,0,0-18.21-4.67,38.91,38.91,0,0,0-4.45-.39,58.33,58.33,0,0,1,18.55-5.89,92.17,92.17,0,0,0-13.88,2.41,34.75,34.75,0,0,0-3.78,1h0a18.12,18.12,0,0,0-3.79,1.77c-3,1.36-5.9,3.05-8.65,4.1q-15.89,5.25-26.68,1.34a40.84,40.84,0,0,1-7.28-3.8c-2.58-1.67-5.17-3.41-7.86-5a40.88,40.88,0,0,0-3.94-2.25c-.77-.4-1.55-.79-2.34-1.16-2.07-1-4.53-2.11-7.36-3.33q-14.67-5.2-32.82-16.79c4.4-1.39,15.32-1.24,20.09.74a53.76,53.76,0,0,0,13.65,2.39ZM306,367.27a29.24,29.24,0,0,1,15.16,5.49A58.31,58.31,0,0,0,306,367.27Zm-3.17-1.39a14.8,14.8,0,0,1,8.26,1.54,35.86,35.86,0,0,0-8.26-1.54ZM97.72,290.78a62.51,62.51,0,0,0,16.93,11.38,29.74,29.74,0,0,1-16.93-11.38ZM81.38,271.63a66,66,0,0,0,15,17.24,31.37,31.37,0,0,1-15-17.24ZM214.6,391.3a21,21,0,0,1,8.38,9.87,41.31,41.31,0,0,0-8.38-9.87Zm-1.39.47a19.1,19.1,0,0,1,7.52,7.42,41.3,41.3,0,0,0-7.52-7.42Zm-7.74-7.21a18.32,18.32,0,0,1-6.46,8.17,39.32,39.32,0,0,0,6.46-8.17Zm-3.16,1a21.32,21.32,0,0,1-8.95,9.47,42.43,42.43,0,0,0,8.95-9.47Zm2.09-1.92a9.84,9.84,0,0,1-3.53,5.54,24.07,24.07,0,0,0,3.53-5.54ZM102.74,314.51a30.61,30.61,0,0,1,10,14.51,66,66,0,0,0-10-14.51Zm-36.63-7.28A27.91,27.91,0,0,1,63,324a60.42,60.42,0,0,0,3.07-16.79Zm-2.41-.69a15.28,15.28,0,0,1-.78,10.84,36.94,36.94,0,0,0,.78-10.84ZM80.59,312a17.66,17.66,0,0,1-3,14.26,31.75,31.75,0,0,0,3-14.26ZM76.4,307a15.28,15.28,0,0,1-.13,10.86A37,37,0,0,0,76.4,307Zm2.44.58a27.72,27.72,0,0,1-2,16.91,60.14,60.14,0,0,0,2-16.91Zm8.61-180.21a35,35,0,0,0-9.85,10.68,19.3,19.3,0,0,1,9.85-10.68Zm1.42,4.75a38.71,38.71,0,0,0-6.49,8.58,16.41,16.41,0,0,1,6.49-8.58Zm4-7.34a65,65,0,0,0-10.91,13,30,30,0,0,1,10.91-13Zm2.73-18.7a35.18,35.18,0,0,0-9.84,10.68,19.35,19.35,0,0,1,9.84-10.68Zm1.42,4.75a38.89,38.89,0,0,0-6.48,8.58,16.39,16.39,0,0,1,6.48-8.58Zm4.06-7.34a65.11,65.11,0,0,0-10.92,13,30.08,30.08,0,0,1,10.92-13Zm8-5.22q-7.32,5.84-12.79,16.85,3.3-11.76,12.79-16.85ZM77.27,284.91a79.86,79.86,0,0,0,16,23.45,38.05,38.05,0,0,1-16-23.45Zm12.58,10.77a56,56,0,0,0,15,10.47,26.53,26.53,0,0,1-15-10.47ZM94,292a71.77,71.77,0,0,0,19.27,13.49A34.11,34.11,0,0,1,94,292ZM39.32,231.48a63.7,63.7,0,0,0,3.76,23.18,31.4,31.4,0,0,1-3.76-23.18Zm4.06-25.74a90.44,90.44,0,0,0,3.06,33.39,44.66,44.66,0,0,1-3.06-33.39ZM49.23,214q-.66,14.3-.67,14.29A29.1,29.1,0,0,1,49.23,214Zm5,3.1q-2.74,11.29,1,26.89-6.76-14.91-1-26.89ZM46,255.17q6.75,13,6.74,13a31.19,31.19,0,0,1-6.74-13Zm24.08,6.26a47.3,47.3,0,0,0,8.09,15.26,22.59,22.59,0,0,1-8.09-15.26Zm10.2,15.07A63.62,63.62,0,0,0,93,295.1a30.17,30.17,0,0,1-12.72-18.6ZM58.09,235.7Q60.55,247,71,260.09,58.11,248.71,58.09,235.7Zm-3,16.4-.6-1.2A126.1,126.1,0,0,0,77,283.07c-11.12-7.79-18.83-18.73-21.84-31ZM56,273.84A34,34,0,0,0,67.88,286c-6-2.06-10.46-6.62-11.87-12.16ZM56.49,262a79.56,79.56,0,0,0,16,23.45,38,38,0,0,1-16-23.45ZM36.18,246.49A68.33,68.33,0,0,0,53.49,275c-10.23-6.78-16.56-17.18-17.31-28.46ZM48,244.26q6.75,13,6.74,13a31.13,31.13,0,0,1-6.74-13Zm-13.69-23a64.78,64.78,0,0,1,14.1-35.13,126.93,126.93,0,0,0-14.1,35.13Zm8.36-36.75a59.91,59.91,0,0,0-14.88,30c.22-11.35,5.58-22.16,14.88-30Zm38-10.39q-7.1,3.57-13.74,11.62,5.05-9,13.74-11.62Zm-4.74-3.91a68,68,0,0,0-16.32,15.17A33.35,33.35,0,0,1,75.87,170.2Zm4.28.56-7.8,5.68a22.78,22.78,0,0,1,7.8-5.68Zm32.64-22q-7.1,3.56-13.74,11.61,5-9,13.74-11.61ZM98.7,151.16a67.72,67.72,0,0,0-16.32,15.16A33.29,33.29,0,0,1,98.7,151.16Zm4.28.55-13.21,9.61A38.7,38.7,0,0,1,103,151.71Zm33.52-16.39a41.27,41.27,0,0,0-15.12,3q7.8-4.43,15.12-3Zm-2.34,3.23a39.16,39.16,0,0,0-13.75,6.33q6.25-6,13.75-6.33Zm-8.7.72q-7.86,1.92-16.55,8.28,7.4-7.62,16.55-8.28Zm29-7.41A34,34,0,0,0,142,134.37q6.42-3.65,12.45-2.51Zm-2.67,2.43a34,34,0,0,0-12.45,2.51c4.27-2.43,8.43-3.27,12.45-2.51Zm42.43-9.44a31.33,31.33,0,0,0-11.53-.15q6.51-2,11.53.15Zm-21.18,11.42a30.88,30.88,0,0,0-11.29-2q6.81-.89,11.29,2Zm5.68-11.77a30.87,30.87,0,0,0-11.23,2.26,16.28,16.28,0,0,1,11.23-2.26Zm-2.41,2.19A30.7,30.7,0,0,0,165.11,129a16.24,16.24,0,0,1,11.23-2.27Zm-122,90.25a42.6,42.6,0,0,1,5.51-24.8,83.47,83.47,0,0,0-5.51,24.8Zm-7.84.32a42.56,42.56,0,0,1,5.5-24.8,83.39,83.39,0,0,0-5.5,24.8Zm1-44.69A92.73,92.73,0,0,0,26.61,203.1c2.84-12,10.2-22.74,20.88-30.53ZM73.85,139.4q-9.16,8.23-15.42,23.2,3.32-15.79,15.42-23.2Zm-10.08,7.47A84.34,84.34,0,0,0,50.48,164.8a38.93,38.93,0,0,1,13.29-17.93Zm-4.71,10a50.11,50.11,0,0,0-7.82,11.82,21.26,21.26,0,0,1,7.82-11.82Zm-2.31-6.2a45.58,45.58,0,0,0-12.08,14.83,25.15,25.15,0,0,1,12.08-14.83Zm-28.2-15.94a91,91,0,0,0-6.24,24.81,42.07,42.07,0,0,1,6.24-24.81Zm-6.2,5.79a47.28,47.28,0,0,0-2.62,21.54,26.3,26.3,0,0,1,2.62-21.54Zm5.73,7.07a54,54,0,0,0-3.06,16,23,23,0,0,1,3.06-16ZM38,101.65a77.1,77.1,0,0,0-6.68,20.6A35.75,35.75,0,0,1,38,101.65Zm-.64-2.28A41.71,41.71,0,0,0,30.2,116.5a23.06,23.06,0,0,1,7.16-17.13ZM49.08,93.9q-8,9.12-12.22,24.64,1.19-16,12.22-24.64ZM37,110a46.31,46.31,0,0,0-2.81,13.45A19.58,19.58,0,0,1,37,110ZM64,79.44a54.52,54.52,0,0,0-10.46,10.1A23,23,0,0,1,64,79.44Zm-.4-7.32a46.58,46.58,0,0,0-13,14.2,25.6,25.6,0,0,1,13-14.2ZM71,70.53A91.15,91.15,0,0,0,53.74,85.59,42.12,42.12,0,0,1,71,70.53ZM93.06,51.15A87.86,87.86,0,0,0,77.83,67.83,40.48,40.48,0,0,1,93.06,51.15Zm.42-2.32A47.87,47.87,0,0,0,79.33,62.15,26.32,26.32,0,0,1,93.48,48.83Zm13.21-1q-11.4,5.66-22.12,18.5Q92.73,52,106.69,47.82ZM88.49,58.49A51,51,0,0,0,80,69.92a21.62,21.62,0,0,1,8.53-11.43Zm42.06-17.83a27.61,27.61,0,0,1-15.47-.8,66.2,66.2,0,0,0,15.47.8Zm5.5,5.49A31.36,31.36,0,0,1,115.5,44a57.13,57.13,0,0,0,20.55,2.17Zm6.55-3.41a49.92,49.92,0,0,1-24.26-.16,108.73,108.73,0,0,0,24.26.16Zm3.14-17.91a48.63,48.63,0,0,0-8.83,8.72,22.51,22.51,0,0,1,8.83-8.72Zm.3-1.25a26.62,26.62,0,0,0-8.13,6.91A14.57,14.57,0,0,1,146,23.58Zm7.23-.23a39.17,39.17,0,0,0-12.64,9.54q4.91-7.63,12.64-9.54ZM143,28.72a28.6,28.6,0,0,0-5,6,12,12,0,0,1,5-6ZM175.48,9.47A26.29,26.29,0,0,0,166.11,13a13.9,13.9,0,0,1,9.37-3.49ZM168,11.3A29.92,29.92,0,0,0,158,17.69,16,16,0,0,1,168,11.3Zm64.23,14.21a39,39,0,0,0-8.12,4.54,18,18,0,0,1,8.12-4.54Zm1.95,12.3a25.43,25.43,0,0,1-12.33-2.35,55.08,55.08,0,0,0,12.33,2.35Zm4.08-1.31a25.79,25.79,0,0,1-12.55-1.11A56.11,56.11,0,0,0,238.3,36.5Zm-34.92.77a51,51,0,0,0-11,4.13,23.48,23.48,0,0,1,11-4.13Zm.8-.92a27.23,27.23,0,0,0-9.65,2.89,15,15,0,0,1,9.65-2.89Zm6,2.27a39.66,39.66,0,0,0-14.47,3.51q7.32-4.58,14.47-3.51Zm-10.71.9a29.9,29.9,0,0,0-6.71,3.23,12.63,12.63,0,0,1,6.71-3.23ZM171.7,49a28.5,28.5,0,0,1-13.82,2.23A61.72,61.72,0,0,0,171.7,49Zm1.46.46a17.87,17.87,0,0,1-11.59,2.67,32.65,32.65,0,0,0,11.59-2.67Zm4.23-5.66q-6.24,5.13-16.77,4.82,10.37-1.26,16.77-4.82ZM166.22,49a16,16,0,0,1-8.95.66,37.77,37.77,0,0,0,8.95-.66Zm94.47,1.08a36.72,36.72,0,0,0-8.64.11,15.39,15.39,0,0,1,8.64-.11ZM272,54.14q-6.53-2.87-16.6-3.2,10-1.19,16.6,3.2Zm-6-4.5a60.33,60.33,0,0,0-13.49-1,27.78,27.78,0,0,1,13.49,1Zm31.1,5.51q-7.82,2.26-16.88-1.76,9.65,2.59,16.88,1.76ZM290,57a27.13,27.13,0,0,1-13.11-3A59.39,59.39,0,0,0,290,57Zm21,11.06a11.19,11.19,0,0,1-5.7-2.91,26.37,26.37,0,0,0,5.7,2.91Zm9.35,1.18a19.27,19.27,0,0,1-12.5-3.46,36.33,36.33,0,0,0,12.5,3.46Zm-6.05.82a21,21,0,0,1-9.41-3.83,45.51,45.51,0,0,0,9.41,3.83Zm20.86,22.17a13.52,13.52,0,0,1-7.95-1.78,25.63,25.63,0,0,0,7.95,1.78Zm-3.69.27a14,14,0,0,1-6-2,30.68,30.68,0,0,0,6,2ZM312,95.42a17.49,17.49,0,0,0-3.37-3.16A7.25,7.25,0,0,1,312,95.42Zm2.4,5.76a20.07,20.07,0,0,0-4.85-7.4q4.43,3.28,4.85,7.4Zm-.17-4a27.52,27.52,0,0,0-4.71-5.38,12.74,12.74,0,0,1,4.71,5.38ZM303,83.63a14,14,0,0,1-7.27-4.14A33.54,33.54,0,0,0,303,83.63Zm12,1.82q-8.19.66-16-5a44.33,44.33,0,0,0,16,5Zm-7.81,1a25.91,25.91,0,0,1-12-5.48,56.42,56.42,0,0,0,12,5.48Zm-20.44-8A70.55,70.55,0,0,0,271.21,75a32.24,32.24,0,0,1,15.5,3.42ZM288.4,78a36.69,36.69,0,0,0-12.93-3.78A20.1,20.1,0,0,1,288.4,78Zm-7.92,0a43.23,43.23,0,0,0-10.09-1.34,18,18,0,0,1,10.09,1.34ZM250.8,74.64A32.89,32.89,0,0,1,233,67.42a77.78,77.78,0,0,0,17.76,7.22Zm.64,4.12a36.87,36.87,0,0,1-23-10.87,67.18,67.18,0,0,0,23,10.87Zm11.48,1.34a60.25,60.25,0,0,1-28.43-10,131.09,131.09,0,0,0,28.43,10ZM226,59.1a15.28,15.28,0,0,1-8.6.73,35.94,35.94,0,0,0,8.6-.73ZM236.74,54q-5.94,5-16.09,4.81,10-1.32,16.09-4.81ZM231.33,59A27.58,27.58,0,0,1,218,61.31,59.56,59.56,0,0,0,231.33,59Zm-33,11.59a50,50,0,0,1-23.76,7.45,109.06,109.06,0,0,0,23.76-7.45Zm2.73.43a31.05,31.05,0,0,1-19.67,7.67A56.57,56.57,0,0,0,201.07,71Zm5.67-11.1q-9.41,10.68-28.16,12.8,18-4.87,28.16-12.8ZM188.62,72A28.17,28.17,0,0,1,173,75.49,67.06,67.06,0,0,0,188.62,72Zm-22.93,1.3A112.37,112.37,0,0,0,145,79.61a47,47,0,0,1,20.7-6.27ZM171,71.7a114.46,114.46,0,0,0-21.4,4,47.78,47.78,0,0,1,21.4-4ZM138.36,84.37a99.72,99.72,0,0,0-20.19,13.35,45.87,45.87,0,0,1,20.19-13.35Zm1.1-2.25a54.13,54.13,0,0,0-18.13,10.22,29.74,29.74,0,0,1,18.13-10.22Zm13.6,2q-13.12,3.11-27.66,13.62,12.39-12.61,27.66-13.62Zm-21.44,6.62a58.34,58.34,0,0,0-11.91,9.58,24.57,24.57,0,0,1,11.91-9.58ZM112,109.44a96.45,96.45,0,0,0,21.23-5.93A44.46,44.46,0,0,1,112,109.44Zm9.93-4.7a57.52,57.52,0,0,0,13.32-4.4,24.36,24.36,0,0,1-13.32,4.4Zm-2.43,5.59A51.55,51.55,0,0,0,137.79,106a28.2,28.2,0,0,1-18.33,4.36Zm57.6-10.52A112.43,112.43,0,0,0,152,102.36a51.66,51.66,0,0,1,25.05-2.55Zm2.24-1.44a59.48,59.48,0,0,0-21.49.75,32.59,32.59,0,0,1,21.49-.75Zm-11.68,3.93a67.46,67.46,0,0,0-15.75,3,28.27,28.27,0,0,1,15.75-3Zm182.75,62.45a25.63,25.63,0,0,1-13.14-8.29,60.84,60.84,0,0,0,13.14,8.29Zm-.2,3.44c-7.82-2.88-13.85-7.21-16.77-12a52.34,52.34,0,0,0,16.77,12Zm9.21,2.21c-8.23-2.18-15.75-5.91-21.44-11.6a101.71,101.71,0,0,0,21.44,11.6Zm-16-29.58a17.24,17.24,0,0,1-9.53,2.49,41.14,41.14,0,0,0,9.53-2.49Zm1.8,1.39a19.9,19.9,0,0,1-12.92,2.65,36.48,36.48,0,0,0,12.92-2.65Zm4.9-2.89a30.88,30.88,0,0,1-14.67,4.58,67.59,67.59,0,0,0,14.67-4.58Zm-36.58-1.23a74.3,74.3,0,0,0-15.76-7.77,34.23,34.23,0,0,1,15.76,7.77ZM318,146.5q-6.12-6.67-18.13-12,12.94,3.49,18.13,12Zm-11.14-10.45A46.27,46.27,0,0,0,296.3,132a19.4,19.4,0,0,1,10.55,4.09Zm-29.28-14.74a37.86,37.86,0,0,1-17-10,82.06,82.06,0,0,0,17,10Zm-10.95-1.22a20.39,20.39,0,0,1-10.11-7.26,48.21,48.21,0,0,0,10.11,7.26Zm17.66,4.47q-12.37-.19-23-9.88,12.3,7.91,23,9.88Zm-10.46-17.44a45.38,45.38,0,0,0-10.58-1.85,19,19,0,0,1,10.58,1.85Zm1.8-1.66a39.7,39.7,0,0,0-14.27-1.71,21.76,21.76,0,0,1,14.27,1.71Zm5.61,2.68a74.23,74.23,0,0,0-16.37-3.64,34.2,34.2,0,0,1,16.37,3.64Zm-43.63-1.35A81.35,81.35,0,0,0,218.52,103a34.23,34.23,0,0,1,19.08,3.75Zm3.34-3a71.92,71.92,0,0,0-25.78-3.64,39.4,39.4,0,0,1,25.78,3.64ZM251,108.92a134.14,134.14,0,0,0-29.51-7.22A61.46,61.46,0,0,1,251,108.92ZM24.86,266.79a31.62,31.62,0,0,0,8.82,14,16.72,16.72,0,0,1-8.82-14Zm21.35,29.9A23.33,23.33,0,0,0,54,305.51a12.31,12.31,0,0,1-7.83-8.82Zm-6.84-3.07a23.28,23.28,0,0,0,7.82,8.81,12.28,12.28,0,0,1-7.82-8.81ZM20.46,266.38a197.24,197.24,0,0,0,18.22,27.53,58,58,0,0,1-18.22-27.53ZM38.76,296A33.33,33.33,0,0,0,50,308.59c-5.89-2.3-10.1-7-11.22-12.64ZM38,275.39a48.51,48.51,0,0,0,6.61,16.26A17.07,17.07,0,0,1,38,275.39Zm5.91,9.36a33.41,33.41,0,0,0,11.22,12.64c-5.89-2.3-10.1-7-11.22-12.64Zm-7-18.3A195.77,195.77,0,0,0,55.07,294a58,58,0,0,1-18.22-27.53ZM29.41,218q-.19,11.53,7,26.19-10-13.46-7-26.19ZM23,231.14l-.31-1.28a118.14,118.14,0,0,0,14.56,35.52A50.59,50.59,0,0,1,23,231.14Zm-4.14,21.44a31.64,31.64,0,0,0,8.83,14,16.71,16.71,0,0,1-8.83-14ZM22.05,241a74.83,74.83,0,0,0,10.3,25.83A35.79,35.79,0,0,1,22.05,241ZM9.36,221.41a64.65,64.65,0,0,0,10.4,31c-8.46-8.47-12.26-19.8-10.4-31Zm8.43.78q3.62,13.94,3.61,13.94a29.6,29.6,0,0,1-3.61-13.94Zm-3.34-22.36a309.94,309.94,0,0,0,13.87,37.42,108.2,108.2,0,0,1-13.87-37.42Zm-4.72-6a99.54,99.54,0,0,0,2.84,30.58,46.82,46.82,0,0,1-2.84-30.58Zm4.69,18.77a126.23,126.23,0,0,0,5.94,32.75,51.76,51.76,0,0,1-5.94-32.75Zm25.36-19.43a58.83,58.83,0,0,0-8.24,26.37,36.06,36.06,0,0,1,8.24-26.37ZM11.26,156.52Q10.09,168,16,183.09,7.23,169,11.26,156.52Zm-5.11,18.3a40,40,0,0,0,1.33,18.23,22.09,22.09,0,0,1-1.33-18.23Zm2.69-6.88a74.93,74.93,0,0,0,2.61,21.3,34.81,34.81,0,0,1-2.61-21.3Zm3.55,10.38a46.06,46.06,0,0,0,2.45,13.51,19.44,19.44,0,0,1-2.45-13.51ZM95,312.68a17.58,17.58,0,0,1,7.39,8.69A42.85,42.85,0,0,0,95,312.68Zm7.39,6.89A33.58,33.58,0,0,1,113,338.42a66.4,66.4,0,0,0-10.62-18.85Zm13-10.09H118l.26,0,.25,0,.26,0,.25,0,.26,0,.25,0,.25,0,.26,0,.25,0h0l.25,0,.25,0,.25,0,.25,0,.25.05.25,0h0l.25.05.25.05h0l.25.06h0l.24.05h0l.25.06h0l.24.07.25.06.24.07.25.06h0l.24.07h0l.24.07.24.07h0l.24.08h0l.24.08h0l.24.08h0l.23.08h0l.24.09h0l.24.08h0l.23.09.23.09h0l.24.1h0l.23.09.23.1h0l.23.1.23.1.22.11h0l.23.1h0l.23.11.22.11h0l.22.11.22.12h0l.22.11.22.12h0l.22.12.22.13.21.12.22.12h0l.21.13.21.13c-1.38-.55-2.78-1.05-4.21-1.51l-.21-.06h0a70.53,70.53,0,0,0-11-2.51Zm5.78,3.09.49.08h0l.49.08h0l.49.08.49.09h0l.48.09.49.1h0l.48.1.49.1h0l1,.22h0l.48.12h0l.47.12h0l.48.12h0c.63.17,1.26.35,1.88.54h0c.47.15.94.29,1.4.45h0l.46.15h0a56.83,56.83,0,0,1,7.13,3h0c1.14.58,2.25,1.2,3.35,1.86h0l.4.25h0l.41.25.8.51-.8-.51.8.51h0l.4.26h0l.39.27h0l.39.27h0l.39.27h0l.39.27h0l.38.29h0l.38.28h0l.38.28h0l.37.29.37.29h0l.37.3h0l.37.3.36.3h0l.36.31.36.31-.4-.26-.4-.25-.4-.25-.4-.25-.4-.24-.41-.25-.41-.24-.4-.24-.41-.24-.41-.24h0l-.41-.24-.41-.23-.42-.24-.41-.23-.42-.23h0l-.41-.22h0l-.42-.23h0l-.42-.22-.42-.22h0l-.42-.23-.42-.21h0l-.43-.22-.42-.21-.43-.22h0l-.43-.21h0l-.42-.21h0l-.43-.21-.43-.2-.43-.21h0l-.44-.2-.43-.2-.44-.2h0l-.43-.19h0l-.44-.2h0l-.44-.19h0l-.44-.19h0l-.44-.19h0l-.44-.19h0l-.44-.19h0l-.44-.18h0l-.45-.18h0l-.44-.18h0l-.45-.18-.45-.17h0l-.44-.17-.45-.17h0l-.45-.17h0l-.45-.17-.46-.17h0l-.45-.16-.45-.17-.46-.16-.45-.16-.46-.15h0l-.46-.16h0l-.46-.15-.45-.15-.46-.15-.47-.15h0l-.46-.15-.46-.14h0l-.46-.14-.47-.14-.46-.14ZM97.88,329.31a17.66,17.66,0,0,1,2.53,14.32,32,32,0,0,0-2.53-14.32Zm-5.43,1.1a31.36,31.36,0,0,1,3.4,20.85,61.75,61.75,0,0,0-3.4-20.85Zm-.38-4.54A15.93,15.93,0,0,1,96,336.16a38.59,38.59,0,0,0-3.94-10.29Zm2.52-.16A28.2,28.2,0,0,1,99,342.26a61,61,0,0,0-4.38-16.55Zm11.62,50.16a22,22,0,0,1,7.07-12.27,43.32,43.32,0,0,0-7.07,12.27ZM120.7,345a11.64,11.64,0,0,1-.06,9.63,21.17,21.17,0,0,0,.06-9.63Zm-3.7.21a20.63,20.63,0,0,1-.27,14,40.59,40.59,0,0,0,.27-14Zm.3-3a10.26,10.26,0,0,1,1.35,7.11,24.85,24.85,0,0,0-1.35-7.11Zm1.67.12a18.32,18.32,0,0,1,.89,11.27,40,40,0,0,0-.89-11.27Zm18.44,34.33a12.5,12.5,0,0,1-.28,7.67,27,27,0,0,0,.28-7.67Zm-1.56,1.83a14.15,14.15,0,0,1-1.27,9.44,28.08,28.08,0,0,0,1.27-9.44Zm.44-2a6.89,6.89,0,0,1,.35,4.89,17.1,17.1,0,0,0-.35-4.89Zm.43-25.13a17,17,0,0,1,3.19,13.63,30.8,30.8,0,0,0-3.19-13.63Zm-5.15,1.29A30.21,30.21,0,0,1,136,372.43a59.49,59.49,0,0,0-4.38-19.84Zm-.6-4.34a15.43,15.43,0,0,1,4.32,9.7,37.54,37.54,0,0,0-4.32-9.7Zm2.41-.26a27.34,27.34,0,0,1,5.08,15.69A59,59,0,0,0,133.38,348Zm13.14-5a14.27,14.27,0,0,1,5,6.29,31,31,0,0,0-5-6.29Zm-1,.45a8.13,8.13,0,0,1,3.62,3.72,20.21,20.21,0,0,0-3.62-3.72Zm4.55,4.62a12.77,12.77,0,0,1,2.19,7.44,27.74,27.74,0,0,0-2.19-7.44Zm-20.11-9.9a12,12,0,0,1,6.18-6.38,21.93,21.93,0,0,0-6.18,6.38Zm2.6,1.7a21.27,21.27,0,0,1,9.1-9.18,41.9,41.9,0,0,0-9.1,9.18Zm-2.12,1.86a9.81,9.81,0,0,1,3.64-5.41,23.89,23.89,0,0,0-3.64,5.41Zm-1-.92a18.24,18.24,0,0,1,6.6-7.94,39.42,39.42,0,0,0-6.6,7.94Zm24.46,46.44a14.42,14.42,0,0,1-.9,8.85,30.77,30.77,0,0,0,.9-8.85Zm-1.28-.28a8,8,0,0,1,.05,5.67,19.24,19.24,0,0,0-.05-5.67Zm6.63-5.46a35.56,35.56,0,0,0,2.4,9.73,16.44,16.44,0,0,1-2.4-9.73Zm1.38-.48a21.51,21.51,0,0,0,.85,6.32,9,9,0,0,1-.85-6.32Zm27.36,2a37.44,37.44,0,0,0-6.72-6.71,17.2,17.2,0,0,1,6.72,6.71Zm-2.94-.62a39.64,39.64,0,0,0-9.1-7.65,20,20,0,0,1,9.1,7.65Zm2.09,1.52a23.19,23.19,0,0,0-3.8-4.63,9.24,9.24,0,0,1,3.8,4.63Zm-8.58-30.44a16.35,16.35,0,0,1-3.3,12.95,29.37,29.37,0,0,0,3.3-12.95Zm-1.44-4a25.39,25.39,0,0,1-2.56,15.39,54.69,54.69,0,0,0,2.56-15.39Zm-19.59-14.85a54.44,54.44,0,0,1,27.78,12.61,108.11,108.11,0,0,0-27.78-12.61Zm-5.77-3.09a28,28,0,0,1,15.42,4.1,69.17,69.17,0,0,0-15.42-4.1Zm1.71-2.5a49.48,49.48,0,0,1,23.34,8.44A107.76,107.76,0,0,0,153.42,329Zm14.44-3.65a52.14,52.14,0,0,0,18.78-2.13,28.54,28.54,0,0,1-18.78,2.13Zm-5.58-2.06a99.11,99.11,0,0,0,22.18-1,45.63,45.63,0,0,1-22.18,1Zm35.87,31.39a10.73,10.73,0,0,1-4.74-5.22,26.58,26.58,0,0,0,4.74,5.22ZM194,353.9a12.08,12.08,0,0,1-5-8,22,22,0,0,0,5,8Zm2.94-1.7a21.34,21.34,0,0,1-7.14-11.66,42.22,42.22,0,0,0,7.14,11.66Zm-.11,3.19a19.47,19.47,0,0,1-6.66-8.94,42.1,42.1,0,0,0,6.66,8.94Zm2.33,5.67a75.23,75.23,0,0,0,15.53,9.1,34.61,34.61,0,0,1-15.53-9.1Zm5.56-.13A79.14,79.14,0,0,0,225,370.7a40,40,0,0,1-20.27-9.77Zm-4.54-1.83a45.67,45.67,0,0,0,9.24,6.63,18.55,18.55,0,0,1-9.24-6.63ZM221,376.92a65.27,65.27,0,0,0,14.4,4.09,30.14,30.14,0,0,1-14.4-4.09Zm4.31-1.18a68.34,68.34,0,0,0,18.27,3.69,34.44,34.44,0,0,1-18.27-3.69Zm-4-.55a39.92,39.92,0,0,0,8.88,3.38,16.4,16.4,0,0,1-8.88-3.38Zm30.6,4.8a16.94,16.94,0,0,1,9.45,1.2,41.61,41.61,0,0,0-9.45-1.2Zm-13.44-8.33a31.55,31.55,0,0,1,16.85,1.47,62.25,62.25,0,0,0-16.85-1.47Zm-3.61-.55a15.44,15.44,0,0,1,8.7-.64,37.88,37.88,0,0,0-8.7.64ZM248,388.74a10.6,10.6,0,0,1,3.63,7.65,19.08,19.08,0,0,0-3.63-7.65Zm-3.76-1.21a9.82,9.82,0,0,1,3.79,5.24,23.92,23.92,0,0,0-3.79-5.24Zm1.38-.39a17.07,17.07,0,0,1,5,8.67,37.26,37.26,0,0,0-5-8.67Zm-41.5-35a62.23,62.23,0,0,0,13.82,1.4,28.54,28.54,0,0,1-13.82-1.4Zm3.65-1.75a64.07,64.07,0,0,0,17.22.43,32.27,32.27,0,0,1-17.22-.43Zm-3.72.14a37.91,37.91,0,0,0,8.69,1.64,15.61,15.61,0,0,1-8.69-1.64Zm53,8.08a56.57,56.57,0,0,0,12.11,5.6,26.11,26.11,0,0,1-12.11-5.6Zm4-.46a60.09,60.09,0,0,0,15.62,5.77,30.21,30.21,0,0,1-15.62-5.77Zm-3.47-1a34.55,34.55,0,0,0,7.31,4.22,14.07,14.07,0,0,1-7.31-4.22Zm30.61,4.52a17.08,17.08,0,0,1,11.16,1.45,31.14,31.14,0,0,0-11.16-1.45Zm-3.74,2.67a15.09,15.09,0,0,1,8.45-.19,36.73,36.73,0,0,0-8.45.19Zm3.45.7a30.42,30.42,0,0,1,16.19,2.27A60.74,60.74,0,0,0,288,365Zm-3.06-2.19a27.08,27.08,0,0,1,13.2.83,58.9,58.9,0,0,0-13.2-.83Zm30.21-2.47a14.47,14.47,0,0,1,7.74,3.58,35,35,0,0,0-7.74-3.58Zm-.75-1.41a26,26,0,0,1,12,5.78,56.54,56.54,0,0,0-12-5.78Zm-20.5-9.58a59.73,59.73,0,0,0,15.62,5.77,30.09,30.09,0,0,1-15.62-5.77Zm-3.47-1a34.47,34.47,0,0,0,7.3,4.22,14,14,0,0,1-7.3-4.22Zm5.18-13.23a17.27,17.27,0,0,1-9.67-1.46,42.33,42.33,0,0,0,9.67,1.46Zm-4.94,2.3a19.21,19.21,0,0,1-12.34-3.86,35.1,35.1,0,0,0,12.34,3.86Zm1.18-3.79A34.26,34.26,0,0,1,274,327.83a68,68,0,0,0,17.86,5.78Zm2.93,3.11A30.86,30.86,0,0,1,280,333.17a67,67,0,0,0,14.82,3.55Zm3.73-4.41a53.83,53.83,0,0,0,10.89-3.17,24.5,24.5,0,0,1-10.89,3.17Zm1.93-2.27a52.69,52.69,0,0,0,13-4.83,26.45,26.45,0,0,1-13,4.83Zm-2.7,1.2a34.27,34.27,0,0,0,7.18-1.47,14.1,14.1,0,0,1-7.18,1.47ZM334,327.46a33.91,33.91,0,0,0-6.95,4.66,15.83,15.83,0,0,1,6.95-4.66Zm-2.68.72a34.89,34.89,0,0,0-7,4.66,16,16,0,0,1,7-4.66Zm.42,11a12.49,12.49,0,0,1,7.69,4.22,22.77,22.77,0,0,0-7.69-4.22Zm-11.12-1.55a23.66,23.66,0,0,1,12.44,3.75,46.88,46.88,0,0,0-12.44-3.75Zm-2.62-1a12,12,0,0,1,6.71.87,29.67,29.67,0,0,0-6.71-.87Zm.54-1.13a21.46,21.46,0,0,1,10.3,2.25,46.51,46.51,0,0,0-10.3-2.25Zm23.12,10a9.39,9.39,0,0,1,4.74,3.17,23.07,23.07,0,0,0-4.74-3.17Zm1.55,1.73a17.92,17.92,0,0,1,7.77,7.51,35.34,35.34,0,0,0-7.77-7.51Zm-.59-2.4a16.43,16.43,0,0,1,6.84,5.57,36,36,0,0,0-6.84-5.57ZM321,322.36a14.71,14.71,0,0,1,7.95-3.2,35.85,35.85,0,0,0-7.95,3.2Zm-.31-1.56a27.13,27.13,0,0,1,12.93-3.93,58.81,58.81,0,0,0-12.93,3.93Zm37.66,8.66a6.47,6.47,0,0,1,3.51,1.18,15.93,15.93,0,0,0-3.51-1.18Zm1.29.81a12.4,12.4,0,0,1,6.21,3.34,24.26,24.26,0,0,0-6.21-3.34Zm-.84-1.36a11.25,11.25,0,0,1,5.27,2.31,24.85,24.85,0,0,0-5.27-2.31Zm-22.33-3.05a26.23,26.23,0,0,1,10.16-.79,58.27,58.27,0,0,0-10.16.79Zm2.67,1a29.81,29.81,0,0,1,12.65-.21,59.44,59.44,0,0,0-12.65.21Zm-2.73-.08a14.06,14.06,0,0,1,6.39-.94,34.55,34.55,0,0,0-6.39.94Zm-36-14a31.81,31.81,0,0,1,17.12-3.28,122.33,122.33,0,0,0-17.12,3.28Zm-35,9.21a68.59,68.59,0,0,0,15.36-4.28,27.8,27.8,0,0,1-15.36,4.28Zm1.41,2.39A106.82,106.82,0,0,0,290,315.73a49.26,49.26,0,0,1-23.21,8.71Zm-10.53,22a10.77,10.77,0,0,1-1.95-7.26,26.22,26.22,0,0,0,1.95,7.26Zm-3.72-2.68a12,12,0,0,1-.69-9.94,21.62,21.62,0,0,0,.69,9.94Zm3.79-.45a21.33,21.33,0,0,1-.81-14.45,42.08,42.08,0,0,0,.81,14.45Zm-1.81,3.1a19.15,19.15,0,0,1-1.79-11.57,41.18,41.18,0,0,0,1.79,11.57ZM197.13,342a76.36,76.36,0,0,0,16.17-7.57A34.94,34.94,0,0,1,197.13,342Zm2.48-4.29A61.53,61.53,0,0,0,215,329a31,31,0,0,1-15.34,8.76Zm-3.92,2.6a48.66,48.66,0,0,0,10.81-3.94,19.91,19.91,0,0,1-10.81,3.94Zm2.93-15.11a50.37,50.37,0,0,0,11.16,1.4,23.1,23.1,0,0,1-11.16-1.4Zm3-1.35a52.08,52.08,0,0,0,13.94.68,26.09,26.09,0,0,1-13.94-.68Zm24.53,2.89a51.14,51.14,0,0,0,18.42-.23,28,28,0,0,1-18.42.23ZM221,324.21a96.64,96.64,0,0,0,21.56,1.16A44.23,44.23,0,0,1,221,324.21Zm-28.65,14.54c-7.53-1.33-18.87-5.39-27.53-8.62,8.21-2,28.74-3.37,43.95-1.1a34.46,34.46,0,0,0-16.42,9.72Zm176.8-167.48,7.33.47A16,16,0,0,1,369.17,171.27Z"/><path class="cls-5" d="M403.36,168.26a14.57,14.57,0,0,1,7.76-1.72,11.18,11.18,0,0,0-8.59,1.13,11.38,11.38,0,0,1,8.6-4.6,11.86,11.86,0,0,1,9.27,3.43A13.69,13.69,0,0,1,403.36,168.26Z"/><path class="cls-5" d="M155.38,91.4a14.67,14.67,0,0,1,7.73-1.84,11.22,11.22,0,0,0-8.57,1.26,11.36,11.36,0,0,1,8.5-4.73,11.89,11.89,0,0,1,9.34,3.28A13.66,13.66,0,0,1,155.38,91.4Z"/><path class="cls-5" d="M339.73,56.39a17.67,17.67,0,0,1,9.38.2A13.18,13.18,0,0,0,339,55.5a14.15,14.15,0,0,1,11.33-2.82,12.85,12.85,0,0,1,9.27,6.42C353.21,63,344.5,61.8,339.73,56.39Z"/><path class="cls-5" d="M138.33,126.44a20,20,0,0,0,9.87-5.93,14.73,14.73,0,0,1-9.94,7.33,17.94,17.94,0,0,0,14.31-3.9,13.61,13.61,0,0,0,4.88-12.51C147.58,111.18,139.2,117.76,138.33,126.44Z"/><path class="cls-5" d="M100,137a20.22,20.22,0,0,0,9.87-5.93,14.75,14.75,0,0,1-10,7.33,18,18,0,0,0,14.32-3.9A13.63,13.63,0,0,0,119.16,122C109.29,121.78,100.91,128.36,100,137Z"/><path class="cls-5" d="M200.36,143.4a14.06,14.06,0,0,1,7.23,3,10.37,10.37,0,0,0-7.44-4,12.3,12.3,0,0,1,9.94,1.29,9.5,9.5,0,0,1,4.68,7.85C208.26,152.68,201.94,149.08,200.36,143.4Z"/><path class="cls-5" d="M181.46,140.46a11.64,11.64,0,0,1,4.31,6,8.6,8.6,0,0,0-3.94-6.84,10.81,10.81,0,0,1,7.67,5.74,8.82,8.82,0,0,1-.73,8.85C182.61,152,179.4,146,181.46,140.46Z"/><path class="cls-5" d="M221,123.54a15,15,0,0,0,8-.14,11.27,11.27,0,0,1-8.62.91,12.12,12.12,0,0,0,9.66,2.43,11,11,0,0,0,7.92-5.46C232.54,118,225.11,118.94,221,123.54Z"/><path class="cls-5" d="M226.11,141.16a14.08,14.08,0,0,0,7.12,3.23,10.86,10.86,0,0,1-8.08-2.82,10.59,10.59,0,0,0,7.19,6.2,12.32,12.32,0,0,0,9.91-1.47C239.26,141.08,232.18,138.83,226.11,141.16Z"/><path class="cls-5" d="M213.5,127.46a13.44,13.44,0,0,0,6.55,4.06,10.48,10.48,0,0,1-7.57-3.77,10.06,10.06,0,0,0,6.17,7,12.37,12.37,0,0,0,10-.26C226.53,129,219.87,125.88,213.5,127.46Z"/><path class="cls-5" d="M205.24,87.65A20.26,20.26,0,0,1,215,81.28a15.72,15.72,0,0,0-11.3,6,15.15,15.15,0,0,1,9-10.82,18.83,18.83,0,0,1,15.23.07C224.93,84.94,215,89.83,205.24,87.65Z"/><path class="cls-5" d="M251.5,99.2a18.46,18.46,0,0,1,8.92-5.83,14.41,14.41,0,0,0-10.34,5.45,13.86,13.86,0,0,1,8.28-9.89,17.16,17.16,0,0,1,13.93.06C269.51,96.71,260.4,101.19,251.5,99.2Z"/><path class="cls-5" d="M281,113.86a17.72,17.72,0,0,0,9.17,3.51,13.72,13.72,0,0,1-10.33-2.92,13.5,13.5,0,0,0,9.54,7.19,15.21,15.21,0,0,0,12.21-2.56C297.39,112.81,288.36,110.52,281,113.86Z"/><path class="cls-5" d="M288.29,107.65a16.18,16.18,0,0,1,7.83-5.11,12.64,12.64,0,0,0-9.08,4.78,12.19,12.19,0,0,1,7.26-8.68,15.11,15.11,0,0,1,12.22.06C304.08,105.47,296.09,109.4,288.29,107.65Z"/><path class="cls-5" d="M337,150.29a15,15,0,0,1,8,.28,11.26,11.26,0,0,0-8.61-1.06,12.21,12.21,0,0,1,9.72-2.27,10.93,10.93,0,0,1,7.8,5.59C348.38,156.07,341,155,337,150.29Z"/><path class="cls-5" d="M369.55,168.36a13.91,13.91,0,0,1,7.09-3.29,10.8,10.8,0,0,0-8.05,2.88,10.5,10.5,0,0,1,7.12-6.25,12.29,12.29,0,0,1,9.92,1.39C382.7,168.33,375.64,170.64,369.55,168.36Z"/><path class="cls-5" d="M393.75,172.47a14.29,14.29,0,0,1,7.18,3.62,10.49,10.49,0,0,0-7.31-4.58,12.58,12.58,0,0,1,10.11,2,9.6,9.6,0,0,1,4.14,8.4C401.08,182.56,394.89,178.42,393.75,172.47Z"/><path class="cls-5" d="M70.51,116.57a13.27,13.27,0,0,1,6-5.08,10.35,10.35,0,0,0-7.09,4.92,10,10,0,0,1,5.08-8,12.85,12.85,0,0,1,10.35-1.13C83.61,113.21,77.33,117.3,70.51,116.57Z"/><path class="cls-5" d="M61.58,118.24a10.86,10.86,0,0,1-.92-7.29,8.3,8.3,0,0,0,.11,8,9.65,9.65,0,0,1-4.14-8.45,10,10,0,0,1,5.28-7.94A10.51,10.51,0,0,1,61.58,118.24Z"/><path class="cls-5" d="M72.73,102.1a12.25,12.25,0,0,1,4.74-6,9.67,9.67,0,0,0-5.85,6.06,9.43,9.43,0,0,1,3.18-8.78,12.5,12.5,0,0,1,9.89-2.91C84.82,96.52,79.58,101.62,72.73,102.1Z"/><path class="cls-5" d="M115.09,82.5A14.87,14.87,0,0,1,110.62,74a11,11,0,0,0,3.81,9.57,13.69,13.69,0,0,1-8.91-8.7,11.81,11.81,0,0,1,2.71-11.49C115.88,67.16,118.89,75.53,115.09,82.5Z"/><path class="cls-5" d="M125.77,74.33a14.06,14.06,0,0,1,4.23-8,11,11,0,0,0-5.53,8.23,11,11,0,0,1,1.74-11,14.39,14.39,0,0,1,11-5.22C138.81,65.55,133.77,72.54,125.77,74.33Z"/><path class="cls-5" d="M152.37,38.35a15.41,15.41,0,0,1,7.88-3.13,11.86,11.86,0,0,0-8.89,2.63,11.63,11.63,0,0,1,8.16-6.31,13.21,13.21,0,0,1,10.58,2.09C166.53,39.1,158.76,41.17,152.37,38.35Z"/><path class="cls-5" d="M181.84,24.29a15.19,15.19,0,0,1,7.64,3.58,11.06,11.06,0,0,0-7.81-4.58,13.24,13.24,0,0,1,10.64,1.81,10.1,10.1,0,0,1,4.63,8.66C189.87,34.63,183.25,30.48,181.84,24.29Z"/><path class="cls-5" d="M199.39,22.15A15,15,0,0,1,207,25.73a11.06,11.06,0,0,0-7.81-4.58A13.22,13.22,0,0,1,209.86,23a10.16,10.16,0,0,1,4.63,8.66C207.41,32.48,200.79,28.33,199.39,22.15Z"/><path class="cls-5" d="M188.25,18.11a9.21,9.21,0,0,1,3-5.09,7.26,7.26,0,0,0-3.89,5.21,7.24,7.24,0,0,1,1.51-7.1A9.51,9.51,0,0,1,196.28,8C197.05,12.73,193.52,17.15,188.25,18.11Z"/><path class="cls-5" d="M199.15,9.24a16.93,16.93,0,0,1,8.9,2.61,12.58,12.58,0,0,0-9.3-3.66,14.6,14.6,0,0,1,11.78.23A11.67,11.67,0,0,1,217.26,17C209.86,19,201.92,15.64,199.15,9.24Z"/><path class="cls-5" d="M211.82,4.81a17.55,17.55,0,0,1,9.34-.76A13.3,13.3,0,0,0,211,4,13.85,13.85,0,0,1,221.87,0a13.31,13.31,0,0,1,10,5.43A16.09,16.09,0,0,1,211.82,4.81Z"/><path class="cls-5" d="M258.14,34A10.87,10.87,0,0,1,262,28.38a8.54,8.54,0,0,0-4.88,5.71,8.39,8.39,0,0,1,2.32-8,11.09,11.09,0,0,1,8.7-3.07C268.65,28.44,264.25,33.26,258.14,34Z"/><path class="cls-5" d="M235.81,32.37a13.51,13.51,0,0,1,7-2.35A10.33,10.33,0,0,0,235,31.9a10.22,10.22,0,0,1,7.38-5.08,11.28,11.28,0,0,1,9,2.26C248,33.64,241.16,35.08,235.81,32.37Z"/><path class="cls-5" d="M240.19,20.25a13.89,13.89,0,0,1,5.35-6.8,10.9,10.9,0,0,0-6.6,6.84,10.64,10.64,0,0,1,3.58-9.91,14.08,14.08,0,0,1,11.17-3.29C253.84,13.94,247.92,19.71,240.19,20.25Z"/><path class="cls-5" d="M257.31,16.42a15.43,15.43,0,0,1,7.35-5.15,12,12,0,0,0-8.56,4.87,11.56,11.56,0,0,1,6.67-8.57,14.49,14.49,0,0,1,11.77-.3C272.44,13.87,264.89,17.88,257.31,16.42Z"/><path class="cls-5" d="M271.13,32.83a17.5,17.5,0,0,1,9.36-.59A13.28,13.28,0,0,0,270.3,32a14,14,0,0,1,11-3.76,13.21,13.21,0,0,1,9.91,5.61A16.07,16.07,0,0,1,271.13,32.83Z"/><path class="cls-5" d="M274.18,20.24a17.58,17.58,0,0,1,9.38.37,13.14,13.14,0,0,0-10.08-1.28,14.23,14.23,0,0,1,11.4-2.61A12.79,12.79,0,0,1,294,23.31C287.51,27.08,278.82,25.73,274.18,20.24Z"/><path class="cls-5" d="M365.69,139.52a11.13,11.13,0,0,1,3.16,6.5,8.28,8.28,0,0,0-2.63-7.31,10.2,10.2,0,0,1,6.5,6.76,9,9,0,0,1-2.35,8.63C364.69,151.1,362.64,144.71,365.69,139.52Z"/><path class="cls-5" d="M403.62,141.28A14.53,14.53,0,0,1,411.2,139a11.14,11.14,0,0,0-8.46,1.75,11.07,11.07,0,0,1,8.14-5.2,12,12,0,0,1,9.56,2.74C416.61,143.06,409.24,144.37,403.62,141.28Z"/><path class="cls-5" d="M381.31,147.65a12.29,12.29,0,0,1,5.25,5.34,9,9,0,0,0-5-6.26,11.31,11.31,0,0,1,8.52,4.69,8.78,8.78,0,0,1,.74,8.85C384.36,158.94,380.2,153.41,381.31,147.65Z"/><path class="cls-5" d="M403.15,149.42a13.67,13.67,0,0,1,6.77,3.79,10,10,0,0,0-6.85-4.72,12.11,12.11,0,0,1,9.69,2.33,9.21,9.21,0,0,1,3.59,8.29C409.74,159.47,404,155.23,403.15,149.42Z"/><path class="cls-5" d="M341.22,139.45a11.55,11.55,0,0,1,4-6.14,9.06,9.06,0,0,0-5,6.26,9,9,0,0,1,2.2-8.66,11.84,11.84,0,0,1,9.22-3.55C352.29,133.18,347.75,138.47,341.22,139.45Z"/><path class="cls-5" d="M375.51,130.79a17.09,17.09,0,0,1,9-1.76,13,13,0,0,0-9.95,1.05A13.26,13.26,0,0,1,384.67,125a13.55,13.55,0,0,1,10.56,4.23A15.81,15.81,0,0,1,375.51,130.79Z"/><path class="cls-5" d="M383.65,142.41a15,15,0,0,1,8,.86,11.14,11.14,0,0,0-8.48-1.67A12.28,12.28,0,0,1,393,140a10.59,10.59,0,0,1,7.26,6.13C394.48,149,387.19,147.35,383.65,142.41Z"/><path class="cls-5" d="M396.14,121.88a17.5,17.5,0,0,1,9.36-.52,13.21,13.21,0,0,0-10.18-.32,14,14,0,0,1,11-3.68,13.21,13.21,0,0,1,9.86,5.7A16.09,16.09,0,0,1,396.14,121.88Z"/><path class="cls-5" d="M316.85,118.22a12.77,12.77,0,0,1,3.09,7.82,9.57,9.57,0,0,0-2.39-8.74,11.69,11.69,0,0,1,7,8.39A10.66,10.66,0,0,1,321,135.6C314.6,131.68,312.8,124.06,316.85,118.22Z"/><path class="cls-5" d="M320.25,110.7a14.67,14.67,0,0,0,6.47,6,11.54,11.54,0,0,1-7.71-5.87,11.11,11.11,0,0,0,5.25,9.31,14.44,14.44,0,0,0,11.61,1.74C334.84,115.09,328,110.19,320.25,110.7Z"/><path class="cls-5" d="M319,92.35a13.05,13.05,0,0,0,3.93,7.53,10.31,10.31,0,0,1-5.16-7.76,10.39,10.39,0,0,0,1.58,10.31,13.51,13.51,0,0,0,10.35,5C331.19,100.66,326.49,94.07,319,92.35Z"/><path class="cls-5" d="M342.21,97.56a13.14,13.14,0,0,0,3.93,7.52A10.27,10.27,0,0,1,341,97.33a10.36,10.36,0,0,0,1.57,10.31,13.53,13.53,0,0,0,10.36,5C354.41,105.87,349.72,99.28,342.21,97.56Z"/><path class="cls-5" d="M375.85,102a13.17,13.17,0,0,0,3.93,7.53,10.33,10.33,0,0,1-5.15-7.76,10.36,10.36,0,0,0,1.57,10.31,13.54,13.54,0,0,0,10.36,5C388.05,110.35,383.36,103.76,375.85,102Z"/><path class="cls-5" d="M358.11,99.77a13.16,13.16,0,0,0,3.94,7.53,10.31,10.31,0,0,1-5.16-7.76,10.38,10.38,0,0,0,1.57,10.31,13.54,13.54,0,0,0,10.36,5C370.31,108.08,365.62,101.49,358.11,99.77Z"/><path class="cls-5" d="M354,94.05a15.63,15.63,0,0,0,7.51-5A11.42,11.42,0,0,1,354,95.15,14,14,0,0,0,365,91.63a10.62,10.62,0,0,0,3.32-10C360.6,81.76,354.29,87.2,354,94.05Z"/><path class="cls-5" d="M372.22,97.86a15.49,15.49,0,0,0,7.51-5A11.43,11.43,0,0,1,372.22,99a14.07,14.07,0,0,0,11.09-3.53,10.61,10.61,0,0,0,3.31-10C378.86,85.58,372.55,91,372.22,97.86Z"/><path class="cls-5" d="M384.35,102.26a17.44,17.44,0,0,1,9.37.45,13.11,13.11,0,0,0-10.06-1.37,14.24,14.24,0,0,1,11.43-2.51,12.74,12.74,0,0,1,9,6.67C397.6,109.21,388.93,107.79,384.35,102.26Z"/><path class="cls-5" d="M322.46,75.39a14.36,14.36,0,0,1,7.45,2.82,10.64,10.64,0,0,0-7.71-3.75,12.54,12.54,0,0,1,10.12,1,9.77,9.77,0,0,1,5.09,7.77C330.87,84.5,324.32,81.07,322.46,75.39Z"/><path class="cls-5" d="M325.15,69.66a12.34,12.34,0,0,1,6.23-3,9.59,9.59,0,0,0-7.09,2.68,9.3,9.3,0,0,1,6.21-5.65,10.93,10.93,0,0,1,8.84,1.09C336.82,69.44,330.6,71.59,325.15,69.66Z"/><path class="cls-5" d="M341.19,76a11.39,11.39,0,0,0,5.23,4.26,8.93,8.93,0,0,1-6.16-4.11,8.55,8.55,0,0,0,4.49,6.81,11,11,0,0,0,8.88.82C352.46,78.64,347,75.23,341.19,76Z"/><path class="cls-5" d="M351.45,72a10.55,10.55,0,0,1,4-5.19A8.31,8.31,0,0,0,350.5,72a8.07,8.07,0,0,1,2.64-7.53A10.65,10.65,0,0,1,361.58,62C361.75,67.14,357.31,71.55,351.45,72Z"/><path class="cls-5" d="M357.49,74.8a17.43,17.43,0,0,1,9.3-1.14,13.3,13.3,0,0,0-10.18.35,13.74,13.74,0,0,1,10.67-4.39,13.46,13.46,0,0,1,10.32,5A16.12,16.12,0,0,1,357.49,74.8Z"/><path class="cls-5" d="M286.46,49.69a15.12,15.12,0,0,1,8-.26,11.28,11.28,0,0,0-8.65-.47,12,12,0,0,1,9.46-2.91,11.15,11.15,0,0,1,8.25,5A13.66,13.66,0,0,1,286.46,49.69Z"/><path class="cls-5" d="M318.49,57.22a15,15,0,0,1,8,.08,11.22,11.22,0,0,0-8.62-.84A12.12,12.12,0,0,1,327.48,54a11,11,0,0,1,8,5.38A13.65,13.65,0,0,1,318.49,57.22Z"/><path class="cls-5" d="M312.34,42.38a17.61,17.61,0,0,0,9.39.12,13.2,13.2,0,0,1-10.15.75,14.1,14.1,0,0,0,11.2,3.21,13,13,0,0,0,9.54-6.11C326.1,36.26,317.34,37.14,312.34,42.38Z"/><path class="cls-5" d="M329.1,51.24a11,11,0,0,1,5.55-2.91A8.65,8.65,0,0,0,328.3,51a8.34,8.34,0,0,1,5.44-5.3,10,10,0,0,1,8.06.75C339.68,50.73,334.11,52.85,329.1,51.24Z"/><path class="cls-5" d="M250.1,63.48a16.37,16.37,0,0,1,8.81-.29,12.41,12.41,0,0,0-9.55-.52,13.2,13.2,0,0,1,10.45-3.22A12.34,12.34,0,0,1,268.93,65,15.11,15.11,0,0,1,250.1,63.48Z"/><path class="cls-5" d="M182.13,129.23a14,14,0,0,0,7.12,3.24,10.83,10.83,0,0,1-8.08-2.83,10.58,10.58,0,0,0,7.19,6.21,12.32,12.32,0,0,0,9.91-1.48C195.28,129.16,188.2,126.9,182.13,129.23Z"/><path class="cls-5" d="M194.77,121.26a13.66,13.66,0,0,1,6.76-3.78,10.6,10.6,0,0,0-7.76,3.45,10.25,10.25,0,0,1,6.53-6.75,12.35,12.35,0,0,1,10,.68C207.87,120.29,201.05,123.1,194.77,121.26Z"/><path class="cls-5" d="M39.38,150.41a10.91,10.91,0,0,1,1.09-7.27,8.43,8.43,0,0,0-2,7.75,9.2,9.2,0,0,1-1.73-9.08A10.88,10.88,0,0,1,44,135.22C47.24,140.56,45.22,147.22,39.38,150.41Z"/></g></g></svg>