<svg xmlns="http://www.w3.org/2000/svg" xmlns:xlink="http://www.w3.org/1999/xlink" viewBox="0 0 333.05 253.12"><defs><style>.cls-1{fill:none;}.cls-2{fill:#2c2c2b;}.cls-3{fill:#219446;}.cls-4{clip-path:url(#clip-path);}.cls-5{fill:url(#linear-gradient);}.cls-6{clip-path:url(#clip-path-2);}.cls-7{fill:url(#linear-gradient-2);}.cls-8{clip-path:url(#clip-path-3);}.cls-9{fill:url(#linear-gradient-3);}.cls-10{clip-path:url(#clip-path-4);}.cls-11{fill:url(#linear-gradient-4);}.cls-12{clip-path:url(#clip-path-5);}.cls-13{fill:url(#linear-gradient-5);}.cls-14{clip-path:url(#clip-path-6);}.cls-15{fill:url(#linear-gradient-6);}.cls-16{clip-path:url(#clip-path-7);}.cls-17{fill:url(#linear-gradient-7);}.cls-18{clip-path:url(#clip-path-8);}.cls-19{fill:url(#linear-gradient-8);}.cls-20{clip-path:url(#clip-path-9);}.cls-21{fill:url(#linear-gradient-9);}.cls-22{clip-path:url(#clip-path-10);}.cls-23{fill:url(#linear-gradient-10);}.cls-24{clip-path:url(#clip-path-11);}.cls-25{fill:url(#linear-gradient-11);}.cls-26{clip-path:url(#clip-path-12);}.cls-27{fill:url(#linear-gradient-12);}.cls-28{clip-path:url(#clip-path-13);}.cls-29{fill:url(#linear-gradient-13);}.cls-30{clip-path:url(#clip-path-14);}.cls-31{fill:url(#linear-gradient-14);}.cls-32{clip-path:url(#clip-path-15);}.cls-33{fill:url(#linear-gradient-15);}.cls-34{clip-path:url(#clip-path-16);}.cls-35{fill:url(#linear-gradient-16);}.cls-36{clip-path:url(#clip-path-17);}.cls-37{fill:url(#linear-gradient-17);}.cls-38{clip-path:url(#clip-path-18);}.cls-39{fill:url(#linear-gradient-18);}.cls-40{clip-path:url(#clip-path-19);}.cls-41{fill:url(#linear-gradient-19);}.cls-42{clip-path:url(#clip-path-20);}.cls-43{fill:url(#linear-gradient-20);}</style><clipPath id="clip-path"><path class="cls-1" d="M145.63,95.1a.44.44,0,0,0-.23.81c2,1.22,5.12,3.86,4.42,8.36-.06.36.28.66.72.68,5.4.15,10.24.38,15.62,1a.17.17,0,0,1,0,.33,158.71,158.71,0,0,1-16.13,1,.78.78,0,0,0-.79.57l-.95,6.1c-.06.36.28.66.73.67a165.31,165.31,0,0,1,17.14,1,.16.16,0,0,1,0,.32,171.55,171.55,0,0,1-17.65,1,.78.78,0,0,0-.8.57c-.4,2.44-.59,3.66-1,6.1-.06.36.28.67.75.68a186.15,186.15,0,0,1,18.79,1,.18.18,0,0,1,0,.35c-6.5.66-12.71,1-19.32,1a.8.8,0,0,0-.83.56c-.4,2.45-.61,3.67-1,6.11-.06.36.29.67.77.67,7,.08,13.73.39,20.61,1a.18.18,0,0,1,0,.36c-7.07.66-14,1-21.16,1a.84.84,0,0,0-.85.57l-1.05,6.1c-.07.36.3.67.79.68,7.37.13,14.88.43,22.24,1a.22.22,0,0,1,0,.44c-7.54.56-15.25.86-22.81,1a.85.85,0,0,0-.87.57c-.43,2.44-.65,3.66-1.09,6.1-.07.36.31.66.81.67,7.94.11,16.13.39,24.06,1a.22.22,0,0,1,0,.44c-8.12.61-16.51.89-24.64,1a.87.87,0,0,0-.9.56c-.45,2.44-.67,3.66-1.13,6.1-.06.36.32.67.84.68,8.51.11,17.42.39,26,1a.22.22,0,0,1,0,.44c-8.73.6-17.85.88-26.56,1a.92.92,0,0,0-.93.57c-.38,2.05-1,5.45-1.35,7.07a.77.77,0,0,0,.76.91h56.79a.78.78,0,0,0,.77-.9l-12-69.34c-.7-4.51,2.4-7.15,4.42-8.37a.44.44,0,0,0-.23-.81Z"/></clipPath><linearGradient id="linear-gradient" x1="231.86" y1="560.53" x2="234.1" y2="560.53" gradientTransform="matrix(26.04, 0, 0, -26.04, -5900.27, 14732.28)" gradientUnits="userSpaceOnUse"><stop offset="0" stop-color="#c67929"/><stop offset="0" stop-color="#c67929"/><stop offset="0.25" stop-color="#f08f21"/><stop offset="0.53" stop-color="#faa41a"/><stop offset="0.75" stop-color="#f08f21"/><stop offset="1" stop-color="#c67929"/></linearGradient><clipPath id="clip-path-2"><path class="cls-1" d="M159.27,69.72c0-4,2.51-5.39,3.87-8.41a1.08,1.08,0,0,1,1-.63h5.72a1.09,1.09,0,0,1,1,.63c1.36,3,3.86,4.42,3.86,8.41a7.73,7.73,0,1,1-15.45,0m4.64-10.25a.56.56,0,0,1,.55-.56h5.07a.56.56,0,1,1,0,1.11h-5.07a.55.55,0,0,1-.55-.55m.22-1.77a.55.55,0,0,1,.55-.55h4.64a.55.55,0,1,1,0,1.1h-4.64a.55.55,0,0,1-.55-.55m.66-1.77a.55.55,0,0,1,.55-.55h3.31a.56.56,0,1,1,0,1.11h-3.31a.56.56,0,0,1-.55-.56m3.09-1.43a.22.22,0,0,1-.22.22h-1.32a.22.22,0,0,1-.22-.22V32c-5.22,20-16.3,31.05-18.57,33.16a.78.78,0,0,0-.17.89c3.75,8,6.09,15.43,4.72,26.09a.66.66,0,0,0,.65.75h28.49a.66.66,0,0,0,.66-.75c-1.37-10.66,1-18,4.72-26.09a.78.78,0,0,0-.18-.89C184.17,63.05,173.09,52,167.88,32Z"/></clipPath><linearGradient id="linear-gradient-2" x1="228.32" y1="569.06" x2="230.56" y2="569.06" gradientTransform="matrix(17.58, 0, 0, -17.58, -3866.12, 10065.6)" gradientUnits="userSpaceOnUse"><stop offset="0" stop-color="#0f1f29"/><stop offset="0" stop-color="#0f1f29"/><stop offset="0.51" stop-color="#00493a"/><stop offset="1" stop-color="#0f1f29"/></linearGradient><clipPath id="clip-path-3"><path class="cls-1" d="M166.62.26a53.28,53.28,0,0,0-1.55,12.85A53.26,53.26,0,0,0,166.62,26a.4.4,0,0,0,.75,0,53.26,53.26,0,0,0,1.55-12.84A53.28,53.28,0,0,0,167.37.26.37.37,0,0,0,167,0a.38.38,0,0,0-.38.26"/></clipPath><linearGradient id="linear-gradient-3" x1="127.81" y1="782.99" x2="130.05" y2="782.99" gradientTransform="matrix(1.72, 0, 0, -1.72, -54.84, 1360.4)" gradientUnits="userSpaceOnUse"><stop offset="0" stop-color="#00a76b"/><stop offset="0.19" stop-color="#34b884"/><stop offset="0.82" stop-color="#98cd75"/><stop offset="1" stop-color="#98cd75"/></linearGradient><clipPath id="clip-path-4"><path class="cls-1" d="M120.61,19.6a73.94,73.94,0,0,0,9.59,11.78A73.94,73.94,0,0,0,142,41a.39.39,0,0,0,.53-.54,74.1,74.1,0,0,0-21.36-21.36.4.4,0,0,0-.22-.07.39.39,0,0,0-.32.6"/></clipPath><linearGradient id="linear-gradient-4" x1="217.74" y1="587.79" x2="219.98" y2="587.79" gradientTransform="matrix(9.84, 0, 0, -9.84, -2021.16, 5811.75)" xlink:href="#linear-gradient-3"/><clipPath id="clip-path-5"><path class="cls-1" d="M101.78,65.07a.38.38,0,0,0,0,.75,73.19,73.19,0,0,0,15.11,1.56A73.19,73.19,0,0,0,132,65.82a.38.38,0,0,0,0-.75,74.42,74.42,0,0,0-30.22,0"/></clipPath><linearGradient id="linear-gradient-5" x1="223.28" y1="574.89" x2="225.52" y2="574.89" gradientTransform="matrix(13.77, 0, 0, -13.77, -2972, 7978.92)" xlink:href="#linear-gradient-3"/><clipPath id="clip-path-6"><path class="cls-1" d="M142,89.93a74.5,74.5,0,0,0-21.37,21.37.39.39,0,0,0,.54.53,74.3,74.3,0,0,0,21.36-21.37.38.38,0,0,0-.53-.53"/></clipPath><linearGradient id="linear-gradient-6" x1="217.74" y1="583.8" x2="219.98" y2="583.8" gradientTransform="matrix(9.84, 0, 0, -9.84, -2021.16, 5843.39)" xlink:href="#linear-gradient-3"/><clipPath id="clip-path-7"><path class="cls-1" d="M191.48,90.46a74.3,74.3,0,0,0,21.36,21.37.39.39,0,0,0,.54-.53A74.5,74.5,0,0,0,192,89.93a.35.35,0,0,0-.21-.07.38.38,0,0,0-.32.6"/></clipPath><linearGradient id="linear-gradient-7" x1="221.73" y1="583.8" x2="223.97" y2="583.8" gradientTransform="matrix(9.84, 0, 0, -9.84, -1989.53, 5843.39)" xlink:href="#linear-gradient-3"/><clipPath id="clip-path-8"><path class="cls-1" d="M202,65.07a.38.38,0,0,0,0,.75,73.43,73.43,0,0,0,15.12,1.56,73.28,73.28,0,0,0,15.12-1.56.38.38,0,0,0,0-.75,74.52,74.52,0,0,0-30.24,0"/></clipPath><linearGradient id="linear-gradient-8" x1="227.31" y1="574.88" x2="229.55" y2="574.88" gradientTransform="matrix(13.77, 0, 0, -13.77, -2928.24, 7981.15)" xlink:href="#linear-gradient-3"/><clipPath id="clip-path-9"><path class="cls-1" d="M212.84,19.07a74.1,74.1,0,0,0-21.36,21.36A.39.39,0,0,0,192,41a73.94,73.94,0,0,0,11.78-9.59,73.94,73.94,0,0,0,9.59-11.78.39.39,0,0,0-.32-.6.4.4,0,0,0-.22.07"/></clipPath><linearGradient id="linear-gradient-9" x1="221.73" y1="587.79" x2="223.97" y2="587.79" gradientTransform="matrix(9.84, 0, 0, -9.84, -1989.53, 5811.75)" xlink:href="#linear-gradient-3"/><clipPath id="clip-path-10"><path class="cls-1" d="M146.14,15.89a35.88,35.88,0,0,0,2.47,9.19,36.45,36.45,0,0,0,4.76,8.26c.16.21.59,0,.56-.24a36.72,36.72,0,0,0-2.47-9.19,36.16,36.16,0,0,0-4.76-8.25.25.25,0,0,0-.21-.1c-.17,0-.37.15-.35.33"/></clipPath><linearGradient id="linear-gradient-10" x1="181.38" y1="662.25" x2="183.62" y2="662.25" gradientTransform="matrix(3.48, 0, 0, -3.48, -484.52, 2327.17)" xlink:href="#linear-gradient-3"/><clipPath id="clip-path-11"><path class="cls-1" d="M117.2,45.15a36.6,36.6,0,0,0,8.25,4.76,36.36,36.36,0,0,0,9.2,2.47c.27,0,.45-.4.23-.56a36.6,36.6,0,0,0-17.45-7.23h0a.34.34,0,0,0-.2.56"/></clipPath><linearGradient id="linear-gradient-11" x1="212.34" y1="595.9" x2="214.58" y2="595.9" gradientTransform="matrix(7.98, 0, 0, -7.98, -1576.44, 4801.17)" xlink:href="#linear-gradient-3"/><clipPath id="clip-path-12"><path class="cls-1" d="M134.65,78.52a36.71,36.71,0,0,0-17.45,7.22c-.21.17,0,.6.23.56a35.84,35.84,0,0,0,9.2-2.47,35.44,35.44,0,0,0,8.25-4.76c.21-.15.05-.55-.19-.55h0"/></clipPath><linearGradient id="linear-gradient-12" x1="212.34" y1="593.55" x2="214.58" y2="593.55" gradientTransform="matrix(7.98, 0, 0, -7.98, -1576.44, 4816.32)" xlink:href="#linear-gradient-3"/><clipPath id="clip-path-13"><path class="cls-1" d="M199.11,79.07a35.44,35.44,0,0,0,8.25,4.76,36,36,0,0,0,9.2,2.47c.26,0,.44-.39.23-.56a36.71,36.71,0,0,0-17.45-7.22h0c-.25,0-.41.4-.2.55"/></clipPath><linearGradient id="linear-gradient-13" x1="218.03" y1="593.55" x2="220.27" y2="593.55" gradientTransform="matrix(7.98, 0, 0, -7.98, -1539.88, 4816.32)" xlink:href="#linear-gradient-3"/><clipPath id="clip-path-14"><path class="cls-1" d="M216.56,44.59a36.6,36.6,0,0,0-17.45,7.23.33.33,0,0,0,.23.56,36.36,36.36,0,0,0,9.2-2.47,36.6,36.6,0,0,0,8.25-4.76.34.34,0,0,0-.2-.56h0"/></clipPath><linearGradient id="linear-gradient-14" x1="218.03" y1="595.9" x2="220.27" y2="595.9" gradientTransform="matrix(7.98, 0, 0, -7.98, -1539.88, 4801.17)" xlink:href="#linear-gradient-3"/><clipPath id="clip-path-15"><path class="cls-1" d="M187.29,15.65a36.82,36.82,0,0,0-7.22,17.45.33.33,0,0,0,.55.24,35.72,35.72,0,0,0,4.76-8.26,35.88,35.88,0,0,0,2.47-9.19c0-.19-.18-.33-.35-.33a.27.27,0,0,0-.21.09"/></clipPath><linearGradient id="linear-gradient-15" x1="186.79" y1="662.25" x2="189.03" y2="662.25" gradientTransform="matrix(3.48, 0, 0, -3.48, -469.38, 2327.17)" xlink:href="#linear-gradient-3"/><clipPath id="clip-path-16"><path class="cls-1" d="M75.8,132c-10.94,3.31-21.28,6.43-30.85,6.43-10.3,0-18.09-3.63-24.51-11.43a1.79,1.79,0,0,0-1.38-.73,1.92,1.92,0,0,0-1.59,1,3.72,3.72,0,0,0-.51,2.14,3.4,3.4,0,0,0,.72,2c7.24,8.81,15.88,12.92,27.18,12.92,10,0,20.6-3.21,31.83-6.6s22.57-6.83,33.45-6.83a42.19,42.19,0,0,1,10.28,1.19c32.79,8.12,43.67,44.43,43.78,44.79a2.24,2.24,0,0,0,2,1.85,1.64,1.64,0,0,0,.79-.21,3.43,3.43,0,0,0,1.17-3.83c-.11-.4-11.7-39.68-47-48.41a45.44,45.44,0,0,0-11-1.28c-11.3,0-23,3.54-34.33,7"/></clipPath><linearGradient id="linear-gradient-16" x1="235.77" y1="552.43" x2="238.01" y2="552.43" gradientTransform="matrix(67.55, 0, 0, -67.55, -15908.76, 37466.43)" gradientUnits="userSpaceOnUse"><stop offset="0" stop-color="#98cd75"/><stop offset="0.18" stop-color="#98cd75"/><stop offset="0.81" stop-color="#34b884"/><stop offset="1" stop-color="#00a76b"/></linearGradient><clipPath id="clip-path-17"><path class="cls-1" d="M214.77,126.3c-35.25,8.73-46.84,48-47,48.41a4,4,0,0,0,0,2.26,2.63,2.63,0,0,0,1.15,1.57,1.6,1.6,0,0,0,.78.21,2.24,2.24,0,0,0,2-1.85c.11-.37,11-36.66,43.78-44.79a42.13,42.13,0,0,1,10.28-1.19c10.87,0,22.35,3.47,33.46,6.84s21.82,6.59,31.82,6.59c11.14,0,20-4.23,27.18-12.92a3.4,3.4,0,0,0,.72-2,3.72,3.72,0,0,0-.51-2.14,1.92,1.92,0,0,0-1.59-1,1.83,1.83,0,0,0-1.39.73c-6.41,7.8-14.2,11.43-24.5,11.43-9.57,0-19.9-3.12-30.85-6.43-11.32-3.42-23-7-34.33-7a45.38,45.38,0,0,0-11,1.28"/></clipPath><linearGradient id="linear-gradient-17" x1="237.01" y1="552.43" x2="239.25" y2="552.43" gradientTransform="matrix(67.55, 0, 0, -67.55, -15841.7, 37466.92)" xlink:href="#linear-gradient-3"/><clipPath id="clip-path-18"><path class="cls-1" d="M67,152.94c-26,11.54-55.9,6.84-55.9,6.84A323,323,0,0,1,8,197H154.32l12.83-18.81c-16.26-28.67-36.24-37.23-55.29-37.23-16.74,0-32.77,6.61-44.91,12"/></clipPath><linearGradient id="linear-gradient-18" x1="235.9" y1="552.05" x2="238.14" y2="552.05" gradientTransform="matrix(71.05, 0, 0, -71.05, -16753.31, 39393.04)" xlink:href="#linear-gradient-16"/><clipPath id="clip-path-19"><path class="cls-1" d="M167,178.16,179.83,197H326.16a323,323,0,0,1-3.06-37.19s-29.93,4.7-55.9-6.84c-12.15-5.4-28.17-12-44.91-12-19,0-39,8.56-55.29,37.23"/></clipPath><linearGradient id="linear-gradient-19" x1="237.14" y1="552.05" x2="239.38" y2="552.05" gradientTransform="matrix(71.05, 0, 0, -71.05, -16682.32, 39393.03)" xlink:href="#linear-gradient-3"/><clipPath id="clip-path-20"><path class="cls-1" d="M176.61,192.25V197c0,7.29-4.24,13.23-9.46,13.23s-9.46-5.94-9.46-13.23v-4.73H4.32C2.46,192.25,1,194.37,1,197s1.51,4.72,3.37,4.72h147c1.56,10.24,8.07,18,15.85,18s14.3-7.71,15.85-18H329.67c1.87,0,3.38-2.12,3.38-4.72s-1.51-4.73-3.38-4.73Z"/></clipPath><linearGradient id="linear-gradient-20" x1="237.93" y1="549.58" x2="240.17" y2="549.58" gradientTransform="matrix(148.25, 0, 0, -148.25, -35272.17, 81681.54)" xlink:href="#linear-gradient-2"/></defs><g id="Layer_2" data-name="Layer 2"><g id="Layer_1-2" data-name="Layer 1"><path class="cls-2" d="M0,252.32c1-.37,1.83-1.24,2.7-3.48l6-15.53a2.12,2.12,0,0,0-.07-1.81l-.41-.93,3.14-1.47,8,19.77c.9,2.21,1.74,3.08,2.48,3.45v.47H16v-.47c1.06-.37.61-1.24-.29-3.45l-1.93-4.82H5.17l-1.86,4.79c-.87,2.24-.68,3.21.42,3.48v.47H0Zm13.53-8.8L9.38,233.18l-4,10.34Z"/><path class="cls-2" d="M26.08,252.32c1.06-.37,1.29-1.37,1.29-3.78V233.61c0-2.41-.23-3.41-1.29-3.78v-.47h6v.47c-1.06.37-1.29,1.37-1.29,3.78v16.9a1.49,1.49,0,0,0,1.61,1.68H35c3.24,0,4.91-.81,6.2-3.69l.41.07-.25,4.22H26.08Z"/><path class="cls-2" d="M45.13,252.32c1.06-.37,1.29-1.37,1.29-3.78V233.61c0-2.41-.23-3.41-1.29-3.78v-.47h6v.47c-1.06.37-1.29,1.37-1.29,3.78v14.93c0,2.41.23,3.41,1.29,3.78v.47h-6Z"/><path class="cls-2" d="M55.45,229.83v-.47h5.91v.47c-1.06.37-.65,1.24.19,3.48l5.91,15.63,5.82-15.63c.83-2.24.61-3.21-.49-3.48v-.47h3.73v.47c-1,.37-1.8,1.24-2.63,3.48l-7.26,19.48H65.41l-7.56-19.48C57,231.07,56.18,230.2,55.45,229.83Z"/><path class="cls-2" d="M80.69,252.32C81.75,252,82,251,82,248.54V233.61c0-2.41-.23-3.41-1.29-3.78v-.47H96.12l.35,4.72-.42.1c-1.28-3.28-3.31-4.28-6.91-4.28H85.38v10h3.09c3.92,0,5-.81,5.56-2.55h.45V243H94c-.52-1.74-1.64-2.55-5.56-2.55H85.38v10.11A1.49,1.49,0,0,0,87,252.25h3.08c3.25,0,5.47-1,6.69-4.42l.42.07L97,252.79H80.69Z"/><path class="cls-3" d="M114.23,252.32c1.06-.37,1.28-1.37,1.28-3.78V233.61c0-2.41-.22-3.41-1.28-3.78v-.47h6v.47c-1.06.37-1.28,1.37-1.28,3.78v16.9a1.49,1.49,0,0,0,1.61,1.68h2.63c3.25,0,4.92-.81,6.2-3.69l.42.07-.26,4.22H114.23Z"/><path class="cls-3" d="M135.16,252.32c1.06-.37,1.28-1.37,1.28-3.78V233.61c0-2.41-.22-3.41-1.28-3.78v-.47h6v.47c-1.06.37-1.28,1.37-1.28,3.78v14.93c0,2.41.22,3.41,1.28,3.78v.47h-6Z"/><path class="cls-3" d="M144.4,241a11.69,11.69,0,0,1,12.08-11.84c2,0,5.3.47,7,1.64l.12,4.42-.38.1a8.65,8.65,0,0,0-7.91-5.52c-4.2,0-7.45,2.94-7.51,9-.07,6.32,3.63,13.55,9.8,13.55a4.93,4.93,0,0,0,4.65-2.55v-3c0-2.61-.28-3.55-1.67-3.95v-.47h5v6.16a11.81,11.81,0,0,1-9,4.65C149.13,253.12,144.4,248.3,144.4,241Z"/><path class="cls-3" d="M171.13,252.32c1.06-.37,1.29-1.37,1.29-3.78V233.61c0-2.41-.23-3.41-1.29-3.78v-.47h6v.47c-1.06.37-1.28,1.37-1.28,3.78v6.46H187v-6.46c0-2.41-.23-3.41-1.29-3.78v-.47h6v.47c-1.06.37-1.29,1.37-1.29,3.78v14.93c0,2.41.23,3.41,1.29,3.78v.47h-6v-.47c1.06-.37,1.29-1.37,1.29-3.78v-7.87H175.83v7.87c0,2.41.22,3.41,1.28,3.78v.47h-6Z"/><path class="cls-3" d="M201.87,252.32c1.06-.37,1.28-1.37,1.28-3.78V230h-1c-2.86,0-4.31.83-5.5,3.51l-.38-.07.19-4h16.74l.19,4-.38.07c-1.19-2.68-2.64-3.51-5.5-3.51h-.93v18.57c0,2.41.23,3.41,1.29,3.78v.47h-6Z"/><path class="cls-3" d="M217.29,252.32c1.07-.37,1.29-1.37,1.29-3.78V233.61c0-2.41-.22-3.41-1.29-3.78v-.47h6v.47c-1.06.37-1.28,1.37-1.28,3.78v6.46h11.18v-6.46c0-2.41-.23-3.41-1.29-3.78v-.47h6v.47c-1.06.37-1.29,1.37-1.29,3.78v14.93c0,2.41.23,3.41,1.29,3.78v.47h-6v-.47c1.06-.37,1.29-1.37,1.29-3.78v-7.87H222v7.87c0,2.41.22,3.41,1.28,3.78v.47h-6Z"/><path class="cls-3" d="M243.22,241c0-6.62,4.69-11.87,11.5-11.87,5.43,0,11.48,3.88,11.48,12.08s-6.08,11.94-11.48,11.94S243.22,249.37,243.22,241Zm13.34,11.12c4.91,0,6.68-3.85,6.39-8.27-.48-7.13-4.34-13.85-9.9-13.85-4.37,0-6.84,3.54-6.49,9C247,245.63,251.09,252.09,256.56,252.09Z"/><path class="cls-3" d="M270.92,243.68V233.61c0-2.41-.23-3.41-1.29-3.78v-.47h6v.47c-1.06.37-1.28,1.37-1.28,3.78V244c0,6.09,2.89,8.37,7.26,8.37,2.7,0,6.2-2.08,6.2-8.57v-8.13c0-4.08-.77-5.25-2.44-5.79v-.47h4.3v.47c-1.06.37-1.28,1.37-1.28,3.78v10.07c0,6.73-3.38,9.44-8.07,9.44S270.92,250.88,270.92,243.68Z"/><path class="cls-3" d="M293.1,250.75l-.13-5,.41-.07c1.35,3.82,4.21,6.76,8.49,6.76a4.08,4.08,0,0,0,4.27-4.22c0-3.28-4.15-4.82-6.72-5.89-3.31-1.44-6.07-2.57-6.07-6.45,0-4.15,3.22-6.73,8.26-6.73a13.29,13.29,0,0,1,6.17,1.41l.13,4.34-.36.14c-1.31-3.45-4-5.32-7.16-5.32-2.57,0-4.59,1.57-4.59,4.21,0,3,3.24,4.19,5.81,5.26,3.28,1.3,7.16,2.81,7.16,6.82,0,4.59-4,7.13-7.74,7.13A13.6,13.6,0,0,1,293.1,250.75Z"/><path class="cls-3" d="M313.17,252.32c1.06-.37,1.28-1.37,1.28-3.78V233.61c0-2.41-.22-3.41-1.28-3.78v-.47h15.42l.35,4.72-.42.1c-1.28-3.28-3.31-4.28-6.9-4.28h-3.76v10h3.08c3.92,0,5.05-.81,5.56-2.55H327V243h-.45c-.51-1.74-1.64-2.55-5.56-2.55h-3.08v10.11a1.48,1.48,0,0,0,1.6,1.67h3.09c3.24,0,5.46-1,6.68-4.42l.42.07-.23,4.89H313.17Z"/><g class="cls-4"><rect class="cls-5" x="137.75" y="95.1" width="58.48" height="79.42"/></g><g class="cls-6"><rect class="cls-7" x="147.24" y="32" width="39.51" height="60.89"/></g><g class="cls-8"><rect class="cls-9" x="165.07" width="3.85" height="26.3"/></g><g class="cls-10"><rect class="cls-11" x="120.43" y="19" width="22.31" height="22.19"/></g><g class="cls-12"><rect class="cls-13" x="101.37" y="63.52" width="31.04" height="3.86"/></g><g class="cls-14"><rect class="cls-15" x="120.38" y="89.86" width="22.31" height="22.19"/></g><g class="cls-16"><rect class="cls-17" x="191.29" y="89.86" width="22.31" height="22.19"/></g><g class="cls-18"><rect class="cls-19" x="201.58" y="63.52" width="31.05" height="3.86"/></g><g class="cls-20"><rect class="cls-21" x="191.25" y="19" width="22.31" height="22.19"/></g><g class="cls-22"><rect class="cls-23" x="146.12" y="15.56" width="7.84" height="17.99"/></g><g class="cls-24"><rect class="cls-25" x="117" y="44.59" width="18.09" height="7.82"/></g><g class="cls-26"><rect class="cls-27" x="116.99" y="78.52" width="18.09" height="7.82"/></g><g class="cls-28"><rect class="cls-29" x="198.9" y="78.52" width="18.09" height="7.82"/></g><g class="cls-30"><rect class="cls-31" x="198.9" y="44.59" width="18.09" height="7.82"/></g><g class="cls-32"><rect class="cls-33" x="180.03" y="15.56" width="7.84" height="17.99"/></g><g class="cls-34"><rect class="cls-35" x="16.92" y="125.02" width="151.62" height="53.73"/></g><g class="cls-36"><rect class="cls-37" x="167.61" y="125.02" width="151.4" height="53.73"/></g><g class="cls-38"><rect class="cls-39" x="7.99" y="140.93" width="159.16" height="56.05"/></g><g class="cls-40"><rect class="cls-41" x="167" y="140.93" width="159.16" height="56.05"/></g><g class="cls-42"><rect class="cls-43" x="0.95" y="192.25" width="332.09" height="27.4"/></g></g></g></svg>