<svg xmlns="http://www.w3.org/2000/svg" viewBox="0 0 992.7 312.83"><defs><style>.cls-1{fill:#ce7b2d;}.cls-2{fill:#51773c;}.cls-3{fill:#8dc63f;}.cls-4{fill:#d7df23;}</style></defs><g id="Layer_2" data-name="Layer 2"><g id="Layer_1-2" data-name="Layer 1"><path class="cls-1" d="M359.18,312.83V221.58a24.5,24.5,0,0,1,3.65-13.18,29,29,0,0,1,9.63-9.53,24.68,24.68,0,0,1,13.08-3.65h78.7l12,21.9H386.15a5.19,5.19,0,0,0-5.07,5.07v90.64Z"/><path class="cls-1" d="M553.43,312.83,478.54,195.22h25.35l60.49,92.87,60.49-92.87h25.34L575.33,312.83Z"/><path class="cls-1" d="M660.83,312.83V195.22h21.9V312.83Z"/><path class="cls-1" d="M713.38,309.18a29.32,29.32,0,0,1-9.53-9.53,24.53,24.53,0,0,1-3.65-13.18V221.58a24.5,24.5,0,0,1,3.65-13.18,29.22,29.22,0,0,1,9.53-9.53,24.53,24.53,0,0,1,13.18-3.65H839.43v21.9H727.17a5.19,5.19,0,0,0-5.07,5.07v63.67a5.19,5.19,0,0,0,5.07,5.07H839.84v21.9H726.56A24.53,24.53,0,0,1,713.38,309.18Z"/><path class="cls-1" d="M866.24,309.18a29.22,29.22,0,0,1-9.53-9.53,24.53,24.53,0,0,1-3.65-13.18V221.58a24.5,24.5,0,0,1,3.65-13.18,29.13,29.13,0,0,1,9.53-9.53,24.5,24.5,0,0,1,13.18-3.65h86.92a25.52,25.52,0,0,1,13.28,3.55,26.58,26.58,0,0,1,9.53,9.63,25.78,25.78,0,0,1,3.55,13.18V265H875v20.89a5.19,5.19,0,0,0,5.07,5.07H992.7v21.9H879.42A24.5,24.5,0,0,1,866.24,309.18ZM875,244.49h95.63v-22.3a5.05,5.05,0,0,0-1.41-3.55,4.57,4.57,0,0,0-3.45-1.52H880a5.19,5.19,0,0,0-5.07,5.07Z"/><circle class="cls-1" cx="671.78" cy="172.01" r="13.18"/><path class="cls-1" d="M329.44,198.77a25.52,25.52,0,0,0-13.28-3.55H259.68c-12.07,7.56-25.91,12.14-38.36,12.14a67.2,67.2,0,0,1-13.16-1.31c-.57.75-1.12,1.53-1.63,2.35a24.5,24.5,0,0,0-3.65,13.18v64.89a24.53,24.53,0,0,0,3.65,13.18,29.22,29.22,0,0,0,9.53,9.53,24.5,24.5,0,0,0,13.18,3.65H342.52v-21.9H229.85a5.19,5.19,0,0,1-5.07-5.07V265H342.52V221.58A25.78,25.78,0,0,0,339,208.4,26.58,26.58,0,0,0,329.44,198.77Zm-9,45.72H224.78v-22.3a5.19,5.19,0,0,1,5.07-5.07h85.7a4.53,4.53,0,0,1,3.45,1.52,5.05,5.05,0,0,1,1.41,3.55Z"/><path class="cls-1" d="M186,197.71v-.39a71.86,71.86,0,0,1-28.92-34.49H26.36a25.78,25.78,0,0,0-13.18,3.55,26.51,26.51,0,0,0-9.63,9.53A25.52,25.52,0,0,0,0,189.19v33.23A25.49,25.49,0,0,0,3.55,235.7a27.25,27.25,0,0,0,9.63,9.63A25.21,25.21,0,0,0,26.36,249H159a4.85,4.85,0,0,1,3.44,1.32,4.6,4.6,0,0,1,1.42,3.55v32a5,5,0,0,1-1.42,3.55,4.53,4.53,0,0,1-3.44,1.52H27a5.19,5.19,0,0,1-5.07-5.07V278H0v8.52a25.52,25.52,0,0,0,3.55,13.28,26.43,26.43,0,0,0,9.63,9.53,25.68,25.68,0,0,0,13.18,3.55H159.64a25.68,25.68,0,0,0,13.18-3.55,26.58,26.58,0,0,0,9.63-9.53A25.61,25.61,0,0,0,186,286.47V253.24A25.59,25.59,0,0,0,182.45,240a27.41,27.41,0,0,0-9.63-9.63,25.11,25.11,0,0,0-13.18-3.65H27a5.25,5.25,0,0,1-3.55-1.32,4.47,4.47,0,0,1-1.52-3.55v-32A5.19,5.19,0,0,1,27,184.73H159a4.53,4.53,0,0,1,3.44,1.52,5,5,0,0,1,1.42,3.55v7.91Z"/><path class="cls-2" d="M362.84,175.07h0c-7.45-1.4-12.44-3.3-14.82-5.67s-5.51-8.69-9.23-18.71l-2.64-6.79L284.39,5.41c-1-2.72-2.29-4.1-3.87-4.1s-2.93,1.37-4.1,4.18l-7.25,16.84a.72.72,0,0,0,0,.54l44,117.48c4.84,13.13,7.29,22,7.29,26.33,0,4.54-1.79,7.12-5.5,7.89l-3.71.88c-2.93.6-3.54,2.1-3.54,3.26s.49,3.27,3.79,3.27a21.24,21.24,0,0,0,3.84-.52c2.76-.49,9.76-.74,20.83-.74,10.61,0,18.08.21,22.22.63,2.37.17,3.88.25,4.62.25,3.2,0,4-1.49,4-2.74S366.39,175.77,362.84,175.07Z"/><path class="cls-2" d="M418.19,174.69h0c-7.91-1.38-12.76-4.08-14.42-8-1.48-3.58-2.23-8.82-2.23-15.58V10.16l.12-3.93c0-3.09-.39-4.92-1.23-5.74A1.63,1.63,0,0,0,399.18,0a5.12,5.12,0,0,0-2.81,1.15c-2.12,1.63-6,3.63-11.58,5.95l-7.36,3.14A52.71,52.71,0,0,1,370,12.6c-2.4.69-3.62,1.83-3.62,3.38a2.83,2.83,0,0,0,1.84,2.7l.08,0a7.58,7.58,0,0,0,2.25.28h0l6-.25c4.73,0,7,3.56,7,10.87V162.42c0,3.86-.58,6.66-1.74,8.34s-3.48,3-6.91,4.07c-2.66.75-4,2-3.86,3.78.06,1.16.64,3.12,3.92,3.12a40.73,40.73,0,0,0,4.67-.64c1.73-.25,6.45-.37,14-.37H400l10.49-.13a29,29,0,0,1,5.27.36,14.82,14.82,0,0,0,3.29.52,3.15,3.15,0,0,0,2.43-.9,3.61,3.61,0,0,0,.77-2.66C422.12,176.25,420.76,175.16,418.19,174.69Z"/><path class="cls-2" d="M470.26,175.44h0l-5.52-.63c-3.79-.55-6.29-1.76-7.41-3.59s-1.76-5.78-1.76-11.58V74.92c0-2.92-1.19-3.63-2.18-3.71a.63.63,0,0,0-.33.06l-6.43,3.16a125,125,0,0,1-17.05,8c-4.48,1.46-6.52,2.79-6.63,4.31a2,2,0,0,0,.51,1.5c.74.82,2.2,1.2,4.61,1.2,4,0,6.59,1,7.74,2.82s1.82,6.41,1.82,13.19v54.74c0,4.89-.48,8.47-1.44,10.63a8.06,8.06,0,0,1-4.95,4.4l-2.31.76a3.42,3.42,0,0,0-2.61,3.36c0,1.12.51,3,3.92,3a41.64,41.64,0,0,0,4.46-.39,29.65,29.65,0,0,1,3.66-.36l8.76-.5,7.74.14c3.43,0,6.25.09,8.38.28,3.92.39,6.51.58,7.9.58,3.11,0,3.85-1.49,3.92-2.75C475.14,177.22,473.53,175.91,470.26,175.44Z"/><path class="cls-2" d="M569.56,83.86c3.68-1.46,5.36-2.75,5.47-4.17a2.47,2.47,0,0,0-.58-1.88,3.67,3.67,0,0,0-2.84-.94c-.73,0-2.2.08-4.5.25-2.69.25-8.2.38-16.38.38-4.13,0-7.05-.09-8.67-.25a38.27,38.27,0,0,0-4.52-.38c-3.3,0-3.79,2-3.79,3.26s.67,2.67,3.81,3.14c7.4,1.29,11,4.56,11,10,0,6.4-2.06,14.25-6.11,23.33l-19.68,43.27L496.88,98.11A23.25,23.25,0,0,1,494.76,90c0-3.42,3.49-5.63,10.36-6.58,2.63-.3,4-1.31,4-3a3.3,3.3,0,0,0-.85-2.45,3.26,3.26,0,0,0-2.57-.82c-1,0-2.77.12-5.46.38-1.87.16-5.29.25-10.14.25-10.57,0-17.9-.26-21.76-.75a22.87,22.87,0,0,0-2.85-.26c-3.53,0-4.27,1.78-4.27,3.27s1,2.47,3,3.23c5.34,2.1,9.63,6.89,12.75,14.23l34.89,82.81c1.08,2.63,2.78,4,5.07,4,1.95,0,3.49-1.2,4.57-3.56l39.23-85.59C563.45,88.91,566.45,85.13,569.56,83.86Z"/><path class="cls-2" d="M649.5,157.74a2.07,2.07,0,0,0-1.68-.53h-.05a4.63,4.63,0,0,0-2.12,1c-10.12,8.08-19.6,12.18-28.17,12.18-10.83,0-20.08-4.84-27.51-14.4s-11.24-21.6-11.24-35.67l.09-2.11h44.91l8.21.25,8.93.13c5.64,0,8.5-1.63,8.5-4.84,0-2-1-5.46-3.06-10.46a67.36,67.36,0,0,0-6-11.7c-8.12-11.78-19.11-17.76-32.67-17.76-12.42,0-23.4,5.59-32.63,16.63a58.7,58.7,0,0,0-13.88,38.69c0,15.43,4.53,28.55,13.46,39S594.82,184,608,184c11.73,0,23-4.34,33.5-12.91,5.85-4.77,8.68-8.43,8.68-11.18A2.93,2.93,0,0,0,649.5,157.74Zm-69.84-47.81c1.08-8.93,3.73-16.09,7.88-21.3s9.58-8,15.92-8c6.12,0,11.9,2.77,17.16,8.22s7.93,11.43,7.93,17.74c0,2.75-4.81,3.33-8.84,3.33Z"/><path class="cls-2" d="M266.21,49c-.61-1.68-2.47-6.81-2.17-10.12a.76.76,0,0,0-.52-.89c-.6-.16-.77-.21-3.06,4.73-1.07,2.32-2.28,5.07-2.82,6.38L255,55.13a34.42,34.42,0,0,0-.61,25.44l12.1,32.33A66.84,66.84,0,0,1,271.16,135a58.49,58.49,0,0,1-16.82,44.08,51.5,51.5,0,0,1-33,11.95c-29.54,0-53.57-25.1-53.57-56S187.49,84.79,217,84.79a51.72,51.72,0,0,1,7.95.61,16,16,0,0,0-5.48,12.15c0,8.69,6.76,15.75,15.07,15.75,5.79,0,11.09-4.25,13.53-9.57,2-4.35.54-12.94-2.6-16.51a24,24,0,0,0-8.42-6C230.79,78.49,223.77,78,217,78c-33.13,0-55.79,22.51-55.79,57.12s26.95,62.76,60.08,62.76c18.17,0,39.35-11.68,50.92-26.06,14.46-18,19-31.57,19-43.74,0-12.82-5.14-25.87-5.17-26Z"/><path class="cls-3" d="M221.33,184.11s19.61-42.67-41.66-60.81C176,171.73,197.23,186.46,221.33,184.11Z"/><path class="cls-4" d="M228.68,183.69S217.62,155,253.87,142c1.83,21.9-2.51,39.5-23.92,41.8"/><path class="cls-3" d="M442.36,64.11q-7.49,2.46-13.43-.61a126.62,126.62,0,0,0,10.43-17.74,230.4,230.4,0,0,0,10.22-24.38q.68-.22,1.17,1.71l1.16,11.81q1.33,12.59-1.55,20.05C448.43,59.94,445.77,63,442.36,64.11Z"/><path class="cls-4" d="M424.91,44.25c2.07-3,5.66-5.5,10.46-8.12a63.66,63.66,0,0,0,9.28-5.65c.29-.23.67.15.48.51-3.11,5.91-7,13.11-9.49,17.59A146.3,146.3,0,0,1,427.83,62c-2.6-2-4.35-5-5.22-9Q421.71,48.93,424.91,44.25Z"/></g></g></svg>