<svg xmlns="http://www.w3.org/2000/svg" viewBox="0 0 941.1 295.45"><defs><style>.cls-1{fill:#51773c;}.cls-2{fill:#8dc63f;}.cls-3{fill:#d7df23;}.cls-4{fill:#d71920;}</style></defs><g id="Layer_2" data-name="Layer 2"><g id="Layer_1-2" data-name="Layer 1"><path class="cls-1" d="M219.82,182h0c-7.75-1.45-12.93-3.44-15.4-5.9s-5.73-9-9.6-19.45l-2.75-7.05L138.28,5.62c-1-2.83-2.38-4.26-4-4.26s-3,1.42-4.26,4.34l-7.54,17.51a.77.77,0,0,0,0,.56l45.7,122.11c5,13.64,7.58,22.85,7.58,27.37,0,4.71-1.86,7.39-5.71,8.2l-3.86.91c-3.05.62-3.69,2.18-3.69,3.39s.52,3.4,3.94,3.4a22.55,22.55,0,0,0,4-.54c2.86-.51,10.15-.77,21.65-.77,11,0,18.79.22,23.09.65,2.47.18,4,.26,4.8.26,3.33,0,4.12-1.54,4.19-2.85S223.51,182.7,219.82,182Z"/><path class="cls-1" d="M277.35,181.57h0c-8.22-1.43-13.26-4.24-15-8.33-1.54-3.73-2.32-9.18-2.32-16.2V10.56l.13-4.08c0-3.22-.41-5.12-1.28-6A1.71,1.71,0,0,0,257.59,0a5.41,5.41,0,0,0-2.92,1.19c-2.21,1.7-6.25,3.78-12,6.19L235,10.64a55.09,55.09,0,0,1-7.71,2.46c-2.51.72-3.77,1.9-3.77,3.51a2.93,2.93,0,0,0,1.92,2.81l.07,0a7.83,7.83,0,0,0,2.34.3h0l6.23-.26c4.92,0,7.31,3.7,7.31,11.3v138c0,4-.61,6.92-1.81,8.66s-3.61,3.16-7.18,4.24c-2.77.78-4.12,2.1-4,3.92.06,1.21.67,3.24,4.08,3.24a39.35,39.35,0,0,0,4.86-.66c1.8-.25,6.7-.38,14.57-.38h6.53l10.9-.13a30.23,30.23,0,0,1,5.49.37,15,15,0,0,0,3.42.54,3.25,3.25,0,0,0,2.52-.94,3.72,3.72,0,0,0,.8-2.76C281.44,183.19,280,182.06,277.35,181.57Z"/><path class="cls-1" d="M331.47,182.35h0l-5.73-.65c-3.94-.58-6.54-1.83-7.71-3.73s-1.83-6-1.83-12V77.87c0-3-1.23-3.77-2.26-3.85a.7.7,0,0,0-.35.06l-6.68,3.28a129.78,129.78,0,0,1-17.72,8.32c-4.66,1.51-6.78,2.89-6.89,4.47a2.07,2.07,0,0,0,.53,1.56c.76.86,2.29,1.26,4.79,1.26,4.14,0,6.85,1,8,2.93s1.89,6.66,1.89,13.7v56.9c0,5.08-.51,8.8-1.5,11.05a8.37,8.37,0,0,1-5.15,4.57l-2.39.79a3.56,3.56,0,0,0-2.72,3.49c0,1.17.53,3.14,4.07,3.14a43.64,43.64,0,0,0,4.64-.41,31.31,31.31,0,0,1,3.81-.38l9.1-.52,8,.15c3.57,0,6.5.1,8.71.29,4.08.41,6.77.61,8.22.61,3.23,0,4-1.55,4.07-2.86C336.54,184.21,334.87,182.84,331.47,182.35Z"/><path class="cls-1" d="M434.68,87.17c3.82-1.53,5.58-2.86,5.69-4.34a2.56,2.56,0,0,0-.61-2,3.76,3.76,0,0,0-2.94-1c-.76,0-2.29.08-4.68.26-2.8.26-8.52.39-17,.39-4.3,0-7.34-.09-9-.26a39.64,39.64,0,0,0-4.7-.39c-3.42,0-3.93,2.12-3.93,3.39s.68,2.77,3.95,3.26c7.69,1.34,11.43,4.74,11.43,10.4,0,6.66-2.13,14.82-6.34,24.26l-20.46,45L359.15,102a23.85,23.85,0,0,1-2.21-8.44c0-3.56,3.63-5.86,10.77-6.84,2.73-.31,4.12-1.37,4.12-3.13a3.08,3.08,0,0,0-3.56-3.4c-1,0-2.88.13-5.68.39-1.95.17-5.5.26-10.54.26-11,0-18.6-.26-22.62-.78a22.92,22.92,0,0,0-3-.27c-3.66,0-4.43,1.85-4.43,3.4s1,2.56,3.07,3.36c5.55,2.18,10,7.16,13.25,14.79l36.27,86.07c1.12,2.73,2.89,4.12,5.26,4.12,2,0,3.63-1.25,4.75-3.7l40.78-89C428.33,92.42,431.45,88.49,434.68,87.17Z"/><path class="cls-1" d="M517.77,164a2.12,2.12,0,0,0-1.75-.56h0a4.79,4.79,0,0,0-2.2,1.05c-10.52,8.4-20.37,12.66-29.27,12.66-11.26,0-20.88-5-28.6-15s-11.69-22.46-11.69-37.08l.1-2.19H491l8.53.26,9.29.13c5.86,0,8.83-1.69,8.83-5,0-2.12-1-5.67-3.18-10.87a69.38,69.38,0,0,0-6.21-12.16C499.82,83,488.39,76.76,474.3,76.76c-12.91,0-24.32,5.81-33.92,17.28A61,61,0,0,0,426,134.26c0,16,4.71,29.67,14,40.55s21,16.43,34.72,16.43c12.19,0,23.91-4.52,34.82-13.42,6.07-5,9-8.76,9-11.62A3,3,0,0,0,517.77,164Zm-72.59-49.7c1.12-9.28,3.88-16.73,8.19-22.14s10-8.3,16.55-8.3c6.37,0,12.37,2.87,17.84,8.54S496,104.24,496,110.8c0,2.86-5,3.46-9.19,3.46Z"/><path class="cls-1" d="M109.11,59.89c-.64-1.75-2.57-7.08-2.26-10.52a.78.78,0,0,0-.54-.92c-.62-.17-.8-.22-3.18,4.91-1.12,2.41-2.37,5.27-2.94,6.63l-2.71,6.3a35.82,35.82,0,0,0-.64,26.45l12.58,33.6a69.53,69.53,0,0,1,4.83,23,60.76,60.76,0,0,1-17.49,45.81,53.48,53.48,0,0,1-34.32,12.42c-30.7,0-55.67-26.09-55.67-58.17S27.29,97.12,58,97.12a53.16,53.16,0,0,1,8.26.64,16.65,16.65,0,0,0-5.7,12.63c0,9,7,16.37,15.67,16.37,6,0,11.53-4.42,14.07-10,2.07-4.52.55-13.45-2.71-17.16a24.8,24.8,0,0,0-8.75-6.21C72.29,90.57,65,90.05,58,90.05c-34.43,0-58,23.39-58,59.36s28,65.24,62.44,65.24c18.9,0,40.9-12.14,52.93-27.09,15-18.68,19.74-32.81,19.75-45.46,0-13.33-5.34-26.9-5.38-27Z"/><path class="cls-2" d="M62.46,200.36S82.84,156,19.16,137.15C15.34,187.49,37.41,202.79,62.46,200.36Z"/><path class="cls-3" d="M70.09,199.92S58.61,170.1,96.28,156.55c1.9,22.76-2.61,41-24.86,43.45"/><path class="cls-2" d="M302.48,66.63q-7.78,2.58-14-.63a132.83,132.83,0,0,0,10.84-18.43A238.83,238.83,0,0,0,310,22.22c.47-.16.88.44,1.22,1.78l1.2,12.27q1.41,13.09-1.6,20.85T302.48,66.63Z"/><path class="cls-3" d="M284.33,46c2.16-3.16,5.89-5.72,10.88-8.44a66.52,66.52,0,0,0,9.64-5.86c.31-.25.69.15.5.52-3.23,6.14-7.28,13.63-9.86,18.28-2.84,5.14-5.07,9.6-8.12,14q-4.06-3.06-5.43-9.32Q281,50.86,284.33,46Z"/><path class="cls-4" d="M204.51,197.15h-90a4.17,4.17,0,0,0-4.17,4.17v90a4.16,4.16,0,0,0,4.17,4.17h90a4.17,4.17,0,0,0,4.17-4.17v-90A4.17,4.17,0,0,0,204.51,197.15ZM198,284.77H183.35L133.88,225.9v58.87H121.06V207.84H135.7l49.36,58.77V207.84H198Z"/><path class="cls-4" d="M307.76,197.15h-90a4.17,4.17,0,0,0-4.17,4.17v90a4.16,4.16,0,0,0,4.17,4.17h90a4.17,4.17,0,0,0,4.17-4.17v-90A4.17,4.17,0,0,0,307.76,197.15Zm-9.67,23.62h-57.7v19h46.48v13H240.39v19h57.7v12.93H227.46V207.84h70.63Z"/><path class="cls-4" d="M411,197.15h-90a4.17,4.17,0,0,0-4.17,4.17v90a4.17,4.17,0,0,0,4.17,4.17h90a4.17,4.17,0,0,0,4.17-4.17v-90A4.17,4.17,0,0,0,411,197.15Zm-21.47,87.62h-7.82L366,227.61l-15.73,57.16h-7.74L321.4,207.84h12.28l12.72,49.4,13.7-49.4h11.8l13.78,49.4,12.72-49.4h12.28Z"/><path class="cls-4" d="M514.26,197.15h-90a4.17,4.17,0,0,0-4.16,4.17v90a4.16,4.16,0,0,0,4.16,4.17h90a4.16,4.16,0,0,0,4.16-4.17v-90A4.17,4.17,0,0,0,514.26,197.15Zm-6.52,30.24H494.81v-4.7a1.81,1.81,0,0,0-.59-1.39,2.08,2.08,0,0,0-1.44-.53H445.56a1.83,1.83,0,0,0-1.93,1.92V238a1.72,1.72,0,0,0,.54,1.28,1.85,1.85,0,0,0,1.39.54h47.76a13.73,13.73,0,0,1,7.21,2,15.42,15.42,0,0,1,5.23,5.24,13.62,13.62,0,0,1,2,7.21v16.13a13.91,13.91,0,0,1-2,7.27,14.83,14.83,0,0,1-5.23,5.24,14,14,0,0,1-7.21,1.92H445.13a13.92,13.92,0,0,1-7.21-1.92,14.41,14.41,0,0,1-5.19-5.24,14.24,14.24,0,0,1-1.92-7.27v-5.12h12.82v4.7a1.83,1.83,0,0,0,1.93,1.92h47.22a2.08,2.08,0,0,0,1.44-.53,1.81,1.81,0,0,0,.59-1.39V254.64a1.67,1.67,0,0,0-.59-1.28,2,2,0,0,0-1.44-.54H445.13a13.68,13.68,0,0,1-7.21-2,15,15,0,0,1-5.19-5.24,13.94,13.94,0,0,1-1.92-7.21V222.26a14.23,14.23,0,0,1,1.92-7.26,14.41,14.41,0,0,1,5.19-5.24,13.92,13.92,0,0,1,7.21-1.92h48.19a14,14,0,0,1,7.21,1.92,14.83,14.83,0,0,1,5.23,5.24,13.9,13.9,0,0,1,2,7.26Z"/><path class="cls-4" d="M539.42,295.45a5.82,5.82,0,0,1-5.82-5.82V214.18a39,39,0,0,1,19.65-34.13,39.45,39.45,0,0,1,20-5.17H689.4a5.06,5.06,0,0,0,3.69-1.63,5.42,5.42,0,0,0,1.63-4V123.46a5.43,5.43,0,0,0-1.63-4,5.09,5.09,0,0,0-3.69-1.63h-115a5.55,5.55,0,0,0-5.61,5.62v13H533.6V122.28a38.27,38.27,0,0,1,5.32-20.1A40.23,40.23,0,0,1,553.25,88a38.49,38.49,0,0,1,20-5.32H690.29A38.48,38.48,0,0,1,710.23,88a40.34,40.34,0,0,1,14.34,14.18,38.36,38.36,0,0,1,5.32,20.1v48.17a38.59,38.59,0,0,1-5.32,20,41.25,41.25,0,0,1-14.34,14.48,37.76,37.76,0,0,1-19.94,5.46H574.38a5.73,5.73,0,0,0-4,1.48,5,5,0,0,0-1.62,3.84v39a5.55,5.55,0,0,0,5.61,5.62H729.89v35.16Z"/><path class="cls-4" d="M875.2,295.45V241.67H737.78V207.39L876.09,82.68h34.28V206.21H941.1v35.46H910.37v53.78Zm-83.92-89.24H875.2V135.28Z"/></g></g></svg>