<svg xmlns="http://www.w3.org/2000/svg" viewBox="0 0 700 365.01"><defs><style>.cls-1{fill:#51773c;}.cls-2{fill:#f15b40;}.cls-3{fill:#a6ce39;}.cls-4{fill:#d0dd28;}</style></defs><g id="Layer_2" data-name="Layer 2"><g id="Layer_1-2" data-name="Layer 1"><path class="cls-1" d="M191.33,304.61c-.19-3.16-.37-8.32-.54-15.41q-37.17,4.5-76.49,10.59a10.73,10.73,0,1,0,3.29,21.2q38.19-6,74.25-10.91C191.64,308.23,191.46,306.4,191.33,304.61Z"/><path class="cls-2" d="M133.82,276.24c-28.45,3.53-57,7.57-85.6,15.6-10.24,2.88-19.27,6-27.4,8.21-6,1.67-16.58,4.53-19.87-3-3.16-7.2,2.07-12,8.42-14.18q6.68-2.26,14.71-4.16c1.93-3.4,5.88-52.31,2.49-120.1a209.21,209.21,0,0,1,1.87-41.75A76.45,76.45,0,0,1,44.52,80.15a66.57,66.57,0,0,1,21.19-18,67.46,67.46,0,0,1,28.73-7.7q15.9-.88,26.54,7.51a53.75,53.75,0,0,1,16.34,22.44A94.62,94.62,0,0,1,144,114.92a115,115,0,0,1-2.14,29.13A94.54,94.54,0,0,1,132.16,171a62.34,62.34,0,0,1-17,20.11A42.93,42.93,0,0,1,91,199.72a29.84,29.84,0,0,1-21-6.95q-9.42-7.59-12.73-25.12a15.58,15.58,0,0,1-.45-2.87l-.16-2.89A72.7,72.7,0,0,1,57,150q.66-6.14,2.24-9.12c1.05-2,2.45-3,4.18-3.14,1.16-.06,1.78.68,1.87,2.22a14.57,14.57,0,0,1-.63,4.39,54.73,54.73,0,0,0-1.4,16.32,55.58,55.58,0,0,0,3.2,15.79,30.43,30.43,0,0,0,8,12.46,17,17,0,0,0,13,4.35q10.41-.59,20.47-10.14t16-27.59q6-18,4.52-43.5a97.86,97.86,0,0,0-4.79-26q-4-11.82-11.07-19a21.49,21.49,0,0,0-17.2-6.58,34.74,34.74,0,0,0-21.3,8.31A57.89,57.89,0,0,0,59.5,88.6a100.11,100.11,0,0,0-7.13,25.5,256.33,256.33,0,0,0-2.75,31.2c-.35,11.15-.65,22.43-.72,33.85-.2,36.38-8.06,93.72-9.47,96.12a463.11,463.11,0,0,1,70-9.77c12.08-.82,63.9-.56,78,2,1.4.25,4.45,3.5-2.61,4.51C182.29,272.37,158.23,273.22,133.82,276.24Z"/><path class="cls-2" d="M296.78,263.89q-13.9,0-22.45-8.54a50.54,50.54,0,0,1-12.46-21.15A83.26,83.26,0,0,1,258,209.42a138.18,138.18,0,0,1,2.89-27.95A93.67,93.67,0,0,1,270,155.82a55.65,55.65,0,0,1,15.79-18.68,36.87,36.87,0,0,1,22.6-7.1q9.27,0,14.49,5.5t5.21,16.23a46.72,46.72,0,0,1-7.1,25.64,59,59,0,0,1-17.82,18.11,68.5,68.5,0,0,1-22.31,9.56v1.45a94.49,94.49,0,0,0,2.47,22.16q2.46,10.29,8.11,16.52t14.92,6.22A19.51,19.51,0,0,0,323.73,242q6.07-9.42,9.56-23.9a6.45,6.45,0,0,1,1-2.18c.48-.67.91-1,1.3-1q2.61,0,2.32,3.77a61.5,61.5,0,0,1-3.47,14.77,76.58,76.58,0,0,1-5.51,11.88,41.05,41.05,0,0,1-13.18,13.76Q308.08,263.9,296.78,263.89Zm-15.65-65.48a34.91,34.91,0,0,0,16.23-9.12,48.78,48.78,0,0,0,10.87-16.08,48.19,48.19,0,0,0,3.91-18.84v-1.44a30.14,30.14,0,0,0-1.6-9.85q-1.59-4.64-5.94-4.64c-3.47,0-6.52,1.69-9.12,5.07a46.13,46.13,0,0,0-6.67,12.89,125,125,0,0,0-4.49,16.23A155.22,155.22,0,0,0,281.86,188c-.48,4.64-.73,8-.73,10.14Z"/><path class="cls-2" d="M360.81,261.58q-13.05,0-21.88-6.23t-8.84-22.17c0-.38.05-1.3.15-2.75s.24-2.94.43-4.49a18.35,18.35,0,0,1-1.73-8.69,14.94,14.94,0,0,1,1.15-6.09c.77-1.74,1.93-2.6,3.48-2.6h.29c.58,0,1.35.67,2.32,2q3.76-10.71,6.95-22.16t5.8-20.43q2.9-10.43,7.39-22.45a36.27,36.27,0,0,1,14.34-18.4,29.11,29.11,0,0,1,16.22-4.92,8.63,8.63,0,0,1,1.45.14,8.63,8.63,0,0,0,1.45.14c1.54.2,2.32.87,2.32,2a1.79,1.79,0,0,1-2,2c-2.13.2-3.67,1.88-4.64,5.07A37.36,37.36,0,0,0,384,142.5v3.18a16.54,16.54,0,0,0,.28,3.19,98.75,98.75,0,0,0,5.22,21q4,11.44,7.68,22.89a71,71,0,0,1,3.62,21.29v1.45q0,3.77-.44,8.11a35.05,35.05,0,0,1-1.88,8.4,72,72,0,0,0,8-1,44.6,44.6,0,0,0,7.1-1.88,22.26,22.26,0,0,0,6.52-4.06,24.37,24.37,0,0,0,4.2-5.22,1.71,1.71,0,0,1,1.45-.86c1.54,0,2.31,1,2.31,2.89a4.62,4.62,0,0,1-.58,2q-3.18,6.38-11.59,10.43a50.9,50.9,0,0,1-19.7,4.64,40.69,40.69,0,0,1-12.6,15.93Q375,261.57,360.81,261.58ZM353,252h1.16a26.45,26.45,0,0,0,10.43-3.63,17.27,17.27,0,0,0,7.54-9.41.6.6,0,0,1,.14-.44.56.56,0,0,0,.15-.43,175.92,175.92,0,0,1-20.14-2.75,61.28,61.28,0,0,1-15.21-4.79,10.22,10.22,0,0,1-.15,1.74,8.72,8.72,0,0,0-.14,1.45q0,8.7,4.49,13.47A15.34,15.34,0,0,0,353,252Zm21.73-23.18q.59-3.19.87-6.67c.19-2.32.29-4.63.29-6.95a108.39,108.39,0,0,0-.58-11.16q-.59-5.64-1.45-11.15-2-13.62-4.78-24.92a86.84,86.84,0,0,1-2.75-20.28,37.38,37.38,0,0,1,.87-8.4q-1.46,0-3.19,4.34t-3.47,9.86q-1.74,5.51-2.9,9.85-3.48,12.45-7.53,25.64t-8.7,25.93a73.32,73.32,0,0,0,7.39,4.06q4.2,2,8.26,3.76,3.76,1.74,8.26,3.33A86.8,86.8,0,0,0,374.71,228.84Z"/><path class="cls-2" d="M595.54,259.55q-10.42,0-16.51-6.67a41.51,41.51,0,0,1-9-16.08,78.24,78.24,0,0,1-3.48-17.52q-.59-7.83-.87-16.66t-.29-18.69q0-18,1-37.09t3.19-37.23A324.59,324.59,0,0,1,575,77.31a117.09,117.09,0,0,1,5.51-16.52,54.58,54.58,0,0,1,9.85-16.08q6.07-6.8,14.48-6.81,17.1,0,17.1,25.79,0,10.14-3.33,29.12a247.07,247.07,0,0,1-12,42.44,249.61,249.61,0,0,1-10.28,24.49q-5.94,12.31-11.74,22.45a39.21,39.21,0,0,0-.29,4.78v4.78q0,9.85.73,20a129,129,0,0,0,2.61,18.69,40.29,40.29,0,0,0,5.36,13.76q3.46,5.22,9,5.22a12.15,12.15,0,0,0,10.28-5.36,49.75,49.75,0,0,0,5.94-10.29,58.44,58.44,0,0,0,2.18-5.79q1-3.19,2.17-6.67,1.15-3.18,3.18-3.18c1,0,1.45,1.06,1.45,3.18v.58a24.72,24.72,0,0,1-.72,5.22,54.23,54.23,0,0,1-1.88,6.37,52.36,52.36,0,0,1-10.14,18.4Q607.7,259.55,595.54,259.55Zm-10.72-89.82a349.21,349.21,0,0,0,13.91-32.59,283.48,283.48,0,0,0,10.29-34,135.78,135.78,0,0,0,3.91-30.42,61.8,61.8,0,0,0-1.31-13.91c-.87-3.66-2.46-5.5-4.78-5.5-2.13,0-4.1,2.17-5.94,6.52A99.51,99.51,0,0,0,595.83,77q-2.33,10.73-4.2,23t-3.19,24.34q-1.29,12-2,21.15t-1,13.18c0,1.16,0,2.66-.14,4.49S585,167.22,584.82,169.73Z"/><path class="cls-2" d="M658.83,263.89q-13.91,0-22.46-8.54a50.52,50.52,0,0,1-12.45-21.15A83.26,83.26,0,0,1,620,209.42a138.18,138.18,0,0,1,2.89-27.95A93.67,93.67,0,0,1,632,155.82a55.65,55.65,0,0,1,15.79-18.68,36.87,36.87,0,0,1,22.6-7.1q9.27,0,14.48,5.5t5.22,16.23a46.72,46.72,0,0,1-7.1,25.64,59,59,0,0,1-17.82,18.11,68.59,68.59,0,0,1-22.31,9.56v1.45a94.49,94.49,0,0,0,2.47,22.16q2.46,10.29,8.11,16.52t14.92,6.22A19.48,19.48,0,0,0,685.77,242q6.09-9.42,9.57-23.9a6.45,6.45,0,0,1,1-2.18c.48-.67.91-1,1.3-1q2.61,0,2.32,3.77a61.5,61.5,0,0,1-3.47,14.77A76.58,76.58,0,0,1,691,245.35a41.05,41.05,0,0,1-13.18,13.76Q670.13,263.9,658.83,263.89Zm-15.65-65.48a34.91,34.91,0,0,0,16.23-9.12,48.75,48.75,0,0,0,10.86-16.08,48,48,0,0,0,3.92-18.84v-1.44a30.14,30.14,0,0,0-1.6-9.85q-1.59-4.64-5.94-4.64c-3.47,0-6.52,1.69-9.12,5.07a46.13,46.13,0,0,0-6.67,12.89,125,125,0,0,0-4.49,16.23A155.22,155.22,0,0,0,643.91,188q-.74,7-.73,10.14Z"/><path class="cls-2" d="M476.4,214.64q-1.15,0-2.31,2.61-2,6.38-3.91,12A54.22,54.22,0,0,1,466,239q-3.18,6.38-5.94,8.69A8.15,8.15,0,0,1,455,250h-.29q-4.65,0-7-6.38a55.52,55.52,0,0,1-2.9-15.35q-.58-9-.58-16.52v-6.66q.28-14.19,1.16-31.15t2.32-32.88H470.9a2.84,2.84,0,0,0,2.61-1.45,5.6,5.6,0,0,0,.87-2.9c0-2.12-.87-3.19-2.61-3.19H448.59q.9-10.33,2-19.26l-1.93-.18c-1-.09-2.59-.14-4.46-.14l-4.52-.08-5,.29a10.61,10.61,0,0,0-1.47.13l-.36,0a29.94,29.94,0,0,1-3.34.28,9.71,9.71,0,0,1-1.84-.19q-1,8.81-1.92,19.1h-8.4a2.91,2.91,0,0,0-2.46,1.6,5.68,5.68,0,0,0-1,3c0,1.93.78,2.9,2.32,2.9h9q-1.15,13.32-1.74,26.22t-.87,22.45q-.28,9.57-.57,13v4.35A142.67,142.67,0,0,0,423,223a80.56,80.56,0,0,0,3.91,17.38,36.53,36.53,0,0,0,8.26,13.91q5.36,5.5,14.05,5.51a19.34,19.34,0,0,0,14.92-7,50.16,50.16,0,0,0,9.71-16.51,66,66,0,0,0,4.05-17.09v-1.16C477.85,215.8,477.37,214.64,476.4,214.64Z"/><path class="cls-1" d="M389.16,104.7h0c-4.46-.84-7.44-2-8.86-3.4s-3.3-5.19-5.52-11.19l-1.58-4.06L342.25,3.23c-.59-1.62-1.37-2.45-2.31-2.45s-1.76.82-2.45,2.5l-4.34,10.08a.4.4,0,0,0,0,.32l26.29,70.25c2.9,7.85,4.36,13.15,4.36,15.75s-1.07,4.25-3.29,4.72l-2.22.52c-1.75.36-2.12,1.26-2.12,2s.3,2,2.27,2a12.68,12.68,0,0,0,2.3-.31,98.64,98.64,0,0,1,12.46-.45c6.34,0,10.81.13,13.28.38,1.42.1,2.33.15,2.77.15,1.91,0,2.36-.89,2.41-1.64S391.29,105.12,389.16,104.7Z"/><path class="cls-1" d="M422.27,104.47h0c-4.73-.82-7.63-2.44-8.62-4.8a25.33,25.33,0,0,1-1.34-9.31V6.07l.07-2.34c0-1.85-.23-2.95-.73-3.44a1,1,0,0,0-.75-.29,3.15,3.15,0,0,0-1.68.68,33,33,0,0,1-6.92,3.56l-4.4,1.88a32.07,32.07,0,0,1-4.43,1.42c-1.44.41-2.17,1.09-2.17,2a1.69,1.69,0,0,0,1.1,1.62l0,0a4.72,4.72,0,0,0,1.35.17h0l3.58-.15c2.83,0,4.21,2.12,4.21,6.5V97.13a9.11,9.11,0,0,1-1,5,7.64,7.64,0,0,1-4.14,2.43c-1.59.45-2.37,1.21-2.31,2.26,0,.7.39,1.87,2.35,1.87a24.2,24.2,0,0,0,2.79-.38c1-.15,3.86-.23,8.39-.23h3.76l6.27-.07a17.17,17.17,0,0,1,3.15.21,9,9,0,0,0,2,.32,1.88,1.88,0,0,0,1.45-.55,2.14,2.14,0,0,0,.46-1.59C424.62,105.4,423.81,104.75,422.27,104.47Z"/><path class="cls-1" d="M453.4,104.92h0l-3.3-.38c-2.26-.33-3.76-1.05-4.43-2.15s-1.05-3.45-1.05-6.92V44.81c0-1.75-.71-2.18-1.3-2.22a.34.34,0,0,0-.2,0l-3.85,1.89a74.48,74.48,0,0,1-10.2,4.79c-2.67.87-3.9,1.66-4,2.57a1.23,1.23,0,0,0,.31.9c.44.49,1.31.72,2.75.72,2.39,0,3.95.57,4.63,1.68s1.09,3.84,1.09,7.89V95.79a17.08,17.08,0,0,1-.86,6.36,4.84,4.84,0,0,1-3,2.64l-1.38.45a2.05,2.05,0,0,0-1.56,2c0,.67.3,1.8,2.34,1.8a25,25,0,0,0,2.67-.23,17.07,17.07,0,0,1,2.19-.22l5.24-.3,4.62.09c2.05,0,3.74,0,5,.17,2.35.23,3.9.34,4.73.34,1.86,0,2.3-.89,2.35-1.64C456.32,106,455.36,105.2,453.4,104.92Z"/><path class="cls-1" d="M512.79,50.15c2.2-.88,3.21-1.64,3.27-2.49a1.48,1.48,0,0,0-.35-1.13A2.17,2.17,0,0,0,514,46c-.44,0-1.32.05-2.69.15-1.61.15-4.91.22-9.8.22-2.47,0-4.22-.05-5.19-.14a22.92,22.92,0,0,0-2.7-.23c-2,0-2.26,1.22-2.26,2s.39,1.6,2.27,1.88c4.43.77,6.58,2.73,6.58,6,0,3.83-1.23,8.53-3.65,14L484.81,95.61,469.33,58.67a13.8,13.8,0,0,1-1.27-4.86c0-2,2.09-3.37,6.2-3.93,1.57-.18,2.36-.79,2.36-1.8a2,2,0,0,0-.51-1.47,1.94,1.94,0,0,0-1.53-.49c-.59,0-1.66.07-3.27.23-1.12.09-3.16.14-6.07.14a125.83,125.83,0,0,1-13-.44,12.24,12.24,0,0,0-1.7-.16c-2.11,0-2.55,1.07-2.55,2s.59,1.47,1.77,1.93c3.19,1.26,5.75,4.12,7.62,8.51l20.87,49.52a3.23,3.23,0,0,0,3,2.37,3,3,0,0,0,2.74-2.13l23.46-51.18C509.13,53.17,510.93,50.91,512.79,50.15Z"/><path class="cls-1" d="M560.6,94.33a1.27,1.27,0,0,0-1-.32h0a2.86,2.86,0,0,0-1.27.6c-6,4.84-11.72,7.29-16.84,7.29-6.48,0-12-2.9-16.45-8.61S518.27,80.38,518.27,72l.06-1.26h26.86l4.91.15,5.34.07c3.37,0,5.08-1,5.08-2.89,0-1.22-.6-3.27-1.83-6.26a40.62,40.62,0,0,0-3.57-7c-4.86-7-11.43-10.63-19.54-10.63-7.43,0-14,3.35-19.51,10a35.1,35.1,0,0,0-8.31,23.14c0,9.22,2.71,17.07,8.06,23.33s12.07,9.45,20,9.45c7,0,13.75-2.6,20-7.72,3.49-2.85,5.19-5,5.19-6.69A1.76,1.76,0,0,0,560.6,94.33ZM518.83,65.74c.65-5.34,2.23-9.62,4.71-12.74a11.75,11.75,0,0,1,9.52-4.77c3.66,0,7.12,1.65,10.27,4.91s4.74,6.83,4.74,10.61c0,1.65-2.88,2-5.29,2Z"/><path class="cls-1" d="M331.38,29.29c-.37-1-1.48-4.08-1.3-6.06a.46.46,0,0,0-.31-.53c-.36-.09-.46-.13-1.83,2.83-.64,1.38-1.36,3-1.69,3.81L324.69,33a20.58,20.58,0,0,0-.37,15.22l7.24,19.33a39.9,39.9,0,0,1,2.78,13.23,35,35,0,0,1-10.06,26.36,30.78,30.78,0,0,1-19.75,7.15c-17.66,0-32-15-32-33.47S284.3,50.7,302,50.7a31.57,31.57,0,0,1,4.75.37,9.58,9.58,0,0,0-3.28,7.27,9.24,9.24,0,0,0,9,9.42c3.46,0,6.63-2.54,8.09-5.73,1.19-2.6.32-7.74-1.56-9.87a14.36,14.36,0,0,0-5-3.58c-3.76-1.64-8-1.94-12-1.94-19.81,0-33.37,13.46-33.37,34.15s16.12,37.54,35.93,37.54c10.87,0,23.53-7,30.45-15.59,8.65-10.75,11.36-18.88,11.36-26.16a48.49,48.49,0,0,0-3.09-15.52Z"/><path class="cls-3" d="M304.54,110.1s11.73-25.52-24.92-36.36C277.43,102.7,290.13,111.51,304.54,110.1Z"/><path class="cls-4" d="M308.93,109.85S302.32,92.7,324,84.9c1.09,13.1-1.5,23.62-14.31,25"/><path class="cls-3" d="M436.72,38.34a10,10,0,0,1-8-.37,75.28,75.28,0,0,0,6.24-10.6A139.09,139.09,0,0,0,441,12.78c.27-.09.5.26.7,1l.69,7.06q.81,7.53-.92,12C440.35,35.84,438.76,37.67,436.72,38.34Z"/><path class="cls-4" d="M426.28,26.46c1.25-1.82,3.39-3.29,6.26-4.86a36.58,36.58,0,0,0,5.55-3.37c.18-.14.4.09.29.3-1.86,3.53-4.19,7.84-5.68,10.52a83.71,83.71,0,0,1-4.67,8,8.7,8.7,0,0,1-3.12-5.36A6.72,6.72,0,0,1,426.28,26.46Z"/><path class="cls-1" d="M509.92,287l7.6.18c.1-.75.22-1.52.32-2.27.45-3.61.84-7.05,1.17-10.34l-9.17-.37c-69.1-2.52-169.12-1.37-288.51,11.47.29,5.94.68,11.59,1.16,16.9.11,1.16.22,2.29.33,3.41C340.74,291.12,439,285.39,509.92,287Z"/><path class="cls-1" d="M664.93,290.12a1078.69,1078.69,0,0,0-114.34-13.73q-.57,6.11-1.39,11.83c64.4,2.38,105.42,6.16,115,7.13a2.63,2.63,0,0,0,2.8-1.89h0A2.64,2.64,0,0,0,664.93,290.12Z"/><path class="cls-2" d="M214.67,258.38c0-.77,0-1.53,0-2.31q0-13.77.5-28.22.17-4.68.37-9.44A27.79,27.79,0,0,1,233.35,230a60.25,60.25,0,0,1,6.85,12.94,76.56,76.56,0,0,1,2.86,9.08c.28,1.14.55,2.28.81,3.43a145.7,145.7,0,0,1,3.18,21.67q6.31-.6,12.53-1.16-.54-6.06-1.6-12.5a105.63,105.63,0,0,0-5-19l-.09-.25c-.32-.88-.65-1.75-1-2.62s-.78-1.91-1.19-2.85a53.92,53.92,0,0,0-13.62-19.12,31.81,31.81,0,0,0-7-4.68,33.11,33.11,0,0,0-8.06-2.71,39.56,39.56,0,0,0-6-.73c0-1.27,0-2.52.07-3.76,0-.63,0-1.27.08-1.89q.08-1.37.18-2.79c.07-.94.16-1.89.25-2.86q2.72-5.53,5.47-11.45,4.6-9.84,9.31-20.71,1.88-4.34,3.7-8.72c1.69-4.06,3.31-8.15,4.92-12.25,1.86-4.77,3.68-9.55,5.43-14.38.76-2.09,1.48-4.16,2.19-6.23,1.31-3.84,2.55-7.65,3.68-11.4.87-2.89,1.68-5.74,2.44-8.57S255.3,100.8,256,98a152.41,152.41,0,0,0,3.36-19.52A103.55,103.55,0,0,0,259.86,68a37.67,37.67,0,0,0-.79-7.53c-.13-.66-.29-1.32-.46-2-.23-.92-.48-1.85-.78-2.8-.16-.54-.35-1.07-.54-1.6a31.55,31.55,0,0,0-1.3-3,28.21,28.21,0,0,0-2.5-4.1c-.41-.55-.85-1.09-1.3-1.61-.24-.28-.48-.55-.73-.82a14.6,14.6,0,0,0-1.66-1.5,15.66,15.66,0,0,0-9.93-3.14h0q-.54,0-1.08,0c-.35,0-.71,0-1.06.09a20.32,20.32,0,0,0-2.07.35c-.34.08-.68.17-1,.27a21.16,21.16,0,0,0-10,6.79,49.89,49.89,0,0,0-6,8.84,78.87,78.87,0,0,0-5,11.45,195.79,195.79,0,0,0-7.53,28.82q-.76,4-1.45,8.1-1.38,8.14-2.47,16.51-.54,4.18-1,8.42c-.31,2.83-.61,5.63-.88,8.42s-.52,5.56-.75,8.32q-.69,8.25-1.12,16.29c-.07,1.34-.14,2.67-.21,4q-.19,3.83-.35,7.46c-.06,1.29-.12,2.57-.17,3.82q-.21,5.4-.35,10.34c0,1.1-.06,2.18-.08,3.24q-.14,9-.25,16.42c0,.71,0,1.4,0,2.09q-.15,8.22-.29,14.38c0,2.06-.09,4-.13,5.87q-.16,8.29-.16,13.83v13.18c0,1.34,0,2.65,0,3.94v1.11c0,.86,0,1.71,0,2.55v1.61c0,.64,0,1.28,0,1.91s0,1.24,0,1.85,0,.93,0,1.39c0,.72,0,1.45,0,2.16V274c0,4.61.12,8.9.21,12.82q.28,12.47.58,17.39c.26,3.56.67,7.25,1.21,11h0c.1.7.2,1.4.31,2.11.16,1.05.32,2.11.5,3.19v0a70.56,70.56,0,0,0,3.15,12.16c.46,1.28.95,2.54,1.48,3.77a30.63,30.63,0,0,0,9.28,12.17,18.93,18.93,0,0,0,3.31,2.09,22.44,22.44,0,0,0,3.86,1.5c.68.19,1.39.37,2.13.52a33.41,33.41,0,0,0,4.67.6c.82,0,1.67.07,2.54.07h0a18.65,18.65,0,0,0,10.8-3.34c.46-.33.93-.67,1.38-1a26.24,26.24,0,0,0,4.48-4.75c.57-.76,1.11-1.54,1.65-2.36.29-.45.56-.93.84-1.39s.47-.75.69-1.15c.41-.7.79-1.44,1.17-2.19l.27-.51c.45-.91.88-1.85,1.3-2.82l0-.07a79.08,79.08,0,0,0,4.33-13.41A122,122,0,0,0,259,307.67q-5.58.63-11.19,1.3c-.17,2.72-.42,5.35-.76,7.91s-.79,5.13-1.34,7.57a65.35,65.35,0,0,1-3.33,10.84,37.27,37.27,0,0,1-3,6,19.59,19.59,0,0,1-1.62,2.2c-2.3,2.77-4.85,4.18-7.65,4.18-1.67,0-3.22-1.17-4.67-3.48a28.61,28.61,0,0,1-2.56-5.62c-.3-.87-.59-1.79-.88-2.78-.2-.67-.39-1.36-.58-2.07,0-.18-.09-.35-.13-.53-.19-.71-.37-1.45-.55-2.21v-.05c-.18-.75-.35-1.54-.52-2.33,0-.17-.07-.35-.11-.52q-.25-1.25-.51-2.55v0c-.16-.87-.32-1.77-.48-2.68,0-.16-.05-.32-.08-.49q-.48-2.82-.9-5.91l-.06-.46c-.15-1.05-.29-2.12-.42-3.22q-.56-4.51-1-9.56-1-10.63-1.44-22.76-.33-8.61-.42-18C214.68,261.09,214.68,259.73,214.67,258.38ZM239,63a24.46,24.46,0,0,1,1.61-2.72c1.63-2.34,3.32-3.5,5-3.5H246a3,3,0,0,1,.32.06q2.08.48,3.16,3.7a23.34,23.34,0,0,1,1,5.25c.11,1.24.16,2.58.16,4s-.06,3.2-.18,5-.3,3.63-.54,5.61-.52,4-.84,6.05-.66,4.14-1.05,6.26q-1.08,5.94-2.39,11.79-3.26,14.63-7.87,28.68c-.62,1.87-1.25,3.74-1.91,5.6q-2,5.58-4.05,11.12-1,2.78-2.14,5.53-5.43,13.81-11.77,27.39,2-22.82,5.3-45.86c.31-2.19.6-4.39.93-6.58q3.13-21.18,7.33-41.23c.68-3.27,1.36-6.54,2.09-9.77a81.73,81.73,0,0,1,4-13C238,65.12,238.47,64,239,63Z"/><path class="cls-2" d="M571.43,219a1.28,1.28,0,0,1-.58-.15,1.94,1.94,0,0,0-.86-.14q-3.19,0-9.42,3t-14.63,8v-3.19q0-6.37-.29-17.82t-.29-23.9q0-11,.58-21.3a119.57,119.57,0,0,1,2.17-17.82q1.59-7.53,4.49-10.14c.77-.77,1.16-1.35,1.16-1.74,0-1.16-1.45-1.73-4.35-1.73h-3.47a40.26,40.26,0,0,0-9.71,1.44c-3.76,1-6.91,3.68-9.41,8.12a26.58,26.58,0,0,0-3.48,12.46c-.2,4.63-.39,9.08-.58,13.32a180.35,180.35,0,0,1-2.75,22,152.39,152.39,0,0,1-6.09,23,76.62,76.62,0,0,1-9.7,19.26q-2.61,3.48-4.35,3.48c-1.55,0-2.8-1.35-3.77-4.06a55.66,55.66,0,0,1-2.31-9q-.59-4-.87-9.41c-.2-3.58-.29-7.29-.29-11.16q0-11.58,1.16-24.34t3.18-23.9a90.17,90.17,0,0,1,4.93-18.11,1.18,1.18,0,0,0,.29-.87.9.9,0,0,0-.73-1,14.85,14.85,0,0,1-1.59-.43,10.23,10.23,0,0,0-2.46-.3h-2.75q-12.77,0-17.1,11a66.21,66.21,0,0,0-3.48,14.64q-1.15,8.55-1.59,17t-.72,14.48q0,1.74-.15,4.2c-.1,1.65-.14,3.53-.14,5.65q0,7,.43,15.65t1.45,17.09a93.6,93.6,0,0,0,2.9,14.92q1.88,6.53,4.78,9.13a9.82,9.82,0,0,0,6.66,2.9,12.86,12.86,0,0,0,8.69-3.62,41.85,41.85,0,0,0,7.25-8.55,67.61,67.61,0,0,0,4.63-8.11q5.79-13,10-25.5a179.22,179.22,0,0,0,6.52-25.21q.87,10.15,1.3,21t.73,19.41q.28,8.55.28,12.32-8.4,5.2-20,13.76a183.43,183.43,0,0,0-15.62,13q6.27.15,12,.33,5-5,9.74-9.08,9.56-8.12,14.2-10.72c-.19,3.12-.46,7.78-.82,13.95h0c0,.33,0,.64-.05,1a.49.49,0,0,0,0,.12c0,.88-.11,1.79-.18,2.7a.53.53,0,0,1,0,.13c-.06.93-.13,1.88-.21,2.84q-.63,7.73-1.77,16.81-.48,3.78-1.1,7.58h0c-.38,2.37-.81,4.74-1.26,7.12-.19,1-.38,2-.58,3-.16.74-.31,1.48-.47,2.22-.39,1.81-.79,3.63-1.22,5.45a137.91,137.91,0,0,1-7.83,23.61,64.6,64.6,0,0,1-3.32,6.55,50,50,0,0,1-6.82,9.25c-.56.6-1.14,1.18-1.73,1.73a26.07,26.07,0,0,1-2.95,2.36c-.5.34-1,.67-1.53,1A23.3,23.3,0,0,1,490,358a26.26,26.26,0,0,1-4.69.83c-.81.07-1.64.1-2.48.1h-.87q-6.37,0-9.85-5.93a22.34,22.34,0,0,1-2.12-5c-.18-.61-.35-1.23-.49-1.88a39.61,39.61,0,0,1-.87-8.66c0-.72,0-1.47.06-2.22,0-.1,0-.21,0-.31a63.68,63.68,0,0,1,.87-7.42h0c.26-1.52.57-3.08.95-4.68a92.09,92.09,0,0,1,5.65-16.37,122.15,122.15,0,0,1,7.32-13.75c-4.4,0-8.85,0-13.38.09q-1.69,2.73-3.21,5.55a125.46,125.46,0,0,0-8.11,19.7,75.26,75.26,0,0,0-2.21,8.85c0,.18-.06.36-.1.54-.08.46-.15.92-.21,1.37s-.09.59-.13.89-.11.79-.15,1.18-.08.72-.12,1.08-.07.68-.09,1-.06.87-.09,1.3c0,.27,0,.54,0,.8,0,.69,0,1.38,0,2.06v0q0,11.88,6.81,19.85a18,18,0,0,0,1.84,1.87,20.32,20.32,0,0,0,3.73,2.56,25.67,25.67,0,0,0,4.62,1.9l.76.22c.88.24,1.78.46,2.73.64.54.11,1.1.2,1.67.28a51.53,51.53,0,0,0,7.39.5h0q16.23,0,30-12.89t22-39.26h0c.42-1.33.81-2.7,1.2-4.08l.17-.61c.38-1.38.74-2.8,1.09-4.23l.09-.4q1.1-4.6,2-9.55s0-.05,0-.07h0a233.55,233.55,0,0,0,2.9-23.92h0c.06-.76.1-1.55.15-2.32,0-.58.07-1.15.1-1.73.06-1,.11-1.95.16-2.94,0-.05,0-.1,0-.15h0c.25-5.34.39-10.87.39-16.64v-3.48q0-3.18,4.92-7.38a68.11,68.11,0,0,1,10.87-7.54q5.94-3.33,9.41-3.62a1.88,1.88,0,0,0,1.74-1,3.83,3.83,0,0,0,.58-1.89C572.88,220,572.4,219.18,571.43,219Z"/><path class="cls-2" d="M173.85,259.84A18.71,18.71,0,0,1,157.48,251q-5.94-8.83-8.4-22.6a163.57,163.57,0,0,1-2.46-28.83,218.81,218.81,0,0,1,1.3-24.19q1.31-11.73,3.19-20.57a65.45,65.45,0,0,1,3.62-12.6,19.46,19.46,0,0,1,5.65-6.52q3.92-3,10.58-3.05a34,34,0,0,1,7.53.87q-2.9,10.16-7,28.11a180.09,180.09,0,0,0-4.06,39.69q0,7.55.29,16.08a129.89,129.89,0,0,0,1.45,15.94,38.55,38.55,0,0,0,3.62,12q2.46,4.64,6.52,4.64h.29a8.19,8.19,0,0,0,5.07-2.32q2.75-2.31,5.94-8.69a117.8,117.8,0,0,0,8.11-21.73c.39-1.74,1.16-2.61,2.32-2.61,1,0,1.45,1.16,1.45,3.48v1.16a65.62,65.62,0,0,1-4.06,17.09,50,50,0,0,1-9.71,16.51A19.34,19.34,0,0,1,173.85,259.84Zm2-148.06a13.5,13.5,0,0,1-9.7-4,13.65,13.65,0,0,1,0-19.7,13.88,13.88,0,1,1,9.7,23.75Z"/></g></g></svg>