<svg xmlns="http://www.w3.org/2000/svg" xmlns:xlink="http://www.w3.org/1999/xlink" viewBox="0 0 807.81 328.77"><defs><style>.cls-1{fill:url(#linear-gradient);}.cls-2{fill:url(#linear-gradient-2);}.cls-3{fill:url(#linear-gradient-3);}.cls-4{fill:#fdb913;}.cls-5{fill:url(#linear-gradient-4);}.cls-6{fill:url(#linear-gradient-5);}.cls-7{fill:url(#linear-gradient-6);}.cls-8{fill:url(#linear-gradient-7);}.cls-9{fill:url(#linear-gradient-8);}.cls-10{fill:url(#linear-gradient-9);}.cls-11{fill:url(#linear-gradient-10);}.cls-12{fill:#8dc63f;}.cls-13{fill:#d7df23;}.cls-14{fill:url(#linear-gradient-11);}.cls-15{fill:url(#linear-gradient-12);}.cls-16{fill:url(#linear-gradient-13);}.cls-17{fill:url(#linear-gradient-14);}.cls-18{fill:url(#linear-gradient-15);}.cls-19{fill:url(#linear-gradient-16);}.cls-20{fill:url(#linear-gradient-17);}</style><linearGradient id="linear-gradient" x1="221.45" y1="111.41" x2="221.45" y2="281.76" gradientUnits="userSpaceOnUse"><stop offset="0" stop-color="#fdb913"/><stop offset="1" stop-color="#f15a22"/></linearGradient><linearGradient id="linear-gradient-2" x1="318.09" y1="111.41" x2="318.09" y2="281.76" xlink:href="#linear-gradient"/><linearGradient id="linear-gradient-3" x1="376.92" y1="111.41" x2="376.92" y2="281.76" xlink:href="#linear-gradient"/><linearGradient id="linear-gradient-4" x1="479.73" y1="111.41" x2="479.73" y2="281.76" xlink:href="#linear-gradient"/><linearGradient id="linear-gradient-5" x1="606" y1="111.41" x2="606" y2="281.76" xlink:href="#linear-gradient"/><linearGradient id="linear-gradient-6" x1="740.24" y1="111.41" x2="740.24" y2="281.76" xlink:href="#linear-gradient"/><linearGradient id="linear-gradient-7" x1="38.48" y1="111.41" x2="38.48" y2="281.76" xlink:href="#linear-gradient"/><linearGradient id="linear-gradient-8" x1="142.16" y1="111.41" x2="142.16" y2="281.76" xlink:href="#linear-gradient"/><linearGradient id="linear-gradient-9" x1="72.11" y1="-9.94" x2="72.11" y2="119.2" gradientUnits="userSpaceOnUse"><stop offset="0" stop-color="#8dc63f"/><stop offset="1" stop-color="#51773c"/></linearGradient><linearGradient id="linear-gradient-10" x1="180.61" y1="-9.94" x2="180.61" y2="119.2" xlink:href="#linear-gradient-9"/><linearGradient id="linear-gradient-11" x1="704.7" y1="-9.94" x2="704.7" y2="119.2" xlink:href="#linear-gradient-9"/><linearGradient id="linear-gradient-12" x1="663.29" y1="-9.94" x2="663.29" y2="119.2" xlink:href="#linear-gradient-9"/><linearGradient id="linear-gradient-13" x1="643.43" y1="-9.94" x2="643.43" y2="119.2" xlink:href="#linear-gradient-9"/><linearGradient id="linear-gradient-14" x1="685.86" y1="-9.94" x2="685.86" y2="119.2" xlink:href="#linear-gradient-9"/><linearGradient id="linear-gradient-15" x1="413.58" y1="-9.94" x2="413.58" y2="119.2" xlink:href="#linear-gradient-9"/><linearGradient id="linear-gradient-16" x1="648.46" y1="-9.94" x2="648.46" y2="119.2" xlink:href="#linear-gradient-9"/><linearGradient id="linear-gradient-17" x1="538.99" y1="-9.94" x2="538.99" y2="119.2" xlink:href="#linear-gradient-9"/></defs><g id="Layer_2" data-name="Layer 2"><g id="Layer_1-2" data-name="Layer 1"><path class="cls-1" d="M175.64,263.2a29.39,29.39,0,0,1-8.32-10.75A37.55,37.55,0,0,1,164.17,237a59.69,59.69,0,0,1,2.58-18,79.65,79.65,0,0,1,7.69-17.59,88.43,88.43,0,0,1,12-15.89,85,85,0,0,1,15.45-12.93q18.4-11.86,38.2-11.87,26,0,35.18,19.18,6.56,13.89.76,33.59a82.54,82.54,0,0,1-19.42,33.28,78,78,0,0,1-33,21.51,59.56,59.56,0,0,1-18.84,3.18,61.51,61.51,0,0,1-16.52-2A34.5,34.5,0,0,1,175.64,263.2Zm24.08-51.39a91.09,91.09,0,0,0-6,16.1,56.42,56.42,0,0,0-2.08,15.64q.12,7.37,2.71,11.55t8.38,4.18a22,22,0,0,0,11.41-3.34,52.37,52.37,0,0,0,10.91-8.84,85.32,85.32,0,0,0,10-12.72,112.25,112.25,0,0,0,8.19-15q7.69-17.06,7.44-30.31,0-11.65-5.67-14.83a13.14,13.14,0,0,0-6.37-1.27q-4.1,0-9.39,3.12a53.91,53.91,0,0,0-10.59,8.43,90,90,0,0,0-10.22,12.39A112.72,112.72,0,0,0,199.72,211.81Z"/><path class="cls-2" d="M292.72,266.17a20.49,20.49,0,0,1-5.11-7.05,23.86,23.86,0,0,1-1.95-10q0-5.67,3.09-15.2t7.88-21.73l10.59-26.39c5.91-14.76,13.95-38.44,16.31-58.5q1.13-8.91,10.34-8.9a17.94,17.94,0,0,1,9.58,2.33q7.31,4.67,7.06,10.38a69,69,0,0,1-2.4,13.94c-1.43,5.47-21,54.74-21,54.74q-15,36.67-15,47.37c0,3.82,1.84,5.72,5.54,5.72a23.81,23.81,0,0,0,9.65-1.9c2.9-1.28,4.77-1.91,5.61-1.91,1.76,0,2.65.74,2.65,2.22q0,9.43-11.48,15.79-7.68,4.35-14.06,4.35a34.27,34.27,0,0,1-10.27-1.27A20,20,0,0,1,292.72,266.17Z"/><path class="cls-3" d="M392,250.59q3.27,0,3.27,3.6,0,4.77-5.17,9.86-7.56,7.43-20.3,7.42-14.62,0-20-10a16.66,16.66,0,0,1-2-8.48A34.48,34.48,0,0,1,349.81,242,137.24,137.24,0,0,1,355,229.13q3.09-6.72,6.74-13.61l6.69-13.36q7.3-14.94,7.31-19.71t-1.2-6.3a9.9,9.9,0,0,0-2.58-2.39l-2.53-1.48a2.76,2.76,0,0,1-1.26-2.6,5,5,0,0,1,1.71-3.55,15.05,15.05,0,0,1,4.47-3,33.28,33.28,0,0,1,13.24-2.44q18.54,0,18.54,8.16,0,9.54-5.93,21.78t-10.09,19.76l-7.56,14.62q-8.32,16.11-8.32,23.21c0,3.11,1.84,4.66,5.54,4.66a22.11,22.11,0,0,0,8.2-1.16A12.06,12.06,0,0,1,392,250.59Z"/><path class="cls-4" d="M413.87,143.63a19.31,19.31,0,0,1-5.3,4,17.79,17.79,0,0,1-6.25,1.91,11.23,11.23,0,0,1-6.2-1,14.58,14.58,0,0,1-5-3.92q-4.56-5.3-4.56-10.7t1.75-8.11a14.51,14.51,0,0,1,4.4-4.39,17.85,17.85,0,0,1,9.59-3.29,29.38,29.38,0,0,1,7,.64,13.91,13.91,0,0,1,4.61,2.12q5.19,3.5,5.19,8.53a21.43,21.43,0,0,1-1.43,8.37A20,20,0,0,1,413.87,143.63Z"/><path class="cls-5" d="M529.61,249c1.76,0,2.64.78,2.64,2.33q0,9.12-11.22,15.69-7.44,4.44-14,4.45a35.33,35.33,0,0,1-10.53-1.27,20,20,0,0,1-7.06-4q-7.06-6.36-7.07-17.48a40,40,0,0,1,1-7.11q-10.21,13.26-17.52,18.66-14.76,11.24-28.88,11.23-22.32,0-29.25-17-2.52-6.24-2.52-15.68a57,57,0,0,1,3.4-19.08,81,81,0,0,1,9.27-18.33,100.5,100.5,0,0,1,13.62-16.16,106.29,106.29,0,0,1,16.33-13q18.41-11.55,33.28-11.55t23.83,10.17c14.63-42.1,17.81-50.78,25.21-58.34q4.67-4.66,9.83-4.66,8.58,0,13,4.13a4,4,0,0,1,1.39,2.76c0,.92-.68,2.61-2,5.08s-3.32,6.47-5.93,12c-7.48,16.6-30.5,80.59-30.5,80.59q-9,26.17-8.95,33.28t6.18,7.1a26.77,26.77,0,0,0,9.08-1.27l4.79-1.91A6.42,6.42,0,0,1,529.61,249ZM443,255.57q13,0,29.76-21.3a130.72,130.72,0,0,0,24.46-48,12.19,12.19,0,0,0-7.18-10.6,15.65,15.65,0,0,0-6.88-1.16,26.29,26.29,0,0,0-10.71,2.8,53.88,53.88,0,0,0-11.86,7.58,71.83,71.83,0,0,0-10.71,11.18,83.94,83.94,0,0,0-8.64,13.62q-8,15.67-7.94,30.78T443,255.57Z"/><path class="cls-6" d="M638.39,242.22q0,9.75,8.2,9.75a25.54,25.54,0,0,0,9.39-1.48,17.53,17.53,0,0,1,5-1.49c1.76,0,2.64.78,2.64,2.33q0,9.12-11.35,15.69-12,6.89-24.46,3.39a19.07,19.07,0,0,1-12.1-10.49,18.32,18.32,0,0,1-1.89-7.53,58.1,58.1,0,0,1,1.26-11.65q-11.73,20.13-29.13,27.76a37.06,37.06,0,0,1-14.75,3,31.53,31.53,0,0,1-13.55-2.7,28.81,28.81,0,0,1-9.78-7.47q-8.19-10-7.43-25,.75-18.87,13.23-37a93.52,93.52,0,0,1,29-27.66q17.54-10.9,32.79-10.91T640,172.49q8.7-11.76,15.39-11.76,7.19,0,10.84,2.22,6.93,4.25,4.92,7.42-31.65,54.48-32.53,67.82A30.56,30.56,0,0,0,638.39,242.22Zm-70,.42q0,12.72,9.7,12.72,7.44,0,18.29-10.6,15.89-15.57,28.12-42a135.07,135.07,0,0,0,6.55-16.53,12.19,12.19,0,0,0-7.18-10.6,15.27,15.27,0,0,0-6.75-1.16,25.72,25.72,0,0,0-10.47,2.75,51.08,51.08,0,0,0-11.6,7.52,68.1,68.1,0,0,0-10.46,11.29,85.37,85.37,0,0,0-8.51,14.15A75.52,75.52,0,0,0,568.42,242.64Z"/><path class="cls-7" d="M674.18,260.13a20,20,0,0,1-1.51-8,32.55,32.55,0,0,1,1.82-10.07,96.8,96.8,0,0,1,4.73-11.6q2.89-6,6.31-12.4l6.81-12.72q13.11-24.48,9.7-29a15.55,15.55,0,0,0-5.67-4,2.64,2.64,0,0,1-1.51-2.6,4.88,4.88,0,0,1,1.83-3.55,16.53,16.53,0,0,1,4.72-3,33.37,33.37,0,0,1,12.36-2.44,30.31,30.31,0,0,1,9.39,1.11,16.39,16.39,0,0,1,5.24,2.81q4.15,3.49,4.16,7.74a32.24,32.24,0,0,1-1.64,9.48,115.07,115.07,0,0,1-4.29,11.39q-2.64,6.15-5.8,12.72-8.7,17.16-11.72,22.68l-4.67,8.16q-3.91,7.31-3.91,10.28c0,2,.38,3.37,1.14,4.18s2.12,1.22,4.09,1.22a14.23,14.23,0,0,0,6.56-1.91,57.15,57.15,0,0,0,7.75-5.08,113,113,0,0,0,8.64-7.37c3-2.79,5.91-5.7,8.76-8.74q11.24-11.65,16.65-20,27.24-42.18,28.87-44.08,4.17-4.56,8.39-4.56a30.37,30.37,0,0,1,7.37.79,17.91,17.91,0,0,1,5.43,2.28q5,3.07,3.08,6.89t-4.72,10.49q-24,58.4-31.08,72.8T759,277.14a165.1,165.1,0,0,1-12.42,17.64A139.26,139.26,0,0,1,731.42,311q-18.4,16.53-34.55,17.69-6.17.42-9.83-1.48-6.3-3.18-6.3-6c0-1.91,1.91-3.23,5.73-4a40.92,40.92,0,0,0,11.85-4.45A84.28,84.28,0,0,0,710.11,305q16.65-13.35,25.85-29a202,202,0,0,0,12.61-26.07l9.84-25.22q-3.66,3.7-8.07,8.69l-9.08,10.17q-11.85,12.62-19.67,17.91Q706.71,271.47,695,271.47,679.35,271.47,674.18,260.13Z"/><path class="cls-8" d="M43.42,181.91c-13.8,34.05-32,74-41.75,80.25A3.72,3.72,0,0,0,0,265.78c.11,1.63,1.09,3.16,3,4.61A9.61,9.61,0,0,0,6,272.17a11.86,11.86,0,0,0,4.2.71,14.16,14.16,0,0,0,4.56-.76,41.92,41.92,0,0,0,16.85-10.4c11.64-11.14,32-58,45.3-92.49C62.84,174.16,51.61,178.54,43.42,181.91Z"/><path class="cls-9" d="M160.06,250.14a7,7,0,0,0-2.61.54L153,252.63a19.58,19.58,0,0,1-8.1,1.4c-3.62,0-5.55-1.94-5.8-5.84q-.18-2.82,1.83-10.67c.7-2.73,16-50.24,30.75-95.77-9.1,2.17-17.83,4.36-26.12,6.56l-26.7,79.41q-2.53,7.47-4.6,14.67a41.88,41.88,0,0,0-1.6,14.24,14.5,14.5,0,0,0,2.18,6.39q5.68,9.86,18.54,9.86a37.26,37.26,0,0,0,17.5-4.34q12.57-6.5,11.94-16.13C162.76,250.89,161.82,250.14,160.06,250.14Z"/><path class="cls-10" d="M46.79,65.71q6.74,4.77,10.53,2.92L66.6,64A22.71,22.71,0,0,1,76,61.59c.34,11.07-7.73,50.92-17.37,80.11,9.07-2.93,19.52-6.15,31.35-9.56,3.68-12.42,9.12-35.47,11.07-45.86q1.41-7.36,2-13.16a59.78,59.78,0,0,0,.36-10.07,19.94,19.94,0,0,0-1.74-7.31Q98.42,49,85.64,46.43a45.59,45.59,0,0,0-7-.81q-3.86-.16-7.76-.16A54.94,54.94,0,0,0,60.2,46.87q-19,4-19.52,10.17Q40.2,61.17,46.79,65.71Z"/><path class="cls-11" d="M199,57.53q2.5-7.91,4-14.29a48.22,48.22,0,0,0,1.4-11.53q-.09-5.14-7.43-9.59a17.91,17.91,0,0,0-9.74-2.49q-9,0-10,9.1C176.07,39,164,92.61,157.59,112.6l-.71,2.14q12.19-2.86,25.42-5.74C191.31,81.17,198.37,59.37,199,57.53Z"/><path class="cls-12" d="M217.41,81.73c.15,24.94,12.13,31.5,24.9,29.2C242.31,110.93,250.93,88.22,217.41,81.73Z"/><path class="cls-13" d="M246.22,110.39l.68,0c11.34-2.16,12.89-11.35,11-22.46C239.07,96.22,246.22,110.39,246.22,110.39Z"/><path class="cls-12" d="M351,31.12a9.37,9.37,0,0,0,7.21-.3c1.76-.73,3.06-2.4,3.87-5s.8-6.07-.05-10.32l-1.13-6c-.23-.64-.47-.92-.7-.82a114.14,114.14,0,0,1-4.4,12.93A63.92,63.92,0,0,1,351,31.12Z"/><path class="cls-13" d="M350.35,30.41a74.72,74.72,0,0,0,3.59-7.22c1.13-2.4,2.9-6.26,4.3-9.43a.18.18,0,0,0-.28-.23,33.71,33.71,0,0,1-4.71,3.3c-2.45,1.56-4.26,3-5.23,4.63a5.55,5.55,0,0,0-.85,4.6A7.46,7.46,0,0,0,350.35,30.41Z"/><path class="cls-14" d="M705.18,126.33c.72,3-.29,9-2,12a1.1,1.1,0,0,1,1.51-.42C706.19,137.44,707.05,127.43,705.18,126.33Z"/><path class="cls-15" d="M662.23,139.1c2.66-2.37,2.38-10.44,1.45-11C664.4,131.16,664,136.18,662.23,139.1Z"/><path class="cls-16" d="M662.74,127.55c-.2.34-5.58-2-6.17-2.24-1.5-.61-3.48-1.78-5.19-1.42a2.41,2.41,0,0,0-.76.28,3.23,3.23,0,0,1-.42.2,1.86,1.86,0,0,1-.34,0c-1.19.09-1.89-.55-2.92-.7a10.6,10.6,0,0,0-1.49,0l-5.31.18-16,.52c4.89.26,8.63,2.47,12.74,6.21a10.79,10.79,0,0,0-4.85.95c-2.34,1.15.41,3.49,2,3.78,1,.17,1.92.37,2.89.56a14.27,14.27,0,0,1,2.92.42,38,38,0,0,0,10.72,1.08l.36,1.52c3.39.69,7.34.4,9.79.53-.36-1.52.79-3.47,1-6S661.59,129.5,662.74,127.55Z"/><path class="cls-17" d="M703.24,131.75c.21-2.5-.15-4,1-6-2.45-.13-3.74-2.21-6.19-2.35-.94-.55-.94-.55-2.45-.13-8.89,0-18.68-.51-28.11.49,5.26,1.8,8.64,2.48,14.83,4.82-2.56.19-5.6,0-8,1.16-3.53,1.67,3.71,3.37,4.74,3.61,2.82.66,5.69,1.09,8.55,1.63,1.45.28,2.91.56,4.34,1a27.6,27.6,0,0,1,3.12,1.43c1.12.45,2.7.26,3.91.43.36.05,4.12.35,4.15.48A25,25,0,0,1,703.24,131.75Z"/><path class="cls-18" d="M718,91.82,703.26,91c-9.79-.52-19.57-1-29.94-.61C661.48,84.73,650.25,78.1,638.79,74c-3.38-.69-11.66-1.64-13.17-1.22,6,4.85,12.31,11.22,18.29,16.06-21.09-.63-41.64-2.25-61.22-3.3-18.54-13.58-34-28-49.54-42.4l-14.68-.8c4.75,13.34,9.87,28.19,13.72,41a7.9,7.9,0,0,0-5.37,1.36c-24.07-.86-48-1.11-71.55-.59a29.73,29.73,0,0,0,14-7.59c2.92-2.7,4.27-4.7,4.15-6.11a1.47,1.47,0,0,0-.47-1.07,1.13,1.13,0,0,0-.92-.2h0a2.63,2.63,0,0,0-1.09.61c-5.05,4.6-9.93,7.12-14.51,7.51-5.79.49-10.94-1.56-15.32-6.11s-6.95-10.53-7.56-17.73l0-1.08,24-2,4.39-.24,4.78-.35c3-.25,4.47-1.21,4.33-2.86a16.39,16.39,0,0,0-2.09-5.21,33.59,33.59,0,0,0-3.7-5.7,20.6,20.6,0,0,0-18.22-7.6c-6.63.56-12.26,3.92-16.71,10a29.33,29.33,0,0,0-5.73,20.41c.67,7.89,3.66,14.4,8.89,19.34a23.47,23.47,0,0,0,12.18,6.31c-6.78.21-13.54.46-20.26.8q-9.81.51-19.57,1.1l17-44.95C424,38,425.4,35.94,427,35.15c1.91-.92,2.75-1.65,2.75-2.38a1.23,1.23,0,0,0-.4-.94,2,2,0,0,0-1.55-.35c-.39,0-1.17.14-2.39.33-1.43.25-4.37.57-8.74.94-2.2.18-3.77.27-4.64.27a21.39,21.39,0,0,0-2.43,0c-1.76.15-1.94,1.22-1.88,1.85s.47,1.33,2.17,1.43c4,.32,6.07,1.83,6.31,4.61.27,3.28-.48,7.39-2.25,12.21l-8.63,23L388.81,45.73a11.45,11.45,0,0,1-1.49-4.06c-.15-1.75,1.62-3,5.25-3.83,1.39-.27,2.06-.85,2-1.72A1.66,1.66,0,0,0,394,34.9a1.86,1.86,0,0,0-1.41-.3c-.53,0-1.47.19-2.9.44-1,.17-2.81.37-5.41.59a115.09,115.09,0,0,1-11.65.61,10.89,10.89,0,0,0-1.53,0c-1.89.16-2.21,1.1-2.14,1.86s.64,1.22,1.72,1.52c2.94.83,5.44,3.08,7.43,6.69l22,40.29q-9.76.62-19.46,1.33c-.2-.88-1.1-1.37-2.68-1.45h0l-3-.07c-2-.11-3.43-.61-4.12-1.5s-1.19-2.88-1.44-5.84l-3.68-43.32c-.13-1.49-.79-1.8-1.33-1.79a.33.33,0,0,0-.17,0l-3.3,1.91a68.75,68.75,0,0,1-8.76,4.86c-2.33.95-3.36,1.72-3.35,2.51a1,1,0,0,0,.34.74,3.37,3.37,0,0,0,2.51.41c2.13-.18,3.56.18,4.26,1.09s1.25,3.19,1.54,6.66l2.38,28a14,14,0,0,1-.3,5.5,4.29,4.29,0,0,1-2.46,2.48l-1.2.49A1.87,1.87,0,0,0,354.65,90l-2.24.2c0-.1,0-.2,0-.32-.13-.84-.9-1.33-2.3-1.46h0c-4.29-.34-7-1.5-8.06-3.44a21.31,21.31,0,0,1-1.87-7.87L334.05,5.09l-.11-2c-.13-1.58-.42-2.5-.9-2.88a.9.9,0,0,0-.69-.19,2.84,2.84,0,0,0-1.45.71A30.69,30.69,0,0,1,325,4.29l-3.79,1.94a30.69,30.69,0,0,1-3.86,1.55c-1.26.46-1.86,1.09-1.79,1.89a1.44,1.44,0,0,0,1.1,1.29h0a4.27,4.27,0,0,0,1.22,0h0l3.19-.4c2.53-.22,3.92,1.5,4.23,5.24l5.78,67.9a7.55,7.55,0,0,1-.57,4.34A6.83,6.83,0,0,1,327,90.5c-1.39.5-2,1.21-1.89,2.11a2.22,2.22,0,0,0,.07.31l-2.26.25a2.18,2.18,0,0,0,0-.25c0-.69-.45-1.55-2.38-1.75h0c-4.05-.37-6.79-1.12-8.17-2.23s-3.32-4.19-5.74-9.14l-1.71-3.35L271.27,8c-.65-1.35-1.4-2-2.25-1.93s-1.5.84-2,2.33l-3.15,8.94a.39.39,0,0,0,0,.28l28.59,58.07c3.16,6.49,4.86,10.91,5,13.13s-.65,3.72-2.59,4.28l-1.95.62c-1.53.44-1.8,1.24-1.75,1.83a1.55,1.55,0,0,0,.84,1.3q-10.76,1.41-21.4,3c5.53-8.56,7-15,6.55-20.69a40.07,40.07,0,0,0-3.9-13L260.41,39.8c-.4-.83-1.62-3.37-1.6-5.08a.4.4,0,0,0-.32-.43c-.32,0-.42-.07-1.43,2.56-.47,1.23-1,2.69-1.23,3.39l-1.13,3.21a17,17,0,0,0,.78,13l7.87,16a33,33,0,0,1,3.44,11.11,29.24,29.24,0,0,1-7.07,23.3,28.36,28.36,0,0,1-17.11,7.61,28.75,28.75,0,0,1-31.05-26.18c-1.34-15.78,8.36-26.62,24.14-28A27.66,27.66,0,0,1,240,60.3a8.08,8.08,0,0,0,6.34,13.83,8.45,8.45,0,0,0,6.81-5.51c.87-2.31-.28-6.64-2.11-8.32a12.92,12.92,0,0,0-4.76-2.68,27.75,27.75,0,0,0-10.85-.75c-17.7,1.5-28.82,14-27.32,31.73a32.07,32.07,0,0,0,9.4,20.1c-4.71.9-9.42,1.81-14.09,2.76-96,19.65-156.25,40.7-177.64,48.89a10,10,0,1,0,7.53,18.49c22.51-9.74,82-33.11,173.5-51.78C283.15,111.47,393.91,94.68,532,95c35.63,10.8,71.83,22.29,107.42,22.72a3.75,3.75,0,0,0,2.44.13l.58-1c19.82-1.42,40-1.36,59.81-2.78,3.32.18,6.68-.26,10,.31,2.19.38,6,.12,6.53,3,.31,1.53-1.43,3-2.67,3.61a19.73,19.73,0,0,1-4.19,1.29c-.66.14-1.34,0-2,.23,6.41-.16,13.75.24,21.68-.36C848,130.53,821.07,77.77,718,91.82Zm-281.17-55A10.71,10.71,0,0,1,445,32c3.28-.28,6.48.87,9.53,3.42s4.73,5.49,5,8.71c.12,1.41-2.42,1.93-4.57,2.11L433.53,48C433.72,43.4,434.83,39.62,436.82,36.77ZM760.35,97.14l3.38.68-1.37,4.45-2.44-.13ZM753,96.72l2.48.16-.43,5-3.38-.68Zm-8.27-1,3.38.69-.43,5-3.39-.69ZM533.3,64.24c.17-1.94.76-3.89,2.52-5a5.6,5.6,0,0,1,6.63.52,5.4,5.4,0,0,1,2.16,4.73,11.37,11.37,0,0,1-.77,3.35c-.45.68-.51,1-1.17,1.4a10,10,0,0,1-2.7,1.2,4.43,4.43,0,0,1-2.14.11,6.18,6.18,0,0,1-4.17-3.39A7.8,7.8,0,0,1,533.3,64.24Zm179,47.89c-27-1.46-55.4-2.47-82.35-3.95-16.38-.14-40.27-3.35-52.67-5.89a1,1,0,0,1,.26-2c50.44,2.63,95.55,4.16,148.94,7.05,7.92-.58,74.08,3,76.53,3.13C795.58,116.64,726.05,112.37,712.3,112.13Zm91.81-5.28c-.42.13-1.65-.42-2.13-.49-.93-.13-1.87-.24-2.8-.35-1.23-.16-2.48-.28-3.71-.45s-2.6-.66-3.9-.83a10.32,10.32,0,0,1-2.41-.64c-1.29-.5-2.51-1.17-3.8-1.77a51.71,51.71,0,0,1-5.07-2.62c-1.6-.94-2-3.49-.46-4.59,2.16-1.56,5.68-.85,8-.21a32.75,32.75,0,0,1,9.41,4.54,50.53,50.53,0,0,1,5.31,4.15C803.08,104.05,805.81,106.36,804.11,106.85Z"/><path class="cls-19" d="M716.41,115.87c-4.32-1.24-10.74-1.07-14.7-.78-19.24.45-40,1.36-58.87,3.33a9.44,9.44,0,0,1-1.49.24c-4.31.51-8.69.63-13,.83a127.64,127.64,0,0,1-16.48,0c-1.62-.13-3.34-.18-5-.15l-4.29.07c-2.8,0-5.61.06-8.41.09l-8.16.07-4.23,0a14.06,14.06,0,0,0-2.34,0c-.24.05-.77.07-.88.36-.27.67.56.38.78.41,2.84.36,5.73,1.21,8.63,1.14,6.41-.16,23,1.74,32.8,2.27,4.9,0,9.8-.32,14.7-.59,2.44-.13,4.87-.26,7.31-.35,1.19,0,2.41-.12,3.61-.09a13.61,13.61,0,0,1,2,.52,10,10,0,0,0,2.25-.1c2-.12,4-.2,6-.33,1.47-.09,2.93-.19,4.39-.32,2.59-.22,5.05.17,7.68.15,2.82,0,5.64-.07,8.47-.11,4.05-.06,8.11-.14,12.17-.18,1.88,0,4.15.32,6-.09a5.94,5.94,0,0,1,2.25-.32c.54.1.84.64,1.33.78s.54-.18,1-.26a65.78,65.78,0,0,1,6.61-.29c2-.15,4.52.07,6.47-.47C717.48,120.47,720.73,117.11,716.41,115.87Z"/><path class="cls-20" d="M540.8,68.69c1.87-.83,2.16-2.06,2.32-3.9s.3-3.74-1.51-4.81a4.09,4.09,0,0,0-5.15.5,6.71,6.71,0,0,0-1,1.15,5.39,5.39,0,0,0-.11,5.17A3.82,3.82,0,0,0,540.8,68.69Z"/></g></g></svg>