<svg xmlns="http://www.w3.org/2000/svg" viewBox="0 0 100.4 33.37"><defs><style>.cls-1{fill:#51773c;}.cls-2{fill:#752946;}.cls-3{fill:#8dc63f;}.cls-4{fill:#d0dd28;}</style></defs><g id="Layer_2" data-name="Layer 2"><g id="Layer_1-2" data-name="Layer 1"><path class="cls-1" d="M26.13,21.48h0a3.68,3.68,0,0,1-1.85-.68,7.08,7.08,0,0,1-1.16-2.24l-.33-.81L16.31,1.14C16.18.82,16,.65,15.82.65s-.36.17-.51.5l-.91,2a.09.09,0,0,0,0,.07l5.51,14.08a11.86,11.86,0,0,1,.91,3.16.85.85,0,0,1-.69.95l-.46.1c-.37.07-.45.25-.45.39s.06.39.48.39a3,3,0,0,0,.48-.06,21.53,21.53,0,0,1,2.61-.09c1.33,0,2.26,0,2.78.08l.58,0c.4,0,.49-.18.5-.33S26.58,21.57,26.13,21.48Z"/><path class="cls-1" d="M33.07,21.44h0c-1-.17-1.6-.49-1.81-1A4.84,4.84,0,0,1,31,18.61V1.24c0-.37,0-.59-.15-.69a.23.23,0,0,0-.16-.06.72.72,0,0,0-.35.14,6.79,6.79,0,0,1-1.45.72L28,1.72A6.8,6.8,0,0,1,27,2c-.3.08-.45.21-.45.4a.33.33,0,0,0,.23.32h0a1.14,1.14,0,0,0,.28,0h0l.75,0c.59,0,.88.43.88,1.3V20a1.82,1.82,0,0,1-.21,1,1.67,1.67,0,0,1-.87.49c-.33.09-.5.24-.48.45s.08.37.49.37l.58-.07c.22,0,.81-.05,1.76-.05h2.1a3.64,3.64,0,0,1,.66,0,2,2,0,0,0,.41.06.39.39,0,0,0,.31-.11.39.39,0,0,0,.09-.31C33.56,21.63,33.39,21.5,33.07,21.44Z"/><path class="cls-1" d="M39.59,21.53h0l-.69-.08A1.23,1.23,0,0,1,38,21a2.83,2.83,0,0,1-.22-1.39V9.48c0-.35-.15-.44-.28-.45h0l-.8.38a15.81,15.81,0,0,1-2.14,1c-.56.17-.82.33-.83.51a.28.28,0,0,0,.06.18.81.81,0,0,0,.58.15c.5,0,.83.11,1,.34a3.44,3.44,0,0,1,.23,1.58V19.7A3.21,3.21,0,0,1,35.32,21a1,1,0,0,1-.62.53l-.29.09a.42.42,0,0,0-.33.41c0,.13.07.36.49.36l.56-.05a3.92,3.92,0,0,1,.46,0l1.1-.06h1c.43,0,.78,0,1.05,0,.49,0,.81.07,1,.07.39,0,.48-.18.49-.33S40,21.59,39.59,21.53Z"/><path class="cls-1" d="M52,10.55c.46-.18.67-.33.68-.5a.3.3,0,0,0-.07-.23.5.5,0,0,0-.36-.11l-.56,0c-.34,0-1,0-2,0-.52,0-.89,0-1.09,0a5.13,5.13,0,0,0-.56,0c-.42,0-.48.25-.48.39s.08.32.48.38c.93.15,1.38.55,1.38,1.2a6.9,6.9,0,0,1-.77,2.8l-2.46,5.18-3.25-7.4a2.8,2.8,0,0,1-.26-1c0-.41.44-.67,1.3-.79.33,0,.49-.15.49-.36a.39.39,0,0,0-.1-.29.44.44,0,0,0-.33-.1l-.68,0c-.24,0-.66,0-1.27,0a26.89,26.89,0,0,1-2.73-.09L39,9.7c-.45,0-.54.21-.54.39s.13.29.37.38a3,3,0,0,1,1.6,1.71l4.37,9.93a.67.67,0,0,0,.63.47.64.64,0,0,0,.58-.42L50.91,11.9A2.47,2.47,0,0,1,52,10.55Z"/><path class="cls-1" d="M62,19.41a.28.28,0,0,0-.21-.07h0a.7.7,0,0,0-.26.13A6.09,6.09,0,0,1,58,20.93a4.29,4.29,0,0,1-3.45-1.73,6.62,6.62,0,0,1-1.4-4.28v-.25h5.62l1,0,1.12,0c.71,0,1.06-.2,1.06-.59a3.75,3.75,0,0,0-.38-1.25,7.37,7.37,0,0,0-.75-1.4A4.81,4.81,0,0,0,56.8,9.35a5.33,5.33,0,0,0-4.09,2A6.88,6.88,0,0,0,51,16a6.81,6.81,0,0,0,1.69,4.68,5.4,5.4,0,0,0,4.19,1.89A6.74,6.74,0,0,0,61,21c.73-.58,1.09-1,1.09-1.34A.33.33,0,0,0,62,19.41Zm-8.75-5.73a4.93,4.93,0,0,1,1-2.56,2.52,2.52,0,0,1,2-1,3,3,0,0,1,2.15,1,3,3,0,0,1,1,2.13c0,.33-.61.4-1.11.4Z"/><path class="cls-2" d="M33.45,31.54a.33.33,0,0,1-.1.24.3.3,0,0,1-.25.1H24.86a.33.33,0,0,1-.25-.1.37.37,0,0,1-.1-.24v-8.1H23v8.14a1.73,1.73,0,0,0,.24.9,1.84,1.84,0,0,0,.65.65,1.73,1.73,0,0,0,.9.24h8.35a1.78,1.78,0,0,0,.9-.24,1.84,1.84,0,0,0,.65-.65,1.73,1.73,0,0,0,.24-.9V23.44h-1.5Z"/><rect class="cls-2" x="36.43" y="23.44" width="1.49" height="9.93"/><polygon class="cls-2" points="40.93 23.42 39.44 23.42 39.44 33.37 49.37 33.37 49.37 31.88 40.93 31.88 40.93 23.42"/><path class="cls-2" d="M61.23,23.68a1.77,1.77,0,0,0-.91-.24H50.2v9.93H60.32a1.77,1.77,0,0,0,.91-.24,1.79,1.79,0,0,0,.66-.65,1.73,1.73,0,0,0,.24-.9V25.23a1.73,1.73,0,0,0-.24-.9A1.79,1.79,0,0,0,61.23,23.68Zm-.6,7.86a.37.37,0,0,1-.1.24.33.33,0,0,1-.25.1H52a.33.33,0,0,1-.24-.1.36.36,0,0,1-.09-.24V25.27a.36.36,0,0,1,.09-.24.33.33,0,0,1,.24-.1h8.26a.33.33,0,0,1,.25.1.37.37,0,0,1,.1.24Z"/><polygon class="cls-2" points="63.34 33.37 74.44 33.37 74.44 31.88 64.84 31.88 64.84 29.16 72.95 29.16 72.95 27.64 64.84 27.64 64.84 24.93 74.44 24.93 74.44 23.44 63.34 23.44 63.34 33.37"/><path class="cls-2" d="M86.54,23.7a1.66,1.66,0,0,0-.91-.25H75.51v9.92H77V29.84h5.69l3,3.54h1.74v-.28l-2.76-3.26h1a1.74,1.74,0,0,0,.91-.24,1.77,1.77,0,0,0,.9-1.55V25.24a1.75,1.75,0,0,0-.24-.89A1.79,1.79,0,0,0,86.54,23.7ZM85.94,28a.29.29,0,0,1-.1.23.32.32,0,0,1-.25.1H77.34a.33.33,0,0,1-.24-.1A.29.29,0,0,1,77,28v-2.7a.33.33,0,0,1,.1-.25.33.33,0,0,1,.24-.1h8.25a.32.32,0,0,1,.25.1.33.33,0,0,1,.1.25Z"/><path class="cls-2" d="M100.4,25.81v-.58a1.73,1.73,0,0,0-.24-.9,1.79,1.79,0,0,0-.66-.65,1.72,1.72,0,0,0-.89-.24H90.26a1.72,1.72,0,0,0-.89.24,1.79,1.79,0,0,0-.66.65,1.73,1.73,0,0,0-.24.9v2.12a1.74,1.74,0,0,0,.24.91,1.79,1.79,0,0,0,.66.65,1.64,1.64,0,0,0,.89.25h8.31a.32.32,0,0,1,.23.09.33.33,0,0,1,.1.24v2.05a.37.37,0,0,1-.1.24.29.29,0,0,1-.23.1H90.3a.34.34,0,0,1-.34-.34V31H88.47v.58a1.73,1.73,0,0,0,.24.9,1.79,1.79,0,0,0,.66.65,1.72,1.72,0,0,0,.89.24h8.35a1.72,1.72,0,0,0,.89-.24,1.79,1.79,0,0,0,.66-.65,1.73,1.73,0,0,0,.24-.9V29.45a1.73,1.73,0,0,0-.24-.9,1.9,1.9,0,0,0-.66-.66,1.73,1.73,0,0,0-.89-.25H90.3a.36.36,0,0,1-.24-.09.28.28,0,0,1-.1-.24v-2a.34.34,0,0,1,.34-.34h8.27a.29.29,0,0,1,.23.1.37.37,0,0,1,.1.24v.54Z"/><path class="cls-2" d="M21.35,28a1.17,1.17,0,0,0,.11-.33,1.47,1.47,0,0,0,0-.36v-2a1.73,1.73,0,0,0-.24-.9,1.87,1.87,0,0,0-.66-.65,1.76,1.76,0,0,0-.9-.24H15l-.26.31a8.85,8.85,0,0,1-1.19,1.18h6.13a.33.33,0,0,1,.24.1.36.36,0,0,1,.09.24v1.95a.36.36,0,0,1-.09.24.33.33,0,0,1-.24.1H11.81a.34.34,0,0,1-.34-.34v-1a11,11,0,0,1-1.49.6v6.52H20.1a1.77,1.77,0,0,0,.91-.24,1.79,1.79,0,0,0,.66-.65,1.73,1.73,0,0,0,.24-.9V29.36a1.89,1.89,0,0,0-.14-.69A4.72,4.72,0,0,0,21.35,28Zm-.94,3.59a.37.37,0,0,1-.1.24.32.32,0,0,1-.25.1H11.81a.34.34,0,0,1-.34-.34V29.4a.3.3,0,0,1,.1-.24.34.34,0,0,1,.24-.11h8.25a.33.33,0,0,1,.25.11.33.33,0,0,1,.1.24Z"/><path class="cls-1" d="M13.15,8.33a3.19,3.19,0,0,1-.27-1.21A.11.11,0,0,0,12.81,7c-.07,0-.1,0-.38.57-.14.28-.29.61-.36.77l-.32.72a4,4,0,0,0-.08,3L13.19,16a8,8,0,0,1,.58,2.65,6.84,6.84,0,0,1-2.11,5.29,6.6,6.6,0,0,1-4.13,1.43A6.72,6.72,0,0,1,.82,18.66c0-3.7,2.47-6,6.17-6a6.59,6.59,0,0,1,1,.07,1.9,1.9,0,0,0,1.21,3.35,2,2,0,0,0,1.69-1.15,2.17,2.17,0,0,0-.33-2A3,3,0,0,0,9.5,12.2,6.51,6.51,0,0,0,7,11.81c-4.15,0-7,2.7-7,6.85a7.54,7.54,0,0,0,7.53,7.53,9.13,9.13,0,0,0,6.37-3.13c1.81-2.15,2.38-3.78,2.38-5.24a9.7,9.7,0,0,0-.64-3.12Z"/><path class="cls-3" d="M7.53,24.54S10,19.42,2.31,17.25C1.85,23.05,4.51,24.82,7.53,24.54Z"/><path class="cls-4" d="M8.45,24.49s-1.39-3.44,3.15-5c.23,2.63-.31,4.74-3,5"/><path class="cls-3" d="M36.09,8.18a2.2,2.2,0,0,1-1.68-.07A15.63,15.63,0,0,0,35.72,6,27.56,27.56,0,0,0,37,3.06s.1,0,.14.2l.15,1.42a5.07,5.07,0,0,1-.19,2.4A1.72,1.72,0,0,1,36.09,8.18Z"/><path class="cls-4" d="M33.91,5.8a3.65,3.65,0,0,1,1.31-1,8.11,8.11,0,0,0,1.16-.68s.08,0,.06.06c-.39.71-.88,1.57-1.19,2.11a16.35,16.35,0,0,1-1,1.61,1.8,1.8,0,0,1-.65-1.08A1.27,1.27,0,0,1,33.91,5.8Z"/><polygon class="cls-1" points="81.57 2.52 89.67 10.63 90.93 9.37 81.57 0 74.65 6.92 75.91 8.18 81.57 2.52"/><rect class="cls-3" x="79.49" y="6.94" width="1.58" height="1.58"/><rect class="cls-3" x="82.11" y="6.94" width="1.58" height="1.58"/><rect class="cls-3" x="79.49" y="9.42" width="1.58" height="1.58"/><rect class="cls-3" x="82.11" y="9.42" width="1.58" height="1.58"/><path class="cls-2" d="M98.92,20.46H93.35V8.69L84.14,17.9v2.56h-5V13L69.87,3.75V20.46H64a.7.7,0,0,0-.7.7v1.08h8.32V8.06L72.9,9.31V22.24h1.79V11.09L77.3,13.7v8.54h8.62V21h0V18.64l2.75-2.75v6.35h1.78V14.1L91.57,13v9.25h8.06V21.17A.71.71,0,0,0,98.92,20.46Z"/></g></g></svg>