<svg xmlns="http://www.w3.org/2000/svg" viewBox="0 0 437.1 674.44"><defs><style>.cls-1{fill:#d51f26;}</style></defs><g id="Layer_2" data-name="Layer 2"><g id="Layer_1-2" data-name="Layer 1"><path class="cls-1" d="M95.63,147.85l35.14-35.14L109.69,91.62a24.85,24.85,0,1,0-35.15,35.15Z"/><rect class="cls-1" x="155.12" y="87.86" width="49.7" height="49.7" transform="translate(-26.98 160.27) rotate(-45)"/><path class="cls-1" d="M180,63.51l35.15-35.15L194,7.28a24.85,24.85,0,1,0-35.14,35.14Z"/><path class="cls-1" d="M78.06,179.48a24.85,24.85,0,0,0,35.14,35.15l17.57-17.58L95.63,161.91Z"/><rect class="cls-1" x="197.3" y="45.69" width="49.7" height="49.7" transform="translate(15.19 177.74) rotate(-45)"/><path class="cls-1" d="M359.21,123.25a24.85,24.85,0,0,0-35.15-35.14l-17.57,17.57,35.14,35.14Z"/><rect class="cls-1" x="235.95" y="89.32" width="49.7" height="39.76" transform="translate(-0.82 216.4) rotate(-45)"/><rect class="cls-1" x="193.78" y="131.49" width="49.7" height="39.76" transform="translate(-43 198.93) rotate(-45)"/><path class="cls-1" d="M281.89,45.94a24.85,24.85,0,1,0-35.14-35.15L229.18,28.36l35.14,35.15Z"/><rect class="cls-1" x="112.95" y="130.03" width="49.7" height="49.7" transform="translate(-69.16 142.81) rotate(-45)"/><path class="cls-1" d="M208.09,274.37,173,239.23,155.37,256.8a24.85,24.85,0,0,0,35.15,35.14Z"/><rect class="cls-1" x="232.44" y="165.17" width="49.7" height="49.7" transform="translate(-59.01 237.58) rotate(-45)"/><rect class="cls-1" x="274.61" y="123" width="49.7" height="49.7" transform="translate(-16.84 255.06) rotate(-45)"/><path class="cls-1" d="M362.72,176l-21.09-21.09L306.49,190l21.09,21.09A24.85,24.85,0,0,0,362.72,176Z"/><rect class="cls-1" x="151.61" y="173.66" width="49.7" height="39.76" transform="translate(-85.17 181.46) rotate(-45)"/><path class="cls-1" d="M257.29,239.23l-35.15,35.14,21.09,21.09a24.85,24.85,0,0,0,35.15-35.15Z"/><path d="M239.56,391.48c0-13.55-7.95-25-18.67-28.19V261.57l29.37-29.37-35.14-35.15L180,232.2l31,31v99.54c-11.93,2.13-21.09,14.22-21.09,28.77a4.81,4.81,0,0,1-.12,1.07L181.13,432H248.3l-8.62-39.41A4.81,4.81,0,0,1,239.56,391.48Z"/><path d="M0,480.27V468.89H115.72v11.38Zm152.12,6.51v92.74H128.53v-37L119,536.4q-11,28.68-37.29,28.68-27.7,0-50.93-34-4.89-7.33-17.93-26.44l19.73-23.39,21.35,23.45L45.56,516v4.49q0,12.45,11.38,21.83,10.58,9,23.39,9,11.39,0,14.85-14.49,1.62-6.74,1.63-23.27,0-8.78-.21-11.23-1.42-7.14-6.3-7.14-7.53,0-7.53,6.1a4.33,4.33,0,0,0,.21,1.42l.2.62,12.41,8.33-22,16.07L54.5,511.59l10.2-8.13q3.67-21.36,23.45-21.36,19.17,0,27.13,11.39Q122,503.06,122,523l6.52,3.46V486.78l-14.44-9.35,26.24-19.94,27,19.94Z"/><path d="M204.19,486.78v92.74H180.6V486.78l-13.83-9.35,24.6-19.94,26.85,19.94Z"/><path d="M211.91,480.68V468.89h45.56v11.79ZM335.58,509q-.82,24.19-16.28,41.88Q303,569.77,279.44,569.76q-41.9,0-52.89-55.32L216,504.68,239.16,488l23,18.1-13,10.37q3.66,41.09,30.91,41.09,12.4,0,21.15-11a46.74,46.74,0,0,0,9.56-22.77Q300,529.89,290,529.9q-21.57,0-21.76-29.58V488.7l-12.82-11.63,23.8-18.35,26.64,18.16-12.81,11.84V513a20.36,20.36,0,0,0,.2,2.44l1.63.62q7.75-.42,15.71-8.22l-11.18-7.49,22.92-17,24.37,16.86Zm-53.1,101.87L260,592.62l22.7-17.72,22.47,17.69Zm20.75-131.38V468.89h48.6v10.57Z"/><path d="M436.84,575.65l-1,2.45-14,13.62-24.2-13L409,569.56l.41-5.29q.81-11-16.27-20.54-13.23-5.9-26.65-12Q351,521.56,351,503.26q0-37,44.13-37,38.85,0,38.84,28.88,0,13-9.15,20.34-8.34,6.91-21.76,6.91-16.87,0-25.62-23.59l15.45-12.2,17.49,11.59-11.81,9.33a5.48,5.48,0,0,0,5.29,3.48q8.36,0,8.35-13.91a20.24,20.24,0,0,0-4.67-13.51A15.47,15.47,0,0,0,395.15,478q-21,0-20.95,25.18,0,16,16.6,25.2,8.76,4.43,30.79,16.32,16.47,9.36,15.46,27.26Z"/><path d="M35.23,639.21h7.23v34.28H35.23v-6.82q-5.28,7.77-13.09,7.77a15,15,0,0,1-11.58-5.32,18.58,18.58,0,0,1-4.8-12.92,18.24,18.24,0,0,1,4.84-12.57A14.85,14.85,0,0,1,22,638.25a14.45,14.45,0,0,1,7.65,2.2,15.66,15.66,0,0,1,5.61,5.74Zm1,17.24a10.91,10.91,0,0,0-3.37-8,11.33,11.33,0,0,0-16.07,0,10.58,10.58,0,0,0-3.41,7.81,11.39,11.39,0,0,0,3.33,8.27,10.88,10.88,0,0,0,8.08,3.41,11,11,0,0,0,8.07-3.39A11,11,0,0,0,36.22,656.45Z"/><path d="M61.36,639.21v7.06a21.94,21.94,0,0,1,4.72-6.13,9.18,9.18,0,0,1,6-1.89,13.31,13.31,0,0,1,3,.5L72.88,646a17.84,17.84,0,0,0-2.75-.42A8.2,8.2,0,0,0,64,648.12a8.8,8.8,0,0,0-2.47,6.38v19H54.3V639.21Z"/><path d="M109.69,639.21h7.23v34.28h-7.23v-6.82q-5.28,7.77-13.09,7.77A15,15,0,0,1,85,669.12a18.58,18.58,0,0,1-4.8-12.92,18.2,18.2,0,0,1,4.84-12.57,14.85,14.85,0,0,1,11.37-5.38,14.44,14.44,0,0,1,7.64,2.2,15.66,15.66,0,0,1,5.61,5.74Zm1,17.24a10.91,10.91,0,0,0-3.37-8,11.33,11.33,0,0,0-16.07,0,10.55,10.55,0,0,0-3.42,7.81,11.36,11.36,0,0,0,3.34,8.27,10.87,10.87,0,0,0,8.07,3.41,11.54,11.54,0,0,0,11.45-11.43Z"/><path d="M130.1,629.23h7.23v10h7.14v6.6h-7.14v27.68H130.1V645.81h-5.7v-6.69h5.7Z"/><path d="M152,619.55h7.15V646q4.62-7.74,13.22-7.73a15.16,15.16,0,0,1,11.53,5.32,18,18,0,0,1,4.88,12.63,18.75,18.75,0,0,1-4.8,12.78q-4.8,5.46-11.2,5.46a15,15,0,0,1-7.81-2.2,15.91,15.91,0,0,1-5.82-6v7.23H152Zm29.13,36.65a10.94,10.94,0,0,0-3.36-8,11.15,11.15,0,0,0-8.15-3.35,11.41,11.41,0,0,0-8,19.52,11.5,11.5,0,0,0,8.34,3.3,10.63,10.63,0,0,0,7.87-3.37A11.1,11.1,0,0,0,181.08,656.2Z"/><path d="M213.5,666.42h20.15v7.07H197.5l27-28.68a10.61,10.61,0,0,0,3-7.31,11.58,11.58,0,0,0-3.2-8.14,9.94,9.94,0,0,0-7.52-3.45,11.21,11.21,0,0,0-6.71,2.28,11,11,0,0,0-4.09,7.07h-7q1-7.82,6.18-12.16a18.11,18.11,0,0,1,12.07-4.34,16.1,16.1,0,0,1,12.09,5.47,18.25,18.25,0,0,1,5.15,12.95,16.51,16.51,0,0,1-1.3,6.63,24.13,24.13,0,0,1-4.62,6.55Z"/><path d="M245.87,619.55H253V646q4.6-7.74,13.21-7.73a15.15,15.15,0,0,1,11.53,5.32,18,18,0,0,1,4.88,12.63A18.78,18.78,0,0,1,277.85,669q-4.82,5.46-11.2,5.46a15,15,0,0,1-7.82-2.2,15.88,15.88,0,0,1-5.81-6v7.23h-7.15ZM275,656.2a10.91,10.91,0,0,0-3.37-8,11.13,11.13,0,0,0-8.14-3.35,11.41,11.41,0,0,0-8,19.52,11.47,11.47,0,0,0,8.33,3.3,10.62,10.62,0,0,0,7.87-3.37A11.07,11.07,0,0,0,275,656.2Z"/><path d="M288.75,668.63a5.44,5.44,0,0,1,1.64-4,5.6,5.6,0,1,1,4,9.56,5.46,5.46,0,0,1-4-1.62A5.4,5.4,0,0,1,288.75,668.63Z"/><path d="M334.38,663v8.27a21.64,21.64,0,0,1-10.72,3.15,18.26,18.26,0,0,1-17.79-17.7,17.84,17.84,0,0,1,5.32-13.23,18.19,18.19,0,0,1,13.34-5.26,22.27,22.27,0,0,1,9.85,2.49v8.06q-5.44-3.48-10.31-3.49a11.13,11.13,0,0,0-7.85,3.16,9.86,9.86,0,0,0-3.37,7.4,11.12,11.12,0,0,0,3.16,8,10.36,10.36,0,0,0,7.73,3.26Q328.39,667.17,334.38,663Z"/><path d="M339.49,656.2A17.09,17.09,0,0,1,345,643.71a17.65,17.65,0,0,1,12.74-5.46,17.91,17.91,0,0,1,12.92,5.38,17,17,0,0,1,5.53,12.57,17.61,17.61,0,0,1-5.43,12.74,17.07,17.07,0,0,1-12.53,5.5A18.27,18.27,0,0,1,345.08,669,17.28,17.28,0,0,1,339.49,656.2Zm29.75,0a10.26,10.26,0,0,0-3.32-7.6,11,11,0,0,0-7.9-3.22,11.26,11.26,0,0,0-8.08,3.26,10.48,10.48,0,0,0-3.38,7.81,10.15,10.15,0,0,0,3.42,7.58,11.35,11.35,0,0,0,8,3.25,10.81,10.81,0,0,0,7.86-3.33A10.59,10.59,0,0,0,369.24,656.22Z"/><path d="M383.29,673.49V639.21h7.15v5.27a20.78,20.78,0,0,1,4.84-4.73,9.5,9.5,0,0,1,5.3-1.5,9.92,9.92,0,0,1,6.13,1.7,12.88,12.88,0,0,1,3.76,5.45A22.16,22.16,0,0,1,415.7,640a10.27,10.27,0,0,1,5.86-1.7,9.49,9.49,0,0,1,7.05,3,10.07,10.07,0,0,1,3,7.26v24.93h-7.23V650.43q0-5.7-5.63-5.7a6.64,6.64,0,0,0-5.44,2.91,11.46,11.46,0,0,0-2.23,7.19v18.66h-7.23V651.38q0-6.74-5.53-6.73a7,7,0,0,0-5.57,2.74,10.25,10.25,0,0,0-2.28,6.77v19.33Z"/></g></g></svg>