<svg xmlns="http://www.w3.org/2000/svg" viewBox="0 0 3358.93 788.86"><defs><style>.cls-1{fill:#414042;}.cls-2{fill:#8dc640;}.cls-3{fill:#006937;}</style></defs><g id="Layer_2" data-name="Layer 2"><g id="Layer_1-2" data-name="Layer 1"><path class="cls-1" d="M0,260.73H417.37a87.4,87.4,0,0,1,88,88V461a80.08,80.08,0,0,1-2.57,20.17,95.61,95.61,0,0,1-7,18.7q16.13,24.21,24.21,41.81a85.65,85.65,0,0,1,8.07,36V700.84a87.39,87.39,0,0,1-88,88H0ZM88,489.58H417.37a26.35,26.35,0,0,0,19.81-8.43A28.16,28.16,0,0,0,445.25,461V348.75a28.21,28.21,0,0,0-8.07-20.17,26.39,26.39,0,0,0-19.81-8.44H88a28.8,28.8,0,0,0-28.6,28.61V461A28.78,28.78,0,0,0,88,489.58Zm0,239.87H440.11a28.8,28.8,0,0,0,28.61-28.61V577.61A28.8,28.8,0,0,0,440.11,549H88a28.8,28.8,0,0,0-28.6,28.61V700.84A28.8,28.8,0,0,0,88,729.45Z"/><path class="cls-1" d="M588,284.2V224.05H648.1V284.2Zm0,504.66V363.42H648.1V788.86Z"/><path class="cls-1" d="M713.33,788.86V706.71l367.5-283.14H713.33V363.42h433.51v82.16L779.35,728.71h367.49v60.15Z"/><path class="cls-2" d="M1797.27,776.76A92.56,92.56,0,0,1,1765,744.48a84.6,84.6,0,0,1-12.1-44.37V452.18A84.63,84.63,0,0,1,1765,407.8a92.73,92.73,0,0,1,32.28-32.28,84.6,84.6,0,0,1,44.37-12.1H2096.9q24.95,0,45.12,12.1a92.9,92.9,0,0,1,32.28,32.28,84.72,84.72,0,0,1,12.09,44.38V700.11a84.68,84.68,0,0,1-12.09,44.37A92.73,92.73,0,0,1,2142,776.76q-20.19,12.11-45.12,12.1H1841.64A84.6,84.6,0,0,1,1797.27,776.76Zm44.37-48H2096.9a28.78,28.78,0,0,0,28.61-28.6V452.18a28.78,28.78,0,0,0-28.61-28.61H1841.64a28.78,28.78,0,0,0-28.6,28.61V700.11a28.78,28.78,0,0,0,28.6,28.6Z"/><path class="cls-2" d="M2290.92,776.76a92.56,92.56,0,0,1-32.28-32.28,84.69,84.69,0,0,1-12.1-44.37V224.05h60.15V700.11a28.8,28.8,0,0,0,28.61,28.6h71.89v60.15H2335.3A84.63,84.63,0,0,1,2290.92,776.76Z"/><path class="cls-2" d="M2603.6,788.86,2368.87,363.42h70.42l199.52,366.76,199.52-366.76h70.41L2673.28,788.86Z"/><path class="cls-2" d="M2969.81,776.76a92.56,92.56,0,0,1-32.28-32.28,84.6,84.6,0,0,1-12.1-44.37V452.18a84.63,84.63,0,0,1,12.1-44.38,92.73,92.73,0,0,1,32.28-32.28,84.57,84.57,0,0,1,44.37-12.1h255.26q24.93,0,45.12,12.1a92.78,92.78,0,0,1,32.27,32.28,84.63,84.63,0,0,1,12.1,44.38v154H2985.58v93.9a28.78,28.78,0,0,0,28.6,28.6h344.75v60.15H3014.18A84.57,84.57,0,0,1,2969.81,776.76Zm15.77-230.69h312.47V452.18a28.78,28.78,0,0,0-28.61-28.61H3014.18a28.78,28.78,0,0,0-28.6,28.61Z"/><path class="cls-2" d="M1666.54,462.8a29.17,29.17,0,0,0,29.17-29.16V330.75a66.31,66.31,0,0,0-66.32-66.31H1226.47a27,27,0,0,0-27,27V524.79a27,27,0,0,0,27,27h415.2V705.43A25.67,25.67,0,0,1,1616,731.1H1253.49V585.73h-24.87a29.17,29.17,0,0,0-29.17,29.16V758.12a27,27,0,0,0,27,27h402.91a66.33,66.33,0,0,0,66.33-66.32v-194a27,27,0,0,0-27-27h-415.2V318.47h362.59a25.59,25.59,0,0,1,25.59,25.6V462.8Z"/><rect class="cls-3" x="1463.43" y="581.08" width="49.04" height="121.25"/><rect class="cls-3" x="1382.69" y="581.08" width="49.04" height="121.25"/><path class="cls-3" d="M1571.92,581.08h-27.75V702.33h27.75a19.85,19.85,0,0,0,19.84-19.85V600.93A19.84,19.84,0,0,0,1571.92,581.08Z"/><rect class="cls-3" x="1303.4" y="581.08" width="47.6" height="121.25"/><rect class="cls-3" x="1463.43" y="347.66" width="49.04" height="121.25"/><rect class="cls-3" x="1382.69" y="347.66" width="49.04" height="121.25"/><path class="cls-3" d="M1571.92,347.66h-27.75V468.91h27.75a19.85,19.85,0,0,0,19.84-19.85V367.5A19.84,19.84,0,0,0,1571.92,347.66Z"/><rect class="cls-3" x="1303.4" y="347.66" width="47.6" height="121.25"/><path class="cls-3" d="M1429.41,188.55V0a233.22,233.22,0,0,0-132.29,56.27Z"/><path class="cls-3" d="M1399.58,218.38,1267.85,86.65a233,233,0,0,0-51.1,131.73Z"/><path class="cls-3" d="M1471.59,0V188.55L1603.87,56.27A233.22,233.22,0,0,0,1471.59,0Z"/><path class="cls-3" d="M1501.41,218.38h182.84a233.18,233.18,0,0,0-51.1-131.73Z"/></g></g></svg>