<svg xmlns="http://www.w3.org/2000/svg" xmlns:xlink="http://www.w3.org/1999/xlink" viewBox="0 0 442.19 123.08"><defs><style>.cls-1,.cls-4{fill:#414042;}.cls-1{fill-rule:evenodd;}.cls-2,.cls-3{fill:#8dc63f;}.cls-3{font-size:22px;font-family:Poppins-SemiBold, Poppins;font-weight:600;letter-spacing:0.04em;}.cls-5{fill:url(#radial-gradient);}.cls-6{fill:#4fc6e0;}.cls-7{fill:#8a8c8e;}</style><radialGradient id="radial-gradient" cx="33.67" cy="24.42" r="25.7" gradientUnits="userSpaceOnUse"><stop offset="0" stop-color="#ffc40c"/><stop offset="1" stop-color="#f58020"/></radialGradient></defs><g id="Layer_2" data-name="Layer 2"><g id="Layer_1-2" data-name="Layer 1"><path class="cls-1" d="M221.13,53.36c4.66-7.44,12.5-11.1,17.49-11.1l-24.31.11L214.09,0c.11,23.85-11.78,39.94-23.09,42.6l-19.64.11c6.55,0,14.53,5.32,15,10.87l4.65-.11.23,32.16h23.31l-.11-32.27Z"/><path class="cls-1" d="M334,46a18.61,18.61,0,0,1-11.82-3.77l.22,43.39h23.42l-.33-43.5C342.64,44.46,339.46,46,334,46Z"/><path class="cls-1" d="M147.14,47v-4l-21.87.11.33,42.47h21.54l-.22-30.83c.55-4.44,14.53-5.77,14.75-.11l.11,30.94h22.56l-.11-28.72C184.23,42.82,157.12,39.72,147.14,47Z"/><path class="cls-1" d="M304.68,41.93l-21.76.22.22,43.48h21.54l-.11-25.51c.33-3.66,6.43-7.76,14.64-4.54V41.93c-6.21,0-11.09,1.56-14.42,4Z"/><path class="cls-1" d="M427.66,41.93l-21.76.22.23,43.48h21.54l-.12-25.51c.34-3.66,6.44-7.76,14.64-4.54V41.93c-6.21,0-11.09,1.56-14.42,4Z"/><path class="cls-1" d="M251,42.15h-.11c-18.42,0-29.53,9.87-29.42,21.85S232.54,85.64,251,85.64h.22c11.54-.11,17.65-4.1,23.64-10.1l-8.32.12h.23c-5,3.43-8.34,5.54-15.66,5.54H251a54.66,54.66,0,0,1-6-.44V71h6l27.74-.11a14.08,14.08,0,0,0,1.89-7.22C280.59,51.69,269.48,42,251,42.15Zm0,24.74h-6l-.11-20a33.67,33.67,0,0,1,6.1-.44,46.72,46.72,0,0,1,6,.33l.1,20Z"/><path class="cls-1" d="M375.71,38.05c-16.86.11-26.64,11.43-26.53,25.18S359.07,88.08,376,88s26.65-11.43,26.54-25.18S392.68,37.94,375.71,38.05ZM375.82,81c-2.55.11-7-8-7.07-17.75s4.3-17.86,6.85-17.86,6.89,8,7,17.86S378.37,81,375.82,81Z"/><path class="cls-2" d="M334.2,43.53c-7.35,0-13.32-5.25-13.32-11.71s6-11.72,13.32-11.72,13.31,5.26,13.31,11.72S341.54,43.53,334.2,43.53Z"/><path class="cls-1" d="M108.92,46a18.66,18.66,0,0,1-11.83-3.77l.23,43.39h23.42l-.33-43.5A16.64,16.64,0,0,1,108.92,46Z"/><path class="cls-2" d="M109.08,43.53c-7.34,0-13.31-5.25-13.31-11.71s6-11.72,13.31-11.72,13.32,5.26,13.32,11.72S116.42,43.53,109.08,43.53Z"/><text class="cls-3" transform="translate(95.13 108.53)">INTELLIGENT INTERIOR @ PRO</text><path class="cls-4" d="M55.53,101.08H43.42V69.77A22.62,22.62,0,0,1,66,47.17V59.28A10.51,10.51,0,0,0,55.53,69.77Z"/><path class="cls-4" d="M35.69,101.08H23.58V69.77A10.51,10.51,0,0,0,13.09,59.28V47.17a22.63,22.63,0,0,1,22.6,22.6Z"/><circle class="cls-5" cx="39.55" cy="34.72" r="15.16"/><path class="cls-6" d="M63.46.4H15.65A15.66,15.66,0,0,0,0,16v3.55H6.11V16a9.55,9.55,0,0,1,9.54-9.53H63.46A9.55,9.55,0,0,1,73,16v3.55H79.1V16A15.65,15.65,0,0,0,63.46.4Z"/><path class="cls-2" d="M63.46,117h-2v6.11h2A15.65,15.65,0,0,0,79.1,107.44V24.32H73v83.12A9.55,9.55,0,0,1,63.46,117Z"/><path class="cls-2" d="M15.65,123.08h2V117h-2a9.55,9.55,0,0,1-9.54-9.53V24.32H0v83.12A15.66,15.66,0,0,0,15.65,123.08Z"/><path class="cls-7" d="M44.87,13.09H34.23c-1,0-1.85-.57-1.85-1.27h0c0-.71.83-1.28,1.85-1.28H44.87c1,0,1.86.57,1.86,1.28h0C46.73,12.52,45.9,13.09,44.87,13.09Z"/><rect class="cls-4" x="22.35" y="116.97" width="33.46" height="6.11"/><path class="cls-6" d="M42.92,110.84a9.15,9.15,0,0,1-.39,2.54.25.25,0,0,1-.36.18.26.26,0,0,1-.13-.3c.06-.24.13-.47.19-.71a8.19,8.19,0,0,0,.16-2.37,3.17,3.17,0,0,0-.48-1.53,2.81,2.81,0,0,0-2.16-1.31,2.88,2.88,0,0,0-3,2.15c0,.07,0,.14,0,.21a.25.25,0,0,1-.3.23.25.25,0,0,1-.2-.31,2.89,2.89,0,0,1,.3-.9A3.31,3.31,0,0,1,39,106.87a3.36,3.36,0,0,1,3.63,2,3.46,3.46,0,0,1,.29,1.22C42.89,110.34,42.91,110.59,42.92,110.84Z"/><path class="cls-6" d="M40.83,110.74a6.82,6.82,0,0,1-1.07,3.74.26.26,0,0,1-.27.16.26.26,0,0,1-.16-.41c.17-.32.36-.64.51-1a5.93,5.93,0,0,0,.48-2.69,3.55,3.55,0,0,0-.06-.57.79.79,0,0,0-1.55.18c0,.23,0,.45,0,.67A4.64,4.64,0,0,1,37.56,114a.26.26,0,0,1-.36,0,.25.25,0,0,1,0-.37,4.22,4.22,0,0,0,1-3.32,1.27,1.27,0,0,1,1-1.35,1.29,1.29,0,0,1,1.57,1.17C40.81,110.36,40.82,110.59,40.83,110.74Z"/><path class="cls-6" d="M39.68,107.88a2.22,2.22,0,0,1,1.87,1.23.24.24,0,0,1,0,.31.23.23,0,0,1-.28.06.33.33,0,0,1-.13-.13,1.76,1.76,0,0,0-1.43-1,1.8,1.8,0,0,0-2,1.51,2.66,2.66,0,0,0,0,.63,3.8,3.8,0,0,1-.28,1.73,3.88,3.88,0,0,1-.64,1,.23.23,0,0,1-.07.07.26.26,0,0,1-.35,0,.27.27,0,0,1,0-.36,2.8,2.8,0,0,0,.52-.75,3.34,3.34,0,0,0,.31-1.79,2.28,2.28,0,0,1,1.16-2.25A2.4,2.4,0,0,1,39.68,107.88Z"/><path class="cls-6" d="M39.61,106.28a4,4,0,0,0-3.09,1.38.27.27,0,0,1-.28.11.26.26,0,0,1-.19-.21.27.27,0,0,1,.08-.22,4.4,4.4,0,0,1,2.25-1.41,4.32,4.32,0,0,1,3.56.6.25.25,0,0,1,0,.45.25.25,0,0,1-.27,0,3.65,3.65,0,0,0-1.33-.57C40.06,106.33,39.78,106.3,39.61,106.28Z"/><path class="cls-6" d="M41.86,110.83a7.71,7.71,0,0,1-.78,3.41c-.09.19-.27.25-.41.13a.23.23,0,0,1-.05-.32,8.24,8.24,0,0,0,.54-1.51,6.88,6.88,0,0,0,.19-2.12.27.27,0,0,1,.23-.28.26.26,0,0,1,.28.24v.45Z"/><path class="cls-6" d="M44,110.24c0,.07,0,.19,0,.3a.26.26,0,0,1-.27.24.24.24,0,0,1-.23-.27,4,4,0,0,0-.82-2.68c0-.06-.09-.11-.13-.16a.25.25,0,0,1,0-.38.26.26,0,0,1,.37,0,4.17,4.17,0,0,1,.64,1A4.56,4.56,0,0,1,44,110.24Z"/><path class="cls-6" d="M35.08,110.21a4.42,4.42,0,0,1,.37-1.79.25.25,0,1,1,.46.2,3.71,3.71,0,0,0-.26.86,4,4,0,0,0,0,1.51c0,.17,0,.28-.13.33a.24.24,0,0,1-.35-.19c0-.3-.08-.61-.12-.91Z"/><path class="cls-6" d="M39.8,110.84a6.06,6.06,0,0,1-.16,1.28.25.25,0,0,1-.31.21.26.26,0,0,1-.18-.32,5.21,5.21,0,0,0,.1-1.76.25.25,0,1,1,.5-.07C39.77,110.4,39.78,110.62,39.8,110.84Z"/><path class="cls-6" d="M36.65,111a2.53,2.53,0,0,1-.56,1.48.25.25,0,1,1-.39-.3,2.09,2.09,0,0,0,.44-1.09,1.21,1.21,0,0,0,0-.19.26.26,0,0,1,.26-.26.25.25,0,0,1,.24.27Z"/><path class="cls-6" d="M38.35,114.48a.23.23,0,0,1-.21-.14.24.24,0,0,1,0-.28c.13-.19.27-.38.39-.58s.14-.26.21-.39a.24.24,0,0,1,.34-.13.26.26,0,0,1,.12.35,5.53,5.53,0,0,1-.66,1.06A.27.27,0,0,1,38.35,114.48Z"/></g></g></svg>