<svg xmlns="http://www.w3.org/2000/svg" viewBox="0 0 438.46 223"><defs><style>.cls-1{fill:#ed1c24;}.cls-2{fill:#0b9444;}</style></defs><g id="Layer_2" data-name="Layer 2"><g id="Layer_1-2" data-name="Layer 1"><rect class="cls-1" y="174" width="49" height="49"/><rect class="cls-1" x="58" y="174" width="49" height="49"/><rect class="cls-1" x="116" y="174" width="49" height="49"/><rect class="cls-1" x="174" y="174" width="49" height="49"/><rect class="cls-1" x="58" y="116" width="49" height="49"/><rect class="cls-1" x="116" y="116" width="49" height="49"/><rect class="cls-1" x="174" y="116" width="49" height="49"/><rect class="cls-1" x="116" y="58" width="49" height="49"/><rect class="cls-1" x="174" y="58" width="49" height="49"/><rect class="cls-1" x="174" width="49" height="49"/><path class="cls-2" d="M232,6.22h41.51V17.38H259.23v83.51H246.72V17.38H232Z"/><path class="cls-2" d="M280.57,6.22h33.9V17H293.32V47h18.76V57.78H293.32V90.1h21.15v10.79h-33.9Z"/><path class="cls-2" d="M339.68,6.22h9.93l20.3,94.67H357.27l-3.55-18.46H335l-3.61,18.46H319.07Zm12.2,66.34-2.82-15.08q-2.82-15.39-4.6-32.87-.85,8.52-2.21,17.26t-3.19,18.55l-2.33,12.14Z"/><path class="cls-2" d="M381.86,6.22h10.92l8.34,38.63q1.53,7.23,2.79,14.5t2.3,15.24c.08-.7.14-1.24.18-1.63a7.17,7.17,0,0,1,.12-.83l1.78-10.85,1.6-10.3,1.41-6.81,7.42-37.95h11l8.71,94.67h-12.2l-2.15-32.13q-.12-2.45-.21-4.23c-.06-1.18-.09-2.17-.09-2.94l-.56-12.7L423,37.24c0-.08,0-.25,0-.52s-.06-.62-.1-1.07l-.3,1.9q-.5,3.38-.89,5.89c-.27,1.67-.5,3.08-.71,4.23l-1.59,8.64-.61,3.25-8,41.33h-8.58L394.68,65.2q-1.53-7.05-2.73-14.31t-2.18-15.24l-3.68,65.24h-12Z"/><path class="cls-2" d="M252.6,122.33h9.94L282.83,217H270.2l-3.55-18.46H247.88L244.26,217H232Zm12.21,66.34L262,173.59q-2.82-15.39-4.6-32.87-.87,8.52-2.21,17.26T252,176.53l-2.33,12.14Z"/><path class="cls-2" d="M289.38,122.33h12.76v83.88H323V217H289.38Z"/><path class="cls-2" d="M331.27,122.33H344V217H331.27Z"/><path class="cls-2" d="M351.38,122.33H364l5.71,35,1,6.31,2,13.74c.33,2.33.62,4.45.89,6.38s.5,3.65.71,5.21l.61,4.66c.12-.94.22-1.78.31-2.52s.16-1.34.24-1.84l1.66-11,2.14-14.41c.21-1.31.4-2.52.59-3.62s.35-2.08.52-2.94l6.13-34.95h11.89L379.78,217H369.66Z"/><path class="cls-2" d="M404.52,122.33h33.9v10.79H417.27v30H436v10.79H417.27v32.32h21.15V217h-33.9Z"/></g></g></svg>